<?xml version="1.0" standalone="no"?>
<!DOCTYPE svg PUBLIC "-//W3C//DTD SVG 1.1//EN" "http://www.w3.org/Graphics/SVG/1.1/DTD/svg11.dtd" >
<svg xmlns="http://www.w3.org/2000/svg" xmlns:xlink="http://www.w3.org/1999/xlink" version="1.1">
<metadata></metadata>
<defs>
<font id="old_standard_ttregular" horiz-adv-x="1187" >
<font-face units-per-em="2048" ascent="1561" descent="-487" />
<missing-glyph horiz-adv-x="573" />
<glyph horiz-adv-x="0" />
<glyph unicode="&#xd;" horiz-adv-x="573" />
<glyph horiz-adv-x="0" />
<glyph horiz-adv-x="0" />
<glyph unicode=" "  horiz-adv-x="573" />
<glyph unicode="&#x09;" horiz-adv-x="573" />
<glyph unicode="&#xa0;" horiz-adv-x="573" />
<glyph unicode="!" horiz-adv-x="573" d="M160 102q0 55 35.5 91t91.5 36q55 0 91 -35.5t36 -91.5q0 -55 -36 -91t-91 -36q-56 0 -91.5 36t-35.5 91zM160 1274q0 68 34.5 107.5t92.5 39.5q57 0 92 -40t35 -107q0 -111 -35 -303q-29 -154 -35 -242l-33 -410h-49l-33 410q-6 88 -34 242q-35 193 -35 303z" />
<glyph unicode="&#x22;" horiz-adv-x="806" d="M176 1401q0 47 19.5 70.5t50.5 23.5t50 -23.5t19 -70.5l-4 -37l-41 -299h-49l-41 299zM492 1401q0 47 19 70.5t50 23.5t50.5 -23.5t19.5 -70.5l-4 -37l-41 -299h-49l-41 299z" />
<glyph unicode="#" horiz-adv-x="1400" d="M166 401v82h248l73 439h-321v82h334l59 397h90l-61 -397h299l61 397h90l-61 -397h272v-82h-282l-70 -439h346v-82h-362l-62 -401h-90l62 401h-297l-64 -401h-90l63 401h-237zM504 483h303l70 439h-299z" />
<glyph unicode="$" d="M127 338q0 72 49 121q37 37 90 37q33 0 62 -25q25 -25 24 -65q0 -35 -14 -61t-59 -75q-25 -25 -25 -67q0 -53 55.5 -97.5t157.5 -62.5v639l-12 4q-141 55 -210 150.5t-69 224.5t75 227t216 131v133h65v-122q41 4 66 4q33 0 49 -2v120h66v-129q150 -27 232.5 -119 t82.5 -206q0 -45 -6 -78t-23 -62q-14 -25 -39.5 -39t-56.5 -14q-23 0 -37 6.5t-30 22.5q-18 23 -19 51q0 37 17.5 63.5t42.5 49.5q20 18 31.5 37.5t11.5 54.5q0 47 -52.5 97t-154.5 71v-582l41 -16q129 -51 199.5 -152.5t70.5 -224.5q0 -147 -81 -259t-230 -144v-152h-66 v141q-16 -2 -49 -2q-45 0 -66 2v-141h-65v149q-160 29 -250 122.5t-90 238.5zM274 1106q0 -88 38 -137t143 -90l12 -5v478q-98 -29 -145.5 -97.5t-47.5 -148.5zM532 35q20 -2 66 -2q33 0 49 2v575l-115 45v-620zM532 848l115 -45v563q-16 2 -49 2q-25 0 -66 -4v-516zM713 47 q106 29 163.5 105.5t57.5 164.5q0 106 -43 158.5t-137 91.5l-41 17v-537z" />
<glyph unicode="%" horiz-adv-x="1761" d="M197 1065q0 102 35.5 187t98 133.5t140.5 48.5t142.5 -48.5t100.5 -133.5t36 -187t-36 -186t-100.5 -131.5t-142.5 -47.5t-141.5 47.5t-98 131.5t-34.5 186zM328 1065q0 -156 27.5 -240t115.5 -84q90 0 118.5 85t28.5 239t-29.5 241t-117.5 87t-115.5 -86t-27.5 -242z M406 -37l872 1475h74l-873 -1475h-73zM1012 332q0 102 35.5 187t98 133t140.5 48t142.5 -48t100.5 -133t36 -187t-36 -186.5t-100.5 -131.5t-142.5 -47t-141.5 47t-98 131t-34.5 187zM1143 332q0 -156 27.5 -240t115.5 -84q90 0 119 85t29 239t-30 240.5t-118 86.5 t-115.5 -86t-27.5 -241z" />
<glyph unicode="&#x26;" horiz-adv-x="1609" d="M111 297q0 117 86 219t204 193l62 47l-21 30q-49 74 -77.5 153t-28.5 146q0 102 44 183.5t115.5 126.5t155.5 45q119 0 179.5 -75t60.5 -177q0 -115 -66.5 -201t-187.5 -182l352 -500l8 10q72 88 119 190.5t47 162.5q0 37 -23.5 59.5t-56.5 22.5h-92v65h508v-65h-63 q-55 0 -97.5 -20.5t-78.5 -96.5q-80 -162 -128.5 -241t-101.5 -144q72 -100 122 -147.5t99 -47.5q76 0 121 43t78 113l33 -16q-43 -92 -105.5 -161t-173.5 -69q-143 0 -291 166q-84 -74 -187 -120t-216 -46q-186 0 -292.5 84t-106.5 250zM307 313q0 -96 36 -160.5t88 -96 t104 -31.5q171 -1 335 153l-36 47l-330 473l-21 -16q-78 -61 -127 -148.5t-49 -220.5zM467 1147q0 -66 35 -135.5t73 -120.5l21 -27q96 74 158.5 150t62.5 186q0 72 -47 125t-117 53q-84 0 -135 -64.5t-51 -166.5z" />
<glyph unicode="'" horiz-adv-x="491" d="M176 1401q0 47 19.5 70.5t50.5 23.5t50 -23.5t19 -70.5l-4 -37l-41 -299h-49l-41 299z" />
<glyph unicode="(" horiz-adv-x="757" d="M201 545q0 289 109.5 535.5t291.5 414.5l62 -49q-182 -190 -271.5 -413.5t-89.5 -487.5t89 -487.5t272 -413.5l-62 -50q-182 168 -291.5 415t-109.5 536z" />
<glyph unicode=")" horiz-adv-x="757" d="M98 -356q182 190 271.5 413.5t89.5 487.5t-89 487t-272 414l62 49q182 -168 291.5 -414.5t109.5 -535.5t-109.5 -536t-291.5 -415z" />
<glyph unicode="*" horiz-adv-x="1028" d="M147 842q0 45 37 66.5t101 29.5q76 10 151 53q4 2 12.5 8.5t8.5 14.5t-8.5 14t-12.5 8q-76 43 -151 54q-63 8 -100.5 29.5t-37.5 66.5q0 29 20.5 52.5t55.5 23.5q33 0 58.5 -19.5t56.5 -60.5q43 -55 115 -101q18 -12 28 -12t13.5 6t3.5 25q0 86 -29 157q-25 59 -25 89 q0 39 20.5 63.5t57.5 24.5t57.5 -25t20.5 -63q0 -29 -25 -89q-29 -72 -28 -157q0 -18 3 -24.5t13 -6.5t29 12q72 45 115 101q31 41 57.5 60.5t56.5 19.5q35 0 55.5 -24t20.5 -52q0 -45 -37 -66.5t-100 -29.5q-76 -10 -152 -54q-4 -2 -12 -8t-8 -14t8 -14.5t12 -8.5 q76 -43 152 -53q63 -8 100 -29.5t37 -66.5q0 -29 -20.5 -52.5t-55.5 -23.5q-31 0 -57.5 19.5t-56.5 60.5q-43 55 -115 100q-18 12 -29 12q-10 0 -13 -6t-3 -24q0 -86 28 -158q25 -59 25 -88q0 -39 -20.5 -63.5t-57.5 -24.5t-57.5 24.5t-20.5 63.5q0 29 25 88q29 72 29 158 q0 18 -3 24t-14 6q-10 0 -28 -12q-72 -45 -115 -100q-31 -41 -56.5 -60.5t-58.5 -19.5q-35 0 -55.5 23.5t-20.5 52.5z" />
<glyph unicode="+" horiz-adv-x="1925" d="M98 500v82h820v819h90v-819h819v-82h-819v-819h-90v819h-820z" />
<glyph unicode="," horiz-adv-x="573" d="M147 168q0 55 37 87t82 32q80 0 125 -66q39 -53 39 -145q0 -127 -63.5 -241t-153.5 -179l-29 33q76 57 124 139t48 164q0 23 -8 36t-29 25q-14 8 -69 8q-45 0 -74 32t-29 75z" />
<glyph unicode="-" horiz-adv-x="757" d="M123 459v114h512v-114h-512z" />
<glyph unicode="." horiz-adv-x="573" d="M160 102q0 55 35.5 91t91.5 36q55 0 91 -35.5t36 -91.5q0 -55 -36 -91t-91 -36q-56 0 -91.5 36t-35.5 91z" />
<glyph unicode="/" horiz-adv-x="921" d="M115 -406l610 1901h82l-610 -1901h-82z" />
<glyph unicode="0" d="M98 700q0 186 62.5 355.5t175.5 274t258 104.5q143 0 257 -104.5t176.5 -273.5t62.5 -356q0 -186 -62.5 -355t-176.5 -273.5t-257 -104.5q-145 0 -258 104.5t-175.5 273.5t-62.5 355zM315 700q0 -285 54.5 -476t224.5 -191t224 192.5t54 474.5q0 283 -54 475.5 t-224 192.5t-224.5 -191.5t-54.5 -476.5z" />
<glyph unicode="1" d="M246 0v66h196q31 0 44.5 12t13.5 41v1005h-254v74h112q111 0 179.5 59.5t85.5 143.5h65v-1282q0 -29 13.5 -41t43.5 -12h197v-66h-696z" />
<glyph unicode="2" d="M152 1067q0 104 52 188t145 131.5t208 47.5q131 0 235.5 -49.5t164 -141.5t59.5 -217t-88 -225.5t-232 -202.5l-200 -156q-86 -59 -132.5 -113.5t-46.5 -111.5q0 -49 64 -49h387q82 0 116 36t46 101l22 121h45l-28 -426h-799q0 113 43 223.5t193 237.5l196 168 q96 80 146.5 176t50.5 221q0 160 -78 247t-221 87q-66 0 -126.5 -31t-98 -81t-37.5 -103q0 -49 22.5 -72.5t61.5 -30.5q66 -10 97.5 -43.5t31.5 -80.5q0 -39 -28 -66t-77 -27q-84 0 -139 66.5t-55 175.5z" />
<glyph unicode="3" d="M147 244q0 74 43 126t113 52q59 0 93 -32t34 -87q0 -43 -25.5 -74.5t-66.5 -31.5q-72 0 -72 -35q0 -129 258 -129q150 0 216.5 102.5t66.5 245.5q0 164 -70.5 246t-173.5 82q-31 0 -50 -4.5t-48 -14.5q-68 -23 -105 -22q-31 0 -54 14t-23 43t22.5 43t54.5 14q35 0 97 -10 q41 -6 112 -6q98 0 150.5 89t52.5 204q0 133 -61.5 221t-178.5 88q-121 0 -171 -39t-50 -88q0 -18 14.5 -37.5t39.5 -32.5q74 -31 73 -100q0 -43 -28.5 -70.5t-81.5 -27.5q-59 0 -103.5 50t-44.5 112q0 143 109.5 221t265.5 78q186 0 300 -99.5t114 -261.5q0 -86 -40 -152.5 t-100.5 -108.5t-121.5 -56v-17q68 -12 141.5 -58t124.5 -124t51 -178q0 -125 -67.5 -218t-181 -143.5t-251.5 -50.5q-164 0 -270.5 71t-106.5 206z" />
<glyph unicode="4" d="M115 393v74l635 936h73v-936h248v-74h-248v-274q0 -29 13.5 -41t42.5 -12h198v-66h-696v66h199q29 0 42 12t13 41v274h-520zM209 467h426v627z" />
<glyph unicode="5" d="M176 268q0 96 49 147.5t115 51.5q55 0 87 -34t32 -85q0 -35 -20.5 -64.5t-53.5 -43.5q-29 -14 -45 -28.5t-16 -39.5q0 -66 51 -102.5t174 -36.5q152 0 219.5 131t67.5 332q0 188 -65.5 288.5t-213.5 100.5q-59 0 -102 -17.5t-88 -62.5q-20 -20 -34 -54t-14 -59 q0 -23 -11 -37t-29 -14q-33 0 -33 51v707l45 35q43 -37 126 -61.5t154 -24.5q98 0 178 18t164 68l25 -29q-74 -96 -181.5 -154.5t-228.5 -58.5q-76 0 -121 9t-88 32v-391l13 -4q49 57 119.5 88.5t146.5 31.5q215 0 335 -126.5t120 -335.5q0 -150 -69 -271t-183.5 -189.5 t-251.5 -68.5q-115 0 -199 40t-129 108.5t-45 152.5z" />
<glyph unicode="6" d="M164 643q0 168 43 330t125 268q150 193 350 193q145 0 236 -99q31 -37 44 -82t13 -79q0 -72 -51 -117q-35 -31 -84 -31q-47 0 -74 37q-10 14 -13 26.5t-3 32.5q0 31 26 62q18 20 39 35q18 12 25.5 25t7.5 32q0 37 -42 64.5t-128 27.5q-74 0 -140.5 -43t-111.5 -143 q-35 -76 -53.5 -190.5t-18.5 -192.5v-92l15 -7q37 78 113.5 128.5t148.5 50.5q137 0 231 -68q80 -57 123 -154.5t43 -207.5q0 -111 -49 -222.5t-144.5 -185.5t-224.5 -74q-133 0 -234.5 82t-156.5 234.5t-55 359.5zM381 422q0 -170 53 -279.5t176 -109.5q125 0 181.5 118.5 t56.5 270.5q0 164 -49 272.5t-164 108.5q-72 0 -129 -47t-91 -134t-34 -200z" />
<glyph unicode="7" d="M184 975l29 426h786q0 -106 -31.5 -243.5t-107.5 -250.5l-117 -176q-84 -123 -84 -266q0 -88 13 -154l12 -71q16 -82 16 -144q0 -129 -120 -129q-74 0 -118 53.5t-44 143.5q0 123 60.5 253t154.5 265l164 236q45 63 74.5 135.5t29.5 126.5q0 31 -15.5 42t-47.5 11h-424 q-82 0 -116 -36t-46 -101l-23 -121h-45z" />
<glyph unicode="8" d="M123 356q0 150 84 234t178 110v9l-23 10q-109 45 -166 133t-57 205q0 106 65.5 193t170 135.5t217.5 48.5q139 0 236.5 -50.5t146.5 -131.5t49 -171q0 -111 -70.5 -191.5t-165.5 -123.5v-8l48 -19q242 -98 241 -309q0 -127 -58 -232.5t-172 -168t-272 -62.5 q-120 0 -223.5 47t-166 135.5t-62.5 206.5zM266 352q0 -164 99.5 -241.5t232.5 -77.5q113 0 184.5 47t103.5 113.5t32 125.5q0 115 -50.5 170.5t-146.5 94.5l-277 100q-84 -35 -131 -110.5t-47 -221.5zM291 1106q0 -86 42 -137t132 -88l264 -101q90 49 127 121t37 168 q0 84 -41 152.5t-109.5 107.5t-150.5 39q-127 0 -214 -71.5t-87 -190.5z" />
<glyph unicode="9" d="M160 952q0 111 49 222.5t144.5 185.5t224.5 74q133 0 234 -82t156.5 -234.5t55.5 -359.5q0 -168 -43 -330t-125 -268q-150 -193 -350 -193q-146 1 -236 99q-31 37 -44 82t-13 79q0 72 51 117q37 31 84 31t74 -37q10 -14 13 -26.5t3 -32.5q0 -31 -26 -62q-18 -20 -39 -35 q-18 -12 -25.5 -25.5t-7.5 -31.5q0 -37 42 -64.5t128 -27.5q74 0 140.5 43t111.5 143q35 76 53.5 191.5t18.5 191.5v92l-15 6q-37 -78 -113.5 -128t-148.5 -50q-137 0 -231 68q-80 57 -123 154.5t-43 207.5zM340 979q0 -164 49 -272.5t164 -108.5q72 0 129 47t91 134t34 200 q0 170 -53.5 279.5t-175.5 109.5q-125 0 -181.5 -119t-56.5 -270z" />
<glyph unicode=":" horiz-adv-x="573" d="M160 102q0 55 35.5 91t91.5 36q55 0 91 -35.5t36 -91.5q0 -55 -36 -91t-91 -36q-56 0 -91.5 36t-35.5 91zM160 831q0 55 35.5 91t91.5 36q55 0 91 -35.5t36 -91.5q0 -55 -36 -90.5t-91 -35.5q-56 0 -91.5 35.5t-35.5 90.5z" />
<glyph unicode=";" horiz-adv-x="573" d="M147 168q0 55 37 87t82 32q80 0 125 -66q39 -53 39 -145q0 -127 -63.5 -241t-153.5 -179l-29 33q76 57 124 139t48 164q0 23 -8 36t-29 25q-14 8 -69 8q-45 0 -74 32t-29 75zM160 831q0 55 35.5 91t91.5 36q55 0 91 -35.5t36 -91.5q0 -55 -36 -90.5t-91 -35.5 q-56 0 -91.5 35.5t-35.5 90.5z" />
<glyph unicode="&#x3c;" horiz-adv-x="1925" d="M172 512v57l1548 832l41 -74l-1462 -786l1462 -787l-41 -73z" />
<glyph unicode="=" horiz-adv-x="1925" d="M98 303v82h1729v-82h-1729zM98 692v82h1729v-82h-1729z" />
<glyph unicode="&#x3e;" horiz-adv-x="1925" d="M164 -246l1462 787l-1462 786l41 74l1548 -832v-57l-1548 -831z" />
<glyph unicode="?" horiz-adv-x="962" d="M131 1137q0 80 51 145.5t131 102t162 36.5q106 0 198.5 -35.5t148 -106.5t55.5 -169q0 -84 -43 -153.5t-103.5 -121t-155.5 -116.5q-182 -125 -182 -244q0 -51 32 -74.5t83 -23.5q53 0 88 37t35 98q0 33 -10 53l36 17q23 -37 23 -72q0 -55 -25.5 -100t-66.5 -70t-80 -25 q-80 0 -132 43t-52 123q0 61 23.5 104.5t74.5 98.5l156 168q59 66 88.5 123t29.5 135q0 109 -59 179.5t-176 70.5q-61 0 -116.5 -22.5t-89.5 -59.5t-34 -78q0 -47 12 -59q10 -8 21 -8q14 0 20 2q14 4 37 4q35 0 54.5 -23.5t19.5 -58.5q0 -43 -28.5 -71t-84.5 -28 q-57 0 -99 48.5t-42 130.5zM381 102q0 55 36 91t91 36t91 -35.5t36 -91.5q0 -55 -36 -91t-91 -36t-91 36t-36 91z" />
<glyph unicode="@" horiz-adv-x="1679" d="M98 727q0 209 101.5 385t276.5 279.5t384 103.5q223 0 383 -95t243 -260t83 -368q0 -111 -52.5 -227.5t-158 -196.5t-256.5 -80q-78 0 -132.5 41t-62.5 113l-10 2q-35 -53 -100.5 -104.5t-145.5 -51.5q-92 0 -160.5 65.5t-68.5 188.5q0 129 35 256t102 207 q86 104 180.5 152.5t180.5 48.5q53 0 95 -39t50 -74h10l23 88h147l-172 -635q-12 -49 -12 -88q0 -55 22.5 -88t51.5 -33q125 0 200.5 78t105 190.5t29.5 227.5q0 195 -77.5 336t-220 215t-330.5 74q-176 0 -324.5 -98.5t-234.5 -270.5t-86 -383q0 -205 78.5 -354.5 t228 -230.5t356.5 -81q180 0 361 119l32 -47q-68 -49 -171 -89t-242 -40q-230 0 -397 96.5t-256 269.5t-89 398zM561 457q0 -63 31 -101.5t67 -38.5q105 0 188 109t124 260l47 174q10 37 10 76q0 78 -29.5 139.5t-78.5 61.5q-82 0 -146.5 -56.5t-126.5 -189.5 q-37 -80 -61.5 -202t-24.5 -232z" />
<glyph unicode="A" horiz-adv-x="1564" d="M94 0v66h76q121 0 176 149l440 1243h52l444 -1302q20 -51 49 -70.5t74 -19.5h115v-66h-635v66h135q31 0 51.5 15t20.5 36q0 27 -9 45l-96 272h-479l-49 -137q-29 -82 -29 -119q0 -45 22.5 -78.5t77.5 -33.5h125v-66h-561zM530 500h435l-213 624z" />
<glyph unicode="B" horiz-adv-x="1413" d="M127 0v66h147q55 0 56 55v1216q0 29 -13.5 42.5t-42.5 13.5h-147v65h668q121 0 226 -45t168.5 -124t63.5 -179q0 -139 -94 -229t-219 -117v-8q84 -6 167 -52.5t137 -126t54 -180.5q0 -125 -65.5 -215t-175 -136t-240.5 -46h-690zM518 121q0 -55 55 -55h222 q125 0 205.5 74.5t80.5 256.5t-80.5 257t-205.5 75h-277v-608zM518 795h268q166 0 226.5 85t60.5 230q0 123 -77.5 203t-192.5 80h-230q-29 0 -42 -13.5t-13 -42.5v-542z" />
<glyph unicode="C" horiz-adv-x="1372" d="M143 741q0 207 70 379t199 273.5t301 101.5q90 0 170 -41t131 -88q49 -45 65 -45t23.5 10t15.5 33l39 115h51l9 -635h-58q-45 195 -116.5 327t-156.5 195.5t-169 63.5q-195 0 -276 -176.5t-81 -512.5q0 -346 84 -529t306 -183q197 0 300 146.5t117 354.5h74 q-6 -121 -50 -249.5t-152.5 -223t-288.5 -94.5q-191 0 -328 110.5t-208 290t-71 377.5z" />
<glyph unicode="D" horiz-adv-x="1597" d="M127 0v66h147q55 0 56 55v1216q0 29 -13.5 42.5t-42.5 13.5h-147v65h750q170 0 311 -91t224 -254t83 -372t-83 -378.5t-225.5 -266t-309.5 -96.5h-750zM518 121q0 -55 55 -55h295q143 0 235.5 97t133.5 249.5t41 328.5q0 274 -99.5 463t-310.5 189h-295q-29 0 -42 -13.5 t-13 -42.5v-1216z" />
<glyph unicode="E" horiz-adv-x="1413" d="M127 0v66h147q55 0 56 55v1216q0 29 -13.5 42.5t-42.5 13.5h-147v65h1143l8 -512h-51q0 41 -17.5 139.5t-68.5 176.5q-86 131 -242 131h-326q-29 0 -42 -13.5t-13 -42.5v-551h158q104 0 150 106.5t46 227.5h54v-733h-54q0 121 -46 227.5t-150 106.5h-158v-600 q0 -55 55 -55h328q59 0 120.5 26.5t104.5 81.5q41 57 68 143t37 157t12 91h51l-24 -565h-1143z" />
<glyph unicode="F" horiz-adv-x="1384" d="M127 0v66h147q55 0 56 55v1216q0 29 -13.5 42.5t-42.5 13.5h-147v65h1143l8 -512h-51q0 41 -17.5 139.5t-68.5 176.5q-86 131 -242 131h-326q-29 0 -42 -13.5t-13 -42.5v-551h158q104 0 150 112t46 235h54v-758h-54q0 123 -46 234.5t-150 111.5h-158v-588q0 -31 13.5 -49 t41.5 -18h181v-66h-627z" />
<glyph unicode="G" horiz-adv-x="1474" d="M143 741q0 207 70 379t199 273.5t301 101.5q90 0 170 -41t131 -88q49 -45 65 -45t23.5 10t15.5 33l39 115h51l9 -635h-58q-45 195 -116.5 327t-156.5 195.5t-169 63.5q-141 0 -219 -85t-108 -237t-30 -379t30 -378.5t107.5 -236.5t219.5 -85q76 0 145.5 54t113.5 138 t44 166v184q0 29 -13.5 42.5t-41.5 13.5h-228v65h676v-65h-149q-29 0 -42.5 -13.5t-13.5 -42.5v-598h-65v187q0 35 -8.5 52t-26.5 17q-23 0 -39 -16t-33 -45q-47 -76 -133 -140.5t-186 -64.5q-176 0 -306 103.5t-199 280.5t-69 394z" />
<glyph unicode="H" horiz-adv-x="1613" d="M127 0v66h147q55 0 56 55v1216q0 55 -56 56h-147v65h594v-65h-148q-55 0 -55 -56v-538h619v538q0 55 -56 56h-147v65h594v-65h-148q-55 0 -55 -56v-1216q0 -55 55 -55h148v-66h-594v66h147q55 0 56 55v612h-619v-612q0 -55 55 -55h148v-66h-594z" />
<glyph unicode="I" horiz-adv-x="806" d="M127 0v66h147q55 0 56 55v1216q0 29 -13.5 42.5t-42.5 13.5h-147v65h594v-65h-148q-29 0 -42 -13.5t-13 -42.5v-1216q0 -55 55 -55h148v-66h-594z" />
<glyph unicode="J" horiz-adv-x="1105" d="M90 256q0 61 26.5 104t66.5 64.5t77 21.5q59 0 88 -29.5t29 -72.5t-23.5 -66.5t-74.5 -39.5q-35 -10 -50.5 -24.5t-15.5 -45.5q0 -63 65.5 -101t159.5 -38q100 0 155.5 77.5t55.5 186.5v1044q0 29 -13 42.5t-42 13.5h-148v65h594v-65h-147q-29 0 -42 -13.5t-13 -42.5 v-940q0 -135 -55.5 -233t-146.5 -149.5t-198 -51.5q-151 0 -249.5 78t-98.5 215z" />
<glyph unicode="K" horiz-adv-x="1548" d="M127 0v66h147q55 0 56 55v1216q0 29 -13.5 42.5t-42.5 13.5h-147v65h584v-65h-138q-29 0 -42 -13.5t-13 -42.5v-635l471 482q27 29 39 57.5t12 65.5t-26.5 61.5t-65.5 24.5h-55v65h541v-65h-82q-68 0 -185 -121l-344 -348l418 -768q27 -51 59.5 -70.5t94.5 -19.5h67v-66 h-618v66h137q23 0 39 13t16 30q0 12 -4 27.5t-10 23.5l-334 626l-170 -172v-493q0 -55 55 -55h138v-66h-584z" />
<glyph unicode="L" horiz-adv-x="1372" d="M127 0v66h147q55 0 56 55v1216q0 29 -13.5 42.5t-42.5 13.5h-147v65h627v-65h-181q-29 0 -42 -13.5t-13 -42.5v-1216q0 -55 55 -55h207q109 0 195 49t129 143q33 70 54.5 148.5t31.5 134t12 69.5h51l-18 -610h-1108z" />
<glyph unicode="M" horiz-adv-x="1716" d="M127 0v66h74q57 0 93 44t36 119v1108q0 29 -13.5 42.5t-42.5 13.5h-147v65h434l334 -1128l311 1128h424v-65h-147q-29 0 -42.5 -13.5t-13.5 -42.5v-1216q0 -55 56 -55h147v-66h-594v66h148q55 0 55 55v1208l-375 -1354h-49l-391 1299h-12v-1045q0 -76 35.5 -119.5 t93.5 -43.5h73v-66h-487z" />
<glyph unicode="N" horiz-adv-x="1576" d="M127 0v66h74q59 0 94 44t35 119v1108q-2 29 -14.5 42.5t-41.5 13.5h-147v65h387l711 -1143v914q0 76 -35 120t-92 44h-74v65h487v-65h-73q-57 0 -94 -44t-37 -120v-1266h-82l-805 1272h-8v-1006q0 -76 35.5 -119.5t93.5 -43.5h73v-66h-487z" />
<glyph unicode="O" horiz-adv-x="1433" d="M143 729q0 195 76 372t211 285.5t307 108.5t307.5 -108.5t211 -285.5t75.5 -372t-75.5 -372t-211 -285.5t-307.5 -108.5t-307 108.5t-211 286t-76 371.5zM360 729q0 -334 88.5 -517t288.5 -183q201 0 289 183t88 517q0 336 -88 518.5t-289 182.5t-289 -182.5t-88 -518.5z " />
<glyph unicode="P" horiz-adv-x="1392" d="M127 0v66h147q55 0 56 55v1216q0 29 -13.5 42.5t-42.5 13.5h-147v65h684q143 0 255 -48t174.5 -135t62.5 -198q0 -113 -62.5 -201t-174.5 -138t-255 -50h-293v-567q0 -29 12.5 -42t42.5 -13h181v-66h-627zM518 754h320q111 0 179 95t68 228t-67.5 224.5t-179.5 91.5h-265 q-29 0 -42 -13.5t-13 -42.5v-583z" />
<glyph unicode="Q" horiz-adv-x="1433" d="M143 737q0 195 76 370t211 281.5t307 106.5t307.5 -106.5t211 -281.5t75.5 -370q0 -223 -87 -411.5t-251 -286.5q23 -106 63 -171t105 -65q78 0 104.5 83t26.5 216h39q0 -207 -48 -326.5t-187 -119.5q-123 0 -172.5 92t-59.5 236q-74 -20 -127 -21q-172 0 -308 110.5 t-211 289t-75 374.5zM360 737q0 -211 37 -381t144 -262l2 2q-10 25 -11 58q0 86 57.5 141t141.5 55q96 0 153.5 -61.5t84.5 -159.5q78 80 111.5 231.5t33.5 376.5q0 334 -87 513.5t-290 179.5t-290 -179.5t-87 -513.5zM602 152q0 -123 135 -123h5q63 0 116 22 q-6 104 -32.5 169t-100.5 65q-53 0 -88 -36t-35 -97z" />
<glyph unicode="R" horiz-adv-x="1466" d="M127 0v66h147q55 0 56 55v1216q0 29 -13.5 42.5t-42.5 13.5h-147v65h672q199 0 325.5 -75.5t126.5 -252.5q0 -152 -113.5 -243.5t-273.5 -108.5v-8q117 -23 191.5 -107.5t99.5 -289.5q14 -117 25.5 -170t29 -75t52.5 -22q88 0 88 222h51q0 -133 -39 -243t-174 -110 q-68 0 -114 22.5t-73 74.5q-55 106 -59 362q-2 137 -49 228.5t-152 91.5h-223v-633q0 -29 12.5 -42t42.5 -13h183v-66h-629zM518 819h199q172 0 244.5 83t72.5 228q0 125 -66.5 194t-181.5 69h-213q-29 0 -42 -13.5t-13 -42.5v-518z" />
<glyph unicode="S" horiz-adv-x="1269" d="M180 627h49q12 -152 85 -290t181.5 -223t223.5 -85q168 0 244.5 82t76.5 196q0 100 -58 157.5t-171 102.5l-311 125q-162 66 -239 169.5t-77 248.5q0 197 115 291t287 94q135 0 299 -123q20 -14 40.5 -25.5t37.5 -11.5q35 0 41 49l8 74h49l20 -532h-49 q-33 147 -103.5 262t-164.5 178.5t-195 63.5q-115 0 -188.5 -75t-73.5 -208q0 -92 47 -143.5t140 -88.5l395 -157q137 -55 205.5 -157.5t68.5 -215.5q0 -109 -48 -205t-147.5 -156.5t-248.5 -60.5q-86 0 -169 38t-144 83q-86 66 -103 66q-41 0 -53 -89l-8 -81h-47z" />
<glyph unicode="T" horiz-adv-x="1462" d="M147 872l17 586h1175l17 -586h-58q0 59 -20.5 185.5t-79.5 210.5q-94 131 -223 131h-74q-31 0 -43 -13.5t-12 -42.5v-1222q0 -55 55 -55h197v-66h-692v66h196q55 0 55 55v1222q0 29 -12 42.5t-43 13.5h-74q-129 0 -223 -131q-59 -84 -79.5 -210t-20.5 -186h-58z" />
<glyph unicode="U" horiz-adv-x="1597" d="M106 1393v65h596v-65h-149q-29 0 -42 -13.5t-13 -42.5v-907q0 -190 92 -295.5t258 -105.5q129 0 221 52t139 138t47 187v821q0 76 -36.5 121t-94.5 45h-71v65h487v-65h-72q-57 0 -94 -45t-37 -121v-801q0 -129 -58 -234.5t-170 -167t-261 -61.5q-184 0 -305 73 t-177.5 190.5t-56.5 258.5v852q0 29 -13 42.5t-42 13.5h-148z" />
<glyph unicode="V" horiz-adv-x="1581" d="M90 1393v65h655v-65h-135q-29 0 -49 -15.5t-20 -36.5q0 -23 8 -45l350 -985l270 832q25 80 25 141q0 43 -23.5 76t-80.5 33h-111v65h553v-65h-76q-72 0 -110.5 -42t-61.5 -108l-416 -1280h-51l-477 1340q-18 51 -47 70.5t-74 19.5h-129z" />
<glyph unicode="W" horiz-adv-x="2187" d="M78 1393v65h606v-65h-98q-29 0 -49.5 -15.5t-20.5 -36.5q0 -16 8 -45l273 -942l247 897l-20 66q-14 41 -57 58.5t-88 17.5h-60v65h606v-65h-79q-104 0 -105 -107q0 -29 12 -63l258 -887l254 807q14 55 19.5 84.5t5.5 72.5q0 39 -36 66t-99 27h-70v65h553v-65h-88 q-70 0 -107.5 -41t-58.5 -109l-407 -1280h-52l-335 1139l-324 -1139h-51l-389 1340q-18 51 -47 70.5t-74 19.5h-127z" />
<glyph unicode="X" horiz-adv-x="1536" d="M94 0v66h64q68 0 113.5 35.5t88.5 101.5l347 518l-306 565q-31 57 -62.5 82t-98.5 25h-125v65h635v-65h-123q-37 0 -37 -31q0 -12 4 -26.5t12 -26.5l221 -410l195 291q41 61 41 117q0 35 -27.5 60.5t-72.5 25.5h-64v65h553v-65h-92q-61 0 -103.5 -23.5t-76.5 -77.5 l-314 -471l363 -665q29 -51 57.5 -70.5t69.5 -19.5h127v-66h-635v66h123q29 0 42 12t13 31q0 12 -4 26.5t-10 24.5l-262 483l-236 -358q-51 -78 -51 -129q0 -37 18.5 -63.5t55.5 -26.5h110v-66h-553z" />
<glyph unicode="Y" horiz-adv-x="1490" d="M86 1393v65h635v-65h-123q-31 0 -51.5 -14.5t-20.5 -37.5q0 -31 11 -45l323 -546l209 401q10 14 22.5 57t12.5 68q0 49 -27.5 83t-85.5 34h-61v65h508v-65h-60q-66 0 -106.5 -40t-79.5 -110l-293 -557v-565q0 -55 55 -55h197v-66h-692v66h196q55 0 56 55v530l-398 652 q-31 53 -55.5 71.5t-64.5 18.5h-107z" />
<glyph unicode="Z" horiz-adv-x="1335" d="M139 0v66l848 1327h-385q-68 0 -126 -37t-97 -82q-49 -57 -82 -132t-49.5 -137.5t-16.5 -70.5h-51l49 524h975v-65l-839 -1327h409q70 0 143.5 42t120.5 107q51 74 85 163t50.5 160.5t16.5 79.5h51l-33 -618h-1069z" />
<glyph unicode="[" horiz-adv-x="778" d="M246 -381v1851l381 25l8 -53l-197 -33q-23 -2 -34 -20.5t-11 -45.5v-1597q0 -27 11.5 -45t33.5 -20l197 -33l-8 -54z" />
<glyph unicode="\" horiz-adv-x="921" d="M115 1495h82l610 -1901h-82z" />
<glyph unicode="]" horiz-adv-x="778" d="M143 -352l197 33q23 2 34 20t11 45v1597q0 27 -11.5 45.5t-33.5 20.5l-197 33l9 53l380 -25v-1851l-380 -25z" />
<glyph unicode="^" d="M127 688l471 746l463 -746h-98l-365 586l-373 -586h-98z" />
<glyph unicode="_" horiz-adv-x="1064" d="M0 -242h1065v-82h-1065v82z" />
<glyph unicode="`" horiz-adv-x="755" d="M205 1337q0 29 15.5 46.5t41.5 17.5q29 0 51.5 -14.5t48.5 -51.5l189 -272l-27 -23l-262 207q-57 43 -57 90z" />
<glyph unicode="a" horiz-adv-x="1011" d="M94 217q0 104 53.5 163.5t124 85.5t170.5 44l189 35v174q0 190 -191 190q-70 0 -127 -35.5t-57 -80.5q0 -20 6 -31q4 -6 13.5 -12.5t17.5 -8.5q37 -10 56.5 -28.5t19.5 -50.5q0 -43 -26 -61.5t-64 -18.5q-45 0 -82 34.5t-37 100.5q0 76 42 131t108.5 82.5t135.5 27.5 q135 0 233.5 -70.5t98.5 -219.5v-504q0 -102 64 -103q51 0 73.5 59.5t22.5 145.5h37q0 -123 -36 -207t-128 -84q-88 0 -132 52.5t-48 144.5l-10 4q-31 -72 -99.5 -136.5t-161.5 -64.5q-108 0 -187 53.5t-79 188.5zM266 211q0 -94 39 -128t88 -34q92 0 144.5 73t93.5 185v195 l-178 -39q-98 -20 -142.5 -80.5t-44.5 -171.5z" />
<glyph unicode="b" horiz-adv-x="1048" d="M45 1409v49h299v-676l8 -2q31 74 94.5 126t143.5 52q96 0 179 -64.5t132 -177t49 -249.5t-49 -250t-132 -177.5t-179 -64.5q-82 0 -151.5 55.5t-110.5 145.5h-9l-86 -176h-36v1364q0 25 -10.5 35t-34.5 10h-107zM344 373q0 -92 29.5 -171t81 -124t112.5 -45 q101 0 152 112.5t51 321.5t-51 321.5t-152 112.5q-61 0 -112.5 -45t-81 -124t-29.5 -171v-188z" />
<glyph unicode="c" horiz-adv-x="892" d="M98 467q0 135 51.5 247.5t142.5 178t208 65.5q94 0 163.5 -39.5t106.5 -102t37 -126.5q0 -63 -33 -99t-80 -36q-41 0 -68.5 26.5t-27.5 63.5t20.5 61.5t49.5 32.5q33 10 32 37q0 25 -21.5 55.5t-66.5 54t-112 23.5q-129 0 -175 -110.5t-46 -331.5t45 -331.5t176 -110.5 q125 0 192.5 88t81.5 206h49q-6 -84 -43 -162.5t-108.5 -130t-171.5 -51.5q-119 0 -210 65.5t-141.5 178.5t-50.5 248z" />
<glyph unicode="d" horiz-adv-x="1069" d="M98 467q0 137 49.5 249.5t132 177t179.5 64.5q80 0 143.5 -52t93.5 -126l9 2v582q0 25 -10.5 35t-35.5 10h-147v49h340v-1364q0 -25 10 -35t35 -10h107v-49h-299v152l-9 2q-39 -82 -99 -130.5t-138 -48.5q-97 0 -179.5 64.5t-132 177.5t-49.5 250zM279 467 q0 -209 51 -321.5t151 -112.5q62 0 113 45t81 124t30 171v188q0 92 -30 171t-81 124t-113 45q-100 0 -151 -112.5t-51 -321.5z" />
<glyph unicode="e" horiz-adv-x="942" d="M98 463q0 131 51.5 244.5t142.5 182t204 68.5q125 0 204.5 -67.5t115.5 -171t36 -211.5q0 -23 -14.5 -30t-49.5 -7h-509q0 -205 58 -325.5t191 -120.5q94 0 177 71.5t106 222.5h49q-12 -150 -103 -247t-237 -97q-190 0 -306 129t-116 359zM279 520h397q0 164 -43 276.5 t-141 112.5q-104 0 -158.5 -113.5t-54.5 -275.5z" />
<glyph unicode="f" horiz-adv-x="675" d="M57 0v49h107q25 0 35 10.5t10 34.5v783h-152v57h152v141q0 137 46 227.5t117.5 131.5t149.5 41q88 0 149.5 -54.5t61.5 -154.5q0 -53 -25.5 -84t-70.5 -31q-37 0 -60.5 23.5t-23.5 62.5q0 20 10 40.5t27 33.5q33 18 33 49q0 35 -32 50t-73 15q-68 0 -115 -65.5 t-47 -226.5v-199h193v-57h-193v-783q0 -25 10.5 -35t34.5 -10h148v-49h-492z" />
<glyph unicode="g" horiz-adv-x="1105" d="M106 -250q0 76 59.5 133.5t141.5 69.5v6q-180 39 -180 152q0 84 64.5 132t158.5 64v6q-86 37 -146.5 112t-60.5 198q0 104 51.5 180t134.5 115.5t179 39.5q59 0 117.5 -19t100.5 -45t54 -42q18 53 59.5 79.5t82.5 26.5q70 0 114.5 -40.5t44.5 -106.5q0 -49 -23.5 -80 t-62.5 -31q-33 0 -57.5 17.5t-24.5 56.5q0 45 35 66q12 8 17.5 15t5.5 22q0 16 -16.5 24t-39.5 8q-37 0 -66.5 -29.5t-33.5 -68.5q57 -80 57 -188q0 -102 -49 -179t-132 -117t-183 -40q-117 0 -208 -32t-91 -105q0 -39 35 -53.5t96 -14.5q43 0 70 2q25 2 63 2h211 q131 0 219 -70.5t88 -208.5q0 -143 -121.5 -218.5t-320.5 -75.5q-180 0 -311.5 57t-131.5 180zM197 -246q0 -96 108.5 -144t243.5 -48q147 0 258 52t111 177q0 63 -38 109.5t-132 46.5h-228q-131 0 -227 -44t-96 -149zM307 623q0 -135 53.5 -211t147.5 -76t147.5 75.5 t53.5 211.5q0 135 -53.5 210.5t-147.5 75.5t-147.5 -75.5t-53.5 -210.5z" />
<glyph unicode="h" horiz-adv-x="1114" d="M57 0v49h115q25 0 35 10.5t10 34.5v1270q0 25 -10 35t-35 10h-115v49h308v-692l8 -2q47 98 116.5 146t153.5 48q150 0 212.5 -92t62.5 -221v-551q0 -25 10 -35t35 -10h86v-49h-410v49h86q25 0 35 10.5t10 34.5v590q0 90 -36 153.5t-122 63.5q-72 0 -128 -50t-87.5 -137 t-31.5 -194v-426q0 -25 10 -35t35 -10h86v-49h-439z" />
<glyph unicode="i" horiz-adv-x="552" d="M78 0v49h86q25 0 35 10.5t10 34.5v746q0 25 -10.5 35t-34.5 10h-86v49h278v-840q0 -25 10.5 -35t34.5 -10h86v-49h-409zM164 1294q0 47 30.5 77t75.5 30q47 0 77 -30t30 -77q0 -45 -30 -75.5t-77 -30.5q-45 0 -75.5 30.5t-30.5 75.5z" />
<glyph unicode="j" horiz-adv-x="655" d="M-78 -295q0 55 32 93t77 38q35 0 55 -19.5t20 -49.5q0 -25 -11 -42.5t-32 -35.5q-30 -28 -30 -60q0 -37 31.5 -52t72.5 -15q68 0 115 65.5t47 227.5v985q0 25 -10 35t-35 10h-148v49h340v-1022q0 -137 -46 -227.5t-117.5 -131t-149.5 -40.5q-86 0 -148.5 52t-62.5 140z M254 1294q0 47 30.5 77t75.5 30q47 0 77 -30t30 -77q0 -45 -29.5 -75.5t-77.5 -30.5q-45 0 -75.5 30.5t-30.5 75.5z" />
<glyph unicode="k" horiz-adv-x="1064" d="M57 0v49h107q25 0 35 10.5t10 34.5v1270q0 25 -10.5 35t-34.5 10h-107v49h299v-1042l279 340q23 25 30 39t7 36q0 27 -19.5 40.5t-50.5 13.5h-53v49h418v-49h-66q-55 0 -98 -29t-98 -96l-156 -191l319 -454q25 -35 43.5 -50.5t51.5 -15.5h41v-49h-435v49h54q27 0 41 9.5 t14 31.5q0 23 -6 37t-21 37l-200 287l-95 -115v-242q0 -25 10.5 -35t34.5 -10h66v-49h-410z" />
<glyph unicode="l" horiz-adv-x="552" d="M57 0v49h107q25 0 35 10.5t10 34.5v1270q0 25 -10.5 35t-34.5 10h-107v49h299v-1364q0 -25 10.5 -35t34.5 -10h107v-49h-451z" />
<glyph unicode="m" horiz-adv-x="1626" d="M78 0v49h86q25 0 35 10.5t10 34.5v746q0 25 -10.5 35t-34.5 10h-86v49h278v-164l9 -2q43 94 111.5 142t146.5 48q121 0 179 -65.5t79 -155.5h8q25 82 97.5 151.5t168.5 69.5q150 0 212.5 -100t62.5 -235v-529q0 -25 10 -35t35 -10h86v-49h-410v49h86q25 0 35 10.5 t10 34.5v600q0 82 -39 144.5t-113 62.5q-61 0 -115 -48t-88 -132t-34 -189v-438q0 -25 10 -35t35 -10h86v-49h-410v49h86q25 0 35 10.5t10 34.5v600q0 82 -38.5 144.5t-112.5 62.5q-61 0 -115.5 -48t-88.5 -132t-34 -189v-438q0 -25 10.5 -35t34.5 -10h86v-49h-409z" />
<glyph unicode="n" horiz-adv-x="1105" d="M78 0v49h86q25 0 35 10.5t10 34.5v746q0 25 -10.5 35t-34.5 10h-86v49h278v-168l9 -2q47 98 116.5 146t153.5 48q150 0 212 -92t62 -221v-551q0 -25 10.5 -35t34.5 -10h86v-49h-409v49h86q25 0 35 10.5t10 34.5v590q0 90 -36 153.5t-122 63.5q-72 0 -128 -50t-88 -137 t-32 -194v-426q0 -25 10.5 -35t34.5 -10h86v-49h-409z" />
<glyph unicode="o" horiz-adv-x="1015" d="M98 467q0 133 54.5 245.5t148.5 179t207 66.5t207 -66.5t148.5 -179t54.5 -245.5t-54.5 -245.5t-148.5 -179.5t-207 -67t-207 67t-148.5 179.5t-54.5 245.5zM279 467q0 -211 53 -326.5t176 -115.5t176 115.5t53 326.5t-53 326.5t-176 115.5t-176 -115.5t-53 -326.5z" />
<glyph unicode="p" horiz-adv-x="1060" d="M57 -422h107q25 0 35 10.5t10 34.5v1217q0 25 -10.5 35t-34.5 10h-107v49h299v-152l9 -2q39 82 99 130t138 48q96 0 179 -64.5t132.5 -177t49.5 -249.5t-49.5 -250t-132.5 -177.5t-179 -64.5q-80 0 -143.5 52.5t-93.5 126.5l-9 -2v-529q0 -25 10.5 -35t34.5 -10h107v-49 h-451v49zM356 373q0 -92 30 -171t81 -124t113 -45q100 0 151 112.5t51 321.5t-51 321.5t-151 112.5q-61 0 -112.5 -45t-81.5 -124t-30 -171v-188z" />
<glyph unicode="q" horiz-adv-x="1028" d="M98 467q0 137 49.5 249.5t132 177t179.5 64.5q82 0 151.5 -55t110.5 -145h8l86 176h37v-1311q0 -25 10 -35t35 -10h107v-49h-451v49h106q25 0 35.5 10.5t10.5 34.5v529l-9 2q-31 -74 -94 -126.5t-143 -52.5q-96 0 -179 64.5t-132.5 177.5t-49.5 250zM279 467 q0 -209 51 -321.5t151 -112.5q62 0 113 45t81 124t30 171v188q0 92 -30 171t-81 124t-113 45q-100 0 -151 -112.5t-51 -321.5z" />
<glyph unicode="r" horiz-adv-x="839" d="M78 0v49h86q25 0 35 10.5t10 34.5v746q0 25 -10.5 35t-34.5 10h-86v49h278v-205l9 -2q43 106 111.5 168.5t146.5 62.5t127 -45t49 -122q0 -45 -32 -88.5t-81 -43.5q-39 0 -65.5 20.5t-26.5 57.5q0 43 41 74q18 12 27.5 22.5t9.5 26.5q0 18 -17.5 29.5t-48.5 11.5 q-63 0 -121.5 -61.5t-93.5 -159.5t-35 -205v-381q0 -25 10.5 -35t34.5 -10h86v-49h-409z" />
<glyph unicode="s" horiz-adv-x="888" d="M106 707q0 125 78 188t197 63q59 0 111.5 -19t87.5 -46q45 -33 67 -33q27 0 33 37l4 41h37v-311h-37l-29 71q-47 117 -123.5 164t-152.5 47t-125 -37.5t-49 -105.5q0 -59 48 -97t132 -73l221 -92q98 -41 147.5 -99.5t49.5 -162.5q0 -137 -78 -202t-205 -65 q-76 0 -123 20.5t-92 55.5q-18 14 -36.5 24.5t-32.5 10.5q-49 0 -68 -70l-8 -41h-37v406h37l76 -162q110 -194 284 -194h2q94 0 140.5 46t46.5 126q0 47 -36 84.5t-95 60.5l-234 94q-111 45 -174.5 108.5t-63.5 162.5z" />
<glyph unicode="t" horiz-adv-x="716" d="M57 877v57h45q92 0 144.5 99.5t52.5 219.5v74h57v-393h254v-57h-254v-668q0 -61 25 -102t84 -41q145 0 145 245h37q0 -137 -40 -236.5t-185 -99.5q-92 0 -152.5 65.5t-60.5 178.5v658h-152z" />
<glyph unicode="u" horiz-adv-x="1093" d="M66 885v49h278v-684q0 -90 36 -153.5t122 -63.5q72 0 128 50t88 137t32 194v426q0 25 -10.5 35t-34.5 10h-87v49h279v-840q0 -25 10.5 -35t34.5 -10h86v-49h-278v168l-9 2q-47 -98 -116.5 -146.5t-153.5 -48.5q-149 0 -211.5 92.5t-62.5 221.5v551q0 25 -10.5 35 t-34.5 10h-86z" />
<glyph unicode="v" horiz-adv-x="1085" d="M37 885v49h442v-49h-57q-25 0 -45.5 -13.5t-20.5 -35.5q0 -35 13 -68l229 -553l166 485q8 25 15 55.5t7 49.5q0 35 -20.5 57.5t-52.5 22.5h-49v49h372v-49h-47q-45 0 -83 -30t-58 -91l-270 -789h-37l-338 807q-20 53 -42 78t-65 25h-59z" />
<glyph unicode="w" horiz-adv-x="1589" d="M37 885v49h442v-49h-63q-29 0 -44.5 -16.5t-15.5 -41.5q0 -27 13 -59l229 -553l139 444q6 18 10.5 39t4.5 35q0 37 -27 94q-12 29 -27.5 43.5t-42.5 14.5h-61v49h442v-49h-82q-59 0 -59 -62q0 -23 16 -65l191 -543l166 485q8 25 15 55.5t7 49.5q0 80 -73 80h-50v49h373 v-49h-47q-45 0 -83 -30t-58 -91l-279 -789h-37l-245 672l-213 -672h-37l-330 789q-29 68 -52.5 94.5t-74.5 26.5h-47z" />
<glyph unicode="x" horiz-adv-x="1064" d="M70 0v49h53q49 0 82 30t67 83l187 278l-250 400q-16 25 -31.5 35t-50.5 10h-49v49h405v-49h-49q-41 0 -41 -41q0 -23 13 -43l141 -230l135 201q18 27 18 66q0 23 -15 35t-34 12h-49v49h356v-49h-51q-43 0 -75.5 -20.5t-65.5 -69.5l-186 -275l260 -418q18 -29 36.5 -41 t63.5 -12h47v-49h-426v49h62q23 0 35 9.5t12 25.5q0 10 -4 21.5t-11 21.5l-163 262l-140 -207q-30 -47 -30 -70q0 -62 51 -63h37v-49h-340z" />
<glyph unicode="y" horiz-adv-x="1085" d="M37 885v49h463v-49h-66q-25 0 -45 -13.5t-20 -35.5q0 -35 12 -68l213 -629l170 561q8 25 15 55.5t7 49.5q0 35 -20.5 57.5t-52.5 22.5h-49v49h372v-49h-47q-45 0 -83 -30t-58 -91l-330 -1049q-23 -76 -86 -139t-158 -63q-80 0 -131 51q-27 25 -42 58.5t-15 70.5 q0 27 9 50.5t24 35.5q31 31 69 31q47 0 71 -30t24 -75q0 -25 -17 -57q-12 -20 -12 -39q0 -31 41 -31q61 0 103 48t63 114l55 178l-291 846q-25 66 -47 93.5t-74 27.5h-67z" />
<glyph unicode="z" horiz-adv-x="901" d="M82 0v53l532 832h-249q-127 0 -181 -103q-31 -61 -46 -127.5t-15 -81.5h-41l12 361h688v-66l-530 -819h260q66 0 111 27.5t69 75.5q31 61 46.5 127.5t15.5 80.5h41l-13 -360h-700z" />
<glyph unicode="{" horiz-adv-x="860" d="M213 528v37q76 0 121 10.5t70.5 45t25.5 104.5t-35 201q-20 82 -29.5 129t-9.5 96q0 244 308 344l24 -49q-104 -37 -156.5 -76t-52.5 -117q0 -49 9.5 -94t27.5 -117q18 -66 27.5 -113.5t9.5 -97.5q0 -221 -193 -282v-4q82 -27 137.5 -96.5t55.5 -198.5q0 -49 -9 -94 t-28 -111q-18 -66 -27.5 -111t-9.5 -94q0 -78 52.5 -116.5t156.5 -75.5l-24 -49q-308 100 -308 344q0 49 9.5 97t29.5 122q35 123 35 194q0 102 -53 137t-164 35z" />
<glyph unicode="|" horiz-adv-x="581" d="M246 -406v1901h90v-1901h-90z" />
<glyph unicode="}" horiz-adv-x="860" d="M172 -352q104 37 156.5 75.5t52.5 116.5q0 49 -9.5 94.5t-27.5 116.5q-18 72 -27.5 117t-9.5 94q0 221 193 283v4q-193 61 -193 282q0 49 9.5 97.5t27.5 113.5q18 72 27.5 117t9.5 94q0 78 -52.5 117t-156.5 76l25 49q307 -100 307 -344q0 -49 -9.5 -96t-29.5 -129 q-35 -131 -35 -201t25.5 -104.5t70.5 -45t121 -10.5v-37q-76 0 -121 -10t-70.5 -45t-25.5 -104q0 -70 35 -201q20 -82 29.5 -129t9.5 -96q0 -244 -307 -344z" />
<glyph unicode="~" horiz-adv-x="1351" d="M98 518q0 82 61.5 142.5t172.5 60.5q86 0 183 -34t243 -97q127 -57 205.5 -86t138.5 -29q33 0 57.5 25.5t24.5 68.5t-22.5 72t-63.5 51l24 43q63 -29 97 -77t34 -107q0 -82 -61.5 -142.5t-171.5 -60.5q-88 0 -188.5 34t-237.5 97q-125 57 -205 86t-139 29 q-33 0 -57.5 -25.5t-24.5 -68.5t22.5 -72t63.5 -51l-25 -43q-63 28 -97 76.5t-34 107.5z" />
<glyph unicode="&#xa2;" d="M229 467q0 127 47.5 234.5t130 176t187.5 78.5v224h65v-224q86 -6 149.5 -47t96.5 -99t33 -120q0 -63 -33 -99t-80 -36q-41 0 -68.5 26.5t-27.5 63.5t20.5 61.5t49.5 32.5q33 10 32 37q0 23 -18 51.5t-57 52t-97 27.5v-882q115 6 173.5 92t72.5 202h49 q-8 -131 -81.5 -234t-213.5 -110v-221h-65v223q-172 18 -268.5 155.5t-96.5 334.5zM410 467q0 -156 42 -282t142 -154v874q-96 -25 -140 -153.5t-44 -284.5z" />
<glyph unicode="&#xa3;" horiz-adv-x="1474" d="M131 135q0 72 60.5 118t127.5 46q104 0 228 -59q12 51 15 90t3 112q0 57 -4 141.5t-10 139.5q-106 18 -133 18q-53 0 -83 -10t-73 -35l-29 45q31 27 69 42.5t99 15.5q39 0 146 -21q-2 29 -2 103q0 152 60.5 278.5t163.5 200.5t222 74q106 0 172 -44t93.5 -103.5 t27.5 -104.5q0 -70 -30.5 -112t-92.5 -42q-43 0 -72.5 26.5t-29.5 69.5q0 66 51 93q27 14 37 25t10 34q0 39 -40 71.5t-126 32.5q-61 0 -121.5 -36.5t-99.5 -116.5t-39 -199v-283q86 -16 125 -16q53 0 85 11.5t71 33.5l28 -45q-57 -57 -168 -57q-35 0 -141 18v-133 q0 -221 -98 -362q78 -47 185.5 -72t203.5 -25q92 0 159.5 77t88.5 169l37 -14q-72 -367 -367 -367q-76 0 -167 42t-202 112q-45 -51 -111.5 -96.5t-127.5 -45.5q-84 0 -142.5 40t-58.5 120zM188 135q0 -111 144 -110q49 0 100 38.5t82 98.5q-59 43 -106.5 65.5t-100.5 22.5 q-51 0 -85 -34t-34 -81z" />
<glyph unicode="&#xa5;" d="M29 1335v66h467v-66h-68q-55 0 -55 -35q0 -14 16 -51l248 -504l223 406q41 74 41 113q0 27 -15.5 49t-54.5 22h-86v66h410v-66h-45q-45 0 -83 -42t-79 -111l-280 -506h286v-66h-286v-147h286v-66h-286v-274q0 -29 13 -43t44 -14h152v-66h-598v66h151q57 0 57 57v274h-286 v66h286v147h-286v66h274l-285 579q-18 39 -37.5 59.5t-52.5 20.5h-71z" />
<glyph unicode="&#xa8;" horiz-adv-x="991" d="M205 1221q0 41 29.5 69.5t68.5 28.5q41 0 69.5 -28.5t28.5 -69.5q0 -39 -28.5 -69t-69.5 -30q-39 0 -68.5 30t-29.5 69zM590 1221q0 41 29.5 69.5t68.5 28.5q41 0 69.5 -28.5t28.5 -69.5q0 -39 -28.5 -69t-69.5 -30q-39 0 -68.5 30t-29.5 69z" />
<glyph unicode="&#xa9;" horiz-adv-x="1679" d="M98 729q0 209 97.5 384t267.5 278.5t377 103.5t376.5 -103.5t267 -278.5t97.5 -384t-97.5 -384t-267 -278.5t-376.5 -103.5t-377 103.5t-267.5 278.5t-97.5 384zM156 729q0 -190 91 -353t247.5 -259.5t345.5 -96.5q188 0 344.5 96.5t248 259.5t91.5 353t-91.5 353 t-248 259.5t-344.5 96.5t-345 -96.5t-248 -259t-91 -353.5zM451 692q0 150 50 267.5t144 183t223 65.5q82 0 168 -67q12 -10 19.5 -12.5t21.5 -2.5q18 0 31.5 22.5t13.5 47.5h37v-336h-37q-8 78 -49 147.5t-98 110.5t-107 41q-238 0 -237 -467q0 -154 55 -286t178 -132 q125 0 186.5 86t75.5 209h50q-8 -135 -87 -239.5t-225 -104.5q-131 0 -225 67.5t-141 175t-47 224.5z" />
<glyph unicode="&#xab;" horiz-adv-x="983" d="M221 467q0 133 73 241.5t165 168.5l30 -31q-74 -66 -113.5 -166t-39.5 -213t40 -213t113 -166l-30 -31q-92 60 -165 168.5t-73 241.5zM543 467q0 125 56 222t122 151l29 -29q-55 -70 -82 -153t-27 -191q0 -109 26.5 -191.5t82.5 -152.5l-29 -29q-66 53 -122 150.5 t-56 222.5z" />
<glyph unicode="&#xad;" horiz-adv-x="757" d="M123 459v114h512v-114h-512z" />
<glyph unicode="&#xae;" horiz-adv-x="1679" d="M98 729q0 209 97.5 384t267.5 278.5t377 103.5t376.5 -103.5t267 -278.5t97.5 -384t-97.5 -384t-267 -278.5t-376.5 -103.5t-377 103.5t-267.5 278.5t-97.5 384zM156 729q0 -190 91 -353t247.5 -259.5t345.5 -96.5q188 0 344.5 96.5t248 259.5t91.5 353t-91.5 353 t-248 259.5t-344.5 96.5t-345 -96.5t-248 -259t-91 -353.5zM410 266v49h86q25 0 35 10.5t10 34.5v746q0 25 -10.5 35t-34.5 10h-86v49h467q129 0 214 -58.5t85 -166.5q0 -106 -77 -158.5t-153 -62.5v-9q98 -27 141 -100.5t56 -181.5q10 -88 23.5 -122t50.5 -34 q49 0 67.5 63.5t18.5 129.5h36q0 -96 -35.5 -177t-138.5 -81q-63 -1 -104 28q-31 23 -50.5 78t-25.5 129q-8 98 -21.5 150.5t-42 79t-81.5 26.5h-152v-373q0 -25 10.5 -35t34.5 -10h90v-49h-413zM688 782h158q68 0 108.5 47.5t40.5 133.5q0 88 -35.5 138t-115.5 50h-111 q-25 0 -35 -10.5t-10 -34.5v-324z" />
<glyph unicode="&#xb4;" horiz-adv-x="755" d="M205 1063l188 272q27 37 49.5 51.5t51.5 14.5q27 0 42 -17.5t15 -46.5q0 -47 -57 -90l-263 -207z" />
<glyph unicode="&#xb8;" horiz-adv-x="790" d="M205 -305q0 23 14 39t35 16q47 0 55 -65q14 -82 82 -82q57 0 87 25.5t30 72.5q0 98 -119 98h-84l33 201h47l-16 -102h53q68 0 116 -38t48 -110q0 -76 -49.5 -130t-159.5 -54q-68 0 -120 33.5t-52 95.5z" />
<glyph unicode="&#xbb;" horiz-adv-x="983" d="M233 123q55 70 82 152.5t27 191.5t-26.5 191.5t-82.5 152.5l29 29q66 -53 122 -150.5t56 -222.5t-56 -222.5t-122 -150.5zM494 88q74 66 113.5 166t39.5 213t-40 213t-113 166l30 31q92 -59 165 -168t73 -242t-73 -241.5t-165 -168.5z" />
<glyph unicode="&#x2c6;" horiz-adv-x="946" d="M205 1067q154 100 227 309h82q74 -209 227 -309l-18 -27q-141 74 -250 189q-111 -117 -250 -189z" />
<glyph unicode="&#x2da;" horiz-adv-x="811" d="M205 1225q0 84 59.5 142t141.5 58q84 0 142 -58t58 -142q0 -82 -58.5 -141.5t-141.5 -59.5q-82 0 -141.5 59.5t-59.5 141.5zM254 1225q0 -63 44 -107.5t108 -44.5q63 0 107 44t44 108q0 63 -44 107t-107 44t-107.5 -44t-44.5 -107z" />
<glyph unicode="&#x2dc;" horiz-adv-x="991" d="M205 1143q12 74 57 127t119 53q39 0 73.5 -11.5t80.5 -29.5q39 -16 65.5 -24.5t56.5 -8.5q70 0 95 86l34 -8q-12 -74 -57 -127t-119 -53q-39 0 -73.5 11t-79.5 30q-39 16 -65.5 24.5t-57.5 8.5q-70 0 -94 -86z" />
<glyph unicode="&#x400;" horiz-adv-x="1413" d="M127 0v66h147q55 0 56 55v1216q0 29 -13.5 42.5t-42.5 13.5h-147v65h1143l8 -512h-51q0 41 -17.5 139.5t-68.5 176.5q-86 131 -242 131h-326q-29 0 -42 -13.5t-13 -42.5v-551h158q104 0 150 106.5t46 227.5h54v-733h-54q0 121 -46 227.5t-150 106.5h-158v-600 q0 -55 55 -55h328q59 0 120.5 26.5t104.5 81.5q41 57 68 143t37 157t12 91h51l-24 -565h-1143zM459 1858q0 29 15 46t42 17q29 0 51.5 -14.5t48.5 -51.5l189 -272l-27 -22l-262 206q-57 43 -57 91z" />
<glyph unicode="&#x401;" horiz-adv-x="1413" d="M127 0v66h147q55 0 56 55v1216q0 29 -13.5 42.5t-42.5 13.5h-147v65h1143l8 -512h-51q0 41 -17.5 139.5t-68.5 176.5q-86 131 -242 131h-326q-29 0 -42 -13.5t-13 -42.5v-551h158q104 0 150 106.5t46 227.5h54v-733h-54q0 121 -46 227.5t-150 106.5h-158v-600 q0 -55 55 -55h328q59 0 120.5 26.5t104.5 81.5q41 57 68 143t37 157t12 91h51l-24 -565h-1143zM438 1741q0 47 31 76.5t76 29.5q47 0 76.5 -29.5t29.5 -76.5q0 -45 -29.5 -76t-76.5 -31q-45 0 -76 31t-31 76zM856 1741q0 47 31 76.5t76 29.5q47 0 76.5 -29.5t29.5 -76.5 q0 -45 -29.5 -76t-76.5 -31q-45 0 -76 31t-31 76z" />
<glyph unicode="&#x402;" horiz-adv-x="1748" d="M147 934l17 524h1175l17 -524h-51q0 45 -19.5 157.5t-68.5 196.5q-23 39 -74 72t-115 33h-160q-55 0 -55 -56v-665q45 72 145.5 126t225.5 54q145 0 249.5 -58.5t159 -154.5t54.5 -209q0 -137 -55.5 -242.5t-155 -165t-224.5 -59.5q-124 1 -198 62q-72 59 -72 161 q0 66 47 113q35 33 88 33q47 0 86 -29q37 -29 37 -82q0 -47 -45 -88q-25 -18 -25 -51q0 -29 25 -41t59 -12q100 0 158 95t58 298q0 162 -78 259t-242 97q-98 0 -181 -56t-116 -122v-600h-440v66h196q55 0 56 55v1216q0 29 -12.5 42.5t-43.5 13.5h-94q-63 0 -114.5 -33 t-73.5 -72q-49 -84 -68.5 -196.5t-19.5 -157.5h-52z" />
<glyph unicode="&#x403;" horiz-adv-x="1331" d="M127 0v66h147q55 0 56 55v1216q0 29 -13.5 42.5t-42.5 13.5h-147v65h1073l25 -565h-51q-2 16 -11.5 71.5t-32 129t-55.5 133.5q-43 74 -114.5 120t-172.5 46h-215q-29 0 -42 -13.5t-13 -42.5v-1216q0 -55 55 -55h183v-66h-629zM662 1583l188 272q27 37 49.5 51.5 t50.5 14.5q27 0 42.5 -17.5t15.5 -45.5q0 -47 -58 -91l-262 -206z" />
<glyph unicode="&#x404;" horiz-adv-x="1310" d="M143 793q0 213 74 372.5t197 244.5t270 85q84 0 155.5 -26.5t127.5 -67.5q51 -41 88 -41q29 0 39 45l14 74h51v-531h-51q-33 231 -142.5 356.5t-273.5 125.5q-88 0 -148.5 -41t-107.5 -121q-49 -80 -62.5 -198t-13.5 -271h582v-66h-582q0 -152 12.5 -250t39.5 -188 q35 -125 127 -195.5t221 -70.5q90 0 160.5 28.5t109.5 72.5t39 87q0 25 -8 34t-31 17q-41 16 -69.5 44t-28.5 83q0 53 39 92q37 31 84 31q61 0 105 -51t44 -137q0 -98 -58.5 -182.5t-160.5 -134.5t-227 -50q-207 0 -344.5 107.5t-204 295t-66.5 427.5z" />
<glyph unicode="&#x405;" horiz-adv-x="1269" d="M180 627h49q12 -152 85 -290t181.5 -223t223.5 -85q168 0 244.5 82t76.5 196q0 100 -58 157.5t-171 102.5l-311 125q-162 66 -239 169.5t-77 248.5q0 197 115 291t287 94q135 0 299 -123q20 -14 40.5 -25.5t37.5 -11.5q35 0 41 49l8 74h49l20 -532h-49 q-33 147 -103.5 262t-164.5 178.5t-195 63.5q-115 0 -188.5 -75t-73.5 -208q0 -92 47 -143.5t140 -88.5l395 -157q137 -55 205.5 -157.5t68.5 -215.5q0 -109 -48 -205t-147.5 -156.5t-248.5 -60.5q-86 0 -169 38t-144 83q-86 66 -103 66q-41 0 -53 -89l-8 -81h-47z" />
<glyph unicode="&#x406;" horiz-adv-x="806" d="M127 0v66h147q55 0 56 55v1216q0 29 -13.5 42.5t-42.5 13.5h-147v65h594v-65h-148q-29 0 -42 -13.5t-13 -42.5v-1216q0 -55 55 -55h148v-66h-594z" />
<glyph unicode="&#x407;" horiz-adv-x="806" d="M111 1741q0 47 30.5 76.5t75.5 29.5q47 0 77 -29.5t30 -76.5q0 -45 -30 -76t-77 -31q-45 0 -75.5 31t-30.5 76zM127 0v66h147q55 0 56 55v1216q0 29 -13.5 42.5t-42.5 13.5h-147v65h594v-65h-148q-29 0 -42 -13.5t-13 -42.5v-1216q0 -55 55 -55h148v-66h-594zM528 1741 q0 47 31 76.5t76 29.5q47 0 76.5 -29.5t29.5 -76.5q0 -45 -29.5 -76t-76.5 -31q-45 0 -76 31t-31 76z" />
<glyph unicode="&#x408;" horiz-adv-x="1105" d="M90 256q0 61 26.5 104t66.5 64.5t77 21.5q59 0 88 -29.5t29 -72.5t-23.5 -66.5t-74.5 -39.5q-35 -10 -50.5 -24.5t-15.5 -45.5q0 -63 65.5 -101t159.5 -38q100 0 155.5 77.5t55.5 186.5v1044q0 29 -13 42.5t-42 13.5h-148v65h594v-65h-147q-29 0 -42 -13.5t-13 -42.5 v-940q0 -135 -55.5 -233t-146.5 -149.5t-198 -51.5q-151 0 -249.5 78t-98.5 215z" />
<glyph unicode="&#x409;" horiz-adv-x="2236" d="M94 205q0 86 52.5 137t125.5 51q57 0 89 -35.5t32 -83.5q0 -47 -21.5 -75.5t-58.5 -53.5q-39 -29 -39 -61q0 -20 15.5 -31.5t40.5 -11.5q90 0 133 50t67 126q43 131 69 443.5t26 611.5q0 61 -31 91t-102 30h-95v65h1112v-65h-147q-57 0 -57 -56v-514h366q129 0 235.5 -53 t167 -147.5t60.5 -208.5q0 -115 -61.5 -210t-167 -149.5t-234.5 -54.5h-758v66h148q55 0 55 55v1216q0 31 -11 43.5t-40 12.5h-176q-84 0 -125 -44t-53.5 -109.5t-16.5 -170.5q-23 -561 -84 -817q-23 -98 -86 -187.5t-211 -89.5q-94 0 -156.5 61.5t-62.5 168.5zM1305 121 q0 -55 55 -55h274q80 0 144.5 46t101.5 124.5t37 177.5q0 96 -37 175t-101.5 124t-144.5 45h-329v-637z" />
<glyph unicode="&#x40a;" horiz-adv-x="2256" d="M127 0v66h147q55 0 56 55v1216q0 55 -56 56h-147v65h594v-65h-148q-55 0 -55 -56v-510h619v510q0 55 -56 56h-147v65h594v-65h-148q-55 0 -55 -56v-510h342q131 0 242.5 -52t178 -146t66.5 -215q0 -115 -61 -210t-166.5 -149.5t-234.5 -54.5h-758v66h147q55 0 56 55v641 h-619v-641q0 -55 55 -55h148v-66h-594zM1325 121q0 -55 55 -55h275q80 0 144.5 46t101 124.5t36.5 177.5q0 160 -84 254t-219 94h-309v-641z" />
<glyph unicode="&#x40b;" horiz-adv-x="1822" d="M147 934l17 524h1175l17 -524h-51q0 45 -19.5 157.5t-68.5 196.5q-23 39 -74 72t-115 33h-160q-55 0 -55 -56v-665q20 33 75.5 76t127 74.5t143.5 31.5q162 0 268.5 -65.5t106.5 -217.5v-450q0 -55 55 -55h148v-66h-594v66h147q55 0 56 55v432q0 98 -33 147.5t-83 64.5 t-122 15q-57 0 -121.5 -31.5t-113 -74.5t-60.5 -74v-479q0 -55 55 -55h148v-66h-643v66h196q55 0 56 55v1216q0 29 -12.5 42.5t-43.5 13.5h-94q-63 0 -114.5 -33t-73.5 -72q-49 -84 -68.5 -196.5t-19.5 -157.5h-52z" />
<glyph unicode="&#x40c;" horiz-adv-x="1490" d="M127 0v66h147q55 0 56 55v1216q0 29 -13.5 42.5t-42.5 13.5h-147v65h594v-65h-148q-29 0 -42 -13.5t-13 -42.5v-538h176q115 0 160 85t55 279q6 135 41 201q29 55 77 87t99 32q92 0 148 -45q70 -63 69 -164q0 -74 -32 -125q-20 -31 -52 -49.5t-67 -18.5q-55 0 -86 31 q-33 33 -33 78q0 39 15.5 63.5t46.5 44.5q45 35 45 62q0 23 -20.5 32t-41.5 9q-78 0 -107.5 -69.5t-39.5 -229.5q-8 -125 -35 -209t-102 -119v-10q133 -61 196.5 -118.5t88 -142.5t34.5 -247q6 -94 25.5 -140t72.5 -46q61 0 92 85t31 173h51q0 -121 -51 -237t-190 -116 q-105 0 -160 47.5t-73.5 120t-22.5 181.5q-10 195 -46 302t-139 107h-225v-612q0 -55 55 -55h148v-66h-594zM662 1583l188 272q27 37 49.5 51.5t50.5 14.5q27 0 42.5 -17.5t15.5 -45.5q0 -47 -58 -91l-262 -206z" />
<glyph unicode="&#x40d;" horiz-adv-x="1576" d="M127 0v66h147q55 0 56 55v1216q0 29 -13.5 42.5t-42.5 13.5h-147v65h594v-65h-148q-29 0 -42 -13.5t-13 -42.5v-1030l582 963v67q0 29 -13.5 42.5t-42.5 13.5h-147v65h594v-65h-148q-55 0 -55 -56v-1216q0 -55 55 -55h148v-66h-594v66h147q55 0 56 55v1030l-582 -963v-67 q0 -55 55 -55h148v-66h-594zM508 1858q0 29 15.5 46t41.5 17q29 0 51.5 -14.5t49.5 -51.5l188 -272l-27 -22l-262 206q-57 43 -57 91z" />
<glyph unicode="&#x40e;" horiz-adv-x="1581" d="M86 1393v65h651v-65h-127q-33 0 -53 -8.5t-20 -24.5q0 -43 10 -64l377 -759l235 600q14 39 25.5 87t11.5 72q0 41 -24.5 69t-81.5 28h-111v65h553v-65h-94q-59 0 -92 -39t-62 -111l-373 -950q-53 -141 -124.5 -235.5t-204.5 -94.5q-121 0 -202 67.5t-81 174.5 q0 84 45 144.5t127 60.5q59 0 97 -32t38 -91q0 -43 -24.5 -75t-73.5 -44q-18 -4 -25.5 -9t-15.5 -16q-8 -14 -8 -32q0 -41 39 -61.5t88 -20.5q84 0 136 62.5t95 176.5l17 47l-504 988q-27 51 -52.5 70.5t-68.5 19.5h-123zM455 1802q0 57 35.5 102.5t103.5 45.5q51 0 82 -31 t31 -74q0 -37 -19.5 -62.5t-56.5 -25.5q-23 0 -33 -12q-8 -10 -8 -27q0 -68 67.5 -102.5t194.5 -34.5t194.5 35t67.5 102q0 16 -8 27q-8 12 -33 12q-37 0 -56.5 25.5t-19.5 62.5q0 43 32 74t81 31q68 0 103.5 -45t35.5 -103q0 -68 -46 -133t-136 -107t-215 -42t-215 42 t-136 107.5t-46 132.5z" />
<glyph unicode="&#x40f;" horiz-adv-x="1613" d="M127 0v66h147q55 0 56 55v1216q0 29 -13.5 42.5t-42.5 13.5h-147v65h594v-65h-148q-29 0 -42 -13.5t-13 -42.5v-1216q0 -55 55 -55h508q55 0 56 55v1216q0 29 -13.5 42.5t-42.5 13.5h-147v65h594v-65h-148q-29 0 -42 -13.5t-13 -42.5v-1216q0 -55 55 -55h148v-66h-654 l33 -211q14 -72 15 -104q0 -43 -26 -69t-69 -26t-68.5 26t-25.5 69q0 33 15 104l32 211h-653z" />
<glyph unicode="&#x410;" horiz-adv-x="1564" d="M94 0v66h76q121 0 176 149l440 1243h52l444 -1302q20 -51 49 -70.5t74 -19.5h115v-66h-635v66h135q31 0 51.5 15t20.5 36q0 27 -9 45l-96 272h-479l-49 -137q-29 -82 -29 -119q0 -45 22.5 -78.5t77.5 -33.5h125v-66h-561zM530 500h435l-213 624z" />
<glyph unicode="&#x411;" horiz-adv-x="1449" d="M127 0v66h147q55 0 56 55v1216q0 29 -13.5 42.5t-42.5 13.5h-147v65h1106l24 -536h-51q-2 12 -11 60t-29.5 116.5t-53.5 128.5q-41 76 -110.5 121t-172.5 45h-256q-29 0 -42 -13.5t-13 -42.5v-542h367q129 0 234.5 -50.5t167 -140.5t61.5 -207t-61.5 -207t-167 -140 t-234.5 -50h-758zM518 121q0 -55 55 -55h277q139 0 209.5 87t70.5 244q0 158 -70.5 245t-209.5 87h-332v-608z" />
<glyph unicode="&#x412;" horiz-adv-x="1413" d="M127 0v66h147q55 0 56 55v1216q0 29 -13.5 42.5t-42.5 13.5h-147v65h668q121 0 226 -45t168.5 -124t63.5 -179q0 -139 -94 -229t-219 -117v-8q84 -6 167 -52.5t137 -126t54 -180.5q0 -125 -65.5 -215t-175 -136t-240.5 -46h-690zM518 121q0 -55 55 -55h222 q125 0 205.5 74.5t80.5 256.5t-80.5 257t-205.5 75h-277v-608zM518 795h268q166 0 226.5 85t60.5 230q0 123 -77.5 203t-192.5 80h-230q-29 0 -42 -13.5t-13 -42.5v-542z" />
<glyph unicode="&#x413;" horiz-adv-x="1331" d="M127 0v66h147q55 0 56 55v1216q0 29 -13.5 42.5t-42.5 13.5h-147v65h1073l25 -565h-51q-2 16 -11.5 71.5t-32 129t-55.5 133.5q-43 74 -114.5 120t-172.5 46h-215q-29 0 -42 -13.5t-13 -42.5v-1216q0 -55 55 -55h183v-66h-629z" />
<glyph unicode="&#x414;" horiz-adv-x="1515" d="M78 37h110q57 0 87 26.5t57 86.5q88 197 136 484.5t48 637.5q0 121 -106 121h-115v65h1110v-65h-148q-29 0 -42 -13.5t-13 -42.5v-1190q0 -111 111 -110h137v-447h-51q0 53 -19.5 159t-83.5 175q-31 33 -81 54.5t-107 21.5h-690q-55 0 -105.5 -21.5t-81.5 -54.5 q-63 -70 -82.5 -175t-19.5 -159h-51v447zM432 131q0 -35 12.5 -50t57.5 -15h456q55 0 56 55v1216q0 55 -56 56h-190q-102 0 -136 -71t-34 -146q0 -242 -43 -511.5t-94 -418.5q-6 -20 -17.5 -60.5t-11.5 -54.5z" />
<glyph unicode="&#x415;" horiz-adv-x="1413" d="M127 0v66h147q55 0 56 55v1216q0 29 -13.5 42.5t-42.5 13.5h-147v65h1143l8 -512h-51q0 41 -17.5 139.5t-68.5 176.5q-86 131 -242 131h-326q-29 0 -42 -13.5t-13 -42.5v-551h158q104 0 150 106.5t46 227.5h54v-733h-54q0 121 -46 227.5t-150 106.5h-158v-600 q0 -55 55 -55h328q59 0 120.5 26.5t104.5 81.5q41 57 68 143t37 157t12 91h51l-24 -565h-1143z" />
<glyph unicode="&#x416;" horiz-adv-x="2064" d="M106 283v45h52q0 -109 18.5 -183.5t85.5 -74.5q45 0 64.5 43t27.5 151q10 160 34 245t96.5 149.5t228.5 109.5v10q-113 49 -131 322q-10 158 -56.5 229.5t-126.5 71.5q-61 0 -61 -49q0 -16 6 -25.5t23 -21.5q31 -20 49 -45q27 -27 26 -70q0 -45 -30 -76q-33 -33 -90 -33 q-45 0 -86 33q-63 51 -64 160q0 94 56.5 151.5t156.5 57.5q123 0 187.5 -89t80.5 -276q12 -160 53.5 -239.5t151.5 -79.5h100v538q0 55 -55 56h-147v65h594v-65h-148q-29 0 -42 -13.5t-13 -42.5v-538h100q111 0 152 79.5t53 239.5q16 186 80.5 275.5t187.5 89.5 q100 0 156.5 -57.5t56.5 -151.5q0 -109 -63 -160q-41 -33 -86 -33q-57 0 -90 33q-31 31 -31 76q0 43 27 70q18 25 49 45q16 12 22 21t6 26q0 49 -61 49q-80 0 -126 -72t-56 -229q-18 -272 -131 -322v-10q156 -45 228.5 -109.5t96 -149.5t33.5 -245q8 -109 27.5 -151.5 t64.5 -42.5q68 0 86.5 74.5t18.5 183.5h51v-45q-4 -125 -46 -216.5t-161 -91.5q-111 0 -169 46.5t-80.5 130.5t-29.5 225q-6 129 -26.5 203.5t-70.5 113.5t-142 39h-127v-612q0 -55 55 -55h148v-66h-594v66h147q55 0 55 55v612h-127q-92 0 -142 -39t-70.5 -113.5 t-26.5 -203.5q-6 -141 -28.5 -225t-81 -130.5t-169.5 -46.5q-118 0 -160 91.5t-47 216.5z" />
<glyph unicode="&#x417;" horiz-adv-x="1277" d="M127 358q0 78 48 130.5t114 52.5q70 0 107.5 -40t37.5 -102q0 -51 -27.5 -80.5t-68.5 -37.5q-31 -6 -51 -17q-20 -10 -21 -35q0 -57 51.5 -103t127 -71.5t141.5 -25.5q182 0 277 100t95 272q0 141 -64.5 247t-205.5 106h-209v73h205q131 0 194.5 89.5t63.5 213.5 q0 127 -68.5 213.5t-201.5 86.5q-166 0 -281 -126t-147 -356h-51v531h51l14 -74q6 -25 15.5 -35t25.5 -10q25 0 80 37q143 98 293 98q164 0 268 -55.5t151.5 -138t47.5 -168.5q0 -88 -50.5 -161t-118 -117t-118.5 -52v-21q70 -6 145.5 -58t127 -135t51.5 -173 q0 -150 -84 -251.5t-218.5 -151.5t-287.5 -50q-123 0 -228.5 49t-168 138.5t-62.5 207.5z" />
<glyph unicode="&#x418;" horiz-adv-x="1576" d="M127 0v66h147q55 0 56 55v1216q0 29 -13.5 42.5t-42.5 13.5h-147v65h594v-65h-148q-29 0 -42 -13.5t-13 -42.5v-1030l582 963v67q0 29 -13.5 42.5t-42.5 13.5h-147v65h594v-65h-148q-55 0 -55 -56v-1216q0 -55 55 -55h148v-66h-594v66h147q55 0 56 55v1030l-582 -963v-67 q0 -55 55 -55h148v-66h-594z" />
<glyph unicode="&#x419;" horiz-adv-x="1576" d="M127 0v66h147q55 0 56 55v1216q0 29 -13.5 42.5t-42.5 13.5h-147v65h594v-65h-148q-29 0 -42 -13.5t-13 -42.5v-1030l582 963v67q0 29 -13.5 42.5t-42.5 13.5h-147v65h594v-65h-148q-55 0 -55 -56v-1216q0 -55 55 -55h148v-66h-594v66h147q55 0 56 55v1030l-582 -963v-67 q0 -55 55 -55h148v-66h-594zM406 1802q0 57 35.5 102.5t103.5 45.5q51 0 81.5 -31t30.5 -74q0 -37 -19.5 -62.5t-55.5 -25.5q-23 0 -33 -12q-8 -10 -8 -27q0 -68 67.5 -102.5t194.5 -34.5t194.5 35t67.5 102q0 16 -8 27q-8 12 -33 12q-37 0 -56.5 25.5t-19.5 62.5 q0 43 32 74t81 31q68 0 103.5 -45t35.5 -103q0 -68 -46 -133t-136 -107t-215 -42t-215 42t-136 107.5t-46 132.5z" />
<glyph unicode="&#x41a;" horiz-adv-x="1490" d="M127 0v66h147q55 0 56 55v1216q0 29 -13.5 42.5t-42.5 13.5h-147v65h594v-65h-148q-29 0 -42 -13.5t-13 -42.5v-538h176q115 0 160 85t55 279q6 135 41 201q29 55 77 87t99 32q92 0 148 -45q70 -63 69 -164q0 -74 -32 -125q-20 -31 -52 -49.5t-67 -18.5q-55 0 -86 31 q-33 33 -33 78q0 39 15.5 63.5t46.5 44.5q45 35 45 62q0 23 -20.5 32t-41.5 9q-78 0 -107.5 -69.5t-39.5 -229.5q-8 -125 -35 -209t-102 -119v-10q133 -61 196.5 -118.5t88 -142.5t34.5 -247q6 -94 25.5 -140t72.5 -46q61 0 92 85t31 173h51q0 -121 -51 -237t-190 -116 q-105 0 -160 47.5t-73.5 120t-22.5 181.5q-10 195 -46 302t-139 107h-225v-612q0 -55 55 -55h148v-66h-594z" />
<glyph unicode="&#x41b;" horiz-adv-x="1593" d="M94 205q0 86 52.5 137t125.5 51q57 0 89 -35.5t32 -83.5q0 -47 -21.5 -75.5t-58.5 -53.5q-39 -29 -39 -61q0 -20 15.5 -31.5t40.5 -11.5q90 0 133 50t67 126q43 131 69 443.5t26 611.5q0 61 -31 91t-102 30h-95v65h1110v-65h-147q-29 0 -42 -13.5t-13 -42.5v-1216 q0 -55 55 -55h147v-66h-594v66h148q55 0 55 55v1216q0 31 -11 43.5t-40 12.5h-176q-84 0 -125 -44t-53.5 -109.5t-16.5 -170.5q-23 -561 -84 -817q-23 -98 -86 -187.5t-211 -89.5q-94 0 -156.5 61.5t-62.5 168.5z" />
<glyph unicode="&#x41c;" horiz-adv-x="1716" d="M127 0v66h74q57 0 93 44t36 119v1108q0 29 -13.5 42.5t-42.5 13.5h-147v65h434l334 -1128l311 1128h424v-65h-147q-29 0 -42.5 -13.5t-13.5 -42.5v-1216q0 -55 56 -55h147v-66h-594v66h148q55 0 55 55v1208l-375 -1354h-49l-391 1299h-12v-1045q0 -76 35.5 -119.5 t93.5 -43.5h73v-66h-487z" />
<glyph unicode="&#x41d;" horiz-adv-x="1613" d="M127 0v66h147q55 0 56 55v1216q0 55 -56 56h-147v65h594v-65h-148q-55 0 -55 -56v-538h619v538q0 55 -56 56h-147v65h594v-65h-148q-55 0 -55 -56v-1216q0 -55 55 -55h148v-66h-594v66h147q55 0 56 55v612h-619v-612q0 -55 55 -55h148v-66h-594z" />
<glyph unicode="&#x41e;" horiz-adv-x="1433" d="M143 729q0 195 76 372t211 285.5t307 108.5t307.5 -108.5t211 -285.5t75.5 -372t-75.5 -372t-211 -285.5t-307.5 -108.5t-307 108.5t-211 286t-76 371.5zM360 729q0 -334 88.5 -517t288.5 -183q201 0 289 183t88 517q0 336 -88 518.5t-289 182.5t-289 -182.5t-88 -518.5z " />
<glyph unicode="&#x41f;" horiz-adv-x="1613" d="M127 0v66h147q55 0 56 55v1216q0 29 -13.5 42.5t-42.5 13.5h-147v65h1401v-65h-148q-29 0 -42 -13.5t-13 -42.5v-1216q0 -55 55 -55h148v-66h-594v66h147q55 0 56 55v1216q0 29 -13.5 42.5t-42.5 13.5h-508q-29 0 -42 -13.5t-13 -42.5v-1216q0 -55 55 -55h148v-66h-594z " />
<glyph unicode="&#x420;" horiz-adv-x="1392" d="M127 0v66h147q55 0 56 55v1216q0 29 -13.5 42.5t-42.5 13.5h-147v65h684q143 0 255 -48t174.5 -135t62.5 -198q0 -113 -62.5 -201t-174.5 -138t-255 -50h-293v-567q0 -29 12.5 -42t42.5 -13h181v-66h-627zM518 754h320q111 0 179 95t68 228t-67.5 224.5t-179.5 91.5h-265 q-29 0 -42 -13.5t-13 -42.5v-583z" />
<glyph unicode="&#x421;" horiz-adv-x="1372" d="M143 741q0 207 70 379t199 273.5t301 101.5q90 0 170 -41t131 -88q49 -45 65 -45t23.5 10t15.5 33l39 115h51l9 -635h-58q-45 195 -116.5 327t-156.5 195.5t-169 63.5q-195 0 -276 -176.5t-81 -512.5q0 -346 84 -529t306 -183q197 0 300 146.5t117 354.5h74 q-6 -121 -50 -249.5t-152.5 -223t-288.5 -94.5q-191 0 -328 110.5t-208 290t-71 377.5z" />
<glyph unicode="&#x422;" horiz-adv-x="1462" d="M147 872l17 586h1175l17 -586h-58q0 59 -20.5 185.5t-79.5 210.5q-94 131 -223 131h-74q-31 0 -43 -13.5t-12 -42.5v-1222q0 -55 55 -55h197v-66h-692v66h196q55 0 55 55v1222q0 29 -12 42.5t-43 13.5h-74q-129 0 -223 -131q-59 -84 -79.5 -210t-20.5 -186h-58z" />
<glyph unicode="&#x423;" horiz-adv-x="1581" d="M86 1393v65h651v-65h-127q-33 0 -53 -8.5t-20 -24.5q0 -43 10 -64l377 -759l235 600q14 39 25.5 87t11.5 72q0 41 -24.5 69t-81.5 28h-111v65h553v-65h-94q-59 0 -92 -39t-62 -111l-373 -950q-53 -141 -124.5 -235.5t-204.5 -94.5q-121 0 -202 67.5t-81 174.5 q0 84 45 144.5t127 60.5q59 0 97 -32t38 -91q0 -43 -24.5 -75t-73.5 -44q-18 -4 -25.5 -9t-15.5 -16q-8 -14 -8 -32q0 -41 39 -61.5t88 -20.5q84 0 136 62.5t95 176.5l17 47l-504 988q-27 51 -52.5 70.5t-68.5 19.5h-123z" />
<glyph unicode="&#x424;" horiz-adv-x="1720" d="M119 737q0 137 67.5 241.5t181 161t250.5 56.5h168v141q0 29 -13 42.5t-42 13.5h-196v65h692v-65h-197q-29 0 -42 -13.5t-13 -42.5v-141h168q137 0 250.5 -56.5t181 -161t67.5 -241.5t-67.5 -241.5t-181 -160.5t-250.5 -56h-168v-158q0 -55 55 -55h197v-66h-692v66h196 q55 0 55 55v158h-168q-137 0 -250.5 56t-181 160.5t-67.5 241.5zM336 737q0 -160 65.5 -276.5t196.5 -116.5h188v786h-188q-131 0 -196.5 -117.5t-65.5 -275.5zM975 344h188q131 0 196.5 117t65.5 276q0 158 -65.5 275.5t-196.5 117.5h-188v-786z" />
<glyph unicode="&#x425;" horiz-adv-x="1536" d="M94 0v66h64q68 0 113.5 35.5t88.5 101.5l347 518l-306 565q-31 57 -62.5 82t-98.5 25h-125v65h635v-65h-123q-37 0 -37 -31q0 -12 4 -26.5t12 -26.5l221 -410l195 291q41 61 41 117q0 35 -27.5 60.5t-72.5 25.5h-64v65h553v-65h-92q-61 0 -103.5 -23.5t-76.5 -77.5 l-314 -471l363 -665q29 -51 57.5 -70.5t69.5 -19.5h127v-66h-635v66h123q29 0 42 12t13 31q0 12 -4 26.5t-10 24.5l-262 483l-236 -358q-51 -78 -51 -129q0 -37 18.5 -63.5t55.5 -26.5h110v-66h-553z" />
<glyph unicode="&#x426;" horiz-adv-x="1638" d="M127 0v66h147q55 0 56 55v1216q0 29 -13.5 42.5t-42.5 13.5h-147v65h594v-65h-148q-29 0 -42 -13.5t-13 -42.5v-1216q0 -55 55 -55h508q55 0 56 55v1216q0 29 -13.5 42.5t-42.5 13.5h-147v65h594v-65h-148q-29 0 -42 -13.5t-13 -42.5v-1190q0 -111 113 -110h135v-447h-51 q0 54 -19.5 159.5t-81.5 174.5q-31 33 -83 54.5t-107 21.5h-1104z" />
<glyph unicode="&#x427;" horiz-adv-x="1499" d="M78 1393v65h594v-65h-148q-55 0 -55 -56v-424q0 -119 60.5 -161.5t170.5 -42.5q109 0 192 54t130 122v452q0 29 -13.5 42.5t-41.5 13.5h-148v65h594v-65h-147q-55 0 -56 -56v-1216q0 -55 56 -55h147v-66h-627v66h181q55 0 55 55v698q-47 -66 -144.5 -121t-205.5 -55 q-164 0 -277.5 74t-113.5 219v401q0 55 -56 56h-147z" />
<glyph unicode="&#x428;" horiz-adv-x="2256" d="M127 0v66h147q29 0 42.5 13t13.5 42v1216q0 29 -13.5 42.5t-42.5 13.5h-147v65h594v-65h-148q-29 0 -42 -13.5t-13 -42.5v-1216q0 -29 13.5 -42t41.5 -13h426q29 0 42.5 13t13.5 42v1216q0 29 -13.5 42.5t-42.5 13.5h-147v65h594v-65h-148q-29 0 -42 -13.5t-13 -42.5 v-1216q0 -29 13.5 -42t41.5 -13h426q29 0 42.5 13t13.5 42v1216q0 29 -13.5 42.5t-42.5 13.5h-147v65h594v-65h-148q-29 0 -42 -13.5t-13 -42.5v-1216q0 -29 13.5 -42t41.5 -13h148v-66h-2044z" />
<glyph unicode="&#x429;" horiz-adv-x="2281" d="M127 0v66h147q29 0 42.5 13t13.5 42v1216q0 29 -13.5 42.5t-42.5 13.5h-147v65h594v-65h-148q-29 0 -42 -13.5t-13 -42.5v-1216q0 -29 13.5 -42t41.5 -13h426q29 0 42.5 13t13.5 42v1216q0 29 -13.5 42.5t-42.5 13.5h-147v65h594v-65h-148q-29 0 -42 -13.5t-13 -42.5 v-1216q0 -29 13.5 -42t41.5 -13h426q29 0 42.5 13t13.5 42v1216q0 29 -13.5 42.5t-42.5 13.5h-147v65h594v-65h-148q-29 0 -42 -13.5t-13 -42.5v-1190q0 -111 111 -110h137v-447h-51q0 54 -19.5 159.5t-83.5 174.5q-31 33 -81 54.5t-107 21.5h-1747z" />
<glyph unicode="&#x42a;" horiz-adv-x="1884" d="M135 893l25 565h995v-65h-147q-29 0 -42.5 -13.5t-13.5 -42.5v-514h367q129 0 235.5 -53t167 -147.5t60.5 -208.5q0 -115 -61.5 -210t-167 -149.5t-234.5 -54.5h-758v66h148q55 0 55 55v1216q0 29 -12.5 42.5t-40.5 13.5h-140q-100 0 -171.5 -46.5t-114.5 -119.5 q-33 -59 -55.5 -133t-32 -129.5t-11.5 -71.5h-51zM952 121q0 -55 56 -55h274q80 0 144.5 46t101.5 124.5t37 177.5q0 96 -37 175t-101.5 124t-144.5 45h-330v-637z" />
<glyph unicode="&#x42b;" horiz-adv-x="2035" d="M127 0v66h147q55 0 56 55v1216q0 29 -13.5 42.5t-42.5 13.5h-147v65h594v-65h-148q-29 0 -42 -13.5t-13 -42.5v-514h367q129 0 235.5 -53t167 -147.5t60.5 -208.5q0 -115 -61.5 -210t-167 -149.5t-234.5 -54.5h-758zM518 121q0 -55 55 -55h275q80 0 144.5 46t101 124.5 t36.5 177.5q0 96 -36.5 175t-101 124t-144.5 45h-330v-637zM1356 0v66h147q55 0 56 55v1216q0 29 -13.5 42.5t-42.5 13.5h-147v65h594v-65h-148q-29 0 -42 -13.5t-13 -42.5v-1216q0 -55 55 -55h148v-66h-594z" />
<glyph unicode="&#x42c;" horiz-adv-x="1449" d="M127 0v66h147q55 0 56 55v1216q0 29 -13.5 42.5t-42.5 13.5h-147v65h594v-65h-148q-29 0 -42 -13.5t-13 -42.5v-514h367q129 0 235.5 -53t167 -147.5t60.5 -208.5q0 -115 -61.5 -210t-167 -149.5t-234.5 -54.5h-758zM518 121q0 -55 55 -55h275q80 0 144.5 46t101 124.5 t36.5 177.5q0 96 -36.5 175t-101 124t-144.5 45h-330v-637z" />
<glyph unicode="&#x42d;" horiz-adv-x="1310" d="M147 330q0 86 44.5 137t105.5 51q47 0 84 -31q39 -39 39 -92q0 -55 -29 -82.5t-69 -44.5q-23 -8 -31 -17t-8 -34q0 -43 38.5 -87t109.5 -72.5t161 -28.5q129 0 221 70.5t127 195.5q27 90 39 188.5t12 249.5h-581v66h581q0 154 -13 271.5t-63 197.5q-47 80 -107 121 t-149 41q-164 0 -273.5 -125t-141.5 -357h-51v531h51l14 -74q10 -45 39 -45q37 0 88 41q55 41 127 67.5t156 26.5q147 0 270 -85t196.5 -244.5t73.5 -372.5q0 -240 -66.5 -427.5t-203.5 -295t-344 -107.5q-125 0 -227.5 50t-161 134t-58.5 183z" />
<glyph unicode="&#x42e;" horiz-adv-x="2052" d="M127 0v66h147q55 0 56 55v1216q0 29 -13.5 42.5t-42.5 13.5h-147v65h594v-65h-148q-29 0 -42 -13.5t-13 -42.5v-563h246q8 188 85 354t209 266.5t298 100.5q172 0 308 -108.5t211 -285.5t75 -372t-75 -372t-211 -285.5t-308 -108.5q-170 0 -304 104.5t-210 276.5t-80 365 h-244v-588q0 -55 55 -55h148v-66h-594zM979 729q0 -336 88 -518t289 -182q200 0 288.5 183t88.5 517t-88.5 517.5t-288.5 183.5q-201 0 -289 -182.5t-88 -518.5z" />
<glyph unicode="&#x42f;" horiz-adv-x="1536" d="M106 328h52q0 -258 116 -258q45 0 63.5 48t24.5 152q10 150 75 262.5t227 186.5v10q-170 18 -275.5 113.5t-105.5 234.5q0 119 63.5 205t166.5 131t220 45h717v-65h-147q-29 0 -42.5 -13.5t-13.5 -42.5v-1216q0 -55 56 -55h147v-66h-629v66h183q31 0 43 13t12 42v592 h-281q-88 0 -133 -99.5t-51 -244.5q-6 -123 -24.5 -204t-75 -135.5t-164.5 -54.5q-142 0 -183 104.5t-41 248.5zM500 1081q0 -145 71.5 -224t245.5 -79h242v559q0 29 -13.5 42.5t-41.5 13.5h-256q-111 0 -179.5 -90.5t-68.5 -221.5z" />
<glyph unicode="&#x430;" horiz-adv-x="1011" d="M94 217q0 104 53.5 163.5t124 85.5t170.5 44l189 35v174q0 190 -191 190q-70 0 -127 -35.5t-57 -80.5q0 -20 6 -31q4 -6 13.5 -12.5t17.5 -8.5q37 -10 56.5 -28.5t19.5 -50.5q0 -43 -26 -61.5t-64 -18.5q-45 0 -82 34.5t-37 100.5q0 76 42 131t108.5 82.5t135.5 27.5 q135 0 233.5 -70.5t98.5 -219.5v-504q0 -102 64 -103q51 0 73.5 59.5t22.5 145.5h37q0 -123 -36 -207t-128 -84q-88 0 -132 52.5t-48 144.5l-10 4q-31 -72 -99.5 -136.5t-161.5 -64.5q-108 0 -187 53.5t-79 188.5zM266 211q0 -94 39 -128t88 -34q92 0 144.5 73t93.5 185v195 l-178 -39q-98 -20 -142.5 -80.5t-44.5 -171.5z" />
<glyph unicode="&#x431;" horiz-adv-x="1015" d="M98 467q0 113 6.5 201t28.5 174q33 127 119 235q76 98 170 152.5t221 99.5q70 27 112 50.5t56 54.5q8 14 12 51h45v-29q0 -143 -79.5 -211.5t-194.5 -97.5q-98 -25 -175 -56.5t-132 -82.5q-53 -49 -83 -113t-36 -125l14 -4q57 90 143.5 141t182.5 51q113 0 207 -66.5 t148.5 -179t54.5 -245.5t-54.5 -245.5t-148.5 -179.5t-207 -67t-207 67t-148.5 179.5t-54.5 245.5zM279 467q0 -211 53 -326.5t176 -115.5t176 115.5t53 326.5t-53 326.5t-176 115.5t-176 -115.5t-53 -326.5z" />
<glyph unicode="&#x432;" horiz-adv-x="983" d="M78 0v49h86q25 0 35 10.5t10 34.5v746q0 25 -10.5 35t-34.5 10h-86v49h479q129 0 210 -61.5t81 -163.5q0 -92 -60.5 -144.5t-136.5 -68.5v-4q41 -4 98.5 -30t100.5 -77t43 -127q0 -117 -95.5 -187.5t-224.5 -70.5h-495zM356 94q0 -25 10.5 -35t34.5 -10h148 q82 0 123 62.5t41 146.5q0 90 -41 147.5t-127 57.5h-189v-369zM356 512h172q84 0 124 53t40 135q0 80 -45 132.5t-115 52.5h-131q-25 0 -35 -10.5t-10 -34.5v-328z" />
<glyph unicode="&#x433;" horiz-adv-x="892" d="M78 0v49h86q25 0 35 10.5t10 34.5v746q0 25 -10.5 35t-34.5 10h-86v49h721l12 -361h-41q0 14 -15.5 81t-45.5 128q-25 47 -70 75t-111 28h-127q-25 0 -35 -10.5t-10 -34.5v-746q0 -25 10.5 -35t34.5 -10h86v-49h-409z" />
<glyph unicode="&#x434;" horiz-adv-x="1003" d="M25 -319l12 360h69q47 0 69 17.5t36 56.5q57 170 82.5 331.5t25.5 356.5q0 82 -45 82h-86v49h738v-49h-86q-25 0 -35 -10.5t-10 -34.5v-725q2 -39 16 -56.5t49 -17.5h111l12 -360h-41q0 14 -15.5 80.5t-45.5 127.5q-57 111 -179 111h-393q-74 0 -114.5 -28.5t-67.5 -82.5 q-31 -61 -46 -127.5t-15 -80.5h-41zM279 86q0 -18 13 -27.5t32 -9.5h278q25 0 35 10.5t10 34.5v746q0 25 -10 35t-35 10h-100q-125 0 -125 -189q0 -96 -20.5 -231t-41.5 -209q-37 -133 -36 -170z" />
<glyph unicode="&#x435;" horiz-adv-x="942" d="M98 463q0 131 51.5 244.5t142.5 182t204 68.5q125 0 204.5 -67.5t115.5 -171t36 -211.5q0 -23 -14.5 -30t-49.5 -7h-509q0 -205 58 -325.5t191 -120.5q94 0 177 71.5t106 222.5h49q-12 -150 -103 -247t-237 -97q-190 0 -306 129t-116 359zM279 520h397q0 164 -43 276.5 t-141 112.5q-104 0 -158.5 -113.5t-54.5 -275.5z" />
<glyph unicode="&#x436;" horiz-adv-x="1470" d="M49 233h37q0 -66 16.5 -125t65.5 -59q31 0 44 33t19 90q12 139 58 203q27 37 67.5 63.5t108.5 44.5v6q-57 18 -76.5 93t-23.5 182q-4 53 -22.5 90t-47.5 37t-29 -27q0 -20 23 -37q10 -8 21.5 -27.5t11.5 -41.5q0 -31 -23 -50.5t-63 -19.5q-45 0 -78 35t-33 90t34 100 t101 45q61 0 104.5 -51t49.5 -147q6 -115 27.5 -181.5t82.5 -66.5h138v328q0 25 -10.5 35t-35.5 10h-86v49h410v-49h-86q-25 0 -35 -10.5t-10 -34.5v-328h137q61 0 83 66.5t28 181.5q6 96 49 147t104 51q68 0 102 -45t34 -100t-33 -90t-78 -35q-41 0 -63.5 19.5t-22.5 50.5 q0 23 11 42t22 27q23 16 22 37q0 27 -28 27q-29 0 -47.5 -37t-22.5 -90q-4 -106 -23.5 -181t-76.5 -94v-6q68 -18 108.5 -44.5t67.5 -63.5q45 -63 57 -203q6 -57 19.5 -90t44.5 -33q49 0 65 59.5t16 124.5h37q0 -96 -35.5 -177t-138.5 -81q-96 0 -135 56.5t-43 177.5 q-4 100 -13 151.5t-35 77t-77 25.5h-135v-369q0 -25 10 -35t35 -10h86v-49h-410v49h86q25 0 35.5 10.5t10.5 34.5v369h-136q-51 0 -76.5 -25.5t-34.5 -77t-14 -151.5q-4 -121 -43 -177.5t-135 -56.5q-102 0 -138 81t-36 177z" />
<glyph unicode="&#x437;" horiz-adv-x="888" d="M86 236q0 45 27.5 84.5t79.5 39.5q47 0 70.5 -26.5t23.5 -65.5q0 -29 -17.5 -50t-48.5 -28q-23 -4 -32 -11t-9 -25q0 -59 73 -94t161 -35q104 0 154 60t50 171q0 86 -33.5 144.5t-117.5 58.5h-176v57h176q80 0 111.5 55.5t31.5 137.5q0 109 -54 154.5t-126 45.5 q-92 0 -171 -87t-103 -212h-37v336h37l16 -49q8 -27 29 -27q16 0 41 19q35 27 88 48t116 21q150 0 235 -71.5t85 -181.5q0 -76 -57.5 -134.5t-130.5 -74.5v-9q86 -18 153.5 -77.5t67.5 -159.5q0 -131 -133 -217q-45 -29 -113 -43.5t-139 -14.5q-78 0 -154 27t-125 85 t-49 149z" />
<glyph unicode="&#x438;" horiz-adv-x="1101" d="M78 0v49h86q25 0 35 10.5t10 34.5v746q0 25 -10.5 35t-34.5 10h-86v49h409v-49h-86q-25 0 -35 -10.5t-10 -34.5v-602l389 548v54q0 25 -10 35t-35 10h-86v49h410v-49h-86q-25 0 -35 -10.5t-10 -34.5v-746q0 -25 10 -35t35 -10h86v-49h-410v49h86q25 0 35 10.5t10 34.5 v602l-389 -549v-53q0 -25 10.5 -35t34.5 -10h86v-49h-409z" />
<glyph unicode="&#x439;" horiz-adv-x="1101" d="M78 0v49h86q25 0 35 10.5t10 34.5v746q0 25 -10.5 35t-34.5 10h-86v49h409v-49h-86q-25 0 -35 -10.5t-10 -34.5v-602l389 548v54q0 25 -10 35t-35 10h-86v49h410v-49h-86q-25 0 -35 -10.5t-10 -34.5v-746q0 -25 10 -35t35 -10h86v-49h-410v49h86q25 0 35 10.5t10 34.5 v602l-389 -549v-53q0 -25 10.5 -35t34.5 -10h86v-49h-409zM274 1200q0 59 29 93t80 34q41 0 64.5 -20.5t23.5 -55.5t-22.5 -52t-45.5 -17q-20 0 -30.5 -9.5t-10.5 -31.5q0 -39 56.5 -55.5t130.5 -16.5t130 16.5t56 55.5q0 23 -10 32t-31 9q-23 0 -45 17.5t-22 51.5 q0 35 23.5 55.5t64.5 20.5q51 0 79.5 -33.5t28.5 -93.5q0 -57 -44 -100t-108.5 -65.5t-121.5 -22.5t-122 22.5t-109 65.5t-44 100z" />
<glyph unicode="&#x43a;" horiz-adv-x="1028" d="M78 0v49h86q25 0 35 10.5t10 34.5v744q0 25 -10.5 35t-34.5 10h-86v49h409v-49h-86q-25 0 -35 -10.5t-10 -34.5v-326h133q68 0 95.5 79t36.5 193q6 88 48 131t99 43q68 0 101.5 -45t33.5 -100t-32.5 -90t-77.5 -35q-41 0 -63.5 22.5t-22.5 55.5q0 18 10 35.5t22 25.5 q23 16 23 35q0 29 -33 29q-25 0 -42 -27.5t-19 -77.5q-6 -104 -33 -190t-86 -107v-6q129 -37 188 -112q29 -35 41.5 -84t18.5 -115q6 -57 19 -90t44 -33q49 0 65.5 59.5t16.5 124.5h37q0 -96 -36 -177t-138 -81q-98 0 -138 54.5t-44 171.5q-4 143 -32 202.5t-104 59.5h-131 v-369q0 -25 10.5 -35t34.5 -10h86v-49h-409z" />
<glyph unicode="&#x43b;" horiz-adv-x="1032" d="M25 137q0 59 29.5 96t84.5 37q43 0 66.5 -27.5t23.5 -66.5q0 -25 -12 -47.5t-31 -30.5q-25 -10 -24 -43q0 -12 11 -21t24 -9q82 0 125 84t61 278l18 219q12 152 13 221q0 31 -10.5 44.5t-47.5 13.5h-77v49h675v-49h-86q-25 0 -35 -10.5t-10 -34.5v-746q0 -25 10.5 -35 t34.5 -10h84v-49h-409v49h88q25 0 35 10.5t10 34.5v746q0 25 -10.5 35t-34.5 10h-68q-49 0 -70.5 -36t-27.5 -112l-31 -366q-14 -188 -69.5 -292t-165.5 -104q-93 0 -133.5 53.5t-40.5 108.5z" />
<glyph unicode="&#x43c;" horiz-adv-x="1179" d="M78 0v49h41q45 0 61.5 27.5t16.5 83.5v680q0 25 -10.5 35t-34.5 10h-74v49h282l230 -680l219 680h293v-49h-74q-25 0 -35 -10.5t-10 -34.5v-746q0 -25 10.5 -35t34.5 -10h74v-49h-385v49h74q25 0 35 10.5t10 34.5v705l-267 -815h-37l-278 798v-622q0 -55 16.5 -83 t61.5 -28h41v-49h-295z" />
<glyph unicode="&#x43d;" horiz-adv-x="1122" d="M78 0v49h86q25 0 35 10.5t10 34.5v746q0 25 -10.5 35t-34.5 10h-86v49h409v-49h-86q-25 0 -35 -10.5t-10 -34.5v-328h410v328q0 25 -10.5 35t-34.5 10h-86v49h409v-49h-86q-25 0 -35 -10.5t-10 -34.5v-746q0 -25 10.5 -35t34.5 -10h86v-49h-409v49h86q25 0 35 10.5 t10 34.5v369h-410v-369q0 -25 10.5 -35t34.5 -10h86v-49h-409z" />
<glyph unicode="&#x43e;" horiz-adv-x="1015" d="M98 467q0 133 54.5 245.5t148.5 179t207 66.5t207 -66.5t148.5 -179t54.5 -245.5t-54.5 -245.5t-148.5 -179.5t-207 -67t-207 67t-148.5 179.5t-54.5 245.5zM279 467q0 -211 53 -326.5t176 -115.5t176 115.5t53 326.5t-53 326.5t-176 115.5t-176 -115.5t-53 -326.5z" />
<glyph unicode="&#x43f;" horiz-adv-x="1122" d="M78 0v49h86q25 0 35 10.5t10 34.5v746q0 25 -10.5 35t-34.5 10h-86v49h966v-49h-86q-25 0 -35 -10.5t-10 -34.5v-746q0 -25 10.5 -35t34.5 -10h86v-49h-409v49h86q25 0 35 10.5t10 34.5v746q0 25 -10.5 35t-34.5 10h-320q-25 0 -35 -10.5t-10 -34.5v-746q0 -25 10.5 -35 t34.5 -10h86v-49h-409z" />
<glyph unicode="&#x440;" horiz-adv-x="1060" d="M57 -422h107q25 0 35 10.5t10 34.5v1217q0 25 -10.5 35t-34.5 10h-107v49h299v-152l9 -2q39 82 99 130t138 48q96 0 179 -64.5t132.5 -177t49.5 -249.5t-49.5 -250t-132.5 -177.5t-179 -64.5q-80 0 -143.5 52.5t-93.5 126.5l-9 -2v-529q0 -25 10.5 -35t34.5 -10h107v-49 h-451v49zM356 373q0 -92 30 -171t81 -124t113 -45q100 0 151 112.5t51 321.5t-51 321.5t-151 112.5q-61 0 -112.5 -45t-81.5 -124t-30 -171v-188z" />
<glyph unicode="&#x441;" horiz-adv-x="892" d="M98 467q0 135 51.5 247.5t142.5 178t208 65.5q94 0 163.5 -39.5t106.5 -102t37 -126.5q0 -63 -33 -99t-80 -36q-41 0 -68.5 26.5t-27.5 63.5t20.5 61.5t49.5 32.5q33 10 32 37q0 25 -21.5 55.5t-66.5 54t-112 23.5q-129 0 -175 -110.5t-46 -331.5t45 -331.5t176 -110.5 q125 0 192.5 88t81.5 206h49q-6 -84 -43 -162.5t-108.5 -130t-171.5 -51.5q-119 0 -210 65.5t-141.5 178.5t-50.5 248z" />
<glyph unicode="&#x442;" horiz-adv-x="966" d="M82 573l14 361h776l13 -361h-41q0 14 -15.5 81t-46.5 128q-25 47 -69.5 75t-110.5 28q-25 0 -35 -10.5t-10 -34.5v-746q0 -25 10.5 -35t34.5 -10h86v-49h-409v49h86q25 0 35 10.5t10 34.5v746q0 25 -10.5 35t-34.5 10q-66 0 -111 -28t-70 -75q-31 -61 -46 -127.5 t-15 -81.5h-41z" />
<glyph unicode="&#x443;" horiz-adv-x="1085" d="M37 885v49h463v-49h-66q-25 0 -45 -13.5t-20 -35.5q0 -35 12 -68l213 -629l170 561q8 25 15 55.5t7 49.5q0 35 -20.5 57.5t-52.5 22.5h-49v49h372v-49h-47q-45 0 -83 -30t-58 -91l-330 -1049q-23 -76 -86 -139t-158 -63q-80 0 -131 51q-27 25 -42 58.5t-15 70.5 q0 27 9 50.5t24 35.5q31 31 69 31q47 0 71 -30t24 -75q0 -25 -17 -57q-12 -20 -12 -39q0 -31 41 -31q61 0 103 48t63 114l55 178l-291 846q-25 66 -47 93.5t-74 27.5h-67z" />
<glyph unicode="&#x444;" horiz-adv-x="1359" d="M98 467q0 121 37 233.5t109.5 185t173.5 72.5q70 0 115 -45t69 -112h4v190q0 117 -28.5 211t-98.5 182l25 25q47 -39 106.5 -127t69.5 -160q10 72 69.5 160t106.5 127l25 -25q-70 -88 -98.5 -182t-28.5 -211v-190h4q25 68 70.5 112.5t113.5 44.5q100 0 173 -72.5 t110 -185t37 -233.5t-37 -233.5t-110 -185.5t-173 -73q-70 0 -117 41t-67 101h-4v-187q0 -117 28.5 -211t98.5 -182l-25 -24q-47 39 -106.5 127t-69.5 159q-10 -72 -69.5 -160t-106.5 -126l-25 24q70 88 98.5 182.5t28.5 210.5v187h-4q-20 -59 -67.5 -100.5t-116.5 -41.5 q-100 0 -173 73t-110 185.5t-37 233.5zM279 467q0 -188 31.5 -315t123.5 -127q80 0 126 102t46 238v192q0 137 -47 244.5t-125 107.5q-92 0 -123.5 -127t-31.5 -315zM754 365q0 -135 46 -237.5t126 -102.5q92 0 123.5 127t31.5 315t-31.5 315t-123.5 127q-78 0 -125 -107.5 t-47 -244.5v-192z" />
<glyph unicode="&#x445;" horiz-adv-x="1064" d="M70 0v49h53q49 0 82 30t67 83l187 278l-250 400q-16 25 -31.5 35t-50.5 10h-49v49h405v-49h-49q-41 0 -41 -41q0 -23 13 -43l141 -230l135 201q18 27 18 66q0 23 -15 35t-34 12h-49v49h356v-49h-51q-43 0 -75.5 -20.5t-65.5 -69.5l-186 -275l260 -418q18 -29 36.5 -41 t63.5 -12h47v-49h-426v49h62q23 0 35 9.5t12 25.5q0 10 -4 21.5t-11 21.5l-163 262l-140 -207q-31 -49 -30 -71q0 -61 51 -62h37v-49h-340z" />
<glyph unicode="&#x446;" horiz-adv-x="1122" d="M78 0v49h86q25 0 35 10.5t10 34.5v746q0 25 -10.5 35t-34.5 10h-86v49h409v-49h-86q-25 0 -35 -10.5t-10 -34.5v-746q0 -25 10.5 -35t34.5 -10h320q25 0 35 10.5t10 34.5v746q0 25 -10.5 35t-34.5 10h-86v49h409v-49h-86q-25 0 -35 -10.5t-10 -34.5v-734q0 -37 16.5 -51 t53.5 -14h107l12 -360h-41q0 14 -15.5 80.5t-46.5 127.5q-25 49 -69.5 80t-108.5 31h-743z" />
<glyph unicode="&#x447;" horiz-adv-x="1024" d="M49 885v49h410v-49h-86q-25 0 -35 -10.5t-10 -34.5v-271q0 -55 22.5 -93t89.5 -38q68 0 130.5 20.5t97.5 51.5v330q0 25 -10.5 35t-34.5 10h-86v49h409v-49h-86q-25 0 -35 -10.5t-10 -34.5v-746q0 -25 10.5 -35t34.5 -10h86v-49h-411v49h88q25 0 35 10.5t10 34.5v379 q-31 -31 -106 -57.5t-138 -26.5q-129 0 -186.5 61.5t-57.5 143.5v246q0 25 -10 35t-35 10h-86z" />
<glyph unicode="&#x448;" horiz-adv-x="1560" d="M78 0v49h86q25 0 35 10.5t10 34.5v746q0 25 -10.5 35t-34.5 10h-86v49h409v-49h-86q-25 0 -35 -10.5t-10 -34.5v-746q0 -25 10.5 -35t34.5 -10h258q25 0 35.5 10.5t10.5 34.5v746q0 25 -10.5 35t-35.5 10h-86v49h410v-49h-86q-25 0 -35 -10.5t-10 -34.5v-746 q0 -25 10 -35t35 -10h258q25 0 35 10.5t10 34.5v746q0 25 -10 35t-35 10h-86v49h410v-49h-86q-25 0 -35 -10.5t-10 -34.5v-746q0 -25 10 -35t35 -10h86v-49h-1401z" />
<glyph unicode="&#x449;" horiz-adv-x="1556" d="M78 0v49h86q25 0 35 10.5t10 34.5v746q0 25 -10.5 35t-34.5 10h-86v49h409v-49h-86q-25 0 -35 -10.5t-10 -34.5v-746q0 -25 10.5 -35t34.5 -10h258q25 0 35.5 10.5t10.5 34.5v746q0 25 -10.5 35t-35.5 10h-86v49h410v-49h-86q-25 0 -35 -10.5t-10 -34.5v-746 q0 -25 10 -35t35 -10h258q25 0 35 10.5t10 34.5v746q0 25 -10 35t-35 10h-86v49h410v-49h-86q-25 0 -35 -10.5t-10 -34.5v-725q4 -74 69 -74h107l12 -360h-41q0 14 -15.5 80.5t-45.5 127.5q-25 49 -70 80t-109 31h-1177z" />
<glyph unicode="&#x44a;" horiz-adv-x="1196" d="M82 573l12 361h635v-49h-86q-25 0 -35 -10.5t-10 -34.5v-332h238q86 0 153.5 -34t106.5 -92t39 -128q0 -68 -42 -126t-111 -93t-146 -35h-517v49h87q25 0 35 10.5t10 34.5v746q0 25 -10.5 35t-37.5 10h-38q-66 0 -111 -28t-70 -75q-31 -61 -46 -127.5t-15 -81.5h-41z M598 94q0 -25 10 -35t35 -10h135q86 0 131 57.5t45 147.5t-46 147.5t-130 57.5h-180v-365z" />
<glyph unicode="&#x44b;" horiz-adv-x="1351" d="M78 0v49h86q25 0 35 10.5t10 34.5v746q0 25 -10.5 35t-34.5 10h-86v49h409v-49h-86q-25 0 -35 -10.5t-10 -34.5v-332h238q86 0 153.5 -34t106.5 -92t39 -128q0 -68 -42 -126t-110.5 -93t-146.5 -35h-516zM356 94q0 -25 10.5 -35t34.5 -10h136q86 0 131 57.5t45 147.5 t-46 147.5t-130 57.5h-181v-365zM864 0v49h86q25 0 35 10.5t10 34.5v746q0 25 -10 35t-35 10h-86v49h410v-49h-86q-25 0 -35 -10.5t-10 -34.5v-746q0 -25 10 -35t35 -10h86v-49h-410z" />
<glyph unicode="&#x44c;" horiz-adv-x="954" d="M78 0v49h86q25 0 35 10.5t10 34.5v746q0 25 -10.5 35t-34.5 10h-86v49h409v-49h-86q-25 0 -35 -10.5t-10 -34.5v-332h238q86 0 153.5 -34t106.5 -92t39 -128q0 -68 -42 -126t-110.5 -93t-146.5 -35h-516zM356 94q0 -25 10.5 -35t34.5 -10h136q86 0 131 57.5t45 147.5 t-46 147.5t-130 57.5h-181v-365z" />
<glyph unicode="&#x44d;" horiz-adv-x="917" d="M98 213q0 43 29 82t78 39q45 0 66.5 -24.5t21.5 -57.5q0 -29 -17.5 -48.5t-48.5 -25.5q-39 -8 -39 -37q0 -53 58.5 -84.5t142.5 -31.5q66 0 120 27.5t81 74.5q29 53 38 127t11 209h-373v49h373q0 195 -46 296t-159 101q-90 0 -168 -87t-102 -212h-37v336h37l16 -49 q8 -27 29 -27q16 0 41 19q100 70 188 69q119 0 205 -65.5t131 -177t45 -248.5q0 -143 -52 -255t-149.5 -174.5t-228.5 -62.5q-119 0 -205 61.5t-86 176.5z" />
<glyph unicode="&#x44e;" horiz-adv-x="1359" d="M86 0v49h86q25 0 35 10.5t10 34.5v746q0 25 -10 35t-35 10h-86v49h410v-49h-86q-25 0 -35 -10.5t-10 -34.5v-348h155q6 121 57.5 228t138.5 172.5t189 65.5q106 0 195.5 -69.5t139.5 -183t50 -238.5t-50 -238.5t-139 -183.5t-196 -70q-102 0 -189 65.5t-138.5 173.5 t-57.5 228h-155v-348q0 -25 10 -35t35 -10h86v-49h-410zM700 467q0 -203 43 -321.5t162 -118.5t162 118.5t43 321.5t-43 322.5t-162 119.5t-162 -119.5t-43 -322.5z" />
<glyph unicode="&#x44f;" horiz-adv-x="1064" d="M49 203h41q0 -74 14.5 -118t61.5 -44q35 0 48 29.5t19 95.5q6 100 51.5 170t155.5 119v4q-47 4 -105.5 30.5t-102.5 75.5t-44 119q0 125 96.5 187.5t231.5 62.5h463v-49h-86q-25 0 -35 -10.5t-10 -34.5v-746q0 -25 10 -35t35 -10h86v-49h-414v49h90q25 0 35 10.5t10 34.5 v352h-176q-68 0 -96.5 -58t-32.5 -175q-4 -119 -38.5 -178.5t-139.5 -59.5q-78 0 -114.5 36t-45 82t-8.5 110zM369 684q0 -86 41 -137t108 -51h182v344q0 25 -10 35t-35 10h-100q-90 0 -138 -52.5t-48 -148.5z" />
<glyph unicode="&#x450;" horiz-adv-x="942" d="M98 463q0 131 51.5 244.5t142.5 182t204 68.5q125 0 204.5 -67.5t115.5 -171t36 -211.5q0 -23 -14.5 -30t-49.5 -7h-509q0 -205 58 -325.5t191 -120.5q94 0 177 71.5t106 222.5h49q-12 -150 -103 -247t-237 -97q-190 0 -306 129t-116 359zM197 1337q0 29 15 46.5t42 17.5 q29 0 51.5 -14.5t48.5 -51.5l189 -272l-27 -23l-262 207q-57 43 -57 90zM279 520h397q0 164 -43 276.5t-141 112.5q-104 0 -158.5 -113.5t-54.5 -275.5z" />
<glyph unicode="&#x451;" horiz-adv-x="942" d="M98 463q0 131 51.5 244.5t142.5 182t204 68.5q125 0 204.5 -67.5t115.5 -171t36 -211.5q0 -23 -14.5 -30t-49.5 -7h-509q0 -205 58 -325.5t191 -120.5q94 0 177 71.5t106 222.5h49q-12 -150 -103 -247t-237 -97q-190 0 -306 129t-116 359zM201 1221q0 41 29.5 69.5 t68.5 28.5q41 0 69.5 -28.5t28.5 -69.5q0 -39 -28.5 -69t-69.5 -30q-39 0 -68.5 30t-29.5 69zM279 520h397q0 164 -43 276.5t-141 112.5q-104 0 -158.5 -113.5t-54.5 -275.5zM586 1221q0 41 29.5 69.5t68.5 28.5q41 0 69.5 -28.5t28.5 -69.5q0 -39 -28.5 -69t-69.5 -30 q-39 0 -68.5 30t-29.5 69z" />
<glyph unicode="&#x452;" horiz-adv-x="983" d="M78 0v49h86q25 0 35 10.5t10 34.5v783h-125v57h125v57q0 117 -28.5 211t-98.5 182l24 25q47 -39 106.5 -127t70.5 -160q10 72 69.5 160t106.5 127l24 -25q-70 -88 -98.5 -182t-28.5 -211v-57h303v-57h-303v-273q51 39 113.5 65.5t122.5 26.5q147 0 222 -88t75 -248 q0 -168 -46 -316t-130 -265q-66 -92 -120 -145.5t-138 -120.5l-29 41q70 59 127 129.5t106 187.5q43 104 54.5 226t11.5 280q0 270 -147 270q-63 0 -116.5 -21.5t-105.5 -58.5v-473q0 -25 10.5 -35t34.5 -10h86v-49h-409z" />
<glyph unicode="&#x453;" horiz-adv-x="892" d="M78 0v49h86q25 0 35 10.5t10 34.5v746q0 25 -10.5 35t-34.5 10h-86v49h721l12 -361h-41q0 14 -15.5 81t-45.5 128q-25 47 -70 75t-111 28h-127q-25 0 -35 -10.5t-10 -34.5v-746q0 -25 10.5 -35t34.5 -10h86v-49h-409zM399 1063l189 272q27 37 49 51.5t51 14.5 q27 0 42 -17.5t15 -46.5q0 -47 -57 -90l-262 -207z" />
<glyph unicode="&#x454;" horiz-adv-x="917" d="M98 467q0 137 45 248.5t131 177t205 65.5q88 0 189 -69q25 -18 41 -19q20 0 28 27l17 49h37v-336h-37q-25 125 -103 212t-168 87q-113 0 -158.5 -101t-45.5 -296h372v-49h-372q2 -135 11 -209t38 -127q27 -47 81 -74.5t119 -27.5q84 0 142.5 31.5t58.5 84.5q0 29 -39 37 q-31 6 -48 25.5t-17 48.5q0 33 21.5 57.5t66.5 24.5q49 0 77.5 -39t28.5 -82q0 -115 -86 -176.5t-205 -61.5q-131 0 -228 62.5t-149.5 174.5t-52.5 255z" />
<glyph unicode="&#x455;" horiz-adv-x="888" d="M106 707q0 125 78 188t197 63q59 0 111.5 -19t87.5 -46q45 -33 67 -33q27 0 33 37l4 41h37v-311h-37l-29 71q-47 117 -123.5 164t-152.5 47t-125 -37.5t-49 -105.5q0 -59 48 -97t132 -73l221 -92q98 -41 147.5 -99.5t49.5 -162.5q0 -137 -78 -202t-205 -65 q-76 0 -123 20.5t-92 55.5q-18 14 -36.5 24.5t-32.5 10.5q-49 0 -68 -70l-8 -41h-37v406h37l76 -162q111 -195 286 -194q94 0 140.5 46t46.5 126q0 47 -36 84.5t-95 60.5l-234 94q-111 45 -174.5 108.5t-63.5 162.5z" />
<glyph unicode="&#x456;" horiz-adv-x="552" d="M78 0v49h86q25 0 35 10.5t10 34.5v746q0 25 -10.5 35t-34.5 10h-86v49h278v-840q0 -25 10.5 -35t34.5 -10h86v-49h-409zM164 1294q0 47 30.5 77t75.5 30q47 0 77 -30t30 -77q0 -45 -30 -75.5t-77 -30.5q-45 0 -75.5 30.5t-30.5 75.5z" />
<glyph unicode="&#x457;" horiz-adv-x="577" d="M23 1221q0 41 29.5 69.5t68.5 28.5q41 0 69.5 -28.5t28.5 -69.5q0 -39 -28.5 -69t-69.5 -30q-39 0 -68.5 30t-29.5 69zM102 0v49h86q25 0 35 10.5t10 34.5v746q0 25 -10 35t-35 10h-86v49h279v-840q0 -25 10 -35t35 -10h86v-49h-410zM367 1221q0 41 29.5 69.5t68.5 28.5 q41 0 69.5 -28.5t28.5 -69.5q0 -39 -28.5 -69t-69.5 -30q-39 0 -68.5 30t-29.5 69z" />
<glyph unicode="&#x458;" horiz-adv-x="655" d="M-78 -295q0 55 32 93t77 38q35 0 55 -19.5t20 -49.5q0 -25 -11 -42.5t-32 -35.5q-31 -29 -30 -62q0 -35 31.5 -50t72.5 -15q68 0 115 65.5t47 227.5v985q0 25 -10 35t-35 10h-148v49h340v-1022q0 -137 -46 -227.5t-117.5 -131t-149.5 -40.5q-86 0 -148.5 52t-62.5 140z M254 1294q0 47 30.5 77t75.5 30q47 0 77 -30t30 -77q0 -45 -29.5 -75.5t-77.5 -30.5q-45 0 -75.5 30.5t-30.5 75.5z" />
<glyph unicode="&#x459;" horiz-adv-x="1421" d="M25 137q0 59 29.5 96t84.5 37q43 0 66.5 -27.5t23.5 -66.5q0 -25 -12 -47.5t-31 -30.5q-25 -10 -24 -43q0 -12 11 -21t24 -9q82 0 125 84t61 278l18 219q12 152 13 221q0 31 -10.5 44.5t-47.5 13.5h-77v49h675v-49h-86q-25 0 -35 -10.5t-10 -34.5v-332h238 q86 0 153.5 -34t106.5 -92t39 -128q0 -68 -42 -126t-110.5 -93t-146.5 -35h-518v49h88q25 0 35 10.5t10 34.5v746q0 25 -9.5 35t-35.5 10h-68q-49 0 -70.5 -36t-27.5 -112l-31 -366q-14 -188 -69.5 -292t-165.5 -104q-93 0 -133.5 53.5t-40.5 108.5zM823 94q0 -25 10.5 -35 t34.5 -10h136q86 0 131 57.5t45 147.5t-46.5 147.5t-129.5 57.5h-181v-365z" />
<glyph unicode="&#x45a;" horiz-adv-x="1462" d="M78 0v49h86q25 0 35 10.5t10 34.5v746q0 25 -10.5 35t-34.5 10h-86v49h409v-49h-86q-25 0 -35 -10.5t-10 -34.5v-328h361v328q0 25 -10.5 35t-34.5 10h-86v49h409v-49h-86q-25 0 -35 -10.5t-10 -34.5v-328h199q143 0 240.5 -71.5t97.5 -186.5q0 -68 -41 -126t-110.5 -93 t-147.5 -35h-516v49h86q25 0 35 10.5t10 34.5v369h-361v-369q0 -25 10.5 -35t34.5 -10h86v-49h-409zM864 94q0 -25 10.5 -35t34.5 -10h135q86 0 131.5 57.5t45.5 147.5t-49.5 149.5t-141.5 59.5h-166v-369z" />
<glyph unicode="&#x45b;" horiz-adv-x="1069" d="M78 0v49h86q25 0 35 10.5t10 34.5v783h-125v57h125v57q0 117 -28.5 211t-98.5 182l24 25q47 -39 106.5 -127t70.5 -160q10 72 69.5 160t106.5 127l24 -25q-70 -88 -98.5 -182t-28.5 -211v-57h303v-57h-303v-273q39 33 112 62.5t140 29.5q133 0 198.5 -62.5t65.5 -154.5 v-385q0 -25 10.5 -35t35.5 -10h86v-49h-410v49h86q25 0 35 10.5t10 34.5v410q0 143 -133 143q-127 0 -236 -80v-473q0 -25 10.5 -35t34.5 -10h86v-49h-409z" />
<glyph unicode="&#x45c;" horiz-adv-x="1028" d="M78 0v49h86q25 0 35 10.5t10 34.5v744q0 25 -10.5 35t-34.5 10h-86v49h409v-49h-86q-25 0 -35 -10.5t-10 -34.5v-326h133q68 0 95.5 79t36.5 193q6 88 48 131t99 43q68 0 101.5 -45t33.5 -100t-32.5 -90t-77.5 -35q-41 0 -63.5 22.5t-22.5 55.5q0 18 10 35.5t22 25.5 q23 16 23 35q0 29 -33 29q-25 0 -42 -27.5t-19 -77.5q-6 -104 -33 -190t-86 -107v-6q129 -37 188 -112q29 -35 41.5 -84t18.5 -115q6 -57 19 -90t44 -33q49 0 65.5 59.5t16.5 124.5h37q0 -96 -36 -177t-138 -81q-98 0 -138 54.5t-44 171.5q-4 143 -32 202.5t-104 59.5h-131 v-369q0 -25 10.5 -35t34.5 -10h86v-49h-409zM481 1063l189 272q27 37 49 51.5t51 14.5q27 0 42 -17.5t15 -46.5q0 -47 -57 -90l-262 -207z" />
<glyph unicode="&#x45d;" horiz-adv-x="1101" d="M78 0v49h86q25 0 35 10.5t10 34.5v746q0 25 -10.5 35t-34.5 10h-86v49h409v-49h-86q-25 0 -35 -10.5t-10 -34.5v-602l389 548v54q0 25 -10 35t-35 10h-86v49h410v-49h-86q-25 0 -35 -10.5t-10 -34.5v-746q0 -25 10 -35t35 -10h86v-49h-410v49h86q25 0 35 10.5t10 34.5 v602l-389 -549v-53q0 -25 10.5 -35t34.5 -10h86v-49h-409zM254 1337q0 29 15.5 46.5t41.5 17.5q29 0 51.5 -14.5t49.5 -51.5l188 -272l-27 -23l-262 207q-57 43 -57 90z" />
<glyph unicode="&#x45e;" horiz-adv-x="1085" d="M37 885v49h463v-49h-66q-25 0 -45 -13.5t-20 -35.5q0 -35 12 -68l213 -629l170 561q8 25 15 55.5t7 49.5q0 35 -20.5 57.5t-52.5 22.5h-49v49h372v-49h-47q-45 0 -83 -30t-58 -91l-330 -1049q-23 -76 -86 -139t-158 -63q-80 0 -131 51q-27 25 -42 58.5t-15 70.5 q0 27 9 50.5t24 35.5q31 31 69 31q47 0 71 -30t24 -75q0 -25 -17 -57q-12 -20 -12 -39q0 -31 41 -31q61 0 103 48t63 114l55 178l-291 846q-25 66 -47 93.5t-74 27.5h-67zM291 1200q0 59 28.5 93t79.5 34q41 0 64.5 -20.5t23.5 -55.5t-22.5 -52t-44.5 -17q-20 0 -30.5 -9.5 t-10.5 -31.5q0 -39 56.5 -55.5t129.5 -16.5q74 0 130.5 16.5t56.5 55.5q0 23 -10.5 32t-30.5 9q-23 0 -45.5 17.5t-22.5 51.5q0 35 23.5 55.5t64.5 20.5q51 0 80 -33.5t29 -93.5q0 -57 -44 -100t-108.5 -65.5t-122.5 -22.5q-57 0 -121.5 22.5t-108.5 65.5t-44 100z" />
<glyph unicode="&#x45f;" horiz-adv-x="1122" d="M78 0v49h86q25 0 35 10.5t10 34.5v746q0 25 -10.5 35t-34.5 10h-86v49h409v-49h-86q-25 0 -35 -10.5t-10 -34.5v-746q0 -25 10.5 -35t34.5 -10h320q25 0 35 10.5t10 34.5v746q0 25 -10.5 35t-34.5 10h-86v49h409v-49h-86q-25 0 -35 -10.5t-10 -34.5v-746q0 -25 10.5 -35 t34.5 -10h86v-49h-444l29 -193q6 -37 6 -75q0 -33 -20.5 -50.5t-53.5 -17.5t-53.5 17.5t-20.5 50.5q0 39 7 75l28 193h-444z" />
<glyph unicode="&#x460;" horiz-adv-x="1912" d="M156 1458h217q0 -152 22.5 -334t53.5 -313q43 -182 133 -372.5t163 -276.5q147 283 216 538q-43 139 -73 362.5t-40 395.5h221q25 -414 98 -676q39 -141 132.5 -333.5t173.5 -290.5q154 242 153 575q0 344 -131 725h307q8 -35 14.5 -100.5t6.5 -104.5q0 -385 -117 -716.5 t-295 -569.5h-47q-90 94 -194.5 283.5t-170.5 345.5h-10q-39 -123 -128 -316.5t-169 -312.5h-45q-90 86 -192.5 265.5t-147.5 302.5q-92 264 -121.5 488t-29.5 435z" />
<glyph unicode="&#x461;" horiz-adv-x="1421" d="M102 934h172q0 -96 15.5 -212t38.5 -198q31 -115 94 -235.5t115 -175.5q104 168 159 338q-29 86 -55.5 238.5t-34.5 244.5h172q14 -246 72 -428q29 -90 94.5 -212t120.5 -183q106 150 106 364q0 231 -90 459h230q6 -23 11 -65t5 -66q0 -248 -86 -461t-219 -367h-33 q-66 61 -141.5 184.5t-120.5 223.5h-8q-29 -80 -95.5 -205t-125.5 -203h-31q-68 56 -144.5 170.5t-107.5 194.5q-68 170 -90.5 314.5t-22.5 279.5z" />
<glyph unicode="&#x462;" horiz-adv-x="1667" d="M135 844l23 454h467v39q0 55 -56 56h-147v65h594v-65h-148q-55 0 -55 -56v-39h516l23 -454h-52q-2 14 -10 62t-30.5 112.5t-59.5 114.5q-41 57 -87 78.5t-103 21.5h-197v-438h289q129 0 234.5 -50.5t167 -140.5t61.5 -207t-61.5 -207t-167 -140t-234.5 -50h-680v66h147 q55 0 56 55v1112h-148q-57 0 -103 -21.5t-87 -78.5q-37 -49 -59.5 -114t-31 -113t-10.5 -62h-51zM813 121q0 -55 55 -55h199q139 0 210 87t71 244q0 158 -71 245t-210 87h-254v-608z" />
<glyph unicode="&#x463;" horiz-adv-x="1196" d="M82 573l12 361h357v57q0 117 -29 211t-98 182l24 25q47 -39 106.5 -127t69.5 -160q10 72 69.5 160t106.5 127l25 -25q-70 -88 -98.5 -182t-28.5 -211v-57h373l14 -361h-41q0 12 -16.5 80t-46.5 129q-25 47 -70 75t-111 28h-55q-27 0 -37 -10.5t-10 -34.5v-332h238 q86 0 153.5 -34t106.5 -92t39 -128q0 -68 -42 -126t-111 -93t-146 -35h-517v49h87q25 0 35 10.5t10 34.5v746q0 25 -10.5 35t-37.5 10h-38q-66 0 -111 -28t-70 -75q-31 -61 -46 -127.5t-15 -81.5h-41zM598 94q0 -25 10 -35t35 -10h135q86 0 131 57.5t45 147.5t-46 147.5 t-130 57.5h-180v-365z" />
<glyph unicode="&#x464;" horiz-adv-x="1994" d="M127 0v66h147q55 0 56 55v1216q0 29 -13.5 42.5t-42.5 13.5h-147v65h594v-65h-148q-29 0 -42 -13.5t-13 -42.5v-567h248q8 195 77.5 359.5t202 265t314.5 100.5q195 0 310.5 -93t164.5 -267h94v-66h-438v66h111q-10 117 -67.5 206t-174.5 89q-150 0 -231.5 -82 t-112.5 -227.5t-33 -366.5q109 68 207 104.5t172 36.5q59 0 137 -47q35 -20 59.5 -30.5t47.5 -10.5q25 0 42 9t40 28l26 -29q-53 -55 -133 -101t-137 -46q-68 0 -148 49q-72 43 -120 43q-43 0 -84 -16.5t-109 -59.5q4 -322 85 -488.5t292 -166.5q117 0 174 89t68 206h-111 v65h438v-65h-94q-49 -174 -165 -267.5t-310 -93.5q-186 0 -319.5 103.5t-202 273.5t-72.5 365h-248v-584q0 -55 55 -55h148v-66h-594z" />
<glyph unicode="&#x465;" horiz-adv-x="1290" d="M86 0v49h86q25 0 35 10.5t10 34.5v746q0 25 -10 35t-35 10h-86v49h410v-49h-86q-25 0 -35 -10.5t-10 -34.5v-459l239 59q-2 20 -2 64q0 203 89 328.5t241 125.5q63 0 103 -37.5t40 -76.5q0 -33 -18.5 -55.5t-57.5 -22.5q-18 0 -47.5 10t-54.5 23q-53 29 -98 28 q-45 0 -74 -41t-29 -104q0 -141 15 -215l319 78l14 -56l-319 -79q37 -150 127 -239t211 -89q39 0 75 24.5t72 69.5l31 -29q-45 -70 -128 -121t-165 -51q-133 0 -222 117t-116 289l-245 -59v-228q0 -25 10 -35t35 -10h86v-49h-410z" />
<glyph unicode="&#x466;" horiz-adv-x="1728" d="M94 0v66h39q76 0 120 42t77 107l579 1243h33l584 -1302q25 -55 53.5 -72.5t79.5 -17.5h37v-66h-504v66h70q29 0 44 13t15 34q0 20 -9 47.5t-28 66.5l-92 207h-223v-313q0 -55 55 -55h90v-66h-479v66h90q55 0 55 55v313h-243l-70 -149q-39 -86 -39 -129q0 -41 21.5 -65.5 t82.5 -24.5h25v-66h-463zM567 500h596l-293 651z" />
<glyph unicode="&#x467;" horiz-adv-x="1175" d="M25 0v49h26q82 0 129 90l414 795h29l413 -830q16 -33 35 -44t53 -11h27v-49h-356v49h39q18 0 26 11.5t8 23.5q0 25 -14 53l-70 137q-100 -14 -144 -97t-46 -177h-74q-2 96 -48 180t-150 94l-46 -84q-27 -49 -26 -79q0 -25 18.5 -43.5t57.5 -18.5h14v-49h-315zM348 328 q72 -8 124 -50t81 -114h8q29 70 79 111.5t120 50.5l-201 403z" />
<glyph unicode="&#x468;" horiz-adv-x="2437" d="M127 0v66h147q55 0 56 55v1216q0 29 -13.5 42.5t-42.5 13.5h-147v65h594v-65h-148q-29 0 -42 -13.5t-13 -42.5v-837h653l447 958h33l583 -1302q25 -55 53.5 -72.5t79.5 -17.5h37v-66h-503v66h69q29 0 44.5 13t15.5 34q0 20 -9.5 47.5t-27.5 66.5l-92 207h-224v-313 q0 -55 56 -55h90v-66h-480v66h91q55 0 55 55v313h-244l-69 -149q-39 -86 -39 -129q0 -41 21.5 -65.5t82.5 -24.5h25v-66h-463v66h39q76 0 121 43t75 106l103 219h-623v-313q0 -55 55 -55h148v-66h-594zM1276 500h596l-293 651z" />
<glyph unicode="&#x469;" horiz-adv-x="1716" d="M86 0v49h86q25 0 35 10.5t10 34.5v746q0 25 -10 35t-35 10h-86v49h410v-49h-86q-25 0 -35 -10.5t-10 -34.5v-512h454l316 606h28l414 -830q16 -33 34.5 -44t53.5 -11h27v-49h-357v49h39q18 0 26.5 11.5t8.5 23.5q0 25 -14 53l-70 137q-100 -14 -144 -97t-46 -177h-74 q-2 96 -48 180t-151 94l-45 -84q-27 -49 -26 -79q0 -25 18 -43.5t57 -18.5h15v-49h-316v49h27q84 0 129 90l72 140h-428v-185q0 -25 10 -35t35 -10h86v-49h-410zM889 328q72 -8 124 -50t81 -114h8q29 70 79 111.5t119 50.5l-200 403z" />
<glyph unicode="&#x46a;" horiz-adv-x="2064" d="M70 0v66h73q31 0 45.5 14t22.5 43l123 371q37 113 96 183.5t158.5 106t253.5 35.5h84l-346 506q-29 39 -52.5 53.5t-72.5 14.5h-37v65h1245v-65h-37q-45 0 -70.5 -16.5t-50.5 -55.5l-336 -502h95q154 0 253 -35.5t158.5 -106.5t96.5 -183l122 -371q8 -29 22.5 -43 t45.5 -14h74v-66h-512v66h108q57 0 58 53q0 12 -9 41l-120 375q-25 74 -51.5 118.5t-78 72.5t-135.5 28h-149v-633q0 -55 55 -55h148v-66h-594v66h147q55 0 55 55v633h-149q-84 0 -135 -28t-78 -73t-51 -118l-121 -375q-8 -29 -8 -41q0 -53 57 -53h109v-66h-512zM774 1393 l350 -508l340 508h-690z" />
<glyph unicode="&#x46b;" horiz-adv-x="1470" d="M33 0v49h37q51 0 75 57l80 187q47 113 122 166t218 53h62l-248 324q-23 29 -37 39t-39 10h-20v49h895v-49h-21q-25 0 -41 -10.5t-37 -38.5l-245 -324h71q143 0 218 -53t122 -166l80 -187q25 -57 76 -57h37v-49h-344v49h49q35 0 35 25q0 16 -11 37l-90 213 q-33 74 -70.5 106.5t-125.5 32.5h-72v-369q0 -25 10 -35t35 -10h86v-49h-410v49h86q25 0 35.5 10.5t10.5 34.5v369h-72q-88 0 -126 -33t-71 -106l-90 -213q-10 -20 -10 -37q0 -25 35 -25h49v-49h-344zM528 885l260 -340l256 340h-516z" />
<glyph unicode="&#x46c;" horiz-adv-x="2797" d="M127 0v66h147q55 0 56 55v1216q0 29 -13.5 42.5t-42.5 13.5h-147v65h594v-65h-148q-29 0 -42 -13.5t-13 -42.5v-518h1143l-348 506q-29 39 -52.5 53.5t-72.5 14.5h-37v65h1245v-65h-37q-45 0 -70.5 -16.5t-50.5 -55.5l-335 -502h94q154 0 253 -35.5t158.5 -106.5 t96.5 -183l123 -371q8 -29 22 -43t45 -14h74v-66h-512v66h108q57 0 58 53q0 12 -8 41l-121 375q-25 74 -51.5 118.5t-77.5 72.5t-135 28h-150v-633q0 -55 55 -55h148v-66h-594v66h147q55 0 56 55v633h-150q-84 0 -135 -28t-77.5 -73t-51.5 -118l-121 -375q-8 -29 -8 -41 q0 -53 57 -53h109v-66h-512v66h74q31 0 45 14t22 43l123 371q33 98 73 159.5t107 94.5v6h-729v-633q0 -55 55 -55h148v-66h-594zM1507 1393l351 -508l340 508h-691z" />
<glyph unicode="&#x46d;" horiz-adv-x="1949" d="M86 0v49h86q25 0 35 10.5t10 34.5v746q0 25 -10 35t-35 10h-86v49h410v-49h-86q-25 0 -35 -10.5t-10 -34.5v-328h790l-248 324q-23 29 -37 39t-39 10h-20v49h895v-49h-20q-25 0 -41.5 -10.5t-36.5 -38.5l-246 -324h72q143 0 217.5 -53t122.5 -166l79 -187q25 -57 76 -57 h37v-49h-344v49h49q35 0 35 25q0 16 -10 37l-90 213q-33 74 -71 106.5t-126 32.5h-72v-369q0 -25 10.5 -35t34.5 -10h86v-49h-409v49h86q25 0 35 10.5t10 34.5v369h-72q-88 0 -126 -33t-70 -106l-91 -213q-10 -20 -10 -37q0 -25 35 -25h49v-49h-344v49h37q51 0 76 57l80 187 q27 59 56.5 100t72.5 66v4h-518v-369q0 -25 10 -35t35 -10h86v-49h-410zM1057 885l260 -340l256 340h-516z" />
<glyph unicode="&#x46e;" horiz-adv-x="1138" d="M127 -236q0 162 93 241t249 114q180 41 265 124t85 199q0 135 -63.5 223.5t-206.5 88.5q-74 0 -116 -27t-66 -76q-33 -61 -47.5 -126.5t-14.5 -82.5h-51l14 385h277q131 0 194.5 89.5t63.5 213.5q0 127 -68.5 213.5t-202.5 86.5q-86 0 -141 -22t-79.5 -51.5t-24.5 -56.5 q0 -20 10 -33.5t31 -25.5q53 -35 53 -86q0 -39 -31 -68.5t-80 -29.5q-55 0 -93 40t-38 101q0 119 87 198t233 95h-2l-181 328h154l160 -291l125 229q39 70 110 70q41 0 64.5 -25.5t23.5 -60.5t-21.5 -59.5t-53.5 -24.5q-25 0 -42.5 15.5t-17.5 41.5q0 20 23 37q18 14 18 23 q0 12 -12 12q-29 0 -51 -41l-140 -254h-2q135 -14 221.5 -70.5t125 -133.5t38.5 -154q0 -88 -50 -161t-117.5 -117t-118.5 -52v-21q72 -6 147.5 -52t125.5 -120.5t50 -165.5q0 -221 -147.5 -332.5t-429.5 -160.5q-141 -25 -195.5 -77t-54.5 -126q0 -96 66.5 -133t191.5 -37 q86 0 132 41t85 111q27 49 53.5 73.5t73.5 24.5q37 0 57.5 -26.5t20.5 -61.5q0 -63 -58.5 -115.5t-157 -82t-214.5 -29.5q-154 0 -243 65.5t-89 185.5z" />
<glyph unicode="&#x46f;" horiz-adv-x="876" d="M86 -168q0 106 71.5 158.5t194.5 77.5q254 51 254 204q0 195 -194 195q-55 0 -87 -17.5t-51 -48.5q-25 -39 -36 -82t-11 -53h-41l11 258h211q98 0 146 58.5t48 138.5q0 82 -51 137t-154 55q-96 0 -146 -27.5t-50 -62.5q0 -25 35 -41q47 -20 47 -69q0 -29 -21.5 -48.5 t-56.5 -19.5q-45 0 -76 32t-31 85q0 72 63.5 127t166.5 69l-140 250h134l124 -225l95 172q20 35 42.5 52.5t59.5 17.5q35 0 56.5 -24.5t21.5 -53.5q0 -33 -19.5 -54.5t-48.5 -21.5q-20 0 -35.5 12.5t-15.5 36.5q0 10 7 20.5t14 16.5q16 12 16 19q0 12 -16 12q-27 0 -52 -45 l-102 -185q147 -14 218 -83.5t71 -149.5q0 -59 -38 -106.5t-91.5 -77t-91.5 -33.5v-16q55 -4 113.5 -34t97 -78t38.5 -108q0 -145 -113.5 -218.5t-328.5 -110.5q-109 -18 -150.5 -52t-41.5 -81q0 -49 55 -76t141 -27q102 0 166 100q23 35 43.5 55.5t50.5 20.5 q25 0 40.5 -18.5t15.5 -40.5q0 -39 -39 -78t-112 -63.5t-169 -24.5q-119 0 -188.5 44t-69.5 130z" />
<glyph unicode="&#x470;" horiz-adv-x="1789" d="M57 1239v66h467v-62h-57q-25 -2 -37 -16.5t-12 -32.5q0 -14 8 -31l410 -764h2v938q0 29 -13.5 42.5t-42.5 13.5h-147v65h594v-65h-148q-29 0 -42 -13.5t-13 -42.5v-938h31l276 654q57 141 127 211.5t162 70.5q102 0 143 -58t41 -134q0 -72 -43 -123t-118 -51 q-51 0 -86 27.5t-35 78.5q0 23 10 40.5t31 41.5q29 31 28 49q0 12 -8 21.5t-24 9.5q-39 0 -70 -34t-80 -148l-307 -721h-78v-213q0 -55 55 -55h148v-66h-594v66h147q55 0 56 55v213h-183l-438 817q-27 49 -49.5 68.5t-73.5 19.5h-37z" />
<glyph unicode="&#x471;" horiz-adv-x="1503" d="M37 885v49h409v-49h-51q-47 -2 -47 -45q0 -12 6 -31l297 -760h29v1139q0 25 -10.5 35t-34.5 10h-107v49h451v-49h-107q-25 0 -35 -10.5t-10 -34.5v-1139h35l211 621q47 137 103.5 212.5t144.5 75.5q92 0 131 -51t39 -106q0 -59 -32 -98t-87 -39q-43 0 -66.5 26.5 t-23.5 63.5q0 25 14.5 47t32.5 35q23 14 23 38q0 12 -10.5 19.5t-22.5 7.5q-59 0 -99 -56.5t-81 -174.5l-228 -670h-84v-373q0 -25 10.5 -35t34.5 -10h107v-49h-451v49h107q25 0 35 10.5t10 34.5v373h-174l-309 797q-20 49 -41 68.5t-72 19.5h-47z" />
<glyph unicode="&#x472;" horiz-adv-x="1433" d="M143 729q0 195 76 372t211 285.5t307 108.5t307.5 -108.5t211 -285.5t75.5 -372t-75.5 -372t-211 -285.5t-307.5 -108.5t-307 108.5t-211 286t-76 371.5zM360 709q2 -324 90.5 -502t286.5 -178q199 0 287 178t90 502h-754zM360 774h754q-4 313 -93 484.5t-284 171.5 t-283.5 -171.5t-93.5 -484.5z" />
<glyph unicode="&#x473;" horiz-adv-x="1015" d="M98 467q0 133 54.5 245.5t148.5 179t207 66.5t207 -66.5t148.5 -179t54.5 -245.5t-54.5 -245.5t-148.5 -179.5t-207 -67t-207 67t-148.5 179.5t-54.5 245.5zM279 451q2 -203 55 -314.5t174 -111.5t174 111.5t55 314.5h-458zM279 500h458q-6 410 -229 409 q-223 0 -229 -409z" />
<glyph unicode="&#x474;" horiz-adv-x="1617" d="M90 1393v65h655v-65h-145q-33 0 -53.5 -13.5t-20.5 -42.5q0 -25 13 -55l352 -987l268 868q31 100 62.5 168t88 116t142.5 48q98 0 146.5 -62.5t48.5 -142.5q0 -76 -38 -136t-116 -60q-53 0 -87 33.5t-34 76.5q0 72 53 117q33 23 33 55q0 37 -39 37q-61 0 -99 -63.5 t-75 -178.5l-377 -1208h-51l-477 1340q-18 51 -47 70.5t-74 19.5h-129z" />
<glyph unicode="&#x475;" horiz-adv-x="1101" d="M37 885v49h442v-49h-57q-27 0 -48.5 -15.5t-21.5 -48.5q0 -20 17 -59l227 -545l182 561q31 94 74 137t104 43t95 -43t34 -92q0 -57 -31.5 -96t-78.5 -39q-39 0 -62.5 22.5t-23.5 51.5q0 27 10 42t27 27q25 18 24 33q0 23 -28 23q-27 0 -46.5 -30t-35.5 -79l-262 -803h-37 l-344 822q-20 49 -41 68.5t-72 19.5h-47z" />
<glyph unicode="&#x476;" horiz-adv-x="1617" d="M90 1393v65h655v-65h-145q-33 0 -53.5 -13.5t-20.5 -42.5q0 -25 13 -55l352 -987l268 868q31 100 62.5 168t88 116t142.5 48q98 0 146.5 -62.5t48.5 -142.5q0 -76 -38 -136t-116 -60q-53 0 -87 33.5t-34 76.5q0 72 53 117q33 23 33 55q0 37 -39 37q-61 0 -99 -63.5 t-75 -178.5l-377 -1208h-51l-477 1340q-18 51 -47 70.5t-74 19.5h-129zM516 1858q0 29 15.5 46t41.5 17q29 0 51.5 -14.5t49.5 -51.5l188 -272l-26 -22l-263 206q-57 43 -57 91zM795 1858q0 29 15 46t42 17q29 0 51.5 -14.5t48.5 -51.5l189 -272l-27 -22l-262 206 q-57 43 -57 91z" />
<glyph unicode="&#x477;" horiz-adv-x="1101" d="M37 885v49h442v-49h-57q-27 0 -48.5 -15.5t-21.5 -48.5q0 -20 17 -59l227 -545l182 561q31 94 74 137t104 43t95 -43t34 -92q0 -57 -31.5 -96t-78.5 -39q-39 0 -62.5 22.5t-23.5 51.5q0 27 10 42t27 27q25 18 24 33q0 23 -28 23q-27 0 -46.5 -30t-35.5 -79l-262 -803h-37 l-344 822q-20 49 -41 68.5t-72 19.5h-47zM184 1337q0 29 15.5 46.5t42.5 17.5q29 0 51 -14.5t49 -51.5l188 -272l-26 -23l-262 207q-57 43 -58 90zM463 1337q0 29 15.5 46.5t41.5 17.5q29 0 51.5 -14.5t49.5 -51.5l188 -272l-27 -23l-262 207q-57 43 -57 90z" />
<glyph unicode="&#x478;" horiz-adv-x="2445" d="M143 729q0 195 70 372t194.5 285.5t284.5 108.5t285 -108.5t194.5 -285.5t69.5 -372t-69.5 -372t-194.5 -285.5t-285 -108.5t-284.5 108.5t-194.5 286t-70 371.5zM360 729q0 -336 77 -518t255 -182t255 182t77 518t-77 518.5t-255 182.5t-255 -182.5t-77 -518.5z M1380 885v49h443v-49h-58q-27 0 -48 -15.5t-21 -48.5q0 -20 16 -59l227 -545l183 561q31 94 73.5 137t104.5 43q61 0 95 -43t34 -92q0 -57 -32 -96t-79 -39q-39 0 -62.5 22.5t-23.5 51.5q0 27 10.5 42t26.5 27q25 18 25 33q0 23 -29 23q-27 0 -46 -30t-36 -79l-297 -909 q-14 -43 -14 -82q0 -41 44 -69.5t124 -55.5l-72 -151q-90 28 -134 71t-44 129q0 49 31 148l49 149l-330 789q-20 49 -40.5 68.5t-72.5 19.5h-47z" />
<glyph unicode="&#x479;" horiz-adv-x="1925" d="M98 467q0 133 51.5 245.5t138.5 179t191 66.5t191.5 -66.5t138.5 -179t51 -245.5t-51 -245.5t-138 -179.5t-192 -67q-104 0 -191 67t-138.5 179.5t-51.5 245.5zM279 467q0 -442 200 -442q201 0 201 442t-201 442t-200 -442zM860 885v49h443v-49h-58q-27 0 -48 -15.5 t-21 -48.5q0 -20 16 -59l227 -545l183 561q31 94 73.5 137t104.5 43q61 0 95 -43t34 -92q0 -57 -32 -96t-79 -39q-39 0 -62.5 22.5t-23.5 51.5q0 27 10.5 42t26.5 27q25 18 25 33q0 23 -29 23q-27 0 -46.5 -30t-35.5 -79l-297 -909q-14 -43 -14 -82q0 -41 44 -69.5 t124 -55.5l-72 -151q-90 28 -134 71t-44 129q0 49 30 148l50 149l-330 789q-20 49 -41 68.5t-72 19.5h-47z" />
<glyph unicode="&#x47a;" horiz-adv-x="1765" d="M143 729q0 172 77 333t216 272.5t322 146.5q6 55 47 92t98 37t98 -37t48 -92q182 -35 321 -146.5t216 -272.5t77 -333t-77 -332.5t-216 -272.5t-321 -147q-6 -55 -47 -92t-99 -37q-57 0 -98 37t-47 92q-182 35 -321.5 147t-216.5 272.5t-77 332.5zM360 729 q0 -291 94.5 -467t307.5 -221q16 45 54 73.5t87 28.5t87 -28.5t52 -73.5q215 45 309.5 221t94.5 467t-94.5 467t-307.5 221q-16 -45 -54 -73.5t-87 -28.5t-87 28.5t-54 73.5q-213 -45 -307.5 -221t-94.5 -467z" />
<glyph unicode="&#x47b;" horiz-adv-x="1220" d="M98 467q0 117 53.5 219t147.5 171t211 91q4 39 33.5 65.5t70.5 26.5t71 -26.5t36 -65.5q115 -25 206 -94.5t143 -169.5t52 -217t-52 -217t-143 -170t-206 -94q-6 -39 -37 -65.5t-70 -26.5q-41 0 -70.5 26.5t-33.5 65.5q-117 23 -211 91t-147.5 170.5t-53.5 219.5z M279 467q0 -180 55 -290.5t180 -141.5q10 33 38 52t62 19q33 0 60.5 -19t40.5 -50q227 61 227 430t-227 430q-10 -31 -38 -50.5t-63 -19.5t-62.5 19.5t-37.5 52.5q-125 -31 -180 -141.5t-55 -290.5z" />
<glyph unicode="&#x47c;" horiz-adv-x="2179" d="M143 729q0 211 74 386t212 277.5t325 102.5q109 0 176 -43t96 -103.5t29 -117.5q0 -68 -44 -119t-120 -51q-49 0 -85 31.5t-36 81.5q0 74 68 118q31 20 42 33.5t11 30.5q0 25 -34 48t-103 23q-211 0 -302.5 -182t-91.5 -516t91.5 -517t302.5 -183q145 0 203.5 71.5 t58.5 175.5v308q0 29 -13.5 42t-41.5 13h-148v66h594v-66h-147q-29 0 -42.5 -13.5t-13.5 -41.5v-308q0 -104 58.5 -175.5t203.5 -71.5q211 0 302.5 183t91.5 517t-91.5 516t-302.5 182q-70 0 -103.5 -23.5t-33.5 -47.5q0 -16 11.5 -29.5t41.5 -34.5q68 -45 68 -118 q0 -49 -36 -81t-85 -32q-76 0 -120 51t-44 119q0 57 29 117.5t96.5 103.5t175.5 43q186 0 324.5 -102.5t212.5 -277.5t74 -386t-74 -386t-212 -278.5t-325 -103.5q-150 0 -227.5 56.5t-124.5 148.5h-8q-47 -92 -125 -148.5t-227 -56.5q-187 0 -325 103.5t-212 278.5t-74 386 zM631 1708q172 233 444 234q94 0 170 -25t201 -84q195 -92 348 -145l-117 -91q-156 64 -301 148q-104 59 -169.5 87t-131.5 28q-88 0 -145.5 -19.5t-103.5 -61.5t-109 -122zM889 1624q0 74 49 113t121 39q96 0 147 -62.5t51 -157.5q0 -35 -6 -71l-43 -21v9q0 96 -42 154.5 t-124 58.5q-35 0 -61.5 -20.5t-26.5 -61.5q0 -27 6.5 -40.5t18.5 -27.5l-29 -29q-25 16 -43 48t-18 69z" />
<glyph unicode="&#x47d;" horiz-adv-x="1540" d="M98 467q0 131 53.5 243.5t151.5 180t225 67.5q74 0 120 -29.5t66.5 -71.5t20.5 -79q0 -49 -27.5 -86t-80.5 -37q-37 0 -62.5 25t-25.5 55q0 47 39 80q31 27 30 51q0 43 -80 43q-141 0 -195 -112.5t-54 -329.5t53 -329.5t196 -112.5q94 0 131 44t37 111v193q0 35 -41 35 h-108v49h448v-49h-110q-41 0 -41 -35v-193q0 -68 37 -111.5t131 -43.5q143 0 196.5 112.5t53.5 329.5t-54.5 329.5t-195.5 112.5q-80 0 -80 -43q0 -25 31 -51q39 -33 38 -80q0 -31 -25.5 -55.5t-62.5 -24.5q-53 0 -80.5 37t-27.5 86q0 37 20.5 79t66.5 71.5t120 29.5 q127 0 225 -67.5t151.5 -180t53.5 -243.5t-53.5 -243.5t-150.5 -180.5t-226 -68q-102 0 -155.5 37t-84.5 99h-4q-31 -61 -84 -98.5t-156 -37.5q-129 0 -226 68t-150.5 180.5t-53.5 243.5zM444 1126q66 82 138.5 120t162.5 38q61 0 112.5 -17.5t119.5 -52.5q113 -59 229 -90 l-43 -80q-111 40 -217 99q-66 37 -113 56.5t-88 19.5q-86 0 -138 -30t-107 -99zM614 1053q0 49 35 78.5t84 29.5q68 0 103.5 -45t35.5 -110q0 -33 -4 -50l-32 -14v6q0 63 -28 101t-83 38q-25 0 -43 -13t-18 -40q0 -18 3 -26.5t11 -18.5l-19 -18q-18 12 -31.5 33.5 t-13.5 48.5z" />
<glyph unicode="&#x47e;" horiz-adv-x="1912" d="M156 1458h217q0 -152 22.5 -334t53.5 -313q43 -182 133 -372.5t163 -276.5q147 283 216 538q-43 139 -73 362.5t-40 395.5h221q25 -414 98 -676q39 -141 132.5 -333.5t173.5 -290.5q154 242 153 575q0 344 -131 725h307q8 -35 14.5 -100.5t6.5 -104.5q0 -385 -117 -716.5 t-295 -569.5h-47q-90 94 -194.5 283.5t-170.5 345.5h-10q-39 -123 -128 -316.5t-169 -312.5h-45q-90 86 -192.5 265.5t-147.5 302.5q-92 264 -121.5 488t-29.5 435zM336 1569l8 295h1241l8 -295h-65q0 10 -8.5 46t-24.5 73q-25 59 -65.5 84.5t-100.5 25.5h-215 q-55 0 -55 -55v-86q0 -55 55 -55h98v-66h-495v66h98q55 0 55 55v86q0 55 -55 55h-215q-59 0 -100 -25.5t-66 -84.5q-16 -37 -24.5 -73t-8.5 -46h-65z" />
<glyph unicode="&#x47f;" horiz-adv-x="1421" d="M102 934h172q0 -96 15.5 -212t38.5 -198q31 -115 94 -235.5t115 -175.5q104 168 159 338q-29 86 -55.5 238.5t-34.5 244.5h172q14 -246 72 -428q29 -90 94.5 -212t120.5 -183q106 150 106 364q0 231 -90 459h230q6 -23 11 -65t5 -66q0 -248 -86 -461t-219 -367h-33 q-66 61 -141.5 184.5t-120.5 223.5h-8q-29 -80 -95.5 -205t-125.5 -203h-31q-68 56 -144.5 170.5t-107.5 194.5q-68 170 -90.5 314.5t-22.5 279.5zM117 1040l8 238h1126l9 -238h-41q0 14 -8.5 47t-34.5 68q-27 35 -70 54.5t-90 19.5h-209q-25 0 -35 -10.5t-10 -34.5v-82 q0 -25 10 -35t35 -10h57v-49h-352v49h57q25 0 35 10t10 35v82q0 25 -10 35t-35 10h-209q-47 0 -90 -19.5t-69 -54.5q-27 -35 -35 -67.5t-8 -47.5h-41z" />
<glyph unicode="&#x480;" horiz-adv-x="1380" d="M78 1393v65h594v-65h-148q-55 0 -55 -56v-424q0 -117 48 -160.5t136 -43.5h391q29 0 42.5 -10.5t13.5 -34.5v-543q0 -55 55 -55h184v-66h-667v66h184q55 0 55 55v477q0 25 -13 35t-42 10h-242q-139 0 -236 74t-97 219v401q0 55 -56 56h-147z" />
<glyph unicode="&#x481;" horiz-adv-x="892" d="M49 885v49h410v-49h-86q-25 0 -35 -10.5t-10 -34.5v-254q0 -55 22.5 -93t89.5 -38h228q25 0 35 -10.5t10 -34.5v-316q0 -25 10 -35t35 -10h86v-49h-412v49h88q25 0 35 10.5t10 34.5v266q0 25 -10 35.5t-35 10.5h-96q-129 0 -186.5 61t-57.5 143v230q0 25 -10 35t-35 10 h-86z" />
<glyph unicode="&#x482;" horiz-adv-x="815" d="M74 -287l176 211l-137 115l51 63l139 -114l141 168l-137 114l51 64l140 -115l176 209l67 -57l-176 -211l137 -115l-51 -63l-139 114l-141 -168l137 -114l-51 -64l-140 115l-176 -209z" />
<glyph unicode="&#x483;" horiz-adv-x="0" d="M-905 1077v113q0 37 37 37h110l443 -144v105q0 37 36 37h74q37 0 37 -37v-111q0 -37 -37 -37h-112l-441 144v-107q0 -37 -37 -37h-73q-37 0 -37 37z" />
<glyph unicode="&#x484;" horiz-adv-x="0" d="M-961 1102q72 111 178.5 180.5t245.5 69.5t246 -70t178 -180l-24 -25q-84 98 -173 135t-227 37q-137 0 -226 -36.5t-173 -135.5z" />
<glyph unicode="&#x485;" horiz-adv-x="0" d="M-680 1245q0 76 50 128t120 52q90 0 164 -106l-31 -29q-49 53 -100 53q-45 0 -79 -35.5t-34 -95.5q0 -74 41 -151l-41 -21q-45 60 -67.5 107t-22.5 98z" />
<glyph unicode="&#x486;" horiz-adv-x="0" d="M-727 1319q74 106 164 106q70 0 120 -52t50 -128q0 -51 -22.5 -98t-67.5 -107l-41 21q41 78 41 151q0 59 -34 95t-79 36q-51 0 -100 -53z" />
<glyph unicode="&#x487;" horiz-adv-x="0" d="M-1036 1675q111 98 231.5 145.5t267.5 47.5t268.5 -47t231.5 -146l-41 -47q-113 92 -217 133t-242 41q-137 0 -241.5 -41t-216.5 -133z" />
<glyph unicode="&#x488;" horiz-adv-x="0" d="M-1679 397q4 95 65.5 162.5t171.5 67.5q111 0 172.5 -67.5t65.5 -162.5h-66q-6 66 -45 115t-127 49t-127 -49t-45 -115h-65zM-1475 -205q5 94 66 162t172 68t172 -68t66 -162h-66q-6 66 -45 115t-127 49t-127 -49t-45 -115h-66zM-1475 987q5 94 66 162t172 68t172 -68 t66 -162h-66q-6 66 -45 115t-127 49t-127 -49t-45 -115h-66zM-774 -512q4 94 65.5 161.5t171.5 67.5q111 0 172.5 -67.5t65.5 -161.5h-66q-6 66 -45 115t-127 49t-126.5 -49t-45.5 -115h-65zM-774 1307q4 94 65.5 161.5t171.5 67.5q111 0 172.5 -67.5t65.5 -161.5h-66 q-6 66 -45 114.5t-127 48.5t-126.5 -49t-45.5 -114h-65zM-74 -205q4 94 65.5 162t172.5 68t172 -68t65 -162h-65q-6 66 -45 115t-127 49t-127 -49t-45 -115h-66zM-74 987q4 94 65.5 162t172.5 68t172 -68t65 -162h-65q-6 66 -45 115t-127 49t-127 -49t-45 -115h-66zM131 397 q4 95 65.5 162.5t172.5 67.5t172 -67.5t65 -162.5h-65q-6 66 -45 115t-127 49t-127 -49t-45 -115h-66z" />
<glyph unicode="&#x489;" horiz-adv-x="0" d="M-1655 555l23 20q25 -53 68.5 -93t84.5 -40q35 0 45 17q8 12 9 49q0 33 26.5 52.5t57.5 19.5q43 0 67.5 -28t24.5 -69q0 -53 -39 -84.5t-96 -31.5q-89 0 -164.5 56t-106.5 132zM-1405 -156q49 -18 107 -18q66 0 94 25.5t28 46.5q0 20 -20 41q-25 25 -25 57 q0 37 23.5 61.5t62.5 24.5q41 0 72 -31t31 -78q0 -41 -31 -83t-89 -69.5t-134 -27.5q-62 0 -119 23v28zM-1264 1262q0 63 23 118h29q-18 -45 -19 -104q0 -66 25.5 -95.5t46.5 -29.5q20 0 41 20q27 27 57 27q37 0 61.5 -24.5t24.5 -63.5q0 -41 -30.5 -71.5t-77.5 -30.5 q-41 0 -83 31.5t-70 89t-28 133.5zM-662 1364q0 88 56.5 164t132.5 106l20 -22q-53 -25 -93 -69t-40 -85q0 -35 17 -45q12 -8 49 -8q33 0 52 -26.5t19 -57.5q0 -43 -27.5 -67.5t-68.5 -24.5q-53 0 -85 39t-32 96zM-633 -260q0 43 27.5 67.5t68.5 24.5q53 0 85 -39t32 -96 q0 -88 -56 -164t-132 -106l-21 22q53 25 93 69t40 85q0 35 -16 45q-12 8 -49 8q-33 0 -52.5 26.5t-19.5 57.5zM-82 -61q0 41 31 71.5t78 30.5q41 0 83 -32t69.5 -89t27.5 -133q0 -63 -23 -119h-28q18 46 18 105q0 66 -25.5 95.5t-46.5 29.5q-20 0 -41 -21q-27 -27 -57 -27 q-37 0 -61.5 25t-24.5 64zM-70 1081q0 41 32 83t90.5 70t131.5 28q66 0 119 -25v-29q-51 20 -104 21q-66 0 -95.5 -25.5t-29.5 -48.5q0 -20 20 -41q27 -27 27 -57q0 -37 -24.5 -61.5t-63.5 -24.5q-41 0 -72 31.5t-31 78.5zM176 500q0 53 39 84.5t96 31.5q88 0 164 -56 t107 -132l-23 -20q-25 53 -69 93t-84 40q-35 0 -46 -17q-8 -12 -8 -49q0 -33 -26.5 -52.5t-57.5 -19.5q-43 0 -67.5 28t-24.5 69z" />
<glyph unicode="&#x490;" horiz-adv-x="1228" d="M127 0v66h147q55 0 56 55v1216q0 29 -13.5 42.5t-42.5 13.5h-147v65h631q53 0 109.5 24.5t105.5 82.5q45 51 72.5 129t41 145.5t13.5 77.5h51l-25 -524h-553q-29 0 -42 -13.5t-13 -42.5v-1216q0 -55 55 -55h183v-66h-629z" />
<glyph unicode="&#x491;" horiz-adv-x="872" d="M78 0v49h86q25 0 35 10.5t10 34.5v746q0 25 -10.5 35t-34.5 10h-86v49h438q61 0 108.5 27.5t71.5 74.5q31 61 46.5 128t15.5 81h41l-13 -360h-385q-25 0 -35 -10.5t-10 -34.5v-746q0 -25 10.5 -35t34.5 -10h86v-49h-409z" />
<glyph unicode="&#x492;" horiz-adv-x="1331" d="M127 0v66h147q55 0 56 55v575h-180v66h180v575q0 29 -13.5 42.5t-42.5 13.5h-147v65h1073l25 -565h-51q-2 16 -11.5 71.5t-32 129t-55.5 133.5q-43 74 -114.5 120t-172.5 46h-215q-29 0 -42 -13.5t-13 -42.5v-575h318v-66h-318v-575q0 -55 55 -55h183v-66h-629z" />
<glyph unicode="&#x493;" horiz-adv-x="892" d="M78 0v49h86q25 0 35 10.5t10 34.5v344h-131v58h131v344q0 25 -10.5 35t-34.5 10h-86v49h721l12 -361h-41q0 14 -15.5 81t-45.5 128q-25 47 -70 75t-111 28h-127q-25 0 -35 -10.5t-10 -34.5v-344h258v-58h-258v-344q0 -25 10.5 -35t34.5 -10h86v-49h-409z" />
<glyph unicode="&#x494;" horiz-adv-x="1454" d="M127 0v66h147q55 0 56 55v1216q0 29 -13.5 42.5t-42.5 13.5h-147v65h1073l25 -524h-51q-2 14 -11.5 62t-32 114t-55.5 117q-43 74 -114.5 120t-172.5 46h-215q-29 0 -42 -13.5t-13 -42.5v-536l6 -4q172 63 328 63q139 0 253 -49t180.5 -146.5t66.5 -234.5t-55.5 -242.5 t-155 -165t-223.5 -59.5q-125 1 -199 62q-72 59 -72 161q0 59 38 102.5t97 43.5q51 0 87 -31t36 -80q0 -31 -10 -49t-29 -35q-16 -14 -23 -25.5t-7 -29.5q0 -29 24.5 -41t59.5 -12q100 0 157.5 95t57.5 298q0 164 -99.5 261t-265.5 97q-119 0 -252 -51v-729h-391z" />
<glyph unicode="&#x495;" horiz-adv-x="958" d="M78 0v49h86q25 0 35 10.5t10 34.5v746q0 25 -10.5 35t-34.5 10h-86v49h721l12 -361h-41q0 14 -15.5 81t-45.5 128q-25 47 -70 75t-111 28h-127q-25 0 -35 -10.5t-10 -34.5v-351q125 33 211 33q142 0 219.5 -73.5t77.5 -210.5q0 -166 -101 -303.5t-271 -258.5l-29 41 q121 98 179 219t58 277q0 141 -42 199.5t-142 58.5q-70 0 -160 -20v-357q0 -25 10.5 -35t34.5 -10h86v-49h-409z" />
<glyph unicode="&#x496;" horiz-adv-x="2064" d="M106 283v45h52q0 -109 18.5 -183.5t85.5 -74.5q45 0 64.5 43t27.5 151q10 160 34 245t96.5 149.5t228.5 109.5v10q-113 49 -131 322q-10 158 -56.5 229.5t-126.5 71.5q-61 0 -61 -49q0 -16 6 -25.5t23 -21.5q31 -20 49 -45q27 -27 26 -70q0 -45 -30 -76q-33 -33 -90 -33 q-45 0 -86 33q-63 51 -64 160q0 94 56.5 151.5t156.5 57.5q123 0 187.5 -89t80.5 -276q12 -160 53.5 -239.5t151.5 -79.5h100v538q0 55 -55 56h-147v65h594v-65h-148q-29 0 -42 -13.5t-13 -42.5v-538h100q111 0 152 79.5t53 239.5q16 186 80.5 275.5t187.5 89.5 q100 0 156.5 -57.5t56.5 -151.5q0 -109 -63 -160q-41 -33 -86 -33q-57 0 -90 33q-31 31 -31 76q0 43 27 70q18 25 49 45q16 12 22 21t6 26q0 49 -61 49q-80 0 -126 -72t-56 -229q-18 -272 -131 -322v-10q156 -45 228.5 -109.5t96 -149.5t33.5 -245q8 -109 27.5 -151.5 t64.5 -42.5q68 0 86.5 74.5t18.5 183.5h51v-45q-4 -152 -53 -228q-13 -24 -13 -67q0 -49 33 -148q35 -100 35 -155q0 -88 -74 -130t-188 -42l-2 49q51 0 82.5 8t46.5 37q10 18 10 49q0 25 -14 96q-12 57 -13 78q0 39 8.5 73t22.5 79l-6 10q-37 -16 -82 -17q-111 0 -169 46.5 t-80.5 130.5t-29.5 225q-6 129 -26.5 203.5t-70.5 113.5t-142 39h-127v-612q0 -55 55 -55h148v-66h-594v66h147q55 0 55 55v612h-127q-92 0 -142 -39t-70.5 -113.5t-26.5 -203.5q-6 -141 -28.5 -225t-81 -130.5t-169.5 -46.5q-119 0 -160.5 91.5t-46.5 216.5z" />
<glyph unicode="&#x497;" horiz-adv-x="1470" d="M49 233h37q0 -66 16.5 -125t65.5 -59q31 0 44 33t19 90q12 139 58 203q27 37 67.5 63.5t108.5 44.5v6q-57 18 -76.5 93t-23.5 182q-4 53 -22.5 90t-47.5 37t-29 -27q0 -20 23 -37q10 -8 21.5 -27.5t11.5 -41.5q0 -31 -23 -50.5t-63 -19.5q-45 0 -78 35t-33 90t34 100 t101 45q61 0 104.5 -51t49.5 -147q6 -115 27.5 -181.5t82.5 -66.5h138v328q0 25 -10.5 35t-35.5 10h-86v49h410v-49h-86q-25 0 -35 -10.5t-10 -34.5v-328h137q61 0 83 66.5t28 181.5q6 96 49 147t104 51q68 0 102 -45t34 -100t-33 -90t-78 -35q-41 0 -63.5 19.5t-22.5 50.5 q0 23 11 42t22 27q23 16 22 37q0 27 -28 27q-29 0 -47.5 -37t-22.5 -90q-4 -106 -23.5 -181t-76.5 -94v-6q68 -18 108.5 -44.5t67.5 -63.5q45 -63 57 -203q6 -57 19.5 -90t44.5 -33q49 0 65 59.5t16 124.5h37q0 -119 -43 -188q-4 -12 -4 -41q0 -61 35 -174q29 -106 29 -145 q0 -90 -75 -131t-192 -41v36q43 0 79 13.5t53 44.5q10 18 10 49q0 25 -15 96q-12 57 -12 78q0 39 8.5 73t22.5 79l-6 6q-25 -12 -64 -13q-96 0 -135 56.5t-43 177.5q-4 100 -13 151.5t-35 77t-77 25.5h-135v-369q0 -25 10 -35t35 -10h86v-49h-410v49h86q25 0 35.5 10.5 t10.5 34.5v369h-136q-51 0 -76.5 -25.5t-34.5 -77t-14 -151.5q-4 -121 -43 -177.5t-135 -56.5q-102 0 -138 81t-36 177z" />
<glyph unicode="&#x498;" horiz-adv-x="1277" d="M127 358q0 78 48 130.5t114 52.5q70 0 107.5 -40t37.5 -102q0 -51 -27.5 -80.5t-68.5 -37.5q-31 -6 -51 -17q-20 -10 -21 -35q0 -57 51.5 -103t127 -71.5t141.5 -25.5q182 0 277 100t95 272q0 141 -64.5 247t-205.5 106h-209v73h205q131 0 194.5 89.5t63.5 213.5 q0 127 -68.5 213.5t-201.5 86.5q-166 0 -281 -126t-147 -356h-51v531h51l14 -74q6 -25 15.5 -35t25.5 -10q25 0 80 37q143 98 293 98q164 0 268 -55.5t151.5 -138t47.5 -168.5q0 -88 -50.5 -161t-118 -117t-118.5 -52v-21q70 -6 145.5 -58t127 -135t51.5 -173 q0 -199 -142.5 -312.5t-355.5 -136.5l29 -178q14 -72 14 -104q0 -43 -25.5 -69t-68.5 -26t-69 26t-26 69q0 33 15 104l26 174q-121 2 -222 51t-162.5 138.5t-61.5 205.5z" />
<glyph unicode="&#x499;" horiz-adv-x="888" d="M86 236q0 45 27.5 84.5t79.5 39.5q47 0 70.5 -26.5t23.5 -65.5q0 -29 -17.5 -50t-48.5 -28q-23 -4 -32 -11t-9 -25q0 -59 73 -94t161 -35q104 0 154 60t50 171q0 86 -33.5 144.5t-117.5 58.5h-176v57h176q80 0 111.5 55.5t31.5 137.5q0 109 -54 154.5t-126 45.5 q-92 0 -171 -87t-103 -212h-37v336h37l16 -49q8 -27 29 -27q16 0 41 19q35 27 88 48t116 21q150 0 235 -71.5t85 -181.5q0 -76 -57.5 -134.5t-130.5 -74.5v-9q86 -18 153.5 -77.5t67.5 -159.5q0 -131 -133 -217q-72 -43 -185 -53l25 -173q6 -37 6 -75q0 -33 -20.5 -50.5 t-53.5 -17.5t-53 17.5t-20 50.5q0 39 6 75l24 168q-123 6 -216 71t-93 190z" />
<glyph unicode="&#x49a;" horiz-adv-x="1490" d="M127 0v66h147q55 0 56 55v1216q0 29 -13.5 42.5t-42.5 13.5h-147v65h594v-65h-148q-29 0 -42 -13.5t-13 -42.5v-538h176q115 0 160 85t55 279q6 135 41 201q29 55 77 87t99 32q92 0 148 -45q70 -63 69 -164q0 -74 -32 -125q-20 -31 -52 -49.5t-67 -18.5q-55 0 -86 31 q-33 33 -33 78q0 39 15.5 63.5t46.5 44.5q45 35 45 62q0 23 -20.5 32t-41.5 9q-78 0 -107.5 -69.5t-39.5 -229.5q-8 -125 -35 -209t-102 -119v-10q133 -61 196.5 -118.5t88 -142.5t34.5 -247q6 -94 25.5 -140t72.5 -46q61 0 92 85t31 173h51q0 -70 -19.5 -152t-68.5 -135 q-8 -22 -8 -51q0 -55 35 -152q2 -8 13.5 -41t16.5 -60.5t5 -51.5q0 -88 -74 -130t-188 -42l-2 49q66 0 102.5 17.5t36.5 76.5q0 25 -14 96q-12 57 -13 78q0 39 8.5 73t22.5 79l-8 10q-39 -16 -86 -17q-104 0 -159.5 47.5t-74 120t-22.5 181.5q-10 195 -46 302t-139 107h-225 v-612q0 -55 55 -55h148v-66h-594z" />
<glyph unicode="&#x49b;" horiz-adv-x="1028" d="M78 0v49h86q25 0 35 10.5t10 34.5v744q0 25 -10.5 35t-34.5 10h-86v49h409v-49h-86q-25 0 -35 -10.5t-10 -34.5v-326h133q68 0 95.5 79t36.5 193q6 88 48 131t99 43q68 0 101.5 -45t33.5 -100t-32.5 -90t-77.5 -35q-41 0 -63.5 22.5t-22.5 55.5q0 18 10 35.5t22 25.5 q23 16 23 35q0 29 -33 29q-25 0 -42 -27.5t-19 -77.5q-6 -104 -33 -190t-86 -107v-6q129 -37 188 -112q29 -35 41.5 -84t18.5 -115q6 -57 19 -90t44 -33q49 0 65.5 59.5t16.5 124.5h37q0 -123 -45 -192q-4 -25 -4 -37q0 -61 35 -174q29 -106 28 -145q0 -90 -74.5 -131 t-191.5 -41v36q43 0 79 13.5t52 44.5q10 25 10 49q0 25 -14 96q-12 57 -12 78q0 39 8 73t22 79l-4 6q-27 -12 -63 -13q-98 0 -138 54.5t-44 171.5q-4 143 -32 202.5t-104 59.5h-131v-369q0 -25 10.5 -35t34.5 -10h86v-49h-409z" />
<glyph unicode="&#x49c;" horiz-adv-x="1490" d="M127 0v66h147q55 0 56 55v1216q0 29 -13.5 42.5t-42.5 13.5h-147v65h594v-65h-148q-29 0 -42 -13.5t-13 -42.5v-538h162v217h57v-213q90 14 127 99t45 261q6 135 41 201q29 55 77 87t99 32q92 0 148 -45q70 -63 69 -164q0 -74 -32 -125q-20 -31 -52 -49.5t-67 -18.5 q-55 0 -86 31q-33 33 -33 78q0 39 15.5 63.5t46.5 44.5q45 35 45 62q0 23 -20.5 32t-41.5 9q-78 0 -107.5 -69.5t-39.5 -229.5q-8 -125 -35 -209t-102 -119v-10q133 -61 196.5 -118.5t88 -142.5t34.5 -247q6 -94 25.5 -140t72.5 -46q61 0 92 85t31 173h51q0 -121 -51 -237 t-190 -116q-104 0 -159.5 47.5t-74 120t-22.5 181.5q-10 195 -46 302t-139 107h-6v-219h-57v219h-162v-612q0 -55 55 -55h148v-66h-594z" />
<glyph unicode="&#x49d;" horiz-adv-x="1028" d="M78 0v49h86q25 0 35 10.5t10 34.5v744q0 25 -10.5 35t-34.5 10h-86v49h409v-49h-86q-25 0 -35 -10.5t-10 -34.5v-326h133q68 0 95.5 79t36.5 193q6 88 48 131t99 43q68 0 101.5 -45t33.5 -100t-32.5 -90t-77.5 -35q-41 0 -63.5 22.5t-22.5 55.5q0 18 10 35.5t22 25.5 q23 16 23 35q0 29 -33 29q-25 0 -42 -27.5t-19 -77.5q-6 -104 -33 -190t-86 -107v-6q129 -37 188 -112q29 -35 41.5 -84t18.5 -115q6 -57 19 -90t44 -33q49 0 65.5 59.5t16.5 124.5h37q0 -96 -36 -177t-138 -81q-98 0 -138 54.5t-44 171.5q-4 143 -32 202.5t-104 59.5h-131 v-369q0 -25 10.5 -35t34.5 -10h86v-49h-409z" />
<glyph unicode="&#x4a0;" horiz-adv-x="1818" d="M147 872l17 586h885v-65h-148q-29 0 -42 -13.5t-13 -42.5v-538h176q115 0 160 85t55 279q6 135 41 201q29 55 77 87t99 32q92 0 148 -45q70 -63 69 -164q0 -74 -33 -125q-20 -31 -52 -49.5t-66 -18.5q-55 0 -86 31q-33 33 -33 78q0 39 15.5 63.5t45.5 44.5q45 35 45 62 q0 23 -20.5 32t-40.5 9q-78 0 -107.5 -69.5t-40.5 -229.5q-8 -125 -34.5 -209t-102.5 -119v-10q133 -61 196.5 -118.5t88 -142.5t35.5 -247q6 -94 25.5 -140t72.5 -46q61 0 92 85t31 173h51q0 -121 -51 -237t-191 -116q-104 0 -159.5 47.5t-73.5 120t-23 181.5 q-10 195 -45.5 302t-138.5 107h-225v-612q0 -55 55 -55h148v-66h-594v66h147q55 0 55 55v1222q0 27 -12 38.5t-43 11.5h-74q-131 0 -223 -125q-59 -84 -79.5 -210t-20.5 -186h-58z" />
<glyph unicode="&#x4a1;" horiz-adv-x="1228" d="M82 573l14 361h592v-49h-86q-25 0 -35 -10.5t-10 -34.5v-328h133q68 0 95.5 79t35.5 193q6 88 48 131t100 43q68 0 101.5 -45t33.5 -100t-33 -90t-78 -35q-41 0 -63.5 22.5t-22.5 55.5q0 18 10.5 35.5t22.5 25.5q23 16 23 35q0 29 -33 29q-25 0 -42.5 -27.5t-19.5 -77.5 q-6 -104 -32.5 -190t-85.5 -107v-6q129 -37 188 -112q29 -35 41 -84t18 -115q6 -57 19.5 -90t44.5 -33q49 0 65.5 59.5t16.5 124.5h37q0 -96 -36 -177t-138 -81q-99 0 -139 54.5t-44 171.5q-4 143 -31.5 202.5t-103.5 59.5h-131v-369q0 -25 10.5 -35t34.5 -10h86v-49h-409 v49h86q25 0 35 10.5t10 34.5v746q0 25 -10.5 35t-34.5 10q-66 0 -111 -28t-70 -75q-33 -61 -47 -126.5t-14 -82.5h-41z" />
<glyph unicode="&#x4a2;" horiz-adv-x="1638" d="M127 0v66h147q55 0 56 55v1216q0 55 -56 56h-147v65h594v-65h-148q-55 0 -55 -56v-538h619v538q0 55 -56 56h-147v65h594v-65h-148q-55 0 -55 -56v-1190q0 -111 113 -110h135v-447h-51q0 53 -19.5 159t-81.5 175q-31 33 -83 54.5t-107 21.5h-297v66h147q55 0 56 55v612 h-619v-612q0 -55 55 -55h148v-66h-594z" />
<glyph unicode="&#x4a3;" horiz-adv-x="1122" d="M78 0v49h86q25 0 35 10.5t10 34.5v746q0 25 -10.5 35t-34.5 10h-86v49h409v-49h-86q-25 0 -35 -10.5t-10 -34.5v-328h410v328q0 25 -10.5 35t-34.5 10h-86v49h409v-49h-86q-25 0 -35 -10.5t-10 -34.5v-734q0 -39 21 -53q12 -4 24 -4h86v-8h46l12 -360h-41 q0 14 -15.5 80.5t-46.5 127.5q-25 49 -69.5 80t-108.5 31h-186v49h86q25 0 35 10.5t10 34.5v369h-410v-369q0 -25 10.5 -35t34.5 -10h86v-49h-409z" />
<glyph unicode="&#x4a4;" horiz-adv-x="2072" d="M127 0v66h147q55 0 56 55v1216q0 55 -56 56h-147v65h594v-65h-148q-55 0 -55 -56v-538h619v538q0 55 -56 56h-147v65h1008l24 -565h-51q-2 16 -11.5 71.5t-32 129t-54.5 133.5q-43 74 -115 120t-172 46h-150q-29 0 -42 -13.5t-13 -42.5v-1216q0 -55 55 -55h148v-66h-594 v66h147q55 0 56 55v612h-619v-612q0 -55 55 -55h148v-66h-594z" />
<glyph unicode="&#x4a5;" horiz-adv-x="1425" d="M78 0v49h86q25 0 35 10.5t10 34.5v746q0 25 -10.5 35t-34.5 10h-86v49h409v-49h-86q-25 0 -35 -10.5t-10 -34.5v-328h410v328q0 25 -10.5 35t-34.5 10h-86v49h696l12 -361h-40q0 14 -15.5 81t-46.5 128q-25 47 -70 75t-110 28h-103q-25 0 -35 -10.5t-10 -34.5v-746 q0 -25 10.5 -35t34.5 -10h86v-49h-409v49h86q25 0 35 10.5t10 34.5v369h-410v-369q0 -25 10.5 -35t34.5 -10h86v-49h-409z" />
<glyph unicode="&#x4aa;" horiz-adv-x="1372" d="M143 741q0 207 70 379t199 273.5t301 101.5q90 0 170 -41t131 -88q49 -45 65 -45t23.5 10t15.5 33l39 115h51l9 -635h-58q-45 195 -116.5 327t-156.5 195.5t-169 63.5q-195 0 -276 -176.5t-81 -512.5q0 -346 84 -529t306 -183q197 0 300 146.5t117 354.5h74 q-4 -114 -45 -237t-137 -218t-256 -110l26 -176q14 -72 15 -104q0 -43 -25.5 -69t-68.5 -26t-69 26t-26 69q0 33 15 104l26 176q-174 16 -299 129t-189.5 285t-64.5 362z" />
<glyph unicode="&#x4ab;" horiz-adv-x="892" d="M98 467q0 135 51.5 247.5t142.5 178t208 65.5q94 0 163.5 -39.5t106.5 -102t37 -126.5q0 -63 -33 -99t-80 -36q-41 0 -68.5 26.5t-27.5 63.5t20.5 61.5t49.5 32.5q33 10 32 37q0 25 -21.5 55.5t-66.5 54t-112 23.5q-129 0 -175 -110.5t-46 -331.5t45 -331.5t176 -110.5 q125 0 192.5 88t81.5 206h49q-8 -122 -80.5 -223.5t-199.5 -118.5l24 -170q6 -37 6 -75q0 -33 -20.5 -50.5t-52.5 -17.5q-33 0 -53.5 17.5t-20.5 50.5q0 39 6 75l25 170q-106 12 -187.5 80t-126.5 175.5t-45 234.5z" />
<glyph unicode="&#x4ae;" horiz-adv-x="1490" d="M86 1393v65h635v-65h-123q-31 0 -51.5 -14.5t-20.5 -37.5q0 -31 11 -45l323 -546l209 401q10 14 22.5 57t12.5 68q0 49 -27.5 83t-85.5 34h-61v65h508v-65h-60q-66 0 -106.5 -40t-79.5 -110l-293 -557v-565q0 -55 55 -55h197v-66h-692v66h196q55 0 56 55v530l-398 652 q-31 53 -55.5 71.5t-64.5 18.5h-107z" />
<glyph unicode="&#x4af;" horiz-adv-x="1085" d="M37 885v49h442v-49h-57q-25 0 -45.5 -13.5t-20.5 -35.5q0 -35 13 -68l229 -553l166 485q8 25 15 55.5t7 49.5q0 35 -20.5 57.5t-52.5 22.5h-49v49h372v-49h-47q-45 0 -83 -30t-58 -91l-217 -633v-508q0 -25 10 -35t35 -10h106v-49h-450v49h106q25 0 35 10.5t10 34.5v490 l-280 669q-20 53 -42 78t-65 25h-59z" />
<glyph unicode="&#x4b0;" horiz-adv-x="1490" d="M86 1393v65h635v-65h-123q-31 0 -51.5 -14.5t-20.5 -37.5q0 -31 11 -45l323 -546l209 401q10 14 22.5 57t12.5 68q0 49 -27.5 83t-85.5 34h-61v65h508v-65h-60q-66 0 -106.5 -40t-79.5 -110l-293 -557v-6h250v-66h-250v-493q0 -55 55 -55h197v-66h-692v66h196q55 0 56 55 v493h-248v66h229l-379 623q-31 53 -55.5 71.5t-64.5 18.5h-107z" />
<glyph unicode="&#x4b1;" horiz-adv-x="1085" d="M37 885v49h442v-49h-57q-25 0 -45.5 -13.5t-20.5 -35.5q0 -35 13 -68l229 -553l166 485q8 25 15 55.5t7 49.5q0 35 -20.5 57.5t-52.5 22.5h-49v49h372v-49h-47q-45 0 -83 -30t-58 -91l-217 -633v-98h262v-66h-262v-344q0 -25 10 -35t35 -10h106v-49h-450v49h106 q25 0 35 10.5t10 34.5v344h-276v66h276v80l-280 669q-20 53 -42 78t-65 25h-59z" />
<glyph unicode="&#x4b6;" horiz-adv-x="1523" d="M78 1393v65h594v-65h-148q-55 0 -55 -56v-424q0 -119 60.5 -161.5t170.5 -42.5q109 0 192 54t130 122v452q0 29 -13.5 42.5t-41.5 13.5h-148v65h594v-65h-147q-55 0 -56 -56v-1190q0 -111 113 -110h135v-447h-51q0 53 -19.5 159t-80.5 175q-31 33 -83.5 54.5t-107.5 21.5 h-330v66h181q55 0 55 55v698q-47 -66 -144.5 -121t-205.5 -55q-164 0 -277.5 74t-113.5 219v401q0 55 -56 56h-147z" />
<glyph unicode="&#x4b7;" horiz-adv-x="1024" d="M49 885v49h410v-49h-86q-25 0 -35 -10.5t-10 -34.5v-271q0 -55 22.5 -93t89.5 -38q68 0 130.5 20.5t97.5 51.5v330q0 25 -10.5 35t-34.5 10h-86v49h409v-49h-86q-25 0 -35 -10.5t-10 -34.5v-734q0 -39 21 -53q12 -4 24 -4h86v-8h45l13 -360h-41q0 14 -15.5 80.5 t-46.5 127.5q-25 49 -70 80t-108 31h-188v49h88q25 0 35 10.5t10 34.5v379q-31 -31 -106 -57.5t-138 -26.5q-129 0 -186.5 61.5t-57.5 143.5v246q0 25 -10 35t-35 10h-86z" />
<glyph unicode="&#x4b8;" horiz-adv-x="1499" d="M78 1393v65h594v-65h-148q-55 0 -55 -56v-424q0 -119 60.5 -161.5t170.5 -42.5h25v237h57v-227q80 18 141.5 65t98.5 101v452q0 29 -13.5 42.5t-41.5 13.5h-148v65h594v-65h-147q-56 -1 -56 -56v-1216q0 -55 56 -55h147v-66h-627v66h181q55 0 55 55v698 q-35 -47 -99.5 -93t-140.5 -67v-215h-57v203q-37 -4 -53 -4q-164 0 -277.5 74t-113.5 219v401q0 55 -56 56h-147z" />
<glyph unicode="&#x4b9;" horiz-adv-x="1024" d="M49 885v49h410v-49h-86q-25 0 -35 -10.5t-10 -34.5v-271q0 -55 22.5 -93t89.5 -38q25 0 37 2v174h55v-165q84 18 136 61v330q0 25 -10.5 35t-34.5 10h-86v49h409v-49h-86q-24 0 -34.5 -10.5t-10.5 -34.5v-746q0 -25 10.5 -35t34.5 -10h86v-49h-411v49h88q25 0 35 10.5 t10 34.5v379q-39 -39 -133 -65v-172h-58v157q-37 -4 -53 -4q-129 0 -186.5 61.5t-57.5 143.5v246q0 25 -10 35t-35 10h-86z" />
<glyph unicode="&#x4ba;" horiz-adv-x="1499" d="M86 0v66h147q55 0 56 55v1216q0 55 -56 56h-147v65h627v-65h-181q-55 0 -55 -56v-698q47 66 144.5 121t205.5 55q164 0 278 -73.5t114 -219.5v-401q0 -55 55 -55h147v-66h-594v66h148q55 0 55 55v424q0 119 -60.5 162t-170.5 43q-109 0 -192 -54.5t-130 -122.5v-452 q0 -29 13.5 -42t41.5 -13h148v-66h-594z" />
<glyph unicode="&#x4bb;" horiz-adv-x="1114" d="M57 0v49h115q25 0 35 10.5t10 34.5v1270q0 25 -10 35t-35 10h-115v49h308v-692l8 -2q47 98 116.5 146t153.5 48q150 0 212.5 -92t62.5 -221v-551q0 -25 10 -35t35 -10h86v-49h-410v49h86q25 0 35 10.5t10 34.5v590q0 90 -36 153.5t-122 63.5q-72 0 -128 -50t-87.5 -137 t-31.5 -194v-426q0 -25 10 -35t35 -10h86v-49h-439z" />
<glyph unicode="&#x4c0;" horiz-adv-x="806" d="M127 0v66h147q55 0 56 55v1216q0 29 -13.5 42.5t-42.5 13.5h-147v65h594v-65h-148q-29 0 -42 -13.5t-13 -42.5v-1216q0 -55 55 -55h148v-66h-594z" />
<glyph unicode="&#x4c1;" horiz-adv-x="2064" d="M106 283v45h52q0 -109 18.5 -183.5t85.5 -74.5q45 0 64.5 43t27.5 151q10 160 34 245t96.5 149.5t228.5 109.5v10q-113 49 -131 322q-10 158 -56.5 229.5t-126.5 71.5q-61 0 -61 -49q0 -16 6 -25.5t23 -21.5q31 -20 49 -45q27 -27 26 -70q0 -45 -30 -76q-33 -33 -90 -33 q-45 0 -86 33q-63 51 -64 160q0 94 56.5 151.5t156.5 57.5q123 0 187.5 -89t80.5 -276q12 -160 53.5 -239.5t151.5 -79.5h100v538q0 55 -55 56h-147v65h594v-65h-148q-29 0 -42 -13.5t-13 -42.5v-538h100q111 0 152 79.5t53 239.5q16 186 80.5 275.5t187.5 89.5 q100 0 156.5 -57.5t56.5 -151.5q0 -109 -63 -160q-41 -33 -86 -33q-57 0 -90 33q-31 31 -31 76q0 43 27 70q18 25 49 45q16 12 22 21t6 26q0 49 -61 49q-80 0 -126 -72t-56 -229q-18 -272 -131 -322v-10q156 -45 228.5 -109.5t96 -149.5t33.5 -245q8 -109 27.5 -151.5 t64.5 -42.5q68 0 86.5 74.5t18.5 183.5h51v-45q-4 -125 -46 -216.5t-161 -91.5q-111 0 -169 46.5t-80.5 130.5t-29.5 225q-6 129 -26.5 203.5t-70.5 113.5t-142 39h-127v-612q0 -55 55 -55h148v-66h-594v66h147q55 0 55 55v612h-127q-92 0 -142 -39t-70.5 -113.5 t-26.5 -203.5q-6 -141 -28.5 -225t-81 -130.5t-169.5 -46.5q-118 0 -160 91.5t-47 216.5zM743 1876h58q18 -86 82.5 -153.5t169.5 -67.5q104 0 168.5 67.5t83.5 153.5h57q0 -68 -34 -141.5t-104.5 -123.5t-170.5 -50q-101 0 -171.5 50t-104.5 123.5t-34 141.5z" />
<glyph unicode="&#x4c2;" horiz-adv-x="1470" d="M49 233h37q0 -66 16.5 -125t65.5 -59q31 0 44 33t19 90q12 139 58 203q27 37 67.5 63.5t108.5 44.5v6q-57 18 -76.5 93t-23.5 182q-4 53 -22.5 90t-47.5 37t-29 -27q0 -20 23 -37q10 -8 21.5 -27.5t11.5 -41.5q0 -31 -23 -50.5t-63 -19.5q-45 0 -78 35t-33 90t34 100 t101 45q61 0 104.5 -51t49.5 -147q6 -115 27.5 -181.5t82.5 -66.5h138v328q0 25 -10.5 35t-35.5 10h-86v49h410v-49h-86q-25 0 -35 -10.5t-10 -34.5v-328h137q61 0 83 66.5t28 181.5q6 96 49 147t104 51q68 0 102 -45t34 -100t-33 -90t-78 -35q-41 0 -63.5 19.5t-22.5 50.5 q0 23 11 42t22 27q23 16 22 37q0 27 -28 27q-29 0 -47.5 -37t-22.5 -90q-4 -106 -23.5 -181t-76.5 -94v-6q68 -18 108.5 -44.5t67.5 -63.5q45 -63 57 -203q6 -57 19.5 -90t44.5 -33q49 0 65 59.5t16 124.5h37q0 -96 -35.5 -177t-138.5 -81q-96 0 -135 56.5t-43 177.5 q-4 100 -13 151.5t-35 77t-77 25.5h-135v-369q0 -25 10 -35t35 -10h86v-49h-410v49h86q25 0 35.5 10.5t10.5 34.5v369h-136q-51 0 -76.5 -25.5t-34.5 -77t-14 -151.5q-4 -121 -43 -177.5t-135 -56.5q-102 0 -138 81t-36 177zM453 1364h45q12 -82 68.5 -143.5t168.5 -61.5 q113 0 169.5 61.5t68.5 143.5h45q0 -55 -32 -122.5t-96.5 -116t-154.5 -48.5t-154.5 48.5t-96 116t-31.5 122.5z" />
<glyph unicode="&#x4cb;" horiz-adv-x="1499" d="M78 1393v65h594v-65h-148q-55 0 -55 -56v-424q0 -119 60.5 -161.5t170.5 -42.5q109 0 192 54t130 122v452q0 29 -13.5 42.5t-41.5 13.5h-148v65h594v-65h-147q-56 -1 -56 -56v-1216q0 -55 56 -55h147v-66h-356q-63 0 -108.5 -30.5t-69.5 -80.5q-31 -61 -46.5 -127.5 t-15.5 -80.5h-41l10 319v66h181q55 0 55 55v698q-47 -66 -144.5 -121t-205.5 -55q-164 0 -277.5 74t-113.5 219v401q0 55 -56 56h-147z" />
<glyph unicode="&#x4cc;" horiz-adv-x="1024" d="M49 885v49h410v-49h-86q-25 0 -35 -10.5t-10 -34.5v-271q0 -55 22.5 -93t89.5 -38q68 0 130.5 20.5t97.5 51.5v330q0 25 -10.5 35t-34.5 10h-86v49h409v-49h-86q-24 0 -34.5 -10.5t-10.5 -34.5v-746q0 -25 10.5 -35t34.5 -10h86v-49h-143q-63 0 -108.5 -30.5t-69.5 -80.5 q-31 -61 -46.5 -127.5t-15.5 -80.5h-41l13 360v8h88q25 0 35 10.5t10 34.5v379q-31 -31 -106 -57.5t-138 -26.5q-129 0 -186.5 61.5t-57.5 143.5v246q0 25 -10 35t-35 10h-86z" />
<glyph unicode="&#x4cf;" horiz-adv-x="552" d="M57 0v49h107q25 0 35 10.5t10 34.5v1270q0 25 -10.5 35t-34.5 10h-107v49h299v-1364q0 -25 10.5 -35t34.5 -10h107v-49h-451z" />
<glyph unicode="&#x4d0;" horiz-adv-x="1564" d="M94 0v66h76q121 0 176 149l440 1243h52l444 -1302q20 -51 49 -70.5t74 -19.5h115v-66h-635v66h135q31 0 51.5 15t20.5 36q0 27 -9 45l-96 272h-479l-49 -137q-29 -82 -29 -119q0 -45 22.5 -78.5t77.5 -33.5h125v-66h-561zM530 500h435l-213 624zM535 1724q0 59 28.5 93 t79.5 34q41 0 64.5 -20.5t23.5 -55.5t-22.5 -52t-44.5 -17q-20 0 -30.5 -9.5t-10.5 -31.5q0 -39 56 -55.5t130 -16.5t130 16.5t56 55.5q0 23 -10 32t-31 9q-23 0 -45 17.5t-22 51.5q0 35 23.5 55.5t64.5 20.5q51 0 79.5 -33.5t28.5 -93.5q0 -57 -44 -100t-108.5 -65.5 t-121.5 -22.5t-121.5 22.5t-108.5 65.5t-44 100z" />
<glyph unicode="&#x4d1;" horiz-adv-x="1011" d="M94 217q0 104 53.5 163.5t124 85.5t170.5 44l189 35v174q0 190 -191 190q-70 0 -127 -35.5t-57 -80.5q0 -20 6 -31q4 -6 13.5 -12.5t17.5 -8.5q37 -10 56.5 -28.5t19.5 -50.5q0 -43 -26 -61.5t-64 -18.5q-45 0 -82 34.5t-37 100.5q0 76 42 131t108.5 82.5t135.5 27.5 q135 0 233.5 -70.5t98.5 -219.5v-504q0 -102 64 -103q51 0 73.5 59.5t22.5 145.5h37q0 -123 -36 -207t-128 -84q-88 0 -132 52.5t-48 144.5l-10 4q-31 -72 -99.5 -136.5t-161.5 -64.5q-108 0 -187 53.5t-79 188.5zM170 1200q0 59 28.5 93t79.5 34q41 0 64.5 -20.5 t23.5 -55.5t-22.5 -52t-44.5 -17q-20 0 -30.5 -9.5t-10.5 -31.5q0 -39 56 -55.5t130 -16.5t130 16.5t56 55.5q0 23 -10 32t-31 9q-23 0 -45 17.5t-22 51.5q0 35 23.5 55.5t64.5 20.5q51 0 79.5 -33.5t28.5 -93.5q0 -57 -44 -100t-108.5 -65.5t-121.5 -22.5t-121.5 22.5 t-108.5 65.5t-44 100zM266 211q0 -94 39 -128t88 -34q92 0 144.5 73t93.5 185v195l-178 -39q-98 -20 -142.5 -80.5t-44.5 -171.5z" />
<glyph unicode="&#x4d2;" horiz-adv-x="1564" d="M94 0v66h76q121 0 176 149l440 1243h52l444 -1302q20 -51 49 -70.5t74 -19.5h115v-66h-635v66h135q31 0 51.5 15t20.5 36q0 27 -9 45l-96 272h-479l-49 -137q-29 -82 -29 -119q0 -45 22.5 -78.5t77.5 -33.5h125v-66h-561zM495 1741q0 47 30 76.5t77 29.5q45 0 75.5 -29.5 t30.5 -76.5q0 -45 -30.5 -76t-75.5 -31q-47 0 -77 31t-30 76zM530 500h435l-213 624zM913 1741q0 47 30 76.5t77 29.5q45 0 75.5 -29.5t30.5 -76.5q0 -45 -30.5 -76t-75.5 -31q-47 0 -77 31t-30 76z" />
<glyph unicode="&#x4d3;" horiz-adv-x="1011" d="M94 217q0 104 53.5 163.5t124 85.5t170.5 44l189 35v174q0 190 -191 190q-70 0 -127 -35.5t-57 -80.5q0 -20 6 -31q4 -6 13.5 -12.5t17.5 -8.5q37 -10 56.5 -28.5t19.5 -50.5q0 -43 -26 -61.5t-64 -18.5q-45 0 -82 34.5t-37 100.5q0 76 42 131t108.5 82.5t135.5 27.5 q135 0 233.5 -70.5t98.5 -219.5v-504q0 -102 64 -103q51 0 73.5 59.5t22.5 145.5h37q0 -123 -36 -207t-128 -84q-88 0 -132 52.5t-48 144.5l-10 4q-31 -72 -99.5 -136.5t-161.5 -64.5q-108 0 -187 53.5t-79 188.5zM156 1221q0 41 28.5 69.5t69.5 28.5q39 0 68.5 -28.5 t29.5 -69.5q0 -39 -29.5 -69t-68.5 -30q-41 0 -69.5 30t-28.5 69zM266 211q0 -94 39 -128t88 -34q92 0 144.5 73t93.5 185v195l-178 -39q-98 -20 -142.5 -80.5t-44.5 -171.5zM541 1221q0 41 28.5 69.5t69.5 28.5q39 0 68.5 -28.5t29.5 -69.5q0 -39 -29.5 -69t-68.5 -30 q-41 0 -69.5 30t-28.5 69z" />
<glyph unicode="&#x4d4;" horiz-adv-x="2056" d="M53 0v66h66q78 0 126 42t81 107l544 1030q35 63 35 105q0 23 -11 33t-40 10h-84v65h1143l8 -512h-51q0 41 -17.5 139.5t-68.5 176.5q-86 131 -242 131h-325q-29 0 -42.5 -13.5t-13.5 -42.5v-551h158q104 0 150.5 106.5t46.5 227.5h53v-733h-53q0 121 -46.5 227.5 t-150.5 106.5h-158v-600q0 -55 56 -55h327q59 0 120.5 26.5t104.5 81.5q41 57 68 143t37 157t12 91h51l-24 -565h-1133v66h138q55 0 55 55v313h-443l-73 -137q-37 -70 -37 -123q0 -47 16.5 -77.5t73.5 -30.5h96v-66h-553zM565 500h408v770z" />
<glyph unicode="&#x4d5;" horiz-adv-x="1433" d="M94 217q0 104 53.5 163.5t124 85.5t170.5 44l189 35v174q0 190 -191 190q-70 0 -127 -35.5t-57 -80.5q0 -20 6 -31q4 -6 13.5 -12.5t17.5 -8.5q37 -10 56.5 -28.5t19.5 -50.5q0 -43 -26 -61.5t-64 -18.5q-45 0 -82 34.5t-37 100.5q0 76 42 131t108.5 82.5t135.5 27.5 q88 0 164 -29.5t121 -92.5q102 123 256 122q125 0 205 -67.5t115.5 -171t35.5 -211.5q0 -23 -14 -30t-49 -7h-502q0 -207 55.5 -326.5t186.5 -119.5q94 0 177 71.5t106 222.5h49q-12 -150 -103.5 -247t-236.5 -97q-135 0 -220 60.5t-130 152.5h-9q-33 -76 -115.5 -144.5 t-177.5 -68.5q-108 0 -187 53.5t-79 188.5zM266 211q0 -94 39 -128t88 -34q94 0 157.5 56.5t92.5 127.5q-12 90 -12 263l-178 -33q-98 -18 -142.5 -79.5t-44.5 -172.5zM778 520h389q0 164 -43 276.5t-141 112.5q-102 0 -153.5 -113.5t-51.5 -275.5z" />
<glyph unicode="&#x4d6;" horiz-adv-x="1413" d="M127 0v66h147q55 0 56 55v1216q0 29 -13.5 42.5t-42.5 13.5h-147v65h1143l8 -512h-51q0 41 -17.5 139.5t-68.5 176.5q-86 131 -242 131h-326q-29 0 -42 -13.5t-13 -42.5v-551h158q104 0 150 106.5t46 227.5h54v-733h-54q0 121 -46 227.5t-150 106.5h-158v-600 q0 -55 55 -55h328q59 0 120.5 26.5t104.5 81.5q41 57 68 143t37 157t12 91h51l-24 -565h-1143zM494 1724q0 59 28.5 93t79.5 34q41 0 64.5 -20.5t23.5 -55.5t-22.5 -52t-44.5 -17q-20 0 -30.5 -9.5t-10.5 -31.5q0 -39 56 -55.5t130 -16.5t130 16.5t56 55.5q0 23 -10 32 t-31 9q-23 0 -45 17.5t-22 51.5q0 35 23.5 55.5t64.5 20.5q51 0 79.5 -33.5t28.5 -93.5q0 -57 -44 -100t-108.5 -65.5t-121.5 -22.5t-121.5 22.5t-108.5 65.5t-44 100z" />
<glyph unicode="&#x4d7;" horiz-adv-x="942" d="M98 463q0 131 51.5 244.5t142.5 182t204 68.5q125 0 204.5 -67.5t115.5 -171t36 -211.5q0 -23 -14.5 -30t-49.5 -7h-509q0 -205 58 -325.5t191 -120.5q94 0 177 71.5t106 222.5h49q-12 -150 -103 -247t-237 -97q-190 0 -306 129t-116 359zM195 1200q0 59 28.5 93t79.5 34 q41 0 64.5 -20.5t23.5 -55.5t-22.5 -52t-44.5 -17q-20 0 -30.5 -9.5t-10.5 -31.5q0 -39 56 -55.5t130 -16.5t130 16.5t56 55.5q0 23 -10 32t-31 9q-23 0 -45 17.5t-22 51.5q0 35 23.5 55.5t64.5 20.5q51 0 79.5 -33.5t28.5 -93.5q0 -57 -44 -100t-108.5 -65.5t-121.5 -22.5 t-121.5 22.5t-108.5 65.5t-44 100zM279 520h397q0 164 -43 276.5t-141 112.5q-104 0 -158.5 -113.5t-54.5 -275.5z" />
<glyph unicode="&#x4d8;" horiz-adv-x="1372" d="M143 750h910q-2 219 -33 366.5t-114 230.5t-230 83q-115 0 -201 -57.5t-141 -151.5q-37 -61 -59.5 -134t-30.5 -129h-74q29 172 100 295q66 111 168.5 176.5t237.5 65.5q190 0 324.5 -107.5t202 -282.5t67.5 -376q0 -207 -71 -382t-202 -279.5t-301 -104.5 q-278 0 -415.5 217t-137.5 570zM360 684q0 -270 75 -462.5t261 -192.5q193 0 273 169t84 486h-693z" />
<glyph unicode="&#x4d9;" horiz-adv-x="942" d="M98 471h566q0 211 -51.5 324.5t-182.5 113.5q-92 0 -168 -65.5t-94 -229.5h-49q12 152 92 248t223 96q123 0 216 -62t143.5 -174t50.5 -255q0 -127 -48 -239.5t-136.5 -182.5t-200.5 -70q-119 0 -201 75t-121 188.5t-39 232.5zM274 422q0 -164 45.5 -280.5t147.5 -116.5 q100 0 148.5 119.5t48.5 277.5h-390z" />
<glyph unicode="&#x4dc;" horiz-adv-x="2064" d="M106 283v45h52q0 -109 18.5 -183.5t85.5 -74.5q45 0 64.5 43t27.5 151q10 160 34 245t96.5 149.5t228.5 109.5v10q-113 49 -131 322q-10 158 -56.5 229.5t-126.5 71.5q-61 0 -61 -49q0 -16 6 -25.5t23 -21.5q31 -20 49 -45q27 -27 26 -70q0 -45 -30 -76q-33 -33 -90 -33 q-45 0 -86 33q-63 51 -64 160q0 94 56.5 151.5t156.5 57.5q123 0 187.5 -89t80.5 -276q12 -160 53.5 -239.5t151.5 -79.5h100v538q0 55 -55 56h-147v65h594v-65h-148q-29 0 -42 -13.5t-13 -42.5v-538h100q111 0 152 79.5t53 239.5q16 186 80.5 275.5t187.5 89.5 q100 0 156.5 -57.5t56.5 -151.5q0 -109 -63 -160q-41 -33 -86 -33q-57 0 -90 33q-31 31 -31 76q0 43 27 70q18 25 49 45q16 12 22 21t6 26q0 49 -61 49q-80 0 -126 -72t-56 -229q-18 -272 -131 -322v-10q156 -45 228.5 -109.5t96 -149.5t33.5 -245q8 -109 27.5 -151.5 t64.5 -42.5q68 0 86.5 74.5t18.5 183.5h51v-45q-4 -125 -46 -216.5t-161 -91.5q-111 0 -169 46.5t-80.5 130.5t-29.5 225q-6 129 -26.5 203.5t-70.5 113.5t-142 39h-127v-612q0 -55 55 -55h148v-66h-594v66h147q55 0 55 55v612h-127q-92 0 -142 -39t-70.5 -113.5 t-26.5 -203.5q-6 -141 -28.5 -225t-81 -130.5t-169.5 -46.5q-118 0 -160 91.5t-47 216.5zM716 1741q0 47 30 76.5t77 29.5q45 0 75.5 -29.5t30.5 -76.5q0 -45 -30.5 -76t-75.5 -31q-47 0 -77 31t-30 76zM1134 1741q0 47 30 76.5t77 29.5q45 0 75.5 -29.5t30.5 -76.5 q0 -45 -30.5 -76t-75.5 -31q-47 0 -77 31t-30 76z" />
<glyph unicode="&#x4dd;" horiz-adv-x="1470" d="M49 233h37q0 -66 16.5 -125t65.5 -59q31 0 44 33t19 90q12 139 58 203q27 37 67.5 63.5t108.5 44.5v6q-57 18 -76.5 93t-23.5 182q-4 53 -22.5 90t-47.5 37t-29 -27q0 -20 23 -37q10 -8 21.5 -27.5t11.5 -41.5q0 -31 -23 -50.5t-63 -19.5q-45 0 -78 35t-33 90t34 100 t101 45q61 0 104.5 -51t49.5 -147q6 -115 27.5 -181.5t82.5 -66.5h138v328q0 25 -10.5 35t-35.5 10h-86v49h410v-49h-86q-25 0 -35 -10.5t-10 -34.5v-328h137q61 0 83 66.5t28 181.5q6 96 49 147t104 51q68 0 102 -45t34 -100t-33 -90t-78 -35q-41 0 -63.5 19.5t-22.5 50.5 q0 23 11 42t22 27q23 16 22 37q0 27 -28 27q-29 0 -47.5 -37t-22.5 -90q-4 -106 -23.5 -181t-76.5 -94v-6q68 -18 108.5 -44.5t67.5 -63.5q45 -63 57 -203q6 -57 19.5 -90t44.5 -33q49 0 65 59.5t16 124.5h37q0 -96 -35.5 -177t-138.5 -81q-96 0 -135 56.5t-43 177.5 q-4 100 -13 151.5t-35 77t-77 25.5h-135v-369q0 -25 10 -35t35 -10h86v-49h-410v49h86q25 0 35.5 10.5t10.5 34.5v369h-136q-51 0 -76.5 -25.5t-34.5 -77t-14 -151.5q-4 -121 -43 -177.5t-135 -56.5q-102 0 -138 81t-36 177zM445 1221q0 41 28.5 69.5t69.5 28.5 q39 0 68.5 -28.5t29.5 -69.5q0 -39 -29.5 -69t-68.5 -30q-41 0 -69.5 30t-28.5 69zM830 1221q0 41 28.5 69.5t69.5 28.5q39 0 68.5 -28.5t29.5 -69.5q0 -39 -29.5 -69t-68.5 -30q-41 0 -69.5 30t-28.5 69z" />
<glyph unicode="&#x4de;" horiz-adv-x="1277" d="M127 358q0 78 48 130.5t114 52.5q70 0 107.5 -40t37.5 -102q0 -51 -27.5 -80.5t-68.5 -37.5q-31 -6 -51 -17q-20 -10 -21 -35q0 -57 51.5 -103t127 -71.5t141.5 -25.5q182 0 277 100t95 272q0 141 -64.5 247t-205.5 106h-209v73h205q131 0 194.5 89.5t63.5 213.5 q0 127 -68.5 213.5t-201.5 86.5q-166 0 -281 -126t-147 -356h-51v531h51l14 -74q6 -25 15.5 -35t25.5 -10q25 0 80 37q143 98 293 98q164 0 268 -55.5t151.5 -138t47.5 -168.5q0 -88 -50.5 -161t-118 -117t-118.5 -52v-21q70 -6 145.5 -58t127 -135t51.5 -173 q0 -150 -84 -251.5t-218.5 -151.5t-287.5 -50q-123 0 -228.5 49t-168 138.5t-62.5 207.5zM360 1741q0 47 30 76.5t77 29.5q45 0 75.5 -29.5t30.5 -76.5q0 -45 -30.5 -76t-75.5 -31q-47 0 -77 31t-30 76zM778 1741q0 47 30 76.5t77 29.5q45 0 75.5 -29.5t30.5 -76.5 q0 -45 -30.5 -76t-75.5 -31q-47 0 -77 31t-30 76z" />
<glyph unicode="&#x4df;" horiz-adv-x="888" d="M86 236q0 45 27.5 84.5t79.5 39.5q47 0 70.5 -26.5t23.5 -65.5q0 -29 -17.5 -50t-48.5 -28q-23 -4 -32 -11t-9 -25q0 -59 73 -94t161 -35q104 0 154 60t50 171q0 86 -33.5 144.5t-117.5 58.5h-176v57h176q80 0 111.5 55.5t31.5 137.5q0 109 -54 154.5t-126 45.5 q-92 0 -171 -87t-103 -212h-37v336h37l16 -49q8 -27 29 -27q16 0 41 19q35 27 88 48t116 21q150 0 235 -71.5t85 -181.5q0 -76 -57.5 -134.5t-130.5 -74.5v-9q86 -18 153.5 -77.5t67.5 -159.5q0 -131 -133 -217q-45 -29 -113 -43.5t-139 -14.5q-78 0 -154 27t-125 85 t-49 149zM154 1221q0 41 28.5 69.5t69.5 28.5q39 0 68.5 -28.5t29.5 -69.5q0 -39 -29.5 -69t-68.5 -30q-41 0 -69.5 30t-28.5 69zM539 1221q0 41 28.5 69.5t69.5 28.5q39 0 68.5 -28.5t29.5 -69.5q0 -39 -29.5 -69t-68.5 -30q-41 0 -69.5 30t-28.5 69z" />
<glyph unicode="&#x4e2;" horiz-adv-x="1576" d="M127 0v66h147q55 0 56 55v1216q0 29 -13.5 42.5t-42.5 13.5h-147v65h594v-65h-148q-29 0 -42 -13.5t-13 -42.5v-1030l582 963v67q0 29 -13.5 42.5t-42.5 13.5h-147v65h594v-65h-148q-55 0 -55 -56v-1216q0 -55 55 -55h148v-66h-594v66h147q55 0 56 55v1030l-582 -963v-67 q0 -55 55 -55h148v-66h-594zM530 1683v82h557v-82h-557z" />
<glyph unicode="&#x4e3;" horiz-adv-x="1101" d="M78 0v49h86q25 0 35 10.5t10 34.5v746q0 25 -10.5 35t-34.5 10h-86v49h409v-49h-86q-25 0 -35 -10.5t-10 -34.5v-602l389 548v54q0 25 -10 35t-35 10h-86v49h410v-49h-86q-25 0 -35 -10.5t-10 -34.5v-746q0 -25 10 -35t35 -10h86v-49h-410v49h86q25 0 35 10.5t10 34.5 v602l-389 -549v-53q0 -25 10.5 -35t34.5 -10h86v-49h-409zM285 1171v82h532v-82h-532z" />
<glyph unicode="&#x4e4;" horiz-adv-x="1576" d="M127 0v66h147q55 0 56 55v1216q0 29 -13.5 42.5t-42.5 13.5h-147v65h594v-65h-148q-29 0 -42 -13.5t-13 -42.5v-1030l582 963v67q0 29 -13.5 42.5t-42.5 13.5h-147v65h594v-65h-148q-55 0 -55 -56v-1216q0 -55 55 -55h148v-66h-594v66h147q55 0 56 55v1030l-582 -963v-67 q0 -55 55 -55h148v-66h-594zM493 1741q0 47 30 76.5t77 29.5q45 0 75.5 -29.5t30.5 -76.5q0 -45 -30.5 -76t-75.5 -31q-47 0 -77 31t-30 76zM911 1741q0 47 30 76.5t77 29.5q45 0 75.5 -29.5t30.5 -76.5q0 -45 -30.5 -76t-75.5 -31q-47 0 -77 31t-30 76z" />
<glyph unicode="&#x4e5;" horiz-adv-x="1101" d="M78 0v49h86q25 0 35 10.5t10 34.5v746q0 25 -10.5 35t-34.5 10h-86v49h409v-49h-86q-25 0 -35 -10.5t-10 -34.5v-602l389 548v54q0 25 -10 35t-35 10h-86v49h410v-49h-86q-25 0 -35 -10.5t-10 -34.5v-746q0 -25 10 -35t35 -10h86v-49h-410v49h86q25 0 35 10.5t10 34.5 v602l-389 -549v-53q0 -25 10.5 -35t34.5 -10h86v-49h-409zM261 1221q0 41 28.5 69.5t69.5 28.5q39 0 68.5 -28.5t29.5 -69.5q0 -39 -29.5 -69t-68.5 -30q-41 0 -69.5 30t-28.5 69zM646 1221q0 41 28.5 69.5t69.5 28.5q39 0 68.5 -28.5t29.5 -69.5q0 -39 -29.5 -69t-68.5 -30 q-41 0 -69.5 30t-28.5 69z" />
<glyph unicode="&#x4e6;" horiz-adv-x="1433" d="M143 729q0 195 76 372t211 285.5t307 108.5t307.5 -108.5t211 -285.5t75.5 -372t-75.5 -372t-211 -285.5t-307.5 -108.5t-307 108.5t-211 286t-76 371.5zM360 729q0 -334 88.5 -517t288.5 -183q201 0 289 183t88 517q0 336 -88 518.5t-289 182.5t-289 -182.5t-88 -518.5z M421 1741q0 47 30 76.5t77 29.5q45 0 75.5 -29.5t30.5 -76.5q0 -45 -30.5 -76t-75.5 -31q-47 0 -77 31t-30 76zM839 1741q0 47 30 76.5t77 29.5q45 0 75.5 -29.5t30.5 -76.5q0 -45 -30.5 -76t-75.5 -31q-47 0 -77 31t-30 76z" />
<glyph unicode="&#x4e7;" horiz-adv-x="1015" d="M98 467q0 133 54.5 245.5t148.5 179t207 66.5t207 -66.5t148.5 -179t54.5 -245.5t-54.5 -245.5t-148.5 -179.5t-207 -67t-207 67t-148.5 179.5t-54.5 245.5zM218 1221q0 41 28.5 69.5t69.5 28.5q39 0 68.5 -28.5t29.5 -69.5q0 -39 -29.5 -69t-68.5 -30q-41 0 -69.5 30 t-28.5 69zM279 467q0 -211 53 -326.5t176 -115.5t176 115.5t53 326.5t-53 326.5t-176 115.5t-176 -115.5t-53 -326.5zM603 1221q0 41 28.5 69.5t69.5 28.5q39 0 68.5 -28.5t29.5 -69.5q0 -39 -29.5 -69t-68.5 -30q-41 0 -69.5 30t-28.5 69z" />
<glyph unicode="&#x4e8;" horiz-adv-x="1433" d="M143 729q0 195 76 372t211 285.5t307 108.5t307.5 -108.5t211 -285.5t75.5 -372t-75.5 -372t-211 -285.5t-307.5 -108.5t-307 108.5t-211 286t-76 371.5zM360 700q4 -322 92.5 -496.5t284.5 -174.5q197 0 285 175t92 496h-754zM360 758h754q-4 322 -92 497t-285 175 q-196 0 -284 -175.5t-93 -496.5z" />
<glyph unicode="&#x4e9;" horiz-adv-x="1015" d="M98 467q0 133 54.5 245.5t148.5 179t207 66.5t207 -66.5t148.5 -179t54.5 -245.5t-54.5 -245.5t-148.5 -179.5t-207 -67t-207 67t-148.5 179.5t-54.5 245.5zM279 434q6 -410 229 -409q223 -1 229 409h-458zM279 500h458q-6 410 -229 409q-223 1 -229 -409z" />
<glyph unicode="&#x4ee;" horiz-adv-x="1581" d="M86 1393v65h651v-65h-127q-33 0 -53 -8.5t-20 -24.5q0 -43 10 -64l377 -759l235 600q14 39 25.5 87t11.5 72q0 41 -24.5 69t-81.5 28h-111v65h553v-65h-94q-59 0 -92 -39t-62 -111l-373 -950q-53 -141 -124.5 -235.5t-204.5 -94.5q-121 0 -202 67.5t-81 174.5 q0 84 45 144.5t127 60.5q59 0 97 -32t38 -91q0 -43 -24.5 -75t-73.5 -44q-18 -4 -25.5 -9t-15.5 -16q-8 -14 -8 -32q0 -41 39 -61.5t88 -20.5q84 0 136 62.5t95 176.5l17 47l-504 988q-27 51 -52.5 70.5t-68.5 19.5h-123zM631 1683v82h557v-82h-557z" />
<glyph unicode="&#x4ef;" horiz-adv-x="1085" d="M37 885v49h463v-49h-66q-25 0 -45 -13.5t-20 -35.5q0 -35 12 -68l213 -629l170 561q8 25 15 55.5t7 49.5q0 35 -20.5 57.5t-52.5 22.5h-49v49h372v-49h-47q-45 0 -83 -30t-58 -91l-330 -1049q-23 -76 -86 -139t-158 -63q-80 0 -131 51q-27 25 -42 58.5t-15 70.5 q0 27 9 50.5t24 35.5q31 31 69 31q47 0 71 -30t24 -75q0 -25 -17 -57q-12 -20 -12 -39q0 -31 41 -31q61 0 103 48t63 114l55 178l-291 846q-25 66 -47 93.5t-74 27.5h-67zM312 1171v82h532v-82h-532z" />
<glyph unicode="&#x4f0;" horiz-adv-x="1581" d="M86 1393v65h651v-65h-127q-33 0 -53 -8.5t-20 -24.5q0 -43 10 -64l377 -759l235 600q14 39 25.5 87t11.5 72q0 41 -24.5 69t-81.5 28h-111v65h553v-65h-94q-59 0 -92 -39t-62 -111l-373 -950q-53 -141 -124.5 -235.5t-204.5 -94.5q-121 0 -202 67.5t-81 174.5 q0 84 45 144.5t127 60.5q59 0 97 -32t38 -91q0 -43 -24.5 -75t-73.5 -44q-18 -4 -25.5 -9t-15.5 -16q-8 -14 -8 -32q0 -41 39 -61.5t88 -20.5q84 0 136 62.5t95 176.5l17 47l-504 988q-27 51 -52.5 70.5t-68.5 19.5h-123zM594 1741q0 47 30 76.5t77 29.5q45 0 75.5 -29.5 t30.5 -76.5q0 -45 -30.5 -76t-75.5 -31q-47 0 -77 31t-30 76zM1012 1741q0 47 30 76.5t77 29.5q45 0 75.5 -29.5t30.5 -76.5q0 -45 -30.5 -76t-75.5 -31q-47 0 -77 31t-30 76z" />
<glyph unicode="&#x4f1;" horiz-adv-x="1085" d="M37 885v49h463v-49h-66q-25 0 -45 -13.5t-20 -35.5q0 -35 12 -68l213 -629l170 561q8 25 15 55.5t7 49.5q0 35 -20.5 57.5t-52.5 22.5h-49v49h372v-49h-47q-45 0 -83 -30t-58 -91l-330 -1049q-23 -76 -86 -139t-158 -63q-80 0 -131 51q-27 25 -42 58.5t-15 70.5 q0 27 9 50.5t24 35.5q31 31 69 31q47 0 71 -30t24 -75q0 -25 -17 -57q-12 -20 -12 -39q0 -31 41 -31q61 0 103 48t63 114l55 178l-291 846q-25 66 -47 93.5t-74 27.5h-67zM287 1221q0 41 28.5 69.5t69.5 28.5q39 0 68.5 -28.5t29.5 -69.5q0 -39 -29.5 -69t-68.5 -30 q-41 0 -69.5 30t-28.5 69zM672 1221q0 41 28.5 69.5t69.5 28.5q39 0 68.5 -28.5t29.5 -69.5q0 -39 -29.5 -69t-68.5 -30q-41 0 -69.5 30t-28.5 69z" />
<glyph unicode="&#x4f2;" horiz-adv-x="1581" d="M86 1393v65h651v-65h-127q-33 0 -53 -8.5t-20 -24.5q0 -43 10 -64l377 -759l235 600q14 39 25.5 87t11.5 72q0 41 -24.5 69t-81.5 28h-111v65h553v-65h-94q-59 0 -92 -39t-62 -111l-373 -950q-53 -141 -124.5 -235.5t-204.5 -94.5q-121 0 -202 67.5t-81 174.5 q0 84 45 144.5t127 60.5q59 0 97 -32t38 -91q0 -43 -24.5 -75t-73.5 -44q-18 -4 -25.5 -9t-15.5 -16q-8 -14 -8 -32q0 -41 39 -61.5t88 -20.5q84 0 136 62.5t95 176.5l17 47l-504 988q-27 51 -52.5 70.5t-68.5 19.5h-123zM756 1583l188 272q27 37 49.5 51.5t50.5 14.5 q27 0 42.5 -17.5t15.5 -45.5q0 -47 -58 -91l-262 -206zM1034 1583l189 272q27 37 49 51.5t51 14.5q27 0 42 -17.5t15 -45.5q0 -47 -57 -91l-262 -206z" />
<glyph unicode="&#x4f3;" horiz-adv-x="1085" d="M37 885v49h463v-49h-66q-25 0 -45 -13.5t-20 -35.5q0 -35 12 -68l213 -629l170 561q8 25 15 55.5t7 49.5q0 35 -20.5 57.5t-52.5 22.5h-49v49h372v-49h-47q-45 0 -83 -30t-58 -91l-330 -1049q-23 -76 -86 -139t-158 -63q-80 0 -131 51q-27 25 -42 58.5t-15 70.5 q0 27 9 50.5t24 35.5q31 31 69 31q47 0 71 -30t24 -75q0 -25 -17 -57q-12 -20 -12 -39q0 -31 41 -31q61 0 103 48t63 114l55 178l-291 846q-25 66 -47 93.5t-74 27.5h-67zM408 1063l188 272q27 37 49.5 51.5t50.5 14.5q27 0 42.5 -17.5t15.5 -46.5q0 -47 -58 -90l-262 -207z M686 1063l189 272q27 37 49 51.5t51 14.5q27 0 42 -17.5t15 -46.5q0 -47 -57 -90l-262 -207z" />
<glyph unicode="&#x4f4;" horiz-adv-x="1499" d="M78 1393v65h594v-65h-148q-55 0 -55 -56v-424q0 -119 60.5 -161.5t170.5 -42.5q109 0 192 54t130 122v452q0 29 -13.5 42.5t-41.5 13.5h-148v65h594v-65h-147q-55 0 -56 -56v-1216q0 -55 56 -55h147v-66h-627v66h181q55 0 55 55v698q-47 -66 -144.5 -121t-205.5 -55 q-164 0 -277.5 74t-113.5 219v401q0 55 -56 56h-147zM434 1741q0 47 30 76.5t77 29.5q45 0 75.5 -29.5t30.5 -76.5q0 -45 -30.5 -76t-75.5 -31q-47 0 -77 31t-30 76zM852 1741q0 47 30 76.5t77 29.5q45 0 75.5 -29.5t30.5 -76.5q0 -45 -30.5 -76t-75.5 -31q-47 0 -77 31 t-30 76z" />
<glyph unicode="&#x4f5;" horiz-adv-x="1024" d="M49 885v49h410v-49h-86q-25 0 -35 -10.5t-10 -34.5v-271q0 -55 22.5 -93t89.5 -38q68 0 130.5 20.5t97.5 51.5v330q0 25 -10.5 35t-34.5 10h-86v49h409v-49h-86q-25 0 -35 -10.5t-10 -34.5v-746q0 -25 10.5 -35t34.5 -10h86v-49h-411v49h88q25 0 35 10.5t10 34.5v379 q-31 -31 -106 -57.5t-138 -26.5q-129 0 -186.5 61.5t-57.5 143.5v246q0 25 -10 35t-35 10h-86zM207 1221q0 41 28.5 69.5t69.5 28.5q39 0 68.5 -28.5t29.5 -69.5q0 -39 -29.5 -69t-68.5 -30q-41 0 -69.5 30t-28.5 69zM592 1221q0 41 28.5 69.5t69.5 28.5q39 0 68.5 -28.5 t29.5 -69.5q0 -39 -29.5 -69t-68.5 -30q-41 0 -69.5 30t-28.5 69z" />
<glyph unicode="&#x4f6;" horiz-adv-x="1331" d="M127 0v66h147q55 0 56 55v1216q0 29 -13.5 42.5t-42.5 13.5h-147v65h1073l25 -565h-51q-2 16 -11.5 71.5t-32 129t-55.5 133.5q-43 74 -114.5 120t-172.5 46h-215q-29 0 -42 -13.5t-13 -42.5v-1190q0 -111 113 -110h135v-447h-51q0 53 -19.5 159t-81.5 175 q-31 33 -83 54.5t-107 21.5h-297z" />
<glyph unicode="&#x4f7;" horiz-adv-x="892" d="M78 0v49h86q25 0 35 10.5t10 34.5v746q0 25 -10.5 35t-34.5 10h-86v49h721l12 -361h-41q0 14 -15.5 81t-45.5 128q-25 47 -70 75t-111 28h-127q-25 0 -35 -10.5t-10 -34.5v-734q0 -39 21 -53q12 -4 24 -4h86v-8h45l13 -360h-41q0 14 -15.5 80.5t-46.5 127.5 q-25 49 -69.5 80t-108.5 31h-186z" />
<glyph unicode="&#x4f8;" horiz-adv-x="2035" d="M127 0v66h147q55 0 56 55v1216q0 29 -13.5 42.5t-42.5 13.5h-147v65h594v-65h-148q-29 0 -42 -13.5t-13 -42.5v-514h367q129 0 235.5 -53t167 -147.5t60.5 -208.5q0 -115 -61.5 -210t-167 -149.5t-234.5 -54.5h-758zM518 121q0 -55 55 -55h275q80 0 144.5 46t101 124.5 t36.5 177.5q0 96 -36.5 175t-101 124t-144.5 45h-330v-637zM716 1741q0 47 30 76.5t77 29.5q45 0 75.5 -29.5t30.5 -76.5q0 -45 -30.5 -76t-75.5 -31q-47 0 -77 31t-30 76zM1134 1741q0 47 30 76.5t77 29.5q45 0 75.5 -29.5t30.5 -76.5q0 -45 -30.5 -76t-75.5 -31 q-47 0 -77 31t-30 76zM1356 0v66h147q55 0 56 55v1216q0 29 -13.5 42.5t-42.5 13.5h-147v65h594v-65h-148q-29 0 -42 -13.5t-13 -42.5v-1216q0 -55 55 -55h148v-66h-594z" />
<glyph unicode="&#x4f9;" horiz-adv-x="1351" d="M78 0v49h86q25 0 35 10.5t10 34.5v746q0 25 -10.5 35t-34.5 10h-86v49h409v-49h-86q-25 0 -35 -10.5t-10 -34.5v-332h238q86 0 153.5 -34t106.5 -92t39 -128q0 -68 -42 -126t-110.5 -93t-146.5 -35h-516zM356 94q0 -25 10.5 -35t34.5 -10h136q86 0 131 57.5t45 147.5 t-46 147.5t-130 57.5h-181v-365zM379 1221q0 41 28.5 69.5t69.5 28.5q39 0 68.5 -28.5t29.5 -69.5q0 -39 -29.5 -69t-68.5 -30q-41 0 -69.5 30t-28.5 69zM764 1221q0 41 28.5 69.5t69.5 28.5q39 0 68.5 -28.5t29.5 -69.5q0 -39 -29.5 -69t-68.5 -30q-41 0 -69.5 30t-28.5 69 zM864 0v49h86q25 0 35 10.5t10 34.5v746q0 25 -10 35t-35 10h-86v49h410v-49h-86q-25 0 -35 -10.5t-10 -34.5v-746q0 -25 10 -35t35 -10h86v-49h-410z" />
<glyph unicode="&#x2000;" horiz-adv-x="975" />
<glyph unicode="&#x2001;" horiz-adv-x="1950" />
<glyph unicode="&#x2002;" horiz-adv-x="975" />
<glyph unicode="&#x2003;" horiz-adv-x="1950" />
<glyph unicode="&#x2004;" horiz-adv-x="650" />
<glyph unicode="&#x2005;" horiz-adv-x="487" />
<glyph unicode="&#x2006;" horiz-adv-x="325" />
<glyph unicode="&#x2007;" horiz-adv-x="325" />
<glyph unicode="&#x2008;" horiz-adv-x="243" />
<glyph unicode="&#x2009;" horiz-adv-x="390" />
<glyph unicode="&#x200a;" horiz-adv-x="108" />
<glyph unicode="&#x2010;" horiz-adv-x="757" d="M123 459v114h512v-114h-512z" />
<glyph unicode="&#x2011;" horiz-adv-x="757" d="M123 459v114h512v-114h-512z" />
<glyph unicode="&#x2012;" horiz-adv-x="757" d="M123 459v114h512v-114h-512z" />
<glyph unicode="&#x2013;" horiz-adv-x="1269" d="M123 500v73h1024v-73h-1024z" />
<glyph unicode="&#x2014;" horiz-adv-x="2048" d="M123 500v73h1802v-73h-1802z" />
<glyph unicode="&#x2018;" horiz-adv-x="573" d="M143 1075q0 127 63.5 241t153.5 179l29 -33q-76 -57 -124 -139t-48 -164q0 -23 8 -36t29 -25q14 -8 70 -8q45 0 73.5 -32t28.5 -75q0 -55 -37 -87t-82 -32q-80 0 -125 66q-39 53 -39 145z" />
<glyph unicode="&#x2019;" horiz-adv-x="573" d="M147 1376q0 55 37 87t82 32q80 0 125 -65q39 -53 39 -146q0 -127 -63.5 -240.5t-153.5 -179.5l-29 33q76 57 124 139t48 164q0 23 -8 36t-29 26q-14 8 -69 8q-45 0 -74 31.5t-29 74.5z" />
<glyph unicode="&#x201a;" horiz-adv-x="573" d="M147 168q0 55 37 87t82 32q80 0 125 -66q39 -53 39 -145q0 -127 -63.5 -241t-153.5 -179l-29 33q76 57 124 139t48 164q0 23 -8 36t-29 25q-14 8 -69 8q-45 0 -74 32t-29 75z" />
<glyph unicode="&#x201c;" horiz-adv-x="954" d="M143 1075q0 127 63.5 241t153.5 179l29 -33q-76 -57 -124 -139t-48 -164q0 -23 8 -36t29 -25q14 -8 70 -8q45 0 73.5 -32t28.5 -75q0 -55 -37 -87t-82 -32q-80 0 -125 66q-39 53 -39 145zM524 1075q0 127 63.5 241t153.5 179l29 -33q-76 -57 -124 -139t-48 -164 q0 -23 8 -36t29 -25q14 -8 70 -8q45 0 73.5 -32t28.5 -75q0 -55 -37 -87t-82 -32q-80 0 -125 66q-39 53 -39 145z" />
<glyph unicode="&#x201d;" horiz-adv-x="954" d="M147 1376q0 55 37 87t82 32q80 0 125 -65q39 -53 39 -146q0 -127 -63.5 -240.5t-153.5 -179.5l-29 33q76 57 124 139t48 164q0 23 -8 36t-29 26q-14 8 -69 8q-45 0 -74 31.5t-29 74.5zM528 1376q0 55 37 87t82 32q80 0 125 -65q39 -53 39 -146q0 -127 -63.5 -240.5 t-153.5 -179.5l-29 33q76 57 124 139t48 164q0 23 -8 36t-29 26q-14 8 -69 8q-45 0 -74 31.5t-29 74.5z" />
<glyph unicode="&#x201e;" horiz-adv-x="954" d="M147 168q0 55 37 87t82 32q80 0 125 -66q39 -53 39 -145q0 -127 -63.5 -241t-153.5 -179l-29 33q76 57 124 139t48 164q0 23 -8 36t-29 25q-14 8 -69 8q-45 0 -74 32t-29 75zM528 168q0 55 37 87t82 32q80 0 125 -66q39 -53 39 -145q0 -127 -63.5 -241t-153.5 -179 l-29 33q76 57 124 139t48 164q0 23 -8 36t-29 25q-14 8 -69 8q-45 0 -74 32t-29 75z" />
<glyph unicode="&#x2022;" horiz-adv-x="1024" d="M279 725q0 98 67.5 165.5t165.5 67.5t165.5 -67.5t67.5 -165.5t-67.5 -165.5t-165.5 -67.5t-165.5 67.5t-67.5 165.5z" />
<glyph unicode="&#x2026;" horiz-adv-x="1720" d="M160 102q0 55 35.5 91t91.5 36q55 0 91 -35.5t36 -91.5q0 -55 -36 -91t-91 -36q-56 0 -91.5 36t-35.5 91zM733 102q0 55 36 91t91 36t91 -35.5t36 -91.5q0 -55 -36 -91t-91 -36t-91 36t-36 91zM1307 102q0 55 35.5 91t91.5 36q55 0 91 -35.5t36 -91.5q0 -55 -36 -91 t-91 -36q-56 0 -91.5 36t-35.5 91z" />
<glyph unicode="&#x202f;" horiz-adv-x="390" />
<glyph unicode="&#x2039;" horiz-adv-x="675" d="M221 467q0 133 73 241.5t165 168.5l30 -31q-74 -66 -113.5 -166t-39.5 -213t40 -213t113 -166l-30 -31q-92 60 -165 168.5t-73 241.5z" />
<glyph unicode="&#x203a;" horiz-adv-x="675" d="M186 88q74 66 114 166t40 213t-40 213t-114 166l31 31q92 -59 165 -168t73 -242t-73 -241.5t-165 -168.5z" />
<glyph unicode="&#x205f;" horiz-adv-x="487" />
<glyph unicode="&#x20ac;" d="M70 586l12 65h63q-2 14 -2 47q0 45 2 68h-75l12 65h70q23 170 97.5 307.5t190 216.5t252.5 79q127 0 242 -95q20 -16 40.5 -29.5t35.5 -13.5q16 0 23 9.5t11 25.5l23 88h47v-450h-49q-43 176 -145.5 287.5t-227.5 111.5q-145 0 -229 -141.5t-96 -395.5h503l-14 -65h-494 q-2 -29 -2 -68q0 -27 2 -47h474l-13 -65h-458q0 -156 44 -282t123.5 -198.5t186.5 -72.5q137 0 223 92t113 225h53q-29 -154 -124 -268.5t-265 -114.5q-162 0 -285 80t-195.5 220.5t-88.5 318.5h-80z" />
<glyph unicode="&#x2122;" horiz-adv-x="2007" d="M61 1098l15 360h727l12 -360h-41q0 14 -15.5 80.5t-45.5 128.5q-27 51 -61 76.5t-95 25.5q-25 0 -35 -10t-10 -35v-651q0 -25 10 -35t35 -10h86v-50h-410v50h86q25 0 35.5 10t10.5 35v651q0 25 -10.5 35t-35.5 10q-61 0 -95 -25.5t-60 -76.5q-31 -61 -46.5 -128 t-15.5 -81h-41zM954 618v50h41q45 0 61.5 27.5t16.5 82.5v586q0 25 -10 35t-35 10h-74v49h283l209 -604l190 604h293v-49h-74q-25 0 -35 -10t-10 -35v-651q0 -25 10.5 -35t34.5 -10h74v-50h-385v50h74q25 0 35 10t10 35v639l-246 -750h-37l-250 717v-541q0 -55 16.5 -82.5 t61.5 -27.5h41v-50h-295z" />
<glyph unicode="&#x25fc;" horiz-adv-x="931" d="M0 0v932h932v-932h-932z" />
</font>
</defs>
</svg>
