<?xml version="1.0" standalone="no"?>
<!DOCTYPE svg PUBLIC "-//W3C//DTD SVG 1.1//EN" "http://www.w3.org/Graphics/SVG/1.1/DTD/svg11.dtd" >
<svg xmlns="http://www.w3.org/2000/svg" xmlns:xlink="http://www.w3.org/1999/xlink" version="1.1">
<metadata></metadata>
<defs>
<font id="old_standard_ttbold" horiz-adv-x="1187" >
<font-face units-per-em="2048" ascent="1561" descent="-487" />
<missing-glyph horiz-adv-x="573" />
<glyph horiz-adv-x="0" />
<glyph unicode="&#xd;" horiz-adv-x="573" />
<glyph horiz-adv-x="0" />
<glyph horiz-adv-x="0" />
<glyph unicode=" "  horiz-adv-x="573" />
<glyph unicode="&#x09;" horiz-adv-x="573" />
<glyph unicode="&#xa0;" horiz-adv-x="573" />
<glyph unicode="!" horiz-adv-x="573" d="M119 1294q0 94 47 147.5t121 53.5t121 -53t47 -148q0 -68 -14.5 -142.5t-41.5 -174.5q-45 -174 -55 -260l-33 -297h-49l-33 297q-6 70 -55 260q-27 100 -41 175t-14 142zM127 135q0 70 45 115t115 45t114.5 -45t44.5 -115t-45 -115t-114 -45q-70 0 -115 45.5t-45 114.5z " />
<glyph unicode="&#x22;" horiz-adv-x="806" d="M147 1376q0 55 27 87t72 32t71.5 -31.5t26.5 -87.5q0 -33 -10 -104l-43 -285h-90l-43 285q-10 72 -11 104zM463 1376q0 55 26.5 87t71.5 32t71.5 -31.5t26.5 -87.5q0 -33 -10 -104l-43 -285h-90l-43 285q-10 72 -10 104z" />
<glyph unicode="#" horiz-adv-x="1458" d="M135 373v131h252l70 446h-310v131h330l60 377h135l-60 -377h340l60 377h135l-60 -377h236v-131h-256l-70 -446h308v-131h-328l-59 -373h-136l58 373h-338l-60 -373h-135l60 373h-232zM522 504h340l70 446h-340z" />
<glyph unicode="$" d="M106 340q0 84 46.5 138t115.5 54q45 0 77 -31.5t32 -70.5q0 -53 -19.5 -78.5t-68.5 -54.5q-35 -20 -45.5 -34.5t-10.5 -41.5q0 -57 63.5 -103t166.5 -69v606l-109 68q-199 123 -198 356q0 164 86 260.5t221 130.5v160h65v-145q49 6 95 6q29 0 77 -4v143h66v-153 q141 -29 228 -110t87 -208q0 -86 -41 -153.5t-106 -67.5q-53 0 -85 28.5t-32 73.5q0 39 23.5 68t56.5 45q43 20 60.5 36.5t17.5 45.5q0 53 -56.5 101t-152.5 73v-592l80 -49q111 -70 171 -162t60 -219q0 -164 -86 -264t-225 -137v-158h-66v145q-43 -6 -84 -6q-57 0 -88 4 v-143h-65v154q-154 29 -255.5 115.5t-101.5 242.5zM311 1206q0 -113 152 -200v391q-70 -27 -111 -77t-41 -114zM528 37q57 -4 88 -4q47 0 84 6v469l-172 106v-577zM528 965l172 -107v561q-39 6 -86 6q-51 0 -86 -8v-452zM766 55q78 29 112.5 82t34.5 111q0 82 -43 132 t-104 87v-412z" />
<glyph unicode="%" horiz-adv-x="1761" d="M184 1118q0 111 40 197t106.5 133t140.5 47t141.5 -47t108.5 -133t41 -197t-41 -195.5t-107.5 -131t-142.5 -46.5q-74 0 -140.5 46.5t-106.5 131.5t-40 195zM381 1118q0 -186 20.5 -259t69.5 -73q51 0 72.5 74t21.5 258t-22.5 260t-71.5 76t-69.5 -74.5t-20.5 -261.5z M385 -37l885 1532h102l-885 -1532h-102zM999 340q0 111 40 197t106.5 133t140.5 47t141.5 -47t108.5 -133t41 -197t-41 -196t-107.5 -131t-142.5 -46q-74 0 -140.5 46t-106.5 131t-40 196zM1196 340q0 -186 20.5 -259t69.5 -73q51 0 72.5 74t21.5 258t-22.5 260t-71.5 76 t-69.5 -75t-20.5 -261z" />
<glyph unicode="&#x26;" horiz-adv-x="1609" d="M90 289q0 131 96.5 246.5t284.5 246.5l47 33l-22 35q-55 86 -79 149.5t-24 159.5q0 104 48 181t127 117t171 40q86 0 140.5 -40t79 -97t24.5 -117q0 -109 -60.5 -188.5t-179.5 -167.5l361 -541q61 74 100 161t39 144q0 39 -22.5 60.5t-55.5 21.5h-78v66h433v-66h-17 q-111 0 -180 -147q-92 -193 -180 -295q61 -102 105 -153.5t93 -51.5q41 0 73 35t61 94l41 -20q-29 -82 -103 -157t-178 -75q-68 0 -138.5 44t-119.5 118q-76 -61 -209 -111.5t-260 -50.5q-184 0 -301 85t-117 241zM377 395q0 -94 48 -164.5t123 -107.5t148 -37 q70 0 132.5 25.5t111.5 68.5l-381 576q-70 -63 -107.5 -110.5t-56 -107t-18.5 -143.5zM582 1274q0 -86 22.5 -142.5t100.5 -183.5q92 70 140 138.5t48 173.5q0 74 -42 123t-110 49q-63 0 -111 -43t-48 -115z" />
<glyph unicode="'" horiz-adv-x="491" d="M147 1376q0 55 27 87t72 32t71.5 -31.5t26.5 -87.5q0 -33 -10 -104l-43 -285h-90l-43 285q-10 72 -11 104z" />
<glyph unicode="(" horiz-adv-x="757" d="M123 545q0 295 146.5 534.5t422.5 415.5l33 -53q-182 -145 -253 -280.5t-71 -325.5v-582q0 -190 71 -325.5t253 -280.5l-33 -54q-276 177 -422.5 416.5t-146.5 534.5z" />
<glyph unicode=")" horiz-adv-x="757" d="M33 -352q182 145 252.5 280t70.5 326v582q0 190 -70.5 325t-252.5 281l33 53q276 -176 422.5 -415.5t146.5 -534.5t-146.5 -534.5t-422.5 -416.5z" />
<glyph unicode="*" horiz-adv-x="1028" d="M143 850q0 49 38 77.5t104 28.5q96 0 151 35q4 2 12.5 8.5t8.5 14.5t-8.5 14t-12.5 8q-55 35 -151 35q-66 0 -104 28.5t-38 78.5q0 39 28 66.5t67 27.5q61 0 118 -84q45 -68 97 -107q18 -12 28 -12t13.5 6t3.5 25q0 70 -39 141q-31 49 -31 100q0 39 26.5 66t67.5 27 t67.5 -27t26.5 -66q0 -51 -30 -100q-39 -72 -39 -141q0 -18 3 -24.5t13 -6.5t29 12q51 39 96 107q57 84 119 84q39 0 66.5 -27.5t27.5 -66.5q0 -49 -38 -78t-103 -29q-96 0 -152 -35q-4 -2 -12 -8t-8 -14t8 -14.5t12 -8.5q55 -35 152 -35q66 0 103.5 -28.5t37.5 -77.5 q0 -39 -27.5 -66.5t-66.5 -27.5q-61 0 -119 84q-45 68 -96 106q-18 12 -29 12q-10 0 -13 -6t-3 -24q0 -70 39 -142q31 -49 30 -100q0 -39 -26.5 -65.5t-67.5 -26.5t-67.5 26.5t-26.5 65.5q0 51 31 100q39 72 39 142q0 18 -3 24t-14 6q-10 0 -28 -12q-51 -39 -97 -106 q-57 -84 -118 -84q-39 0 -67 27.5t-28 66.5z" />
<glyph unicode="+" horiz-adv-x="1925" d="M86 492v131h807v811h139v-811h807v-131h-807v-811h-139v811h-807z" />
<glyph unicode="," horiz-adv-x="573" d="M94 129q0 82 53.5 128t122.5 46q100 0 158.5 -66.5t58.5 -170.5q0 -168 -97 -289t-255 -178l-29 57q129 47 208 136t79 188q0 14 -9 25t-26 11q-16 0 -49 -16q-37 -18 -69 -18q-57 0 -101.5 38.5t-44.5 108.5z" />
<glyph unicode="-" horiz-adv-x="757" d="M115 426v209h528v-209h-528z" />
<glyph unicode="." horiz-adv-x="573" d="M127 135q0 70 45 115t115 45t114.5 -45t44.5 -115t-45 -115t-114 -45q-70 0 -115 45.5t-45 114.5z" />
<glyph unicode="/" horiz-adv-x="921" d="M102 -406l578 1901h139l-577 -1901h-140z" />
<glyph unicode="0" d="M102 729q0 178 60.5 355.5t172 292t259.5 114.5q147 0 259 -114.5t172 -292t60 -355.5t-60 -355t-172 -292t-259 -115q-148 0 -259.5 115t-172 292t-60.5 355zM451 295q0 -96 33.5 -179t109.5 -83t109.5 83t33.5 179v868q0 96 -33.5 179t-109.5 83t-109.5 -82.5 t-33.5 -179.5v-868z" />
<glyph unicode="1" d="M246 0v66h147q29 0 39 11t10 38v1120h-196v74h76q90 0 166.5 38.5t103.5 110.5h153v-1343q0 -27 11.5 -38t38.5 -11h147v-66h-696z" />
<glyph unicode="2" d="M131 1094q0 109 58.5 199.5t160 144t223.5 53.5q225 0 342 -103.5t117 -273.5q0 -117 -72.5 -211t-176 -162.5t-261.5 -152.5q-88 -49 -165.5 -125t-106.5 -182l8 -5q74 59 166 60q37 0 89 -10.5t87 -22.5q102 -33 186 -33q74 0 123 44t49 104q0 59 -10 137h64 q12 -88 12 -160q0 -104 -34 -201.5t-109.5 -162t-192.5 -64.5q-131 0 -266 152q-39 43 -64.5 60.5t-62.5 17.5q-29 0 -47.5 -17.5t-18.5 -48.5v-131h-82v96q0 80 15.5 150.5t73 166t176.5 208.5q150 145 231.5 265t81.5 261q0 115 -47 192.5t-160 77.5q-78 0 -130 -50 t-52 -118q0 -82 57 -123q45 -33 68.5 -64.5t23.5 -78.5q0 -53 -38.5 -88t-98.5 -35q-88 0 -152.5 63.5t-64.5 170.5z" />
<glyph unicode="3" d="M115 289q0 84 56 146.5t140 62.5q70 0 111 -39t41 -97q0 -100 -94 -141q-23 -10 -40.5 -28.5t-17.5 -40.5q0 -55 54.5 -87t146.5 -32q217 0 217 362q0 170 -59.5 252t-147.5 82h-207v74h203q96 0 140 72.5t44 226.5q0 186 -44 254.5t-134 68.5q-78 0 -133 -44t-55 -113 q0 -45 61 -86q72 -47 72 -123q0 -49 -36 -86t-97 -37q-76 0 -130 60.5t-54 152.5q0 102 53 180t144 120t200 42q207 0 334 -98.5t127 -266.5q0 -145 -99.5 -231t-236.5 -115v-18q96 -8 184 -58.5t143.5 -132.5t55.5 -184q0 -203 -146.5 -311.5t-392.5 -108.5 q-176 0 -289.5 87t-113.5 235z" />
<glyph unicode="4" d="M102 418v76l539 966h215v-968h221v-74h-221v-303q0 -27 11.5 -38t37.5 -11h148v-66h-746v66h197q29 0 39 11t10 38v303h-451zM205 492h348v622z" />
<glyph unicode="5" d="M156 283q0 63 29.5 113t75.5 78t93 28q66 0 100.5 -40t34.5 -93q0 -82 -88 -127q-61 -23 -61 -86q0 -47 52 -85t149 -38q117 0 152.5 112.5t35.5 307.5q0 147 -16.5 234t-59.5 130t-123 43q-39 0 -92 -27.5t-97 -75.5t-58 -106h-54v789l41 26q127 -78 283 -77 q80 0 177 27.5t171 74.5l37 -37q-109 -162 -273.5 -238.5t-353.5 -76.5v-320l13 -4q55 57 118.5 84t143.5 27q141 0 247.5 -57.5t165 -164t58.5 -245.5q0 -150 -69.5 -261.5t-186.5 -171t-254 -59.5q-115 0 -204 42t-138 115t-49 159z" />
<glyph unicode="6" d="M147 694q0 236 67 416t191.5 280.5t294.5 100.5q96 0 166 -40t106 -103.5t36 -135.5q0 -88 -51.5 -149.5t-133.5 -61.5q-61 0 -99 38t-38 100q0 94 92 127q41 14 61.5 28.5t20.5 36.5q0 41 -43 67.5t-119 26.5q-115 0 -169 -98t-54 -235v-293l12 -6q33 33 86.5 50 t112.5 17q205 0 306.5 -121t101.5 -309q0 -117 -48.5 -222.5t-149.5 -173t-253 -67.5q-151 0 -263 98.5t-172.5 264.5t-60.5 364zM475 399q0 -186 39 -276t127 -90q70 0 101.5 48t40 123t8.5 206q0 166 -28 269t-104 103q-111 0 -151 -86q-20 -39 -26.5 -108.5t-6.5 -188.5z " />
<glyph unicode="7" d="M193 877l47 581h73l-10 -135l8 -4q119 156 260 156q63 0 105.5 -34t85.5 -95q41 -59 73.5 -92t65.5 -33q66 0 66 61q0 37 -41 61q-51 29 -52 76q0 25 16.5 40.5t45.5 15.5q53 0 87 -61.5t34 -127.5q0 -133 -39 -242.5t-123 -246.5q-78 -129 -107.5 -286t-29.5 -333 q0 -106 -42 -158.5t-116 -52.5t-122 57.5t-48 155.5q0 123 60.5 231.5t168.5 235.5q160 184 238 316q51 90 74 190l-8 6q-63 -53 -142 -53q-82 0 -178 37q-86 29 -168 28q-84 0 -137 -42t-62 -130l-10 -122h-73z" />
<glyph unicode="8" d="M115 342q0 129 75.5 219t171.5 131v4q-219 129 -219 371q0 135 71 231.5t180.5 144.5t223.5 48q135 0 226.5 -51t133.5 -127t42 -148q0 -102 -64.5 -186t-152.5 -129v-8l39 -21q121 -59 190.5 -161.5t69.5 -206.5q0 -133 -59.5 -244t-176 -176.5t-280.5 -65.5 q-115 0 -224.5 45t-178 130t-68.5 200zM254 375q0 -131 66.5 -208t155.5 -105.5t165 -28.5q90 0 159.5 33.5t107.5 89t38 118.5q0 82 -51 135.5t-133 94.5l-340 168q-82 -45 -125 -107.5t-43 -189.5zM332 1204q0 -82 37 -125t108 -78l268 -129q82 33 129.5 112t47.5 171 q0 84 -43 145.5t-110 93t-136 31.5q-111 0 -206 -53t-95 -168z" />
<glyph unicode="9" d="M135 1028q0 117 48 222.5t149.5 173t253.5 67.5t263.5 -98.5t171.5 -264t60 -364.5q0 -236 -66.5 -416t-191.5 -280.5t-295 -100.5q-96 0 -165.5 40t-105.5 103.5t-36 135.5q0 88 51.5 149.5t133.5 61.5q61 0 99 -38t38 -100q0 -94 -92 -126q-41 -14 -61.5 -28.5 t-20.5 -37.5q0 -41 43 -67.5t118 -26.5q115 0 169.5 98t54.5 236v292l-13 7q-33 -33 -86 -50.5t-112 -17.5q-205 0 -306.5 121t-101.5 309zM438 1049q0 -166 28 -269.5t103 -103.5q111 0 152 86q20 39 26.5 108.5t6.5 188.5q0 186 -39 276t-127 90q-70 0 -101.5 -48 t-40 -122.5t-8.5 -205.5z" />
<glyph unicode=":" horiz-adv-x="573" d="M127 135q0 70 45 115t115 45t114.5 -45t44.5 -115t-45 -115t-114 -45q-70 0 -115 45.5t-45 114.5zM127 836q0 70 45 114.5t115 44.5t114.5 -45t44.5 -114q0 -70 -45 -115t-114 -45q-70 0 -115 45t-45 115z" />
<glyph unicode=";" horiz-adv-x="573" d="M94 129q0 82 53.5 128t122.5 46q100 0 158.5 -66.5t58.5 -170.5q0 -168 -97 -289t-255 -178l-29 57q129 47 208 136t79 188q0 14 -9 25t-26 11q-16 0 -49 -16q-37 -18 -69 -18q-57 0 -101.5 38.5t-44.5 108.5zM127 836q0 70 45 114.5t115 44.5t114.5 -45t44.5 -114 q0 -70 -45 -115t-114 -45q-70 0 -115 45t-45 115z" />
<glyph unicode="&#x3c;" horiz-adv-x="1925" d="M172 516v82l1511 836l66 -115l-1380 -762l1380 -762l-66 -114z" />
<glyph unicode="=" horiz-adv-x="1925" d="M98 279v131h1729v-131h-1729zM98 705v131h1729v-131h-1729z" />
<glyph unicode="&#x3e;" horiz-adv-x="1925" d="M176 -205l1380 762l-1380 762l66 115l1511 -836v-82l-1511 -835z" />
<glyph unicode="?" horiz-adv-x="962" d="M147 1200q0 78 38 146.5t111 110.5t173 42q96 0 172 -39t119 -105.5t43 -150.5q0 -96 -69.5 -194.5t-182.5 -202.5q-86 -80 -130 -142.5t-44 -140.5q0 -51 37 -76.5t88 -25.5q53 0 83.5 38t30.5 97q0 25 -10 53l49 21q10 -23 14.5 -38t4.5 -38q0 -86 -50.5 -140.5 t-121.5 -54.5q-82 0 -138.5 43t-56.5 123q0 72 27.5 139.5t79.5 147.5q72 111 105.5 200t33.5 218q0 80 -39 133t-108 53q-82 0 -135.5 -66.5t-53.5 -154.5q0 -76 17.5 -121t60.5 -100l-47 -35q-51 63 -76 120.5t-25 139.5zM348 135q0 70 45 115t115 45t115 -45t45 -115 t-45 -115t-115 -45t-115 45.5t-45 114.5z" />
<glyph unicode="@" horiz-adv-x="1679" d="M90 711q0 213 102.5 393t279.5 285.5t392 105.5q219 0 383 -96t253 -257t89 -351q0 -111 -54 -234t-159.5 -207t-253.5 -84q-76 0 -129 42t-61 114l-8 2q-41 -55 -111 -106.5t-156 -51.5q-100 0 -173.5 65.5t-73.5 188.5q0 129 32.5 257t96.5 208q84 104 173 151.5 t173 47.5q51 0 88 -34t49 -79h8l23 88h219l-150 -633q-10 -55 -10 -88q0 -53 24.5 -79.5t49.5 -26.5q84 0 141 75.5t86 187.5t29 218q0 188 -76 328.5t-211 214.5t-311 74q-166 0 -305.5 -92.5t-220 -258.5t-80.5 -374q0 -205 75.5 -357.5t219 -235.5t339.5 -83 q98 0 188.5 35.5t156.5 78.5l30 -55q-66 -47 -172 -86t-248 -39q-204 0 -372 93.5t-266.5 263t-98.5 391.5zM631 457q0 -63 23.5 -102.5t52.5 -39.5q75 0 138.5 111t94.5 260q49 207 49 287q0 74 -22.5 118t-61.5 44q-61 0 -110.5 -56.5t-96.5 -189.5q-29 -80 -48 -201 t-19 -231z" />
<glyph unicode="A" horiz-adv-x="1544" d="M90 0v66h70q61 0 108 48t72 117l432 1264h86l438 -1325q35 -104 121 -104h82v-66h-719v66h148q25 0 40 19t15 46q0 23 -12 59l-66 197h-430l-43 -125q-22 -55 -22 -100q0 -41 29.5 -68.5t76.5 -27.5h96v-66h-522zM502 463h379l-187 563z" />
<glyph unicode="B" horiz-adv-x="1454" d="M127 0v66h143q29 0 39 11t10 38v1228q0 29 -10 39.5t-39 10.5h-143v65h721q121 0 226.5 -45t169 -124t63.5 -179q0 -135 -100.5 -219t-245.5 -123v-12q94 -14 185 -60.5t150.5 -122t59.5 -176.5q0 -125 -65.5 -215t-175 -136t-241.5 -46h-747zM623 115q0 -27 11 -38 t38 -11h139q109 0 163 72.5t54 258.5t-54 259t-163 73h-188v-614zM623 795h188q111 0 149.5 78.5t38.5 236.5q0 133 -47 208t-129 75h-151q-27 0 -38 -10.5t-11 -39.5v-548z" />
<glyph unicode="C" horiz-adv-x="1351" d="M143 729q0 207 70 382t200 279.5t304 104.5q76 0 140.5 -25.5t135.5 -74.5q47 -31 70 -31q16 0 26.5 9t18.5 30l37 76h67v-629h-65q-47 264 -163 422t-267 158q-96 0 -160.5 -94.5t-64.5 -299.5v-614q0 -203 72.5 -298t172.5 -95q244 0 363 223q59 109 80 311h73 q-6 -90 -27.5 -181t-56.5 -159q-63 -123 -172.5 -191.5t-259.5 -68.5q-190 0 -324 107.5t-202 282.5t-68 376z" />
<glyph unicode="D" horiz-adv-x="1609" d="M127 0v66h143q29 0 39 11t10 38v1228q0 29 -10 39.5t-39 10.5h-143v65h762q170 0 311 -91t224 -254t83 -372t-83 -378.5t-225 -266t-310 -96.5h-762zM623 115q0 -27 11 -38t38 -11h182q131 0 218 91t87 265v614q0 174 -87 265.5t-218 91.5h-182q-27 0 -38 -10.5 t-11 -39.5v-1228z" />
<glyph unicode="E" horiz-adv-x="1413" d="M127 0v66h143q29 0 39 11t10 38v1228q0 29 -10 39.5t-39 10.5h-143v65h1151l12 -475h-65q0 14 -21.5 92t-60.5 142q-47 82 -108.5 129t-137.5 47h-225q-27 0 -38 -10.5t-11 -39.5v-565h104q55 0 102.5 45t75 111.5t27.5 126.5h65v-641h-65q0 61 -27.5 127.5t-75 112 t-102.5 45.5h-104v-590q0 -27 11 -38t38 -11h223q113 0 188.5 90t114.5 200q16 47 28.5 117t14.5 92h66l-13 -565h-1167z" />
<glyph unicode="F" horiz-adv-x="1372" d="M127 0v66h143q29 0 39 11t10 38v1228q0 29 -10 39.5t-39 10.5h-143v65h1155l16 -561h-65q0 16 -20.5 110.5t-53.5 161.5q-43 92 -115.5 158t-162.5 66h-209q-27 0 -38 -10.5t-11 -39.5v-565h104q55 0 102.5 45t75 111.5t27.5 126.5h65v-641h-65q0 61 -27.5 127.5t-75 112 t-102.5 45.5h-104v-590q0 -27 11 -38t38 -11h186v-66h-731z" />
<glyph unicode="G" horiz-adv-x="1474" d="M143 729q0 205 78 381t217.5 280.5t315.5 104.5q88 0 152.5 -25.5t137.5 -74.5q47 -31 70 -31q27 0 45 39l35 76h68v-590h-64q-72 260 -183.5 400.5t-260.5 140.5q-125 0 -193.5 -91.5t-68.5 -302.5v-614q0 -393 225 -393q106 0 173.5 90t67.5 211v280q0 29 -10 39 t-39 10h-180v66h680v-66h-98q-27 0 -38 -10t-11 -39v-637h-66l-49 187q-6 20 -18.5 35.5t-30.5 15.5q-37 0 -64 -43q-51 -78 -133 -141.5t-184 -63.5q-174 0 -304 104.5t-200 279.5t-70 382z" />
<glyph unicode="H" horiz-adv-x="1687" d="M127 0v66h143q29 0 39 11t10 38v1228q0 29 -10 39.5t-39 10.5h-143v65h688v-65h-143q-27 0 -38 -10.5t-11 -39.5v-540h483v540q0 29 -10.5 39.5t-38.5 10.5h-148v65h693v-65h-144q-27 0 -38 -10.5t-11 -39.5v-1228q0 -27 11.5 -38t37.5 -11h144v-66h-689v66h144 q29 0 39 11t10 38v614h-483v-614q0 -27 11 -38t38 -11h143v-66h-688z" />
<glyph unicode="I" horiz-adv-x="901" d="M127 0v66h143q29 0 39 11t10 38v1228q0 29 -10 39.5t-39 10.5h-143v65h688v-65h-143q-27 0 -38 -10.5t-11 -39.5v-1228q0 -27 11 -38t38 -11h143v-66h-688z" />
<glyph unicode="J" horiz-adv-x="1105" d="M74 315q0 72 26.5 126.5t69.5 84t88 29.5q66 0 105.5 -42t39.5 -99q0 -70 -36.5 -112t-87.5 -60q-35 -12 -50.5 -32t-15.5 -54q0 -27 25.5 -57.5t71.5 -50t104 -19.5q156 0 155 237v1077q0 29 -10 39.5t-39 10.5h-164v65h693v-65h-127q-27 0 -38.5 -10.5t-11.5 -39.5 v-946q0 -133 -63.5 -231t-162.5 -150.5t-208 -52.5q-100 0 -183 41t-132 120t-49 191z" />
<glyph unicode="K" horiz-adv-x="1576" d="M127 0v66h143q29 0 39 11t10 38v1228q0 29 -10 39.5t-39 10.5h-143v65h672v-65h-127q-27 0 -38 -10.5t-11 -39.5v-606l395 459q29 33 40 56.5t11 54.5q0 37 -20.5 61.5t-53.5 24.5h-59v65h506v-65h-72q-43 0 -89 -30t-81 -73l-274 -317l432 -817q27 -51 51.5 -70.5 t71.5 -19.5h55v-66h-643v66h82q18 0 30.5 13t12.5 30q0 12 -3 27.5t-7 23.5l-297 565l-88 -100v-510q0 -27 11 -38t38 -11h127v-66h-672z" />
<glyph unicode="L" horiz-adv-x="1372" d="M127 0v66h143q27 0 38 13t11 42v1222q0 29 -10 39.5t-39 10.5h-143v65h688v-65h-143q-27 0 -38 -10.5t-11 -39.5v-1222q0 -29 11 -42t38 -13h207q111 0 189.5 114.5t117.5 241.5q14 47 30.5 116.5t20.5 92.5h66l-17 -631h-1159z" />
<glyph unicode="M" horiz-adv-x="1822" d="M98 0v66q88 0 150.5 46t62.5 138v1093q0 29 -10 39.5t-39 10.5h-164v65h490l375 -1007l274 1007h520v-65h-143q-27 0 -38 -10.5t-11 -39.5v-1228q0 -27 11 -38t38 -11h143v-66h-688v66h143q29 0 39.5 11t10.5 38v1165l-357 -1305h-80l-417 1125h-15v-850q0 -92 62.5 -138 t150.5 -46v-66h-508z" />
<glyph unicode="N" horiz-adv-x="1564" d="M98 0v66q113 0 185.5 59t72.5 154v874q0 23 -4 33t-18 31l-82 122q-20 31 -45 42.5t-72 11.5h-37v65h455l655 -936v658q0 94 -72.5 153.5t-185.5 59.5v65h598v-65q-113 0 -185.5 -59.5t-72.5 -153.5v-1217h-78l-766 1096h-8v-780q0 -94 73 -153.5t185 -59.5v-66h-598z " />
<glyph unicode="O" horiz-adv-x="1458" d="M143 729q0 195 84 372t224.5 285.5t298.5 108.5t298 -108.5t224 -285.5t84 -372t-84 -372t-224.5 -285.5t-297.5 -108.5q-158 0 -298.5 108.5t-224.5 286t-84 371.5zM492 422q0 -211 66.5 -302t191.5 -91q124 0 191 91t67 302v614q0 211 -67 302.5t-191 91.5 q-125 0 -191.5 -91.5t-66.5 -302.5v-614z" />
<glyph unicode="P" horiz-adv-x="1437" d="M127 0v66h143q29 0 39 11t10 38v1228q0 29 -10 39.5t-39 10.5h-143v65h729q143 0 255 -48t174.5 -135t62.5 -198q0 -113 -62.5 -201t-174.5 -138t-255 -50h-233v-573q0 -27 11 -38t38 -11h180v-66h-725zM623 754h202q106 0 150.5 86t44.5 237q0 150 -43 233t-152 83h-153 q-27 0 -38 -10.5t-11 -39.5v-589z" />
<glyph unicode="Q" horiz-adv-x="1458" d="M143 729q0 195 84 372t224.5 285.5t298.5 108.5t298 -108.5t224 -285.5t84 -372q0 -147 -50.5 -288.5t-139.5 -252t-201 -170.5q8 -117 50 -180t122 -63q82 0 121.5 68.5t39.5 172.5q0 43 -6 99h62q10 -66 10 -158q0 -84 -9 -156.5t-40 -136.5q-33 -70 -92.5 -110.5 t-132.5 -40.5q-60 0 -115 31.5t-90 91t-35 139.5q0 127 8 202q-49 -14 -106 -14q-162 0 -302.5 109.5t-223.5 287t-83 369.5zM492 422q0 -213 71 -309l4 2q-6 25 -6 49q0 70 48 123t132 53q86 0 141.5 -55.5t67.5 -139.5h6q51 102 52 277v614q0 211 -67 302.5t-191 91.5 q-125 0 -191.5 -91.5t-66.5 -302.5v-614zM618 154q0 -92 62 -117q16 -8 70 -8h5q54 0 107 22q0 102 -27.5 161.5t-115.5 59.5q-43 0 -72 -36.5t-29 -81.5z" />
<glyph unicode="R" horiz-adv-x="1495" d="M127 0v66h143q29 0 39 11t10 38v1228q0 29 -10 39.5t-39 10.5h-143v65h664q221 0 356 -97t135 -263q0 -141 -103.5 -223t-273.5 -103v-14q160 -29 246 -114t86 -265v-227q0 -86 57 -86q53 0 78 88t25 215h65q0 -199 -53 -308.5t-190 -109.5q-132 0 -208.5 77.5 t-76.5 229.5v254q0 98 -48 165.5t-149 67.5h-114v-630q0 -27 11 -38t38 -11h180v-66h-725zM623 811h137q109 0 151.5 80t42.5 223q0 139 -43 209t-151 70h-88q-27 0 -38 -10.5t-11 -39.5v-532z" />
<glyph unicode="S" horiz-adv-x="1269" d="M184 627h66q29 -156 97.5 -293t165.5 -221t210 -84q162 0 221.5 71.5t59.5 161.5q0 53 -38 95t-110 89l-438 283q-96 61 -163 153.5t-67 219.5q0 199 116 296t286 97q145 0 291 -102q47 -37 73 -37q37 0 45 47l13 55h65l21 -532h-66q-39 141 -108.5 255.5t-160.5 181.5 t-190 67q-109 0 -161 -43.5t-52 -129.5q0 -117 183 -235l440 -285q84 -55 134 -151.5t50 -200.5q0 -106 -51 -202.5t-153.5 -158t-251.5 -61.5q-90 0 -162 25.5t-119 64.5q-47 35 -67.5 48.5t-38.5 13.5q-43 0 -54 -70l-10 -65h-63z" />
<glyph unicode="T" horiz-adv-x="1466" d="M123 848l16 610h1229l16 -610h-65q-2 12 -11.5 64.5t-31.5 127.5q-39 141 -119 247t-176 106q-35 0 -55.5 -18.5t-20.5 -51.5v-1208q0 -27 11.5 -38t37.5 -11h164v-66h-729v66h164q29 0 39 11t10 38v1208q0 33 -20.5 51.5t-55.5 18.5q-96 0 -176 -105.5t-119 -247.5 q-23 -76 -32 -128t-11 -64h-65z" />
<glyph unicode="U" horiz-adv-x="1626" d="M139 1393v65h664v-65h-131q-27 0 -38 -10.5t-11 -39.5v-937q0 -188 71.5 -274.5t220.5 -86.5q100 0 180.5 49t125.5 131t45 181v802q0 92 -62.5 138.5t-150.5 46.5v65h508v-65q-88 0 -150.5 -46.5t-62.5 -138.5v-782q0 -129 -58.5 -234.5t-170 -167t-261.5 -61.5 q-184 0 -305 73t-177.5 190.5t-56.5 258.5v858q0 29 -10 39.5t-39 10.5h-131z" />
<glyph unicode="V" horiz-adv-x="1581" d="M94 1393v65h711v-65h-103q-29 0 -49 -15.5t-20 -36.5q0 -23 8 -45l303 -862l236 731q20 61 20 105q0 45 -28.5 84t-86.5 39h-102v65h553v-65h-63q-137 0 -197 -187l-404 -1243h-86l-462 1311q-23 68 -59 93.5t-103 25.5h-68z" />
<glyph unicode="W" horiz-adv-x="2203" d="M90 1393v65h666v-65h-60q-29 0 -46 -20.5t-17 -51.5q0 -25 10 -51l258 -789l193 656l-45 137q-23 68 -59 93.5t-103 25.5h-35v65h672v-65h-101q-29 0 -47 -18.5t-18 -41.5q0 -20 6 -45l260 -799l186 674q4 14 9.5 50t5.5 61q0 45 -25.5 82t-83.5 37h-102v65h553v-65h-64 q-137 0 -196 -187l-346 -1243h-86l-336 1036l-303 -1036h-86l-426 1297q-23 68 -66 100.5t-129 32.5h-39z" />
<glyph unicode="X" horiz-adv-x="1536" d="M106 0v66h64q68 0 118 37.5t93 99.5l301 456l-340 627q-29 51 -72 79t-112 28h-31v65h643v-65h-43q-18 0 -34.5 -15.5t-16.5 -42.5q0 -25 16 -57l180 -332l160 244q33 49 33 113q0 35 -23.5 62.5t-66.5 27.5h-62v65h521v-65h-62q-61 0 -103 -23.5t-77 -77.5l-279 -422 l375 -696q31 -55 75 -81.5t91 -26.5h41v-66h-680v66h68q31 0 47 19t16 54q0 31 -24 74l-199 369l-197 -297q-51 -78 -51 -129q0 -37 18.5 -63.5t55.5 -26.5h90v-66h-533z" />
<glyph unicode="Y" horiz-adv-x="1507" d="M94 1393v65h643v-65h-57q-29 0 -43 -20.5t-14 -45.5q0 -33 12 -57l270 -588l189 469q28 64 28 114q0 52 -26.5 90t-83.5 38h-58v65h508v-65h-61q-70 0 -116 -44t-71 -106l-276 -674v-454q0 -27 11.5 -38t37.5 -11h131v-66h-663v66h131q29 0 39 11t10 38v436l-348 752 q-25 51 -51.5 70.5t-69.5 19.5h-72z" />
<glyph unicode="Z" horiz-adv-x="1335" d="M139 0v66l721 1327h-258q-78 0 -169 -81t-140 -202q-23 -55 -35 -110.5t-12 -65.5h-66l25 524h999v-69l-719 -1323h281q106 0 194.5 83.5t137.5 182.5q37 72 57.5 152.5t20.5 93.5h65l-33 -578h-1069z" />
<glyph unicode="[" horiz-adv-x="778" d="M164 -369v1827h471v-57h-193q-49 0 -49 -49v-1614q0 -49 49 -49h193v-58h-471z" />
<glyph unicode="\" horiz-adv-x="921" d="M102 1495h140l577 -1901h-139z" />
<glyph unicode="]" horiz-adv-x="778" d="M143 -311h193q49 0 49 49v1614q0 49 -49 49h-193v57h471v-1827h-471v58z" />
<glyph unicode="^" d="M111 762l462 733h41l463 -733h-159l-324 512l-324 -512h-159z" />
<glyph unicode="_" horiz-adv-x="1064" d="M0 -213h1065v-131h-1065v131z" />
<glyph unicode="`" horiz-adv-x="778" d="M205 1376q0 37 24.5 59.5t61.5 22.5q29 0 53.5 -14t46.5 -51l182 -283l-41 -37l-270 205q-57 43 -57 98z" />
<glyph unicode="a" horiz-adv-x="1040" d="M94 217q0 133 97.5 210t246.5 128l152 53v140q0 104 -43 151t-111 47q-57 0 -99 -25.5t-42 -70.5q0 -12 7 -29.5t26 -29.5q31 -18 44 -39t13 -54q0 -49 -36 -76.5t-79 -27.5q-53 0 -91 36t-38 103q0 78 47.5 138.5t121 92t149.5 31.5q147 0 257.5 -78.5t110.5 -250.5 v-519q0 -73 40 -73h1q37 0 55.5 61.5t18.5 140.5h57q0 -150 -45 -219q-23 -37 -63.5 -59.5t-93.5 -22.5q-84 0 -127 26t-72 85h-4q-82 -111 -229 -111q-113 0 -192 55.5t-79 186.5zM344 236q0 -100 37 -139.5t84 -39.5q80 0 125 90v406l-115 -41q-68 -25 -99.5 -93.5 t-31.5 -182.5z" />
<glyph unicode="b" horiz-adv-x="1081" d="M25 1409v49h385v-604l12 -4q33 68 84 106.5t117 38.5q106 0 188 -72.5t127 -189.5t45 -248q0 -129 -47 -246.5t-131 -190.5t-191 -73q-73 0 -123.5 37t-89.5 97q-25 39 -41 53t-38 14q-35 0 -60 -57l-57 -119h-33v1376q0 18 -7 25.5t-26 7.5h-114zM410 479 q0 -121 24.5 -221t64.5 -158.5t87 -58.5q135 0 135 444t-135 445q-37 0 -78 -49.5t-69.5 -151.5t-28.5 -250z" />
<glyph unicode="c" horiz-adv-x="958" d="M98 485q0 139 54.5 256t154 185.5t223.5 68.5q98 0 165 -41t99.5 -104.5t32.5 -130.5q0 -74 -45 -128t-108 -54q-47 0 -78 27.5t-31 74.5q0 55 66 109q49 41 49 83q0 43 -32 79t-101 36q-96 0 -141.5 -122t-45.5 -339q0 -109 4.5 -169t18.5 -113q18 -76 70.5 -121 t121.5 -45q100 0 162 88t74 207h53q-12 -141 -92 -249t-237 -108q-127 0 -226.5 69t-155 185.5t-55.5 255.5z" />
<glyph unicode="d" horiz-adv-x="1101" d="M98 485q0 131 45 248t127 189.5t189 72.5q66 0 117 -38.5t83 -106.5l13 4v522q0 18 -7.5 25.5t-25.5 7.5h-115v49h385v-1376q0 -18 7.5 -25.5t25.5 -7.5h115v-49h-385v119h-13q-27 -57 -77 -100.5t-115 -43.5q-107 0 -190.5 73t-131 190.5t-47.5 246.5zM360 485 q0 -444 136 -444q47 0 87 58.5t64.5 158.5t24.5 221q0 147 -29 249.5t-70 152t-77 49.5q-135 0 -136 -445z" />
<glyph unicode="e" horiz-adv-x="966" d="M98 485q0 143 55.5 260t150.5 183.5t208 66.5q125 0 215 -89t119 -234q14 -66 14 -205h-500q0 -98 4.5 -154.5t18.5 -109.5q18 -76 70.5 -121t121.5 -45q100 0 162 88t74 207h53q-12 -141 -92 -249t-237 -108q-127 0 -226.5 69t-155 185.5t-55.5 255.5zM360 524h263 q0 215 -28 318.5t-103 103.5q-76 0 -104 -103.5t-28 -318.5z" />
<glyph unicode="f" horiz-adv-x="716" d="M61 0v49h115q18 0 25.5 7t7.5 26v831h-148v58h148v98q0 129 56.5 221t143.5 138.5t175 46.5q113 0 180 -68t67 -172q0 -61 -44 -106.5t-107 -45.5q-47 0 -84 31t-37 82q0 59 57 111q35 31 35 65q0 29 -23.5 41t-52.5 12q-51 0 -90 -61t-39 -209v-184h148v-58h-148v-831 q0 -18 7.5 -25.5t25.5 -7.5h115v-49h-533z" />
<glyph unicode="g" horiz-adv-x="1134" d="M86 -233q0 68 51 124t142 76v6q-61 4 -110.5 51.5t-49.5 116.5q0 195 229 240v8q-80 35 -140.5 106.5t-60.5 180.5q0 92 52.5 165.5t137.5 113.5t183 40q168 0 285 -106h6q63 106 152 106q66 0 106.5 -40t40.5 -95q0 -61 -34 -106t-81 -45q-33 0 -57.5 19.5t-24.5 51.5 q0 33 33 74q12 12 22.5 28.5t10.5 28.5q0 33 -43 33q-55 0 -105 -86q66 -72 66 -199q0 -74 -47 -144.5t-134 -115.5t-200 -45q-125 0 -200.5 -21.5t-75.5 -86.5q0 -72 100 -72h324q145 0 241 -69.5t96 -208.5q0 -102 -55 -189.5t-159.5 -140.5t-245.5 -53q-191 0 -323 67.5 t-132 186.5zM160 -236q0 -90 105.5 -138t244.5 -48q141 0 247.5 57.5t106.5 163.5q0 78 -86 112t-219 34q-158 0 -278.5 -38t-120.5 -143zM397 676q0 -141 30 -205.5t97 -64.5q66 0 94.5 64.5t28.5 205.5t-28.5 205.5t-94.5 64.5q-68 0 -97.5 -64.5t-29.5 -205.5z" />
<glyph unicode="h" horiz-adv-x="1146" d="M53 0v49h115q18 0 25.5 7t7.5 26v1294q0 18 -7.5 25.5t-25.5 7.5h-115v49h385v-670l11 -2q41 96 105 152.5t148 56.5q51 0 88 -11t70 -34q51 -37 81 -102.5t30 -134.5v-631q0 -18 7 -25.5t26 -7.5h77v-49h-446v49h65q18 0 25.5 7t7.5 26v690q0 158 -94 158 q-43 0 -90 -57.5t-79 -151.5t-32 -201v-438q0 -18 7.5 -25.5t25.5 -7.5h66v-49h-484z" />
<glyph unicode="i" horiz-adv-x="606" d="M82 0v49h78q18 0 25.5 7t7.5 26v807q0 18 -7.5 25.5t-25.5 7.5h-78v49h348v-889q0 -18 7 -25.5t26 -7.5h78v-49h-459zM152 1331q0 66 44 109t107 43q66 0 109 -43t43 -109q0 -63 -43 -107t-109 -44q-63 0 -107 44t-44 107z" />
<glyph unicode="j" horiz-adv-x="655" d="M-106 -258q0 70 46 116t105 46q47 0 84 -29t37 -80q0 -63 -57 -114q-35 -31 -35 -66q0 -29 23.5 -41t52.5 -12q47 0 71.5 58t24.5 212v1057q0 18 -7.5 25.5t-25.5 7.5h-115v49h385v-1053q0 -131 -45 -222t-119.5 -137t-160.5 -46q-115 0 -189.5 64.5t-74.5 164.5z M213 1331q0 66 44 109t108 43q66 0 108.5 -43t42.5 -109q0 -63 -43 -107t-108 -44q-64 0 -108 44t-44 107z" />
<glyph unicode="k" horiz-adv-x="1146" d="M53 0v49h115q18 0 25.5 7t7.5 26v1294q0 18 -6.5 25.5t-26.5 7.5h-115v49h385v-1022l267 334q40 50 40 90q0 29 -17 44.5t-40 15.5h-61v51h391v-51h-47q-49 0 -89 -32t-94 -102l-120 -151l319 -518q20 -35 36.5 -51.5t39.5 -16.5h43v-49h-473v49h37q18 0 34.5 11.5 t16.5 33.5q0 49 -29 94l-166 271l-88 -109v-268q0 -18 8.5 -25.5t28.5 -7.5h74v-49h-496z" />
<glyph unicode="l" horiz-adv-x="630" d="M53 0v49h115q18 0 25.5 7t7.5 26v1294q0 18 -7.5 25.5t-25.5 7.5h-115v49h385v-1376q0 -18 7.5 -25.5t25.5 -7.5h115v-49h-533z" />
<glyph unicode="m" horiz-adv-x="1638" d="M82 0v49h78q18 0 25.5 7t7.5 26v807q0 18 -7.5 25.5t-25.5 7.5h-78v49h348v-203l10 -2q92 229 256 229q127 0 177.5 -63.5t68.5 -161.5h10q37 104 101.5 164.5t140.5 60.5q51 0 88 -11t70 -34q51 -37 80.5 -102.5t29.5 -134.5v-631q0 -18 7.5 -25.5t25.5 -7.5h78v-49 h-447v49h66q18 0 25.5 7t7.5 26v690q0 158 -95 158q-43 0 -86 -56.5t-70.5 -151.5t-27.5 -202v-438q0 -18 7.5 -25.5t25.5 -7.5h65v-49h-434v49h66q18 0 25.5 7t7.5 26v727q0 61 -14.5 91t-63.5 30q-43 0 -90 -57.5t-79 -151.5t-32 -201v-438q0 -18 7 -25.5t26 -7.5h65v-49 h-446z" />
<glyph unicode="n" horiz-adv-x="1138" d="M82 0v49h78q18 0 25.5 7t7.5 26v807q0 18 -7.5 25.5t-25.5 7.5h-78v49h348v-183l10 -2q41 96 105.5 152.5t148.5 56.5q51 0 88 -11t70 -34q51 -37 81 -102.5t30 -134.5v-631q0 -18 7 -25.5t25 -7.5h78v-49h-446v49h65q18 0 25.5 7t7.5 26v690q0 158 -94 158 q-43 0 -90 -57.5t-79 -151.5t-32 -201v-438q0 -18 7 -25.5t26 -7.5h65v-49h-446z" />
<glyph unicode="o" horiz-adv-x="1032" d="M98 485q0 143 57.5 260t154 183.5t206.5 66.5q111 0 207 -66.5t153.5 -183t57.5 -260.5q0 -143 -57.5 -259.5t-153.5 -183.5t-207 -67q-110 0 -206.5 67t-154 183.5t-57.5 259.5zM360 485q0 -244 34 -352t122 -108t122 108.5t34 351.5q0 244 -34 352.5t-122 108.5 t-122 -108.5t-34 -352.5z" />
<glyph unicode="p" horiz-adv-x="1114" d="M57 -418h115q18 0 25.5 7.5t7.5 25.5v1274q0 18 -7.5 25.5t-25.5 7.5h-115v49h385v-119h13q27 57 77 100t115 43q106 0 190.5 -72.5t131.5 -190.5t47 -247q0 -131 -45 -247.5t-127 -189.5t-189 -73q-66 0 -117 39t-83 107l-13 -4v-502q0 -18 7.5 -25.5t25.5 -7.5h115v-49 h-533v49zM442 492q0 -147 29 -250t70 -152t77 -49q136 0 136 444t-136 445q-47 0 -86.5 -58.5t-64.5 -159t-25 -220.5z" />
<glyph unicode="q" horiz-adv-x="1073" d="M98 485q0 129 47.5 247t131 190.5t190.5 72.5q74 0 124 -36.5t89 -96.5q25 -39 41 -53t39 -14q35 0 59 57l58 119h32v-1356q0 -18 7.5 -25.5t25.5 -7.5h78v-49h-496v49h115q18 0 25.5 7.5t7.5 25.5v502l-13 4q-33 -68 -84 -107t-116 -39q-106 0 -188.5 73t-127.5 189.5 t-45 247.5zM360 485q0 -444 136 -444q36 0 77 49t70 151.5t29 250.5q0 121 -24.5 221t-64.5 158.5t-87 58.5q-135 0 -136 -445z" />
<glyph unicode="r" horiz-adv-x="888" d="M82 0v49h78q18 0 25.5 7t7.5 26v807q0 18 -7.5 25.5t-25.5 7.5h-78v49h348v-203l10 -2q33 94 93.5 161.5t134.5 67.5t121 -53t47 -135q0 -76 -43 -130t-107 -54q-55 0 -94 33.5t-39 82.5t49 107q29 33 29 47q0 20 -23 20q-41 0 -83 -59t-68.5 -155.5t-26.5 -204.5v-412 q0 -18 7 -25.5t26 -7.5h65v-49h-446z" />
<glyph unicode="s" horiz-adv-x="880" d="M119 -25v406h45l92 -162q110 -194 277 -194h2q76 0 112.5 37.5t36.5 84.5q0 41 -21.5 71t-73.5 61.5t-161 85.5q-131 63 -220 143t-89 209q0 127 80 202.5t194 75.5q96 0 205 -69q39 -25 61 -25q25 0 33 33l13 41h36v-328h-45l-39 78q-55 111 -126.5 166t-145.5 55 q-55 0 -91 -26.5t-36 -85.5q0 -121 217 -224q133 -63 204 -112t103.5 -106.5t32.5 -141.5q0 -127 -81 -201t-202 -74q-102 0 -213 66q-49 33 -73 33q-27 0 -47.5 -15.5t-28.5 -40.5l-14 -43h-37z" />
<glyph unicode="t" horiz-adv-x="745" d="M41 913v58q121 16 191.5 100t70.5 219v74h98v-393h209v-58h-209v-698q0 -68 18.5 -108.5t76.5 -40.5q86 0 114.5 117.5t28.5 262.5h57q0 -117 -15 -215t-48 -151q-66 -104 -199 -105q-129 0 -199.5 67t-70.5 187v684h-123z" />
<glyph unicode="u" horiz-adv-x="1126" d="M49 922v49h369v-772q0 -158 94 -158q43 0 90 57.5t79 151.5t32 201v438q0 18 -7.5 25.5t-25.5 7.5h-98v49h368v-889q0 -18 7.5 -25.5t25.5 -7.5h78v-49h-348v182l-11 2q-41 -96 -105.5 -152.5t-147.5 -56.5q-52 0 -88.5 11.5t-69.5 33.5q-51 37 -81 102.5t-30 135.5v631 q0 18 -7 25.5t-26 7.5h-98z" />
<glyph unicode="v" horiz-adv-x="1085" d="M37 922v49h502v-49h-60q-18 0 -33.5 -14.5t-15.5 -39.5q0 -20 12 -57l183 -506l161 449q14 45 15 90q0 29 -20.5 53.5t-51.5 24.5h-53v49h348v-49h-45q-70 0 -115 -127l-295 -820h-65l-301 828q-23 66 -50.5 92.5t-80.5 26.5h-35z" />
<glyph unicode="w" horiz-adv-x="1589" d="M37 922v49h473v-49h-39q-18 0 -29.5 -14.5t-11.5 -39.5q0 -20 12 -57l185 -514l149 418l-31 88q-23 63 -48 91t-68 28h-27v49h477v-49h-59q-18 0 -33.5 -14.5t-15.5 -39.5q0 -20 12 -57l164 -487l156 432q14 45 14 92q0 29 -20.5 51.5t-51.5 22.5h-53v49h348v-49h-45 q-70 0 -115 -127l-295 -820h-65l-215 654l-236 -654h-65l-299 828q-23 63 -51.5 91t-81.5 28h-35z" />
<glyph unicode="x" horiz-adv-x="1064" d="M49 0v49h78q37 0 73 36t70 87l172 246l-260 430q-20 37 -39.5 55.5t-48.5 18.5h-45v49h469v-49h-29q-14 0 -26 -10.5t-12 -34.5q0 -25 16 -50l121 -200l125 182q24 36 24 67q0 23 -17.5 34.5t-37.5 11.5h-82v49h363v-49h-56q-29 0 -56.5 -29t-68.5 -88l-161 -234 l266 -440q20 -35 44.5 -58.5t59.5 -23.5h33v-49h-465v49h31q14 0 22.5 11.5t8.5 31.5q0 29 -21 62l-125 208l-110 -159q-25 -35 -25 -88q0 -29 15.5 -47.5t35.5 -18.5h76v-49h-418z" />
<glyph unicode="y" horiz-adv-x="1073" d="M25 922v49h501v-49h-59q-18 0 -33.5 -14.5t-15.5 -39.5q0 -23 14 -57l211 -506l133 449q14 57 15 90q0 31 -16.5 54.5t-47.5 23.5h-53v49h338v-49h-45q-37 0 -71 -32t-52 -95l-312 -1035q-72 -247 -222 -247h-1q-84 0 -135 52t-51 134q0 68 43 119t108 51q49 0 81 -29.5 t32 -72.5q0 -27 -11 -49.5t-28 -36.5q-29 -25 -29 -54q0 -18 11.5 -33.5t36.5 -15.5q35 0 58.5 43t43.5 109l68 225l-355 848q-29 68 -52.5 93.5t-74.5 25.5h-30z" />
<glyph unicode="z" horiz-adv-x="942" d="M66 0v53l512 869h-140q-123 0 -192 -107q-37 -57 -55.5 -123.5t-18.5 -81.5h-49l12 361h713v-41l-520 -881h176q74 0 142.5 55.5t103.5 133.5q27 53 36 110.5t9 77.5h49l-13 -426h-765z" />
<glyph unicode="{" horiz-adv-x="860" d="M86 518v53q102 0 151.5 32t49.5 134v414q0 150 111.5 227.5t310.5 116.5l16 -57q-115 -23 -162 -64t-47 -137v-397q0 -133 -64.5 -201t-170.5 -92v-4q106 -25 170.5 -92.5t64.5 -200.5v-397q0 -96 47 -137.5t162 -63.5l-16 -58q-199 39 -310.5 117t-111.5 228v413 q0 102 -49.5 134t-151.5 32z" />
<glyph unicode="|" horiz-adv-x="581" d="M221 -406v1901h139v-1901h-139z" />
<glyph unicode="}" horiz-adv-x="860" d="M135 -348q115 23 162 63.5t47 137.5v397q0 133 64.5 200.5t171.5 92.5v4q-106 25 -171 92.5t-65 200.5v397q0 96 -47 137t-162 64l17 57q199 -39 310 -117t111 -227v-414q0 -102 49.5 -134t151.5 -32v-53q-102 0 -151.5 -31.5t-49.5 -134.5v-413q0 -150 -111.5 -228 t-309.5 -117z" />
<glyph unicode="~" horiz-adv-x="1351" d="M98 510q0 92 63.5 161.5t174.5 69.5q86 0 182 -32.5t240 -96.5q121 -55 202.5 -83.5t141.5 -28.5q33 0 57.5 22.5t24.5 63.5q0 43 -22.5 71.5t-63.5 51.5l28 43q63 -29 97 -77t34 -108q0 -92 -63.5 -161.5t-173.5 -69.5q-86 0 -182.5 32.5t-239.5 96.5q-121 55 -203 84 t-141 29q-33 0 -57.5 -23t-24.5 -63q0 -43 22.5 -72t63.5 -51l-29 -43q-63 28 -97 76.5t-34 107.5z" />
<glyph unicode="&#xa2;" d="M209 485q0 133 49 245t139 182.5t205 80.5v224h82v-224q123 -12 188.5 -94t65.5 -180q0 -55 -33 -100.5t-90 -45.5q-45 0 -71.5 28t-26.5 73q0 41 47 94q35 39 35 63q0 37 -29 72t-86 41v-907q102 0 163.5 88t74.5 207h53q-12 -131 -82 -235.5t-209 -119.5v-223h-82v223 q-117 12 -206 83t-138 182.5t-49 242.5zM471 485q0 -109 4 -169t19 -113q25 -104 108 -146v877q-131 -66 -131 -449z" />
<glyph unicode="&#xa3;" horiz-adv-x="1474" d="M131 133q0 49 28.5 89t72.5 62.5t87 22.5q66 0 125.5 -16.5t149.5 -50.5q12 47 12 98q0 121 -51 274q-31 84 -47 166q-45 4 -68 4q-53 0 -82.5 -10t-72.5 -35l-33 62q31 27 68.5 42t99.5 15q25 0 74 -4q-10 72 -11 139q0 156 69 269.5t183.5 172t251.5 58.5 q109 0 189.5 -43t121.5 -109.5t41 -132.5q0 -68 -47 -121t-110 -53q-45 0 -84 31t-39 78q0 41 16.5 64.5t46.5 47.5q25 23 33 41.5t8 42.5q0 35 -45 68t-131 33q-104 0 -152.5 -99.5t-48.5 -240.5q0 -100 21 -301q66 -10 113 -11q53 0 84.5 11.5t70.5 33.5l33 -61 q-57 -57 -168 -57q-57 0 -125 10q8 -98 8 -162q0 -90 -31.5 -183t-86.5 -173q80 -23 150.5 -32t152.5 -9q98 0 185 57.5t140 149.5l51 -23q-59 -152 -179 -268.5t-294 -116.5q-123 0 -311 123q-131 -111 -268 -111q-86 0 -143.5 38t-57.5 120zM188 121q0 -51 44 -73.5 t100 -22.5q55 0 109.5 27.5t95.5 76.5q-72 47 -126.5 71.5t-103.5 24.5q-53 0 -86 -28.5t-33 -75.5z" />
<glyph unicode="&#xa5;" d="M37 1393v65h541v-65h-50q-18 0 -28.5 -14.5t-10.5 -35.5q0 -20 15 -49l205 -471l172 369q10 20 17 54t7 61t-16.5 56.5t-48.5 29.5h-52v65h363v-65h-33q-43 0 -75.5 -43t-65.5 -111l-240 -506h287v-65h-287v-136h287v-65h-287v-352q0 -49 49 -49h148v-66h-696v66h147 q49 0 49 49v352h-287v65h287v136h-287v65h269l-252 580q-18 39 -39 59.5t-51 20.5h-37z" />
<glyph unicode="&#xa8;" horiz-adv-x="1048" d="M205 1266q0 51 35.5 87t87.5 36q51 0 87 -36t36 -87t-36 -87t-87 -36q-52 0 -87.5 35.5t-35.5 87.5zM598 1266q0 51 36 87t87 36t87 -36t36 -87t-36 -87t-87 -36t-87 35.5t-36 87.5z" />
<glyph unicode="&#xa9;" horiz-adv-x="1679" d="M98 729q0 209 97.5 384t267.5 278.5t377 103.5t376.5 -103.5t267 -278.5t97.5 -384t-97.5 -384t-267 -278.5t-376.5 -103.5t-377 103.5t-267.5 278.5t-97.5 384zM180 729q0 -186 86 -345t237.5 -253t336.5 -94q184 0 335.5 94t237.5 253t86 345t-86 345t-237.5 253 t-335.5 94t-336 -94t-238 -253t-86 -345zM451 719q0 135 45 248.5t129 181.5t196 68q96 0 180 -62q37 -25 50 -25q20 0 30 27l19 47h51v-405h-49q-29 168 -95.5 264t-156.5 96q-57 0 -97 -57.5t-40 -186.5v-391q0 -127 45 -184t106 -57q143 0 213 137q33 66 49 194h54 q-6 -127 -56 -221q-41 -80 -112.5 -124t-169.5 -44q-125 0 -214 70t-133 182.5t-44 241.5z" />
<glyph unicode="&#xab;" horiz-adv-x="983" d="M221 485q0 274 254 428l33 -32q-47 -51 -68.5 -97.5t-30 -112t-8.5 -186.5t8.5 -186.5t30 -111.5t68.5 -97l-33 -33q-254 154 -254 428zM543 485q0 125 51 215.5t143 176.5l33 -33q-51 -70 -65.5 -151t-14.5 -208t14.5 -207.5t65.5 -150.5l-33 -33q-67 56 -130.5 161 t-63.5 230z" />
<glyph unicode="&#xad;" horiz-adv-x="757" d="M115 426v209h528v-209h-528z" />
<glyph unicode="&#xae;" horiz-adv-x="1679" d="M98 729q0 209 97.5 384t267.5 278.5t377 103.5t376.5 -103.5t267 -278.5t97.5 -384t-97.5 -384t-267 -278.5t-376.5 -103.5t-377 103.5t-267.5 278.5t-97.5 384zM180 729q0 -186 86 -345t237.5 -253t336.5 -94q184 0 335.5 94t237.5 253t86 345t-86 345t-237.5 253 t-335.5 94t-336 -94t-238 -253t-86 -345zM418 266v49h82q37 0 37 37v762q0 37 -37 37h-82v49h459q152 0 243.5 -62.5t91.5 -168.5q0 -90 -76.5 -144.5t-201.5 -66.5v-10q119 -18 182.5 -71.5t63.5 -166.5v-141q0 -29 8 -41.5t24 -12.5q33 0 47.5 55.5t14.5 133.5h49 q0 -131 -38 -203t-134 -72q-92 0 -146.5 50.5t-54.5 146.5v162q0 63 -28.5 106t-87.5 43h-68v-385q0 -37 37 -37h98v-49h-483zM766 788h82q66 0 92.5 50.5t26.5 138.5t-26 131t-93 43h-45q-37 0 -37 -37v-326z" />
<glyph unicode="&#xb4;" horiz-adv-x="778" d="M205 1110l182 283q23 37 47.5 51t52.5 14q37 0 61.5 -22.5t24.5 -59.5q0 -55 -57 -98l-270 -205z" />
<glyph unicode="&#xb8;" horiz-adv-x="827" d="M205 -293q0 31 15.5 48.5t43.5 17.5q31 0 43 -18.5t21 -57.5q16 -78 100 -78q45 0 70.5 26.5t25.5 67.5q0 39 -24.5 62.5t-73.5 23.5h-96l32 201h52l-15 -86h52q74 0 123 -44t49 -110q0 -78 -54.5 -132t-169.5 -54q-71 0 -132.5 35t-61.5 98z" />
<glyph unicode="&#xbb;" horiz-adv-x="983" d="M213 127q51 70 65.5 150.5t14.5 207.5t-14.5 208t-65.5 151l33 33q92 -86 143 -176.5t51 -215.5t-63.5 -230t-130.5 -161zM475 90q47 51 68.5 97t30 112t8.5 186q0 121 -8.5 186.5t-30 111.5t-68.5 98l33 32q254 -154 254 -428t-254 -428z" />
<glyph unicode="&#x2c6;" horiz-adv-x="1024" d="M205 1122q102 66 152.5 147t84.5 181h140q35 -100 85 -181t152 -147l-33 -49q-72 35 -148.5 90.5t-125.5 106.5q-49 -51 -126 -106.5t-148 -90.5z" />
<glyph unicode="&#x2da;" horiz-adv-x="847" d="M205 1276q0 92 63.5 155.5t155.5 63.5t155.5 -63.5t63.5 -155.5t-63.5 -155.5t-155.5 -63.5t-155.5 63.5t-63.5 155.5zM295 1276q0 -57 36 -93t93 -36q59 0 94 36t35 93q0 59 -35 94t-94 35q-57 0 -93 -35t-36 -94z" />
<glyph unicode="&#x2dc;" horiz-adv-x="1015" d="M205 1155q0 51 22.5 102.5t63.5 85t94 33.5q45 0 80 -10t88 -33q72 -31 131 -30q68 0 82 81h45q0 -51 -22.5 -102t-63.5 -85t-94 -34q-45 0 -80 10.5t-88 32.5q-72 31 -131 31q-68 0 -82 -82h-45z" />
<glyph unicode="&#x400;" horiz-adv-x="1413" d="M127 0v66h143q29 0 39 11t10 38v1228q0 29 -10 39.5t-39 10.5h-143v65h1151l12 -475h-65q0 14 -21.5 92t-60.5 142q-47 82 -108.5 129t-137.5 47h-225q-27 0 -38 -10.5t-11 -39.5v-565h104q55 0 102.5 45t75 111.5t27.5 126.5h65v-641h-65q0 61 -27.5 127.5t-75 112 t-102.5 45.5h-104v-590q0 -27 11 -38t38 -11h223q113 0 188.5 90t114.5 200q16 47 28.5 117t14.5 92h66l-13 -565h-1167zM459 1860q0 37 24.5 59.5t61.5 22.5q29 0 53.5 -14.5t46.5 -51.5l182 -283l-41 -37l-270 205q-57 43 -57 99z" />
<glyph unicode="&#x401;" horiz-adv-x="1413" d="M127 0v66h143q29 0 39 11t10 38v1228q0 29 -10 39.5t-39 10.5h-143v65h1151l12 -475h-65q0 14 -21.5 92t-60.5 142q-47 82 -108.5 129t-137.5 47h-225q-27 0 -38 -10.5t-11 -39.5v-565h104q55 0 102.5 45t75 111.5t27.5 126.5h65v-641h-65q0 61 -27.5 127.5t-75 112 t-102.5 45.5h-104v-590q0 -27 11 -38t38 -11h223q113 0 188.5 90t114.5 200q16 47 28.5 117t14.5 92h66l-13 -565h-1167zM422 1749q0 51 36 87t87 36t87 -36t36 -87t-36 -87t-87 -36t-87 36t-36 87zM856 1749q0 51 36 87t87 36t87 -36t36 -87t-36 -87t-87 -36t-87 36t-36 87 z" />
<glyph unicode="&#x402;" horiz-adv-x="1748" d="M82 934l16 524h1245l17 -524h-66q0 20 -19.5 112.5t-53.5 159.5q-45 90 -112 138.5t-167 48.5h-41q-27 0 -38 -10.5t-11 -39.5v-606l10 -6q72 57 153 89t185 32q225 0 354 -119t129 -323q0 -221 -134 -334t-337 -113q-122 0 -200 59.5t-78 165.5q0 70 45 119t117 49 q51 0 82.5 -35.5t31.5 -78.5q0 -35 -13 -57.5t-36 -45.5q-31 -31 -31 -57q0 -29 25 -41t59 -12q86 0 126 86t40 295q0 360 -262 360q-76 0 -136 -29.5t-130 -91.5v-649h-496v66h144q29 0 39 11t10 38v1228q0 29 -10.5 39.5t-38.5 10.5q-100 0 -167 -48.5t-112 -138.5 q-35 -68 -54.5 -160t-19.5 -112h-65z" />
<glyph unicode="&#x403;" horiz-adv-x="1327" d="M127 0v66h143q29 0 39 11t10 38v1228q0 29 -10 39.5t-39 10.5h-143v65h1102l16 -612h-65q-4 14 -17.5 66.5t-37 121t-52.5 121.5q-129 238 -276 238h-125q-27 0 -38 -10.5t-11 -39.5v-1228q0 -27 11 -38t38 -11h186v-66h-731zM664 1593l182 283q23 37 47.5 51.5 t52.5 14.5q37 0 61.5 -23t24.5 -59q0 -55 -57 -99l-270 -205z" />
<glyph unicode="&#x404;" horiz-adv-x="1343" d="M127 750q0 227 66.5 395t194.5 259t304 91q80 0 156 -28.5t137 -73.5q16 -12 34.5 -22.5t33.5 -10.5q29 0 41 37l28 82h66v-588h-66q-25 156 -85 278.5t-142 191.5t-170 69q-131 0 -190.5 -100.5t-59.5 -293.5v-233h479v-74h-479v-307q0 -176 79 -284.5t224 -108.5 q98 0 166 34.5t68 92.5q0 55 -54 88q-53 35 -83.5 72.5t-30.5 99.5q0 72 49 118t125 46q90 0 154.5 -69t64.5 -185q0 -104 -63.5 -186.5t-169 -129.5t-226.5 -47q-196 0 -343.5 100.5t-227.5 278.5t-80 408z" />
<glyph unicode="&#x405;" horiz-adv-x="1269" d="M184 627h66q29 -156 97.5 -293t165.5 -221t210 -84q162 0 221.5 71.5t59.5 161.5q0 53 -38 95t-110 89l-438 283q-96 61 -163 153.5t-67 219.5q0 199 116 296t286 97q145 0 291 -102q47 -37 73 -37q37 0 45 47l13 55h65l21 -532h-66q-39 141 -108.5 255.5t-160.5 181.5 t-190 67q-109 0 -161 -43.5t-52 -129.5q0 -117 183 -235l440 -285q84 -55 134 -151.5t50 -200.5q0 -106 -51 -202.5t-153.5 -158t-251.5 -61.5q-90 0 -162 25.5t-119 64.5q-47 35 -67.5 48.5t-38.5 13.5q-43 0 -54 -70l-10 -65h-63z" />
<glyph unicode="&#x406;" horiz-adv-x="901" d="M127 0v66h143q29 0 39 11t10 38v1228q0 29 -10 39.5t-39 10.5h-143v65h688v-65h-143q-27 0 -38 -10.5t-11 -39.5v-1228q0 -27 11 -38t38 -11h143v-66h-688z" />
<glyph unicode="&#x407;" horiz-adv-x="901" d="M127 0v66h143q29 0 39 11t10 38v1228q0 29 -10 39.5t-39 10.5h-143v65h688v-65h-143q-27 0 -38 -10.5t-11 -39.5v-1228q0 -27 11 -38t38 -11h143v-66h-688zM131 1749q0 51 36 87t87 36t87 -36t36 -87t-36 -87t-87 -36t-87 36t-36 87zM565 1749q0 51 36 87t87 36t87 -36 t36 -87t-36 -87t-87 -36t-87 36t-36 87z" />
<glyph unicode="&#x408;" horiz-adv-x="1105" d="M74 315q0 72 26.5 126.5t69.5 84t88 29.5q66 0 105.5 -42t39.5 -99q0 -70 -36.5 -112t-87.5 -60q-35 -12 -50.5 -32t-15.5 -54q0 -27 25.5 -57.5t71.5 -50t104 -19.5q156 0 155 237v1077q0 29 -10 39.5t-39 10.5h-164v65h693v-65h-127q-27 0 -38.5 -10.5t-11.5 -39.5 v-946q0 -133 -63.5 -231t-162.5 -150.5t-208 -52.5q-100 0 -183 41t-132 120t-49 191z" />
<glyph unicode="&#x409;" horiz-adv-x="2142" d="M78 201q0 90 57.5 158.5t143.5 68.5q70 0 110.5 -44t40.5 -97q0 -43 -41 -99q-20 -25 -20 -55q0 -37 37 -37q82 0 149 193q47 135 69.5 420.5t22.5 562.5q0 61 -30.5 91t-102.5 30h-94v65h1087v-65h-131q-27 0 -38 -10.5t-11 -39.5v-524h258q141 0 251 -54t169 -148.5 t59 -206.5q0 -113 -60 -206t-171 -148.5t-252 -55.5h-737v66h131q29 0 39 11t10 38v1228q0 29 -10 39.5t-39 10.5h-88q-100 0 -132 -84t-38 -240q-6 -211 -28.5 -431t-53.5 -331q-35 -123 -114 -227.5t-226 -104.5q-90 0 -153.5 63.5t-63.5 162.5zM1327 115q0 -27 11.5 -38 t37.5 -11h162q106 0 152.5 95t46.5 249q0 152 -46 248t-153 96h-211v-639z" />
<glyph unicode="&#x40a;" horiz-adv-x="2224" d="M127 0v66h143q29 0 39 11t10 38v1228q0 29 -10 39.5t-39 10.5h-143v65h688v-65h-143q-27 0 -38 -10.5t-11 -39.5v-524h483v524q0 29 -10.5 39.5t-38.5 10.5h-148v65h693v-65h-144q-27 0 -38 -10.5t-11 -39.5v-524h258q141 0 251 -54t169 -148.5t59 -206.5 q0 -113 -60.5 -206t-171 -148.5t-251.5 -55.5h-750v66h144q29 0 39 11t10 38v630h-483v-630q0 -27 11 -38t38 -11h143v-66h-688zM1409 115q0 -27 11.5 -38t37.5 -11h162q106 0 152.5 94t46.5 246t-46.5 245.5t-152.5 93.5h-211v-630z" />
<glyph unicode="&#x40b;" horiz-adv-x="1822" d="M82 934l16 524h1245l17 -524h-66q0 20 -19.5 112.5t-53.5 159.5q-45 90 -112 138.5t-167 48.5h-41q-27 0 -38 -10.5t-11 -39.5v-528h365q365 0 364 -336v-364q0 -27 11.5 -38t37.5 -11h144v-66h-660v66h115q29 0 39 11t10 38v456q0 100 -41 139.5t-119 39.5h-266v-635 q0 -27 11 -38t38 -11h115v-66h-660v66h144q29 0 39 11t10 38v1228q0 29 -10.5 39.5t-38.5 10.5q-100 0 -167 -48.5t-112 -138.5q-35 -68 -54.5 -160t-19.5 -112h-65z" />
<glyph unicode="&#x40c;" horiz-adv-x="1507" d="M127 0v66h143q29 0 39 11t10 38v1228q0 29 -10 39.5t-39 10.5h-143v65h688v-65h-143q-27 0 -38 -10.5t-11 -39.5v-540h141q113 0 152.5 87t39.5 281q0 139 56 213q74 98 192 99q63 0 109.5 -34t71 -84t24.5 -99q0 -74 -29.5 -124t-73.5 -75t-85 -25q-61 0 -101.5 36 t-40.5 89q0 72 66 127q35 29 35 60t-37 30q-51 0 -86 -59t-35 -190v-66q0 -203 -100 -287v-10q160 -39 243.5 -126t83.5 -267v-227q0 -86 58 -86q53 0 77.5 88t24.5 215h66q0 -199 -53.5 -308.5t-190.5 -109.5q-131 0 -208 77.5t-77 229.5v240q0 98 -48 164.5t-148 66.5 h-127v-614q0 -27 11 -38t38 -11h143v-66h-688zM733 1593l182 283q23 37 47.5 51.5t53.5 14.5q37 0 61.5 -23t24.5 -59q0 -55 -58 -99l-270 -205z" />
<glyph unicode="&#x40d;" horiz-adv-x="1687" d="M127 0v66h143q29 0 39 11t10 38v1228q0 29 -10 39.5t-39 10.5h-143v65h688v-65h-143q-27 0 -38 -10.5t-11 -39.5v-1017l483 956v61q0 29 -10.5 39.5t-38.5 10.5h-148v65h693v-65h-144q-27 0 -38 -10.5t-11 -39.5v-1228q0 -27 11.5 -38t37.5 -11h144v-66h-689v66h144 q29 0 39 11t10 38v1020l-483 -959v-61q0 -27 11 -38t38 -11h143v-66h-688zM561 1860q0 37 24.5 59.5t61.5 22.5q29 0 53.5 -14.5t47.5 -51.5l182 -283l-41 -37l-271 205q-57 43 -57 99z" />
<glyph unicode="&#x40e;" horiz-adv-x="1581" d="M94 1393v65h783v-65h-111q-31 0 -53.5 -21.5t-22.5 -52.5q0 -35 15 -62l288 -567l172 447q12 33 21.5 74.5t9.5 66.5q0 115 -98 115h-111v65h553v-65h-94q-59 0 -92 -39t-62 -111l-372 -950q-49 -129 -133.5 -229.5t-217.5 -100.5q-120 0 -201 66.5t-81 173.5 q0 98 53 153.5t141 55.5q66 0 110 -44t44 -100q0 -39 -18.5 -70.5t-51.5 -64.5q-25 -25 -24 -59q0 -20 15 -32.5t38 -12.5q84 0 136 62.5t95 176.5l17 47l-496 969q-29 57 -68.5 83t-95.5 26h-88zM479 1782q0 61 41 114.5t111 53.5q49 0 78.5 -30t29.5 -73 q0 -37 -21.5 -63.5t-49.5 -38.5q-10 -4 -19.5 -15.5t-9.5 -25.5q0 -55 58.5 -89t179.5 -34t179 34t58 89q0 14 -9 25.5t-20 15.5q-29 12 -50 38.5t-21 63.5q0 43 29.5 73t78.5 30q70 0 111 -53.5t41 -114.5q0 -68 -46 -128.5t-136.5 -97t-214.5 -36.5q-125 0 -215.5 36.5 t-136.5 97t-46 128.5z" />
<glyph unicode="&#x40f;" horiz-adv-x="1662" d="M127 0v66h143q29 0 39 11t10 38v1228q0 29 -10 39.5t-39 10.5h-143v65h676v-65h-131q-27 0 -38 -10.5t-11 -39.5v-1228q0 -27 11 -38t38 -11h360q29 0 39 11t10 38v1228q0 29 -10 39.5t-39 10.5h-131v65h676v-65h-143q-27 0 -38.5 -10.5t-11.5 -39.5v-1228 q0 -27 11.5 -38t38.5 -11h143v-66h-664l50 -244q12 -61 12 -92q0 -47 -36 -76.5t-87 -29.5t-87 29.5t-36 76.5q0 31 12 92l50 244h-664z" />
<glyph unicode="&#x410;" horiz-adv-x="1544" d="M90 0v66h70q61 0 108 48t72 117l432 1264h86l438 -1325q35 -104 121 -104h82v-66h-719v66h148q25 0 40 19t15 46q0 23 -12 59l-66 197h-430l-43 -125q-23 -57 -22 -104q0 -37 29.5 -64.5t76.5 -27.5h96v-66h-522zM502 463h379l-187 563z" />
<glyph unicode="&#x411;" horiz-adv-x="1449" d="M127 0v66h143q29 0 39 11t10 38v1228q0 29 -10 39.5t-39 10.5h-143v65h1110l16 -532h-65q0 12 -20.5 94t-53.5 149q-104 223 -260 224h-182q-27 0 -38 -10.5t-11 -39.5v-548h245q143 0 255 -51.5t174.5 -140.5t62.5 -202t-62.5 -204t-174 -144t-255.5 -53h-741zM623 115 q0 -27 11 -38t38 -11h166q195 0 194 348q0 150 -43 232.5t-151 82.5h-215v-614z" />
<glyph unicode="&#x412;" horiz-adv-x="1454" d="M127 0v66h143q29 0 39 11t10 38v1228q0 29 -10 39.5t-39 10.5h-143v65h721q121 0 226.5 -45t169 -124t63.5 -179q0 -135 -100.5 -219t-245.5 -123v-12q94 -14 185 -60.5t150.5 -122t59.5 -176.5q0 -125 -65.5 -215t-175 -136t-241.5 -46h-747zM623 115q0 -27 11 -38 t38 -11h139q109 0 163 72.5t54 258.5t-54 259t-163 73h-188v-614zM623 795h188q111 0 149.5 78.5t38.5 236.5q0 133 -47 208t-129 75h-151q-27 0 -38 -10.5t-11 -39.5v-548z" />
<glyph unicode="&#x413;" horiz-adv-x="1327" d="M127 0v66h143q29 0 39 11t10 38v1228q0 29 -10 39.5t-39 10.5h-143v65h1102l16 -612h-65q-4 14 -17.5 66.5t-37 121t-52.5 121.5q-129 238 -276 238h-125q-27 0 -38 -10.5t-11 -39.5v-1228q0 -27 11 -38t38 -11h186v-66h-731z" />
<glyph unicode="&#x414;" horiz-adv-x="1515" d="M78 49h106q63 0 100.5 23.5t59.5 77.5q84 197 132 485.5t48 636.5q0 121 -106 121h-115v65h1094v-65h-144q-27 0 -38 -10.5t-11 -39.5v-1196q0 -55 25.5 -76.5t83.5 -21.5h137v-459h-66q-2 12 -10 58.5t-28.5 107t-55.5 109.5q-98 135 -235 135h-582q-137 0 -235 -135 q-35 -49 -55.5 -109.5t-29 -106.5t-10.5 -59h-65v459zM459 139q0 -39 19.5 -56t66.5 -17h307q29 0 39 11t10 38v1228q0 29 -10 39.5t-39 10.5h-88q-80 0 -119 -43t-39 -148q0 -254 -39 -522t-78 -401q-31 -113 -30 -140z" />
<glyph unicode="&#x415;" horiz-adv-x="1413" d="M127 0v66h143q29 0 39 11t10 38v1228q0 29 -10 39.5t-39 10.5h-143v65h1151l12 -475h-65q0 14 -21.5 92t-60.5 142q-47 82 -108.5 129t-137.5 47h-225q-27 0 -38 -10.5t-11 -39.5v-565h104q55 0 102.5 45t75 111.5t27.5 126.5h65v-641h-65q0 61 -27.5 127.5t-75 112 t-102.5 45.5h-104v-590q0 -27 11 -38t38 -11h223q113 0 188.5 90t114.5 200q16 47 28.5 117t14.5 92h66l-13 -565h-1167z" />
<glyph unicode="&#x416;" horiz-adv-x="2015" d="M82 369h65q0 -127 25 -215t78 -88q57 0 57 86v227q0 184 84 276.5t244 120.5v10q-100 80 -100 283v66q0 131 -35 190t-86 59q-37 0 -37 -30q0 -31 35 -60q66 -55 65 -127q0 -53 -40 -89t-101 -36q-41 0 -85 25t-74 75t-30 124q0 49 25 99t71 84t109 34q119 0 193 -99 q55 -74 55 -213q0 -195 40 -281.5t153 -86.5h84v540q0 29 -10.5 39.5t-39.5 10.5h-143v65h688v-65h-143q-27 0 -38 -10.5t-11 -39.5v-540h84q113 0 152.5 87t39.5 281q0 139 55 213q74 98 193 99q63 0 109.5 -34t71 -84t24.5 -99q0 -74 -30 -124t-74 -75t-85 -25 q-61 0 -101 36t-40 89q0 72 66 127q35 29 34 60q0 31 -37 30q-51 0 -85.5 -59t-34.5 -190v-66q0 -203 -101 -283v-10q160 -29 244 -121t84 -276v-227q0 -86 57 -86q53 0 78 88t25 215h65q0 -199 -53 -308.5t-190 -109.5q-131 0 -208 77.5t-77 229.5v240q0 106 -35 168.5 t-133 62.5h-98v-614q0 -27 11 -38t38 -11h143v-66h-688v66h143q29 0 39.5 11t10.5 38v614h-99q-98 0 -133 -62.5t-35 -168.5v-240q0 -152 -76.5 -229.5t-207.5 -77.5q-138 0 -191 109.5t-53 308.5z" />
<glyph unicode="&#x417;" horiz-adv-x="1302" d="M156 340q0 78 31.5 138.5t83 93t108.5 32.5q76 0 129 -47t53 -117q0 -74 -33.5 -109.5t-85.5 -54.5q-39 -14 -54 -37.5t-15 -58.5q0 -66 71.5 -108.5t169.5 -42.5q145 0 197.5 93t52.5 279q0 104 -12 177t-59.5 124.5t-141.5 51.5h-241v73h245q109 0 149 85t40 231 q0 143 -42 215t-134 72q-88 0 -170 -69t-142.5 -191.5t-85.5 -278.5h-65v588h65l29 -82q12 -37 41 -37q14 0 32.5 10t35.5 23q141 102 282 102q156 0 264.5 -54.5t162.5 -137t54 -170.5q0 -236 -290 -330v-21q137 -31 234 -131t97 -254q0 -135 -75.5 -233t-210.5 -149.5 t-312 -51.5q-120 0 -225.5 50t-169 136.5t-63.5 190.5z" />
<glyph unicode="&#x418;" horiz-adv-x="1687" d="M127 0v66h143q29 0 39 11t10 38v1228q0 29 -10 39.5t-39 10.5h-143v65h688v-65h-143q-27 0 -38 -10.5t-11 -39.5v-1017l483 956v61q0 29 -10.5 39.5t-38.5 10.5h-148v65h693v-65h-144q-27 0 -38 -10.5t-11 -39.5v-1228q0 -27 11.5 -38t37.5 -11h144v-66h-689v66h144 q29 0 39 11t10 38v1020l-483 -959v-61q0 -27 11 -38t38 -11h143v-66h-688z" />
<glyph unicode="&#x419;" horiz-adv-x="1687" d="M127 0v66h143q29 0 39 11t10 38v1228q0 29 -10 39.5t-39 10.5h-143v65h688v-65h-143q-27 0 -38 -10.5t-11 -39.5v-1017l483 956v61q0 29 -10.5 39.5t-38.5 10.5h-148v65h693v-65h-144q-27 0 -38 -10.5t-11 -39.5v-1228q0 -27 11.5 -38t37.5 -11h144v-66h-689v66h144 q29 0 39 11t10 38v1020l-483 -959v-61q0 -27 11 -38t38 -11h143v-66h-688zM467 1782q0 61 41 114.5t110 53.5q49 0 79 -30t30 -73q0 -37 -21.5 -63.5t-50.5 -38.5q-10 -4 -19 -15.5t-9 -25.5q0 -55 58 -89t179 -34t179.5 34t58.5 89q0 14 -9.5 25.5t-19.5 15.5 q-29 12 -50.5 38.5t-21.5 63.5q0 43 30 73t79 30q70 0 111 -53.5t41 -114.5q0 -68 -46.5 -128.5t-136.5 -97t-215 -36.5t-215 36.5t-136 97t-46 128.5z" />
<glyph unicode="&#x41a;" horiz-adv-x="1507" d="M127 0v66h143q29 0 39 11t10 38v1228q0 29 -10 39.5t-39 10.5h-143v65h688v-65h-143q-27 0 -38 -10.5t-11 -39.5v-540h141q113 0 152.5 87t39.5 281q0 139 56 213q74 98 192 99q63 0 109.5 -34t71 -84t24.5 -99q0 -74 -29.5 -124t-73.5 -75t-85 -25q-61 0 -101.5 36 t-40.5 89q0 72 66 127q35 29 35 60t-37 30q-51 0 -86 -59t-35 -190v-66q0 -203 -100 -287v-10q160 -39 243.5 -126t83.5 -267v-227q0 -86 58 -86q53 0 77.5 88t24.5 215h66q0 -199 -53.5 -308.5t-190.5 -109.5q-131 0 -208 77.5t-77 229.5v240q0 98 -48 164.5t-148 66.5 h-127v-614q0 -27 11 -38t38 -11h143v-66h-688z" />
<glyph unicode="&#x41b;" horiz-adv-x="1593" d="M78 201q0 90 57.5 158.5t143.5 68.5q70 0 110.5 -44t40.5 -97q0 -43 -41 -99q-20 -25 -20 -55q0 -37 37 -37q82 0 149 193q47 135 69.5 420.5t22.5 562.5q0 61 -30.5 91t-102.5 30h-94v65h1087v-65h-131q-27 0 -38 -10.5t-11 -39.5v-1228q0 -27 11.5 -38t37.5 -11h131 v-66h-663v66h131q29 0 39 11t10 38v1228q0 29 -10 39.5t-39 10.5h-88q-100 0 -132 -84t-38 -240q-6 -211 -28.5 -431t-53.5 -331q-35 -123 -114 -227.5t-226 -104.5q-90 0 -153.5 63.5t-63.5 162.5z" />
<glyph unicode="&#x41c;" horiz-adv-x="1822" d="M98 0v66q88 0 150.5 46t62.5 138v1093q0 29 -10 39.5t-39 10.5h-164v65h490l375 -1007l274 1007h520v-65h-143q-27 0 -38 -10.5t-11 -39.5v-1228q0 -27 11 -38t38 -11h143v-66h-688v66h143q29 0 39.5 11t10.5 38v1165l-357 -1305h-80l-417 1125h-15v-850q0 -92 62.5 -138 t150.5 -46v-66h-508z" />
<glyph unicode="&#x41d;" horiz-adv-x="1687" d="M127 0v66h143q29 0 39 11t10 38v1228q0 29 -10 39.5t-39 10.5h-143v65h688v-65h-143q-27 0 -38 -10.5t-11 -39.5v-540h483v540q0 29 -10.5 39.5t-38.5 10.5h-148v65h693v-65h-144q-27 0 -38 -10.5t-11 -39.5v-1228q0 -27 11.5 -38t37.5 -11h144v-66h-689v66h144 q29 0 39 11t10 38v614h-483v-614q0 -27 11 -38t38 -11h143v-66h-688z" />
<glyph unicode="&#x41e;" horiz-adv-x="1458" d="M143 729q0 195 84 372t224.5 285.5t298.5 108.5t298 -108.5t224 -285.5t84 -372t-84 -372t-224.5 -285.5t-297.5 -108.5q-158 0 -298.5 108.5t-224.5 286t-84 371.5zM492 422q0 -211 66.5 -302t191.5 -91q124 0 191 91t67 302v614q0 211 -67 302.5t-191 91.5 q-125 0 -191.5 -91.5t-66.5 -302.5v-614z" />
<glyph unicode="&#x41f;" horiz-adv-x="1662" d="M127 0v66h143q29 0 39 11t10 38v1228q0 29 -10 39.5t-39 10.5h-143v65h1450v-65h-143q-27 0 -38.5 -10.5t-11.5 -39.5v-1228q0 -27 11.5 -38t38.5 -11h143v-66h-676v66h131q29 0 39 11t10 38v1228q0 29 -10 39.5t-39 10.5h-360q-27 0 -38 -10.5t-11 -39.5v-1228 q0 -27 11 -38t38 -11h131v-66h-676z" />
<glyph unicode="&#x420;" horiz-adv-x="1437" d="M127 0v66h143q29 0 39 11t10 38v1228q0 29 -10 39.5t-39 10.5h-143v65h729q143 0 255 -48t174.5 -135t62.5 -198q0 -113 -62.5 -201t-174.5 -138t-255 -50h-233v-573q0 -27 11 -38t38 -11h180v-66h-725zM623 754h202q106 0 150.5 86t44.5 237q0 150 -43 233t-152 83h-153 q-27 0 -38 -10.5t-11 -39.5v-589z" />
<glyph unicode="&#x421;" horiz-adv-x="1351" d="M143 729q0 207 70 382t200 279.5t304 104.5q76 0 140.5 -25.5t135.5 -74.5q47 -31 70 -31q16 0 26.5 9t18.5 30l37 76h67v-629h-65q-47 264 -163 422t-267 158q-96 0 -160.5 -94.5t-64.5 -299.5v-614q0 -203 72.5 -298t172.5 -95q244 0 363 223q59 109 80 311h73 q-6 -90 -27.5 -181t-56.5 -159q-63 -123 -172.5 -191.5t-259.5 -68.5q-190 0 -324 107.5t-202 282.5t-68 376z" />
<glyph unicode="&#x422;" horiz-adv-x="1466" d="M123 848l16 610h1229l16 -610h-65q-2 12 -11.5 64.5t-31.5 127.5q-39 141 -119 247t-176 106q-35 0 -55.5 -18.5t-20.5 -51.5v-1208q0 -27 11.5 -38t37.5 -11h164v-66h-729v66h164q29 0 39 11t10 38v1208q0 33 -20.5 51.5t-55.5 18.5q-96 0 -176 -105.5t-119 -247.5 q-23 -76 -32 -128t-11 -64h-65z" />
<glyph unicode="&#x423;" horiz-adv-x="1581" d="M94 1393v65h783v-65h-111q-31 0 -53.5 -21.5t-22.5 -52.5q0 -35 15 -62l288 -567l172 447q12 33 21.5 74.5t9.5 66.5q0 115 -98 115h-111v65h553v-65h-94q-59 0 -92 -39t-62 -111l-372 -950q-49 -129 -133.5 -229.5t-217.5 -100.5q-120 0 -201 66.5t-81 173.5 q0 98 53 153.5t141 55.5q66 0 110 -44t44 -100q0 -39 -18.5 -70.5t-51.5 -64.5q-25 -25 -24 -59q0 -20 15 -32.5t38 -12.5q84 0 136 62.5t95 176.5l17 47l-496 969q-29 57 -68.5 83t-95.5 26h-88z" />
<glyph unicode="&#x424;" horiz-adv-x="1744" d="M106 737q0 135 73 239.5t194 162t258 57.5h110v147q0 29 -10 39.5t-39 10.5h-131v65h664v-65h-131q-27 0 -38.5 -10.5t-11.5 -39.5v-147h111q137 0 258 -57.5t193.5 -162t72.5 -239.5t-72.5 -239.5t-193.5 -161.5t-258 -57h-111v-164q0 -27 11.5 -38t38.5 -11h131v-66 h-664v66h131q29 0 39 11t10 38v164h-110q-137 0 -258 57t-194 161.5t-73 239.5zM434 737q0 -201 57.5 -297t190.5 -96h59v786h-59q-133 0 -190.5 -96t-57.5 -297zM1044 344h60q133 0 190.5 96.5t57.5 296.5q0 201 -57.5 297t-190.5 96h-60v-786z" />
<glyph unicode="&#x425;" horiz-adv-x="1536" d="M106 0v66h64q68 0 118 37.5t93 99.5l301 456l-340 627q-29 51 -72 79t-112 28h-31v65h643v-65h-43q-18 0 -34.5 -15.5t-16.5 -42.5q0 -25 16 -57l180 -332l160 244q33 49 33 113q0 35 -23.5 62.5t-66.5 27.5h-62v65h521v-65h-62q-61 0 -103 -23.5t-77 -77.5l-279 -422 l375 -696q31 -55 75 -81.5t91 -26.5h41v-66h-680v66h68q31 0 47 19t16 54q0 31 -24 74l-199 369l-197 -297q-51 -78 -51 -129q0 -37 18.5 -63.5t55.5 -26.5h90v-66h-533z" />
<glyph unicode="&#x426;" horiz-adv-x="1695" d="M127 0v66h143q29 0 39 11t10 38v1228q0 29 -10 39.5t-39 10.5h-143v65h676v-65h-131q-27 0 -38 -10.5t-11 -39.5v-1228q0 -27 11 -38t38 -11h360q29 0 39 11t10 38v1228q0 29 -10 39.5t-39 10.5h-131v65h676v-65h-143q-27 0 -38.5 -10.5t-11.5 -39.5v-1196 q0 -55 26 -76.5t83 -21.5h137v-459h-65q-2 13 -12.5 54t-33 99t-55.5 110q-51 78 -100 112.5t-109 34.5h-1128z" />
<glyph unicode="&#x427;" horiz-adv-x="1609" d="M106 1393v65h660v-65h-115q-27 0 -38 -10.5t-11 -39.5v-456q0 -100 41 -139t119 -39h266v634q0 29 -10 39.5t-39 10.5h-115v65h660v-65h-144q-27 0 -38 -10.5t-11 -39.5v-1228q0 -27 11.5 -38t37.5 -11h144v-66h-688v66h143q29 0 39 11t10 38v528h-364q-365 0 -365 336 v364q0 29 -10 39.5t-39 10.5h-144z" />
<glyph unicode="&#x428;" horiz-adv-x="2318" d="M127 0v66h143q29 0 39 11t10 38v1228q0 29 -10 39.5t-39 10.5h-143v65h659v-65h-114q-27 0 -38 -10.5t-11 -39.5v-1228q0 -27 11 -38t38 -11h307q29 0 39 11t10 38v1228q0 29 -10 39.5t-39 10.5h-115v65h631v-65h-115q-27 0 -38 -10.5t-11 -39.5v-1228q0 -27 11.5 -38 t37.5 -11h308q29 0 39 11t10 38v1228q0 29 -10.5 39.5t-38.5 10.5h-115v65h659v-65h-143q-27 0 -38 -10.5t-11 -39.5v-1228q0 -27 11 -38t38 -11h143v-66h-2105z" />
<glyph unicode="&#x429;" horiz-adv-x="2351" d="M127 0v66h143q29 0 39 11t10 38v1228q0 29 -10 39.5t-39 10.5h-143v65h659v-65h-114q-27 0 -38 -10.5t-11 -39.5v-1228q0 -27 11 -38t38 -11h307q29 0 39 11t10 38v1228q0 29 -10 39.5t-39 10.5h-115v65h631v-65h-115q-27 0 -38 -10.5t-11 -39.5v-1228q0 -27 11.5 -38 t37.5 -11h308q29 0 39 11t10 38v1228q0 29 -10.5 39.5t-38.5 10.5h-115v65h659v-65h-143q-27 0 -38 -10.5t-11 -39.5v-1196q0 -55 25.5 -76.5t82.5 -21.5h138v-459h-66q-2 13 -12 54t-33 99t-55 110q-51 78 -100.5 112.5t-108.5 34.5h-1784z" />
<glyph unicode="&#x42a;" horiz-adv-x="1855" d="M123 846l16 612h1131v-65h-180q-27 0 -38.5 -10.5t-11.5 -39.5v-524h258q141 0 251 -54t169.5 -148.5t59.5 -206.5q0 -113 -60.5 -206t-171 -148.5t-252.5 -55.5h-749v66h143q29 0 39 11t10 38v1228q0 29 -10 39.5t-39 10.5h-92q-96 0 -172 -71t-129 -167 q-29 -53 -52.5 -121.5t-36.5 -121t-18 -66.5h-65zM1040 115q0 -27 11.5 -38t38.5 -11h161q106 0 152.5 95t46.5 249q0 152 -46 248t-153 96h-211v-639z" />
<glyph unicode="&#x42b;" horiz-adv-x="2048" d="M127 0v66h143q29 0 39 11t10 38v1228q0 29 -10 39.5t-39 10.5h-143v65h725v-65h-180q-27 0 -38 -10.5t-11 -39.5v-524h233q129 0 235.5 -55t169 -149.5t62.5 -204.5q0 -113 -60.5 -206t-168 -148.5t-242.5 -55.5h-725zM623 115q0 -27 11 -38t38 -11h137q98 0 142 97 t44 247t-44 247t-142 97h-186v-639zM1274 0v66h143q29 0 39 11t10 38v1228q0 29 -10 39.5t-39 10.5h-143v65h688v-65h-143q-27 0 -38.5 -10.5t-11.5 -39.5v-1228q0 -27 11.5 -38t38.5 -11h143v-66h-688z" />
<glyph unicode="&#x42c;" horiz-adv-x="1437" d="M127 0v66h143q29 0 39 11t10 38v1228q0 29 -10 39.5t-39 10.5h-143v65h725v-65h-180q-27 0 -38 -10.5t-11 -39.5v-524h258q141 0 250.5 -54t169 -148.5t59.5 -206.5q0 -113 -60.5 -206t-171 -148.5t-251.5 -55.5h-750zM623 115q0 -27 11 -38t38 -11h162q106 0 152 95 t46 249q0 152 -46 248t-152 96h-211v-639z" />
<glyph unicode="&#x42d;" horiz-adv-x="1368" d="M156 326q0 117 64.5 185.5t154.5 68.5q76 0 125 -46.5t49 -117.5q0 -61 -31 -99t-84 -73q-53 -33 -53 -88q0 -57 67.5 -92t165.5 -35q145 0 224.5 108.5t79.5 284.5v307h-480v74h480v233q0 193 -59.5 293.5t-190.5 100.5q-88 0 -170 -69t-142.5 -191.5t-85.5 -278.5h-65 v588h65l29 -82q12 -37 41 -37q14 0 32.5 10t35.5 23q61 45 137 73.5t155 28.5q176 0 304.5 -91t195 -259t66.5 -395q0 -229 -80 -407.5t-227.5 -279t-344.5 -100.5q-120 0 -225.5 47t-169 129t-63.5 187z" />
<glyph unicode="&#x42e;" horiz-adv-x="2088" d="M127 0v66h143q29 0 39 11t10 38v1228q0 29 -10 39.5t-39 10.5h-143v65h688v-65h-143q-27 0 -38 -10.5t-11 -39.5v-565h202q8 203 85 367t206 257t289 93q166 0 298 -100.5t208 -275.5t76 -390t-76 -390t-208 -275.5t-298 -100.5q-162 0 -293 97.5t-208 266.5t-81 378 h-200v-590q0 -27 11 -38t38 -11h143v-66h-688zM1171 422q0 -207 57.5 -300t176.5 -93t176 94t57 299v614q0 207 -57 300.5t-176 93.5t-176.5 -93.5t-57.5 -300.5v-614z" />
<glyph unicode="&#x42f;" horiz-adv-x="1499" d="M78 369h65q0 -127 25 -215t78 -88q57 0 57 86v210q0 178 85 260.5t247 110.5v15q-168 18 -272.5 107t-104.5 230q0 111 62.5 196t174 131t255.5 46h663v-65h-143q-27 0 -38 -10.5t-11 -39.5v-1228q0 -27 11 -38t38 -11h143v-66h-725v66h180q29 0 39.5 11t10.5 38v606 h-115q-100 0 -148.5 -63.5t-48.5 -161.5v-238q0 -152 -76.5 -229.5t-207.5 -77.5q-138 0 -191 109.5t-53 308.5zM586 1090q0 -303 194 -304h138v557q0 29 -10.5 39.5t-39.5 10.5h-88q-195 0 -194 -303z" />
<glyph unicode="&#x430;" horiz-adv-x="1040" d="M94 217q0 133 97.5 210t246.5 128l152 53v140q0 104 -43 151t-111 47q-57 0 -99 -25.5t-42 -70.5q0 -12 7 -29.5t26 -29.5q31 -18 44 -39t13 -54q0 -49 -36 -76.5t-79 -27.5q-53 0 -91 36t-38 103q0 78 47.5 138.5t121 92t149.5 31.5q147 0 257.5 -78.5t110.5 -250.5 v-519q0 -74 41 -73q37 0 55.5 61.5t18.5 140.5h57q0 -150 -45 -219q-23 -37 -63.5 -59.5t-93.5 -22.5q-84 0 -127 26t-72 85h-4q-82 -111 -229 -111q-113 0 -192 55.5t-79 186.5zM344 236q0 -100 37 -139.5t84 -39.5q80 0 125 90v406l-115 -41q-68 -25 -99.5 -93.5 t-31.5 -182.5z" />
<glyph unicode="&#x431;" horiz-adv-x="1040" d="M106 485q0 205 8.5 317.5t42 203t105.5 170.5q74 80 185.5 122.5t273.5 81.5q76 18 104.5 38t36.5 57h49q0 -123 -34.5 -189.5t-91 -93.5t-146.5 -43q-131 -25 -209 -48.5t-145 -72.5q-61 -45 -90 -124t-35 -169l10 -2q123 262 354 262q111 0 207 -66.5t153.5 -183 t57.5 -260.5q0 -143 -57.5 -259.5t-153.5 -183.5t-207 -67q-110 0 -206.5 67t-154 183.5t-57.5 259.5zM369 485q0 -246 32.5 -353t122.5 -107q88 0 122 108.5t34 351.5q0 244 -34 352.5t-122 108.5q-90 0 -122.5 -107.5t-32.5 -353.5z" />
<glyph unicode="&#x432;" horiz-adv-x="1024" d="M82 0v49h78q18 0 25.5 7t7.5 26v807q0 18 -7.5 25.5t-25.5 7.5h-78v49h493q137 0 218 -62.5t81 -171.5q0 -92 -71.5 -146t-177.5 -69v-8q141 -10 225 -77.5t84 -184.5q0 -109 -86 -180.5t-211 -71.5h-555zM430 82q0 -18 7 -25.5t26 -7.5h78q63 0 97 62.5t34 158.5 q0 94 -33 151.5t-98 57.5h-111v-397zM430 537h96q61 0 86 52t25 142q0 92 -28.5 141.5t-82.5 49.5h-63q-18 0 -25.5 -7.5t-7.5 -25.5v-352z" />
<glyph unicode="&#x433;" horiz-adv-x="905" d="M82 0v49h78q18 0 25.5 7t7.5 26v807q0 18 -7.5 25.5t-25.5 7.5h-78v49h737l12 -406h-57q0 10 -13 61.5t-44 121.5q-29 68 -81 121t-114 53h-59q-18 0 -25.5 -7.5t-7.5 -25.5v-807q0 -18 7 -25.5t26 -7.5h78v-49h-459z" />
<glyph unicode="&#x434;" horiz-adv-x="1060" d="M37 -319l12 360h70q47 0 67.5 17.5t34.5 56.5q53 156 82 344t29 381q0 33 -15.5 57.5t-46.5 24.5h-69v49h757v-49h-98q-18 0 -25.5 -7.5t-7.5 -25.5v-774q0 -37 15.5 -55.5t50.5 -18.5h111l12 -360h-58q-2 14 -16 66t-37 97q-33 68 -76 112t-114 44h-377q-72 0 -115 -44 t-76 -112q-23 -47 -37 -98t-16 -65h-57zM291 90q0 -18 14 -29.5t31 -11.5h221q33 0 33 37v803q0 18 -7.5 25.5t-25.5 7.5h-43q-70 0 -95.5 -51.5t-29.5 -137.5q-4 -125 -27.5 -278.5t-50.5 -253.5q-20 -74 -20 -111z" />
<glyph unicode="&#x435;" horiz-adv-x="966" d="M98 485q0 143 55.5 260t150.5 183.5t208 66.5q125 0 215 -89t119 -234q14 -66 14 -205h-500q0 -98 4.5 -154.5t18.5 -109.5q18 -76 70.5 -121t121.5 -45q100 0 162 88t74 207h53q-12 -141 -92 -249t-237 -108q-127 0 -226.5 69t-155 185.5t-55.5 255.5zM360 524h263 q0 215 -28 318.5t-103 103.5q-76 0 -104 -103.5t-28 -318.5z" />
<glyph unicode="&#x436;" horiz-adv-x="1474" d="M49 258h53q0 -82 16.5 -139.5t55.5 -57.5q45 0 45 56v133q0 123 58.5 182.5t164.5 73.5v10q-31 20 -43 50t-12 77v141q0 66 -20.5 97.5t-49.5 31.5q-20 0 -20 -18q0 -14 16 -37q20 -31 21 -57q0 -45 -31 -70.5t-76 -25.5q-47 0 -87 37.5t-40 95.5q0 72 43 114.5t117 42.5 q76 0 130 -55t54 -158v-139q0 -53 20.5 -86t63.5 -33h90v365q0 18 -7 25.5t-25 7.5h-78v49h446v-49h-65q-18 0 -25.5 -7.5t-7.5 -25.5v-365h90q43 0 63.5 33t20.5 86v139q0 102 54.5 157.5t129.5 55.5q74 0 117 -43t43 -114q0 -57 -40 -95t-87 -38q-45 0 -75.5 25.5 t-30.5 70.5q0 27 20 57q16 23 17 37q0 18 -21 18q-29 0 -49.5 -31.5t-20.5 -97.5v-141q0 -47 -12 -76.5t-43 -50.5v-10q106 -14 164.5 -73.5t58.5 -182.5v-133q0 -55 45 -56q39 0 55.5 57.5t16.5 139.5h53q0 -133 -41 -208t-147 -75q-100 0 -159.5 52.5t-59.5 152.5v162 q0 57 -26.5 91t-67.5 34h-68v-385q0 -18 7 -25.5t26 -7.5h65v-49h-446v49h78q18 0 25 7t7 26v385h-67q-41 0 -67.5 -34t-26.5 -91v-162q0 -100 -59.5 -152.5t-159.5 -52.5q-107 0 -148 75t-41 208z" />
<glyph unicode="&#x437;" horiz-adv-x="888" d="M102 217q0 61 40 104.5t96 43.5q47 0 78.5 -29t31.5 -68q0 -31 -12 -52t-43 -40q-43 -29 -43 -57q0 -49 44 -71.5t116 -22.5q70 0 106.5 64.5t36.5 182.5q0 90 -29.5 148.5t-99.5 58.5h-186v58h184q70 0 90 57t20 151q0 201 -116 201q-86 0 -150.5 -103.5t-89.5 -238.5 h-49v379h49l17 -49q8 -23 24 -23q12 0 39 21q88 63 195 63q150 0 234.5 -69.5t84.5 -175.5q0 -78 -61.5 -140.5t-155.5 -85.5v-12q262 -53 262 -262q0 -125 -109.5 -200t-304.5 -75q-120 0 -209.5 62.5t-89.5 179.5z" />
<glyph unicode="&#x438;" horiz-adv-x="1171" d="M82 0v49h78q18 0 25.5 7t7.5 26v807q0 18 -7.5 25.5t-25.5 7.5h-78v49h446v-49h-65q-18 0 -25.5 -7.5t-7.5 -25.5v-647l311 610v37q0 18 -7 25.5t-25 7.5h-66v49h447v-49h-78q-18 0 -25.5 -7.5t-7.5 -25.5v-807q0 -18 7 -25.5t26 -7.5h78v-49h-447v49h66q18 0 25 7t7 26 v647l-311 -610v-37q0 -18 7 -25.5t26 -7.5h65v-49h-446z" />
<glyph unicode="&#x439;" horiz-adv-x="1171" d="M82 0v49h78q18 0 25.5 7t7.5 26v807q0 18 -7.5 25.5t-25.5 7.5h-78v49h446v-49h-65q-18 0 -25.5 -7.5t-7.5 -25.5v-647l311 610v37q0 18 -7 25.5t-25 7.5h-66v49h447v-49h-78q-18 0 -25.5 -7.5t-7.5 -25.5v-807q0 -18 7 -25.5t26 -7.5h78v-49h-447v49h66q18 0 25 7t7 26 v647l-311 -610v-37q0 -18 7 -25.5t26 -7.5h65v-49h-446zM311 1290q0 59 34 95t83 36q39 0 59.5 -21.5t20.5 -51.5q0 -43 -41 -66q-20 -12 -30.5 -21.5t-10.5 -25.5q0 -72 160 -72t159 72q0 16 -10 25.5t-30 21.5q-41 23 -41 66q0 31 20.5 52t58.5 21q49 0 83 -35.5t34 -95.5 q0 -86 -83 -135t-191 -49q-109 0 -192 49t-83 135z" />
<glyph unicode="&#x43a;" horiz-adv-x="1077" d="M82 0v49h78q18 0 25.5 7t7.5 26v807q0 18 -7.5 25.5t-25.5 7.5h-78v49h446v-49h-65q-18 0 -25.5 -7.5t-7.5 -25.5v-365h129q43 0 63.5 33t20.5 86v139q0 102 54.5 157.5t129.5 55.5q74 0 117 -43t43 -114q0 -57 -40 -95t-87 -38q-45 0 -75.5 25.5t-30.5 70.5q0 27 20 57 q16 23 17 37q0 18 -21 18q-29 0 -49.5 -31.5t-20.5 -97.5v-141q0 -47 -12 -76.5t-43 -50.5v-10q106 -14 164.5 -73.5t58.5 -182.5v-133q0 -55 45 -56q37 0 53.5 56.5t16.5 140.5h53q0 -135 -40 -209t-146 -74q-100 0 -159.5 52.5t-59.5 152.5v162q0 57 -26.5 91t-67.5 34 h-107v-385q0 -18 7 -25.5t26 -7.5h65v-49h-446z" />
<glyph unicode="&#x43b;" horiz-adv-x="1069" d="M25 147q0 63 42 107.5t99 44.5q55 0 81.5 -31.5t26.5 -66.5q0 -37 -30 -72q-8 -10 -13.5 -19.5t-5.5 -21.5q0 -16 9.5 -23.5t21.5 -7.5q41 0 77 77t46 253l16 256q8 133 8 199q0 35 -11 57.5t-46 22.5h-76v49h717v-49h-78q-18 0 -25 -7.5t-7 -25.5v-807q0 -18 7 -25.5 t25 -7.5h78v-49h-459v49h78q18 0 25.5 7t7.5 26v807q0 18 -7 25.5t-26 7.5h-51q-49 0 -71.5 -36t-26.5 -112l-27 -403q-20 -395 -231 -396q-78 0 -126 51.5t-48 120.5z" />
<glyph unicode="&#x43c;" horiz-adv-x="1312" d="M74 0v49q61 0 96 34t35 97v709q0 18 -7.5 25.5t-25.5 7.5h-98v49h338l260 -645l194 645h365v-49h-78q-18 0 -25.5 -7.5t-7.5 -25.5v-807q0 -18 7.5 -25.5t25.5 -7.5h78v-49h-459v49h78q18 0 25.5 7t7.5 26v741l-254 -841h-66l-291 723h-10v-525q0 -63 35 -97t96 -34v-49 h-319z" />
<glyph unicode="&#x43d;" horiz-adv-x="1159" d="M82 0v49h78q18 0 25.5 7t7.5 26v807q0 18 -7.5 25.5t-25.5 7.5h-78v49h446v-49h-65q-18 0 -25.5 -7.5t-7.5 -25.5v-352h299v352q0 18 -7 25.5t-26 7.5h-65v49h446v-49h-78q-18 0 -25 -7.5t-7 -25.5v-807q0 -18 7 -25.5t25 -7.5h78v-49h-446v49h65q18 0 25.5 7t7.5 26v397 h-299v-397q0 -18 7 -25.5t26 -7.5h65v-49h-446z" />
<glyph unicode="&#x43e;" horiz-adv-x="1032" d="M98 485q0 143 57.5 260t154 183.5t206.5 66.5q111 0 207 -66.5t153.5 -183t57.5 -260.5q0 -143 -57.5 -259.5t-153.5 -183.5t-207 -67q-110 0 -206.5 67t-154 183.5t-57.5 259.5zM360 485q0 -244 34 -352t122 -108t122 108.5t34 351.5q0 244 -34 352.5t-122 108.5 t-122 -108.5t-34 -352.5z" />
<glyph unicode="&#x43f;" horiz-adv-x="1159" d="M82 0v49h78q18 0 25.5 7t7.5 26v807q0 18 -7.5 25.5t-25.5 7.5h-78v49h995v-49h-78q-18 0 -25 -7.5t-7 -25.5v-807q0 -18 7 -25.5t25 -7.5h78v-49h-446v49h65q18 0 25.5 7t7.5 26v807q0 18 -7 25.5t-26 7.5h-233q-18 0 -25.5 -7.5t-7.5 -25.5v-807q0 -18 7 -25.5t26 -7.5 h65v-49h-446z" />
<glyph unicode="&#x440;" horiz-adv-x="1114" d="M57 -418h115q18 0 25.5 7.5t7.5 25.5v1274q0 18 -7.5 25.5t-25.5 7.5h-115v49h385v-119h13q27 57 77 100t115 43q106 0 190.5 -72.5t131.5 -190.5t47 -247q0 -131 -45 -247.5t-127 -189.5t-189 -73q-66 0 -117 39t-83 107l-13 -4v-502q0 -18 7.5 -25.5t25.5 -7.5h115v-49 h-533v49zM442 492q0 -147 29 -250t70 -152t77 -49q136 0 136 444t-136 445q-47 0 -86.5 -58.5t-64.5 -159t-25 -220.5z" />
<glyph unicode="&#x441;" horiz-adv-x="958" d="M98 485q0 139 54.5 256t154 185.5t223.5 68.5q98 0 165 -41t99.5 -104.5t32.5 -130.5q0 -74 -45 -128t-108 -54q-47 0 -78 27.5t-31 74.5q0 55 66 109q49 41 49 83q0 43 -32 79t-101 36q-96 0 -141.5 -122t-45.5 -339q0 -109 4.5 -169t18.5 -113q18 -76 70.5 -121 t121.5 -45q100 0 162 88t74 207h53q-12 -141 -92 -249t-237 -108q-127 0 -226.5 69t-155 185.5t-55.5 255.5z" />
<glyph unicode="&#x442;" horiz-adv-x="991" d="M74 565l12 406h819l13 -406h-58q-2 14 -15.5 67.5t-41.5 123.5q-27 66 -69 116t-87 50q-18 0 -25.5 -6.5t-7.5 -26.5v-807q0 -18 7.5 -25.5t25.5 -7.5h115v-49h-533v49h115q18 0 25.5 7t7.5 26v807q0 20 -7.5 26.5t-25.5 6.5q-45 0 -87 -50.5t-69 -115.5 q-29 -70 -42 -123t-15 -68h-57z" />
<glyph unicode="&#x443;" horiz-adv-x="1073" d="M25 922v49h501v-49h-59q-18 0 -33.5 -14.5t-15.5 -39.5q0 -23 14 -57l211 -506l133 449q14 57 15 90q0 31 -16.5 54.5t-47.5 23.5h-53v49h338v-49h-45q-37 0 -71 -32t-52 -95l-312 -1035q-72 -248 -223 -247q-84 0 -135 52t-51 134q0 68 43 119t108 51q49 0 81 -29.5 t32 -72.5q0 -27 -11 -49.5t-28 -36.5q-29 -25 -29 -54q0 -18 11.5 -33.5t36.5 -15.5q35 0 58.5 43t43.5 109l68 225l-355 848q-29 68 -52.5 93.5t-74.5 25.5h-30z" />
<glyph unicode="&#x444;" horiz-adv-x="1466" d="M94 485q0 137 40 254t117 186.5t179 69.5q59 0 107.5 -44t72.5 -105h4v211q0 86 -5 135t-28.5 96t-76.5 88l22 33q80 -41 137.5 -123t69.5 -164q12 82 69.5 164t137.5 123l23 -33q-51 -41 -76 -88t-30 -96t-5 -135v-211h4q25 61 73 105t107 44q102 0 179 -69.5t117 -186 t40 -254.5q0 -137 -40 -253.5t-116.5 -186.5t-179.5 -70q-66 0 -114 35t-66 90h-4v-235q0 -86 5 -135t29.5 -96.5t76.5 -88.5l-23 -32q-80 41 -137.5 122.5t-69.5 163.5q-12 -82 -69.5 -163.5t-137.5 -122.5l-22 32q53 41 76.5 88.5t28.5 97.5t5 136v233h-4q-18 -55 -66 -90 t-114 -35q-102 0 -179 70t-117 186.5t-40 253.5zM356 485q0 -201 18.5 -326.5t84.5 -125.5q78 0 116.5 98t38.5 234v243q0 82 -22.5 159t-58 124t-74.5 47q-66 0 -84.5 -126t-18.5 -327zM852 365q0 -135 39 -233.5t117 -98.5q65 0 83.5 126t18.5 326q0 201 -18.5 327 t-83.5 126q-39 0 -75 -47t-58.5 -124t-22.5 -159v-243z" />
<glyph unicode="&#x445;" horiz-adv-x="1064" d="M49 0v49h78q37 0 73 36t70 87l172 246l-260 430q-20 37 -39.5 55.5t-48.5 18.5h-45v49h469v-49h-29q-14 0 -26 -10.5t-12 -34.5q0 -25 16 -50l121 -200l125 182q25 37 24 70q0 20 -17.5 31.5t-37.5 11.5h-82v49h363v-49h-56q-29 0 -56.5 -29t-68.5 -88l-161 -234 l266 -440q20 -35 44.5 -58.5t59.5 -23.5h33v-49h-465v49h31q14 0 22.5 11.5t8.5 31.5q0 29 -21 62l-125 208l-110 -159q-25 -35 -25 -88q0 -29 15.5 -47.5t35.5 -18.5h76v-49h-418z" />
<glyph unicode="&#x446;" horiz-adv-x="1200" d="M82 0v49h78q18 0 25.5 7t7.5 26v807q0 18 -7.5 25.5t-25.5 7.5h-78v49h446v-49h-65q-18 0 -25.5 -7.5t-7.5 -25.5v-807q0 -18 7 -25.5t26 -7.5h233q18 0 25.5 7t7.5 26v807q0 18 -7 25.5t-26 7.5h-65v49h446v-49h-78q-18 0 -25 -7.5t-7 -25.5v-774q0 -37 15 -55.5 t50 -18.5h111l12 -360h-57q-2 14 -16.5 65t-37.5 98q-33 68 -75.5 112t-114.5 44h-772z" />
<glyph unicode="&#x447;" horiz-adv-x="1069" d="M41 922v49h446v-49h-65q-18 0 -25.5 -7.5t-7.5 -25.5v-359q0 -51 18.5 -73.5t59.5 -22.5q35 0 86 11.5t86 23.5v420q0 18 -7 25.5t-26 7.5h-65v49h446v-49h-78q-18 0 -25 -7.5t-7 -25.5v-807q0 -18 7 -25.5t25 -7.5h78v-49h-459v49h78q18 0 25.5 7t7.5 26v338 q-141 -43 -254 -43q-102 0 -167.5 54t-65.5 159v299q0 18 -7.5 25.5t-25.5 7.5h-78z" />
<glyph unicode="&#x448;" horiz-adv-x="1638" d="M82 0v49h78q18 0 25.5 7t7.5 26v807q0 18 -7.5 25.5t-25.5 7.5h-78v49h446v-49h-65q-18 0 -25.5 -7.5t-7.5 -25.5v-807q0 -18 7 -25.5t26 -7.5h205q18 0 25 7t7 26v807q0 18 -7 25.5t-25 7.5h-66v49h434v-49h-65q-18 0 -25.5 -7.5t-7.5 -25.5v-807q0 -18 7 -25.5t26 -7.5 h205q18 0 25 7t7 26v807q0 18 -7 25.5t-25 7.5h-66v49h446v-49h-77q-18 0 -25.5 -7.5t-7.5 -25.5v-807q0 -18 7 -25.5t26 -7.5h77v-49h-1474z" />
<glyph unicode="&#x449;" horiz-adv-x="1679" d="M82 0v49h78q18 0 25.5 7t7.5 26v807q0 18 -7.5 25.5t-25.5 7.5h-78v49h446v-49h-65q-18 0 -25.5 -7.5t-7.5 -25.5v-807q0 -18 7 -25.5t26 -7.5h205q18 0 25 7t7 26v807q0 18 -7 25.5t-25 7.5h-66v49h434v-49h-65q-18 0 -25.5 -7.5t-7.5 -25.5v-807q0 -18 7 -25.5t26 -7.5 h205q18 0 25 7t7 26v807q0 18 -7 25.5t-25 7.5h-66v49h446v-49h-77q-18 0 -25.5 -7.5t-7.5 -25.5v-774q0 -37 15.5 -55.5t49.5 -18.5h111l12 -360h-57q-2 14 -16.5 66t-36.5 97q-33 68 -76 112t-115 44h-1251z" />
<glyph unicode="&#x44a;" horiz-adv-x="1204" d="M74 573l12 398h659v-49h-69q-20 0 -28.5 -10.5t-8.5 -37.5v-346h197q127 0 210.5 -75.5t83.5 -186.5q0 -74 -37.5 -134t-105 -96t-151.5 -36h-545v49h78q18 0 25 7t7 26v790q0 49 -59 50q-57 0 -94 -40t-64 -102q-29 -63 -43 -128.5t-14 -78.5h-53zM639 82q0 -18 7 -25.5 t26 -7.5h78q63 0 97 61.5t34 155.5t-33 153.5t-98 59.5h-111v-397z" />
<glyph unicode="&#x44b;" horiz-adv-x="1400" d="M82 0v49h78q18 0 25.5 7t7.5 26v807q0 18 -7.5 25.5t-25.5 7.5h-78v49h455v-49h-70q-20 0 -28.5 -10.5t-8.5 -37.5v-346h176q127 0 211 -75.5t84 -186.5q0 -74 -38 -134t-105.5 -96t-151.5 -36h-524zM430 82q0 -18 7 -25.5t26 -7.5h57q63 0 97 61.5t34 155.5t-32.5 153.5 t-98.5 59.5h-90v-397zM872 0v49h66q18 0 25.5 7t7.5 26v807q0 18 -7.5 25.5t-25.5 7.5h-66v49h447v-49h-78q-18 0 -25.5 -7.5t-7.5 -25.5v-807q0 -18 7.5 -25.5t25.5 -7.5h78v-49h-447z" />
<glyph unicode="&#x44c;" horiz-adv-x="995" d="M82 0v49h78q18 0 25.5 7t7.5 26v807q0 18 -7.5 25.5t-25.5 7.5h-78v49h455v-49h-70q-20 0 -28.5 -10.5t-8.5 -37.5v-346h197q127 0 211 -75.5t84 -186.5q0 -74 -38 -134t-105.5 -96t-151.5 -36h-545zM430 82q0 -18 7 -25.5t26 -7.5h78q63 0 97 61.5t34 155.5t-33 153.5 t-98 59.5h-111v-397z" />
<glyph unicode="&#x44d;" horiz-adv-x="929" d="M102 217q0 61 40 104.5t96 43.5q47 0 78.5 -29t31.5 -68q0 -31 -12 -52t-43 -40q-43 -29 -43 -57q0 -94 143 -94q76 0 115 54t50 148.5t11 251.5h-303v58h303q0 217 -27.5 313t-113.5 96q-88 0 -158.5 -104.5t-93.5 -237.5h-49v379h49l17 -49q8 -23 24 -23q12 0 39 21 q88 63 195 63q188 0 284 -137t96 -362q0 -160 -52 -277t-149.5 -180.5t-228.5 -63.5q-120 0 -209.5 62.5t-89.5 179.5z" />
<glyph unicode="&#x44e;" horiz-adv-x="1454" d="M82 0v49h78q18 0 25.5 7t7.5 26v807q0 18 -7.5 25.5t-25.5 7.5h-78v49h446v-49h-65q-18 0 -25.5 -7.5t-7.5 -25.5v-373h115q6 131 61.5 241.5t145.5 174t198 63.5q113 0 206 -68.5t146.5 -185t53.5 -256.5q0 -139 -53.5 -255.5t-146.5 -185.5t-206 -69 q-108 0 -199.5 64.5t-146.5 175.5t-59 244h-115v-377q0 -18 7 -25.5t26 -7.5h65v-49h-446zM807 485q0 -231 28.5 -345.5t114.5 -114.5t115 114.5t29 345.5t-29 346t-115 115t-114.5 -114.5t-28.5 -346.5z" />
<glyph unicode="&#x44f;" horiz-adv-x="1093" d="M41 246h53q0 -84 16.5 -140.5t53.5 -56.5q45 0 45 55v125q0 117 62.5 172.5t170.5 71.5v10q-270 45 -270 236q0 115 95 183.5t259 68.5h473v-49h-65q-18 0 -25.5 -7.5t-7.5 -25.5v-807q0 -18 7 -25.5t26 -7.5h78v-49h-459v49h78q18 0 25.5 7t7.5 26v385h-80 q-137 0 -138 -143v-156q0 -100 -59 -152.5t-160 -52.5q-106 0 -146 74t-40 209zM418 719q0 -203 137 -203h109v373q0 18 -7.5 25.5t-27.5 7.5h-74q-76 0 -106.5 -54.5t-30.5 -148.5z" />
<glyph unicode="&#x450;" horiz-adv-x="966" d="M98 485q0 143 55.5 260t150.5 183.5t208 66.5q125 0 215 -89t119 -234q14 -66 14 -205h-500q0 -98 4.5 -154.5t18.5 -109.5q18 -76 70.5 -121t121.5 -45q100 0 162 88t74 207h53q-12 -141 -92 -249t-237 -108q-127 0 -226.5 69t-155 185.5t-55.5 255.5zM213 1376 q0 37 24.5 59.5t61.5 22.5q29 0 53.5 -14t46.5 -51l183 -283l-41 -37l-271 205q-57 43 -57 98zM360 524h263q0 215 -28 318.5t-103 103.5q-76 0 -104 -103.5t-28 -318.5z" />
<glyph unicode="&#x451;" horiz-adv-x="966" d="M98 485q0 143 55.5 260t150.5 183.5t208 66.5q125 0 215 -89t119 -234q14 -66 14 -205h-500q0 -98 4.5 -154.5t18.5 -109.5q18 -76 70.5 -121t121.5 -45q100 0 162 88t74 207h53q-12 -141 -92 -249t-237 -108q-127 0 -226.5 69t-155 185.5t-55.5 255.5zM172 1266 q0 51 36 87t87 36t87 -36t36 -87t-36 -87t-87 -36t-87 35.5t-36 87.5zM360 524h263q0 215 -28 318.5t-103 103.5q-76 0 -104 -103.5t-28 -318.5zM565 1266q0 51 36 87t87 36t87 -36t36 -87t-36 -87t-87 -36t-87 35.5t-36 87.5z" />
<glyph unicode="&#x452;" horiz-adv-x="1073" d="M53 0v49h115q18 0 25.5 7t7.5 26v831h-148v58h148v86q0 86 -5.5 135t-29 96t-76.5 88l23 33q80 -41 137 -123t69 -164q12 82 69.5 164t137.5 123l23 -33q-51 -41 -75.5 -88t-30 -96t-5.5 -135v-86h312v-58h-312v-260q55 25 100.5 34t108.5 9q139 0 233.5 -90t94.5 -252 q0 -260 -146.5 -470t-377.5 -367l-37 45q176 152 243.5 336t67.5 454q0 141 -33 214t-112 73q-68 0 -142 -31v-526q0 -18 7.5 -25.5t25.5 -7.5h66v-49h-484z" />
<glyph unicode="&#x453;" horiz-adv-x="905" d="M82 0v49h78q18 0 25.5 7t7.5 26v807q0 18 -7.5 25.5t-25.5 7.5h-78v49h737l12 -406h-57q0 10 -13 61.5t-44 121.5q-29 68 -81 121t-114 53h-59q-18 0 -25.5 -7.5t-7.5 -25.5v-807q0 -18 7 -25.5t26 -7.5h78v-49h-459zM381 1110l182 283q23 37 47.5 51t53.5 14 q37 0 61.5 -22.5t24.5 -59.5q0 -55 -58 -98l-270 -205z" />
<glyph unicode="&#x454;" horiz-adv-x="929" d="M98 496q0 225 96.5 362t284.5 137q106 0 195 -63q27 -20 39 -21q16 0 24 23l17 49h49v-379h-49q-23 133 -93.5 237.5t-158.5 104.5q-86 0 -114 -96t-28 -313h304v-58h-304q0 -158 11.5 -252t50.5 -148t115 -54q143 0 143 94q0 29 -43 57q-31 18 -43 40t-12 52 q0 39 31.5 68t78.5 29q55 0 95 -43t40 -105q0 -117 -89 -179.5t-210 -62.5q-131 0 -228 63.5t-149.5 180.5t-52.5 277z" />
<glyph unicode="&#x455;" horiz-adv-x="880" d="M119 -25v406h45l92 -162q111 -195 279 -194q76 0 112.5 37.5t36.5 84.5q0 41 -21.5 71t-73.5 61.5t-161 85.5q-131 63 -220 143t-89 209q0 127 80 202.5t194 75.5q96 0 205 -69q39 -25 61 -25q25 0 33 33l13 41h36v-328h-45l-39 78q-55 111 -126.5 166t-145.5 55 q-55 0 -91 -26.5t-36 -85.5q0 -121 217 -224q133 -63 204 -112t103.5 -106.5t32.5 -141.5q0 -127 -81 -201t-202 -74q-102 0 -213 66q-49 33 -73 33q-27 0 -47.5 -15.5t-28.5 -40.5l-14 -43h-37z" />
<glyph unicode="&#x456;" horiz-adv-x="606" d="M82 0v49h78q18 0 25.5 7t7.5 26v807q0 18 -7.5 25.5t-25.5 7.5h-78v49h348v-889q0 -18 7 -25.5t26 -7.5h78v-49h-459zM152 1331q0 66 44 109t107 43q66 0 109 -43t43 -109q0 -63 -43 -107t-109 -44q-63 0 -107 44t-44 107z" />
<glyph unicode="&#x457;" horiz-adv-x="606" d="M12 1266q0 51 36 87t87 36t87 -36t36 -87t-36 -87t-87 -36t-87 35.5t-36 87.5zM82 0v49h78q18 0 25.5 7t7.5 26v807q0 18 -7.5 25.5t-25.5 7.5h-78v49h348v-889q0 -18 7 -25.5t26 -7.5h78v-49h-459zM348 1266q0 51 36 87t87 36t87 -36t36 -87t-36 -87t-87 -36t-87 35.5 t-36 87.5z" />
<glyph unicode="&#x458;" horiz-adv-x="655" d="M-106 -258q0 70 46 116t105 46q47 0 84 -29t37 -80q0 -63 -57 -114q-35 -31 -35 -66q0 -29 23.5 -41t52.5 -12q47 0 71.5 58t24.5 212v1057q0 18 -7.5 25.5t-25.5 7.5h-115v49h385v-1053q0 -131 -45 -222t-119.5 -137t-160.5 -46q-115 0 -189.5 64.5t-74.5 164.5z M213 1331q0 66 44 109t108 43q66 0 108.5 -43t42.5 -109q0 -63 -43 -107t-108 -44q-64 0 -108 44t-44 107z" />
<glyph unicode="&#x459;" horiz-adv-x="1441" d="M25 147q0 63 42 107.5t99 44.5q55 0 81.5 -31.5t26.5 -66.5q0 -37 -30 -72q-8 -10 -13.5 -19.5t-5.5 -21.5q0 -16 9.5 -23.5t21.5 -7.5q41 0 77 77t46 253l16 256q8 133 8 199q0 35 -11 57.5t-46 22.5h-76v49h717v-49h-78q-18 0 -25 -7.5t-7 -25.5v-361h196 q127 0 211 -75.5t84 -186.5q0 -74 -38 -134t-105.5 -96t-151.5 -36h-545v49h78q18 0 25.5 7t7.5 26v807q0 18 -7 25.5t-26 7.5h-51q-49 0 -71.5 -36t-26.5 -112l-27 -403q-20 -395 -231 -396q-78 0 -126 51.5t-48 120.5zM877 82q0 -18 7 -25.5t25 -7.5h78q63 0 97 61.5 t34 155.5t-32.5 153.5t-98.5 59.5h-110v-397z" />
<glyph unicode="&#x45a;" horiz-adv-x="1531" d="M82 0v49h78q18 0 25.5 7t7.5 26v807q0 18 -7.5 25.5t-25.5 7.5h-78v49h446v-49h-65q-18 0 -25.5 -7.5t-7.5 -25.5v-352h299v352q0 18 -7 25.5t-26 7.5h-65v49h446v-49h-78q-18 0 -25 -7.5t-7 -25.5v-352h196q84 0 151.5 -36t105.5 -96.5t38 -134.5t-38 -135t-105.5 -98 t-151.5 -37h-532v49h65q18 0 25.5 7t7.5 26v397h-299v-397q0 -18 7 -25.5t26 -7.5h65v-49h-446zM967 82q0 -18 7 -25.5t25 -7.5h78q63 0 97 61.5t34 155.5t-32.5 153.5t-98.5 59.5h-110v-397z" />
<glyph unicode="&#x45b;" horiz-adv-x="1089" d="M53 0v49h115q18 0 25.5 7t7.5 26v831h-148v58h148v86q0 86 -5.5 135t-29 96t-76.5 88l23 33q80 -41 137 -123t69 -164q12 82 69.5 164t137.5 123l23 -33q-51 -41 -75.5 -88t-30 -96t-5.5 -135v-86h312v-58h-312v-260q141 43 258 43q109 0 175.5 -59t66.5 -166v-389 q0 -18 7 -25.5t26 -7.5h78v-49h-447v49h66q18 0 25 7t7 26v461q0 51 -19 73.5t-63 22.5q-35 0 -91 -11.5t-89 -23.5v-522q0 -18 7.5 -25.5t25.5 -7.5h66v-49h-484z" />
<glyph unicode="&#x45c;" horiz-adv-x="1077" d="M82 0v49h78q18 0 25.5 7t7.5 26v807q0 18 -7.5 25.5t-25.5 7.5h-78v49h446v-49h-65q-18 0 -25.5 -7.5t-7.5 -25.5v-365h129q43 0 63.5 33t20.5 86v139q0 102 54.5 157.5t129.5 55.5q74 0 117 -43t43 -114q0 -57 -40 -95t-87 -38q-45 0 -75.5 25.5t-30.5 70.5q0 27 20 57 q16 23 17 37q0 18 -21 18q-29 0 -49.5 -31.5t-20.5 -97.5v-141q0 -47 -12 -76.5t-43 -50.5v-10q106 -14 164.5 -73.5t58.5 -182.5v-133q0 -55 45 -56q37 0 53.5 56.5t16.5 140.5h53q0 -135 -40 -209t-146 -74q-100 0 -159.5 52.5t-59.5 152.5v162q0 57 -26.5 91t-67.5 34 h-107v-385q0 -18 7 -25.5t26 -7.5h65v-49h-446zM467 1110l182 283q23 37 47.5 51t53.5 14q37 0 61.5 -22.5t24.5 -59.5q0 -55 -58 -98l-270 -205z" />
<glyph unicode="&#x45d;" horiz-adv-x="1171" d="M82 0v49h78q18 0 25.5 7t7.5 26v807q0 18 -7.5 25.5t-25.5 7.5h-78v49h446v-49h-65q-18 0 -25.5 -7.5t-7.5 -25.5v-647l311 610v37q0 18 -7 25.5t-25 7.5h-66v49h447v-49h-78q-18 0 -25.5 -7.5t-7.5 -25.5v-807q0 -18 7 -25.5t26 -7.5h78v-49h-447v49h66q18 0 25 7t7 26 v647l-311 -610v-37q0 -18 7 -25.5t26 -7.5h65v-49h-446zM307 1376q0 37 24.5 59.5t61.5 22.5q29 0 53.5 -14t47.5 -51l182 -283l-41 -37l-270 205q-57 43 -58 98z" />
<glyph unicode="&#x45e;" horiz-adv-x="1073" d="M25 922v49h501v-49h-59q-18 0 -33.5 -14.5t-15.5 -39.5q0 -23 14 -57l211 -506l133 449q14 57 15 90q0 31 -16.5 54.5t-47.5 23.5h-53v49h338v-49h-45q-37 0 -71 -32t-52 -95l-312 -1035q-72 -248 -223 -247q-84 0 -135 52t-51 134q0 68 43 119t108 51q49 0 81 -29.5 t32 -72.5q0 -27 -11 -49.5t-28 -36.5q-29 -25 -29 -54q0 -18 11.5 -33.5t36.5 -15.5q35 0 58.5 43t43.5 109l68 225l-355 848q-29 68 -52.5 93.5t-74.5 25.5h-30zM279 1290q0 59 33.5 95t82.5 36q39 0 59.5 -21.5t20.5 -51.5q0 -43 -41 -66q-20 -12 -30.5 -21.5t-10.5 -25.5 q0 -72 160 -72t160 72q0 16 -10.5 25.5t-30.5 21.5q-41 23 -41 66q0 31 20.5 52t59.5 21q49 0 82.5 -35.5t33.5 -95.5q0 -86 -82.5 -135t-191.5 -49t-191.5 49t-82.5 135z" />
<glyph unicode="&#x45f;" horiz-adv-x="1159" d="M82 0v49h78q18 0 25.5 7t7.5 26v807q0 18 -7.5 25.5t-25.5 7.5h-78v49h446v-49h-65q-18 0 -25.5 -7.5t-7.5 -25.5v-807q0 -18 7 -25.5t26 -7.5h233q18 0 25.5 7t7.5 26v807q0 18 -7 25.5t-26 7.5h-65v49h446v-49h-78q-18 0 -25 -7.5t-7 -25.5v-807q0 -18 7 -25.5t25 -7.5 h78v-49h-442l41 -184q10 -45 10 -72q0 -41 -30.5 -64.5t-75.5 -23.5t-76 23.5t-31 64.5q0 27 10 72l41 184h-442z" />
<glyph unicode="&#x460;" horiz-adv-x="1986" d="M152 1458h311q0 -147 23.5 -330.5t56.5 -316.5q43 -178 107.5 -319.5t133.5 -237.5q57 123 98.5 225.5t73.5 225.5q-37 133 -70.5 371.5t-43.5 381.5h311q23 -395 102 -676q45 -160 108.5 -310t139.5 -243q68 109 93.5 244t25.5 260q0 358 -131 725h373q8 -35 14 -100.5 t6 -104.5q0 -371 -138 -695.5t-339 -590.5h-47q-90 94 -194.5 283.5t-170.5 345.5h-10q-39 -123 -128 -316.5t-169 -312.5h-45q-90 86 -192.5 265.5t-147.5 302.5q-92 264 -121.5 488t-29.5 435z" />
<glyph unicode="&#x461;" horiz-adv-x="1474" d="M102 971h250q0 -106 14.5 -225t39.5 -201q72 -246 165 -365q68 111 125 289q-29 88 -55.5 246.5t-34.5 255.5h250q14 -256 72 -445q31 -100 76 -194t98 -156q70 139 69 318q0 240 -90 477h287q6 -25 11 -68t5 -67q0 -428 -362 -861h-33q-66 63 -141.5 192.5t-120.5 231.5 h-8q-29 -84 -95.5 -214t-125.5 -210h-43q-66 62 -136.5 178.5t-103.5 200.5q-68 176 -90.5 325.5t-22.5 291.5z" />
<glyph unicode="&#x462;" horiz-adv-x="1679" d="M123 823l12 475h418v45q0 29 -10.5 39.5t-38.5 10.5h-144v65h725v-65h-180q-27 0 -38 -10.5t-11 -39.5v-45h481l13 -475h-66q0 14 -21.5 92t-60.5 142q-47 82 -108.5 129t-137.5 47h-100v-463h234q143 0 254.5 -50t174 -138t62.5 -201q0 -111 -62.5 -198t-174 -135 t-254.5 -48h-730v66h144q29 0 39 11t10 38v1118h-37q-76 0 -137.5 -47t-108.5 -129q-39 -63 -60.5 -141t-21.5 -93h-65zM856 115q0 -27 11.5 -38t37.5 -11h154q109 0 151.5 82.5t42.5 232.5q0 152 -44 238t-150 86h-203v-590z" />
<glyph unicode="&#x463;" horiz-adv-x="1204" d="M74 573l12 398h315v86q0 86 -5 135t-28.5 96t-76.5 88l22 33q80 -41 137.5 -123t69.5 -164q12 82 69.5 164t137.5 123l23 -33q-51 -41 -76 -88t-30 -96t-5 -135v-86h340l12 -398h-53q0 12 -14.5 78t-42.5 129q-27 61 -64 101.5t-94 40.5h-25q-59 0 -59 -50v-344h197 q127 0 210.5 -75.5t83.5 -186.5q0 -74 -37.5 -134t-105 -96t-151.5 -36h-545v49h78q18 0 25 7t7 26v790q0 49 -59 50q-57 0 -94 -40t-64 -102q-29 -63 -43 -128.5t-14 -78.5h-53zM639 82q0 -18 7 -25.5t26 -7.5h78q63 0 97 61.5t34 155.5t-33 153.5t-98 59.5h-111v-397z" />
<glyph unicode="&#x464;" horiz-adv-x="2121" d="M127 0v66h143q29 0 39 11t10 38v1228q0 29 -10 39.5t-39 10.5h-143v65h688v-65h-143q-27 0 -38 -10.5t-11 -39.5v-561h206q10 223 98.5 385t226.5 245t298 83q193 0 309 -76q145 -96 205 -284h98v-66h-487v66h98q0 141 -64.5 218t-168.5 77q-61 0 -123 -40t-102.5 -128 t-40.5 -226v-282l8 -4q115 90 197.5 138t144.5 48q35 0 67.5 -22.5t73.5 -61.5q33 -29 56.5 -44t45.5 -15q25 0 41.5 13t38.5 42l39 -29q-51 -90 -124.5 -156.5t-131.5 -66.5q-39 0 -72.5 19.5t-76.5 56.5q-39 35 -64.5 51t-54.5 16q-39 0 -80 -21.5t-108 -76.5v-219 q0 -137 40.5 -225t102 -128t123.5 -40q104 0 168.5 76.5t64.5 218.5h-98v65h487v-65h-98q-59 -188 -205 -285q-117 -76 -309 -76q-164 0 -305 87t-228.5 256t-91.5 403h-204v-594q0 -27 11 -38t38 -11h143v-66h-688z" />
<glyph unicode="&#x465;" horiz-adv-x="1339" d="M82 0v49h78q18 0 25.5 7t7.5 26v807q0 18 -7.5 25.5t-25.5 7.5h-78v49h446v-49h-65q-18 0 -25.5 -7.5t-7.5 -25.5v-453l168 41v27q0 133 44 245.5t123 179t179 66.5q84 0 129 -48t45 -99q0 -39 -27.5 -69.5t-68.5 -30.5q-31 0 -54.5 6t-62.5 22q-53 23 -100 23t-80 -36 t-33 -87q0 -117 15 -174l317 73l16 -67l-315 -72q37 -133 130 -211t216 -78q63 0 107.5 26t83.5 69l36 -31q-51 -92 -147 -164t-178 -72q-146 0 -246 119t-123 314l-174 -41v-285q0 -18 7 -25.5t26 -7.5h65v-49h-446z" />
<glyph unicode="&#x466;" horiz-adv-x="1777" d="M37 0v66h29q78 0 131 52t100 148l594 1192h86l622 -1302q23 -45 51.5 -67.5t69.5 -22.5h25v-66h-606v66h61q29 0 44.5 16t15.5 39q0 45 -37 121l-88 188h-181v-315q0 -27 11.5 -38t38.5 -11h65v-66h-532v66h65q29 0 39 11t10 38v315h-184l-55 -111q-18 -37 -26.5 -65.5 t-8.5 -67.5q0 -45 28.5 -82.5t79.5 -37.5h15v-66h-463zM500 504h600l-293 610z" />
<glyph unicode="&#x467;" horiz-adv-x="1277" d="M33 0v49h16q47 0 89 40t67 85l422 797h67l426 -844q20 -39 43 -58.5t56 -19.5h26v-49h-469v49h31q20 0 31.5 12.5t11.5 32.5q0 23 -19 60l-61 125q-100 -23 -133 -99t-35 -180h-106q-2 109 -33 182.5t-133 96.5l-35 -64q-23 -39 -23 -88q0 -27 18.5 -52.5t57.5 -25.5h14 v-49h-329zM358 336q70 -12 117 -55t72 -107h8q25 63 72 106.5t114 55.5l-186 369z" />
<glyph unicode="&#x468;" horiz-adv-x="2625" d="M127 0v66h143q29 0 39 11t10 38v1228q0 29 -10 39.5t-39 10.5h-143v65h688v-65h-143q-27 0 -38 -10.5t-11 -39.5v-839h641l475 954h86l622 -1302q23 -45 51.5 -67.5t69.5 -22.5h25v-66h-606v66h61q29 0 44 16t15 39q0 45 -36 121l-89 188h-180v-315q0 -27 11.5 -38 t37.5 -11h66v-66h-533v66h66q29 0 39 11t10 38v315h-184l-55 -111q-18 -37 -26.5 -65.5t-8.5 -67.5q0 -45 28.5 -82.5t79.5 -37.5h15v-66h-463v66h28q78 0 131.5 52t100.5 148l82 164h-604v-315q0 -27 11 -38t38 -11h143v-66h-688zM1348 504h600l-293 610z" />
<glyph unicode="&#x469;" horiz-adv-x="1822" d="M82 0v49h78q18 0 25.5 7t7.5 26v807q0 18 -7.5 25.5t-25.5 7.5h-78v49h446v-49h-65q-18 0 -25.5 -7.5t-7.5 -25.5v-553h406l335 635h68l426 -844q20 -39 43 -58.5t55 -19.5h27v-49h-469v49h31q20 0 31.5 12.5t11.5 32.5q0 23 -19 60l-61 125q-100 -23 -133 -99t-35 -180 h-107q-2 109 -32.5 182.5t-133.5 96.5l-34 -64q-23 -39 -23 -88q0 -27 18.5 -52.5t57.5 -25.5h14v-49h-329v49h16q47 0 89 40t67 85l55 105h-375v-197q0 -18 7 -25.5t26 -7.5h65v-49h-446zM903 336q70 -12 117 -55t72 -107h8q25 63 72 106.5t114 55.5l-186 369z" />
<glyph unicode="&#x46a;" horiz-adv-x="2015" d="M82 369h65q0 -127 25 -215t78 -88q57 0 57 86v274q0 188 103.5 290.5t277.5 102.5h150l-349 506q-27 39 -51 53.5t-73 14.5h-62v65h1417v-65h-61q-45 0 -70.5 -16.5t-50.5 -55.5l-336 -502h166q174 0 277.5 -102.5t103.5 -290.5v-274q0 -86 57 -86q53 0 78 88t25 215h65 q0 -199 -53 -308.5t-190 -109.5q-131 0 -208 77.5t-77 229.5v256q0 106 -35 168.5t-133 62.5h-98v-630q0 -27 11 -38t38 -11h143v-66h-688v66h143q29 0 39.5 11t10.5 38v630h-99q-98 0 -133 -62t-35 -169v-256q0 -152 -76.5 -229.5t-207.5 -77.5q-138 0 -191 109.5 t-53 308.5zM807 1393l350 -508l340 508h-690z" />
<glyph unicode="&#x46b;" horiz-adv-x="1474" d="M49 258h53q0 -82 16.5 -139.5t55.5 -57.5q45 0 45 56v133q0 137 69.5 205.5t178.5 68.5h121l-264 348q-20 29 -36 39.5t-40 10.5h-37v49h1042v-49h-36q-25 0 -41.5 -10.5t-36.5 -39.5l-265 -348h134q109 0 178 -68.5t69 -205.5v-133q0 -55 45 -56q39 0 55.5 57.5 t16.5 139.5h53q0 -133 -41 -208t-147 -75q-100 0 -159.5 52.5t-59.5 152.5v162q0 57 -26.5 91t-67.5 34h-68v-385q0 -18 7 -25.5t26 -7.5h65v-49h-446v49h78q18 0 25 7t7 26v385h-67q-41 0 -67.5 -34t-26.5 -91v-162q0 -100 -59.5 -152.5t-159.5 -52.5q-107 0 -148 75 t-41 208zM580 922l256 -349l268 349h-524z" />
<glyph unicode="&#x46c;" horiz-adv-x="2781" d="M127 0v66h143q29 0 39 11t10 38v1228q0 29 -10 39.5t-39 10.5h-143v65h688v-65h-143q-27 0 -38 -10.5t-11 -39.5v-524h981l-349 506q-27 39 -51 53.5t-74 14.5h-61v65h1417v-65h-61q-45 0 -70.5 -16.5t-50.5 -55.5l-336 -502h166q174 0 277.5 -102.5t103.5 -290.5v-274 q0 -86 57 -86q53 0 78 88t25 215h65q0 -199 -53 -308.5t-190 -109.5q-131 0 -208 77.5t-77 229.5v256q0 106 -35 168.5t-133 62.5h-98v-630q0 -27 11 -38t38 -11h143v-66h-688v66h143q29 0 39 11t10 38v630h-98q-98 0 -133 -62t-35 -169v-256q0 -152 -76.5 -229.5 t-207.5 -77.5q-138 0 -191 109.5t-53 308.5h65q0 -127 25 -215t78 -88q57 0 57 86v274q0 209 131 315v4h-581v-630q0 -27 11 -38t38 -11h143v-66h-688zM1573 1393l350 -508l340 508h-690z" />
<glyph unicode="&#x46d;" horiz-adv-x="1986" d="M82 0v49h78q18 0 25.5 7t7.5 26v807q0 18 -7.5 25.5t-25.5 7.5h-78v49h446v-49h-65q-18 0 -25.5 -7.5t-7.5 -25.5v-365h670l-264 348q-20 29 -36 39.5t-40 10.5h-37v49h1042v-49h-36q-25 0 -41.5 -10.5t-36.5 -39.5l-265 -348h134q109 0 178 -68.5t69 -205.5v-133 q0 -55 45 -56q39 0 55.5 57.5t16.5 139.5h53q0 -133 -41 -208t-147 -75q-100 0 -159.5 52.5t-59.5 152.5v162q0 57 -26.5 91t-67.5 34h-68v-385q0 -18 7 -25.5t26 -7.5h65v-49h-446v49h78q18 0 25 7t7 26v385h-67q-41 0 -67.5 -34t-26.5 -91v-162q0 -100 -59.5 -152.5 t-159.5 -52.5q-107 0 -148 75t-41 208h53q0 -82 16.5 -139.5t55.5 -57.5q45 0 45 56v133q0 141 78 213l-2 4h-377v-385q0 -18 7 -25.5t26 -7.5h65v-49h-446zM1092 922l256 -349l268 349h-524z" />
<glyph unicode="&#x46e;" horiz-adv-x="1273" d="M147 -213q0 160 103.5 239.5t286.5 129.5q168 47 243.5 124.5t75.5 194.5q0 279 -246 279q-106 0 -164.5 -101.5t-68.5 -236.5h-66l17 411h268q119 0 177 92.5t58 221.5t-61 209t-176 80q-113 0 -171 -37t-58 -86q0 -29 11 -44.5t30 -27.5q74 -45 73 -125 q0 -51 -34.5 -87t-104.5 -36q-66 0 -117 49t-51 135q0 115 92 205t240 115l-160 328h203l123 -256l78 161q53 115 151 115q49 0 79 -32.5t30 -82.5q0 -39 -29 -73.5t-74 -34.5q-33 0 -55.5 19.5t-22.5 50.5q0 27 19 45q8 8 13 17t5 13q0 6 -5 9.5t-9 3.5q-12 0 -24.5 -11.5 t-22.5 -29.5l-117 -242q162 -16 263.5 -73.5t145.5 -132.5t44 -152q0 -90 -57.5 -162t-145.5 -115t-174 -49v-21q106 -4 203.5 -49t158 -123.5t60.5 -177.5q0 -221 -166 -334.5t-490 -179.5q-143 -29 -198.5 -79t-55.5 -122q0 -82 73 -127t181 -45q84 0 133.5 47.5 t79.5 116.5q25 55 62 94t84 39t73.5 -27.5t26.5 -70.5q0 -66 -62.5 -127t-167 -99t-227.5 -38q-176 0 -279.5 83t-103.5 220z" />
<glyph unicode="&#x46f;" horiz-adv-x="933" d="M86 -170q0 113 71.5 174.5t204.5 93.5q119 29 177.5 84.5t58.5 130.5q0 86 -36 132.5t-126 46.5q-92 0 -133 -80q-20 -41 -30.5 -86t-10.5 -56h-53l16 279h195q88 0 131 60.5t43 142.5q0 84 -45 139t-135 55q-57 0 -101.5 -15.5t-68 -39t-23.5 -43.5q0 -27 37 -43 q53 -20 53 -84q0 -33 -25.5 -59.5t-70.5 -26.5q-57 0 -93 37t-36 98q0 86 76 147.5t200 73.5l-122 254h127l104 -217l55 135q41 98 117 99q43 0 68.5 -27t25.5 -59q0 -37 -20.5 -64t-61.5 -27q-27 0 -45 16.5t-18 39.5q0 27 20 47q18 18 19 24q0 12 -15 13q-31 0 -59 -70 l-65 -162q121 -8 196.5 -47t109 -90t33.5 -104q0 -63 -46 -111.5t-111.5 -76t-118.5 -32.5v-10q121 -10 213 -73.5t92 -157.5q0 -143 -123 -220t-350 -130q-125 -29 -176 -65t-51 -83q0 -59 50 -92t124 -33q109 0 170 131q18 39 47 70t65 31q37 0 56.5 -20.5t19.5 -57.5 q0 -49 -44 -96.5t-124 -77t-184 -29.5t-179 56.5t-75 154.5z" />
<glyph unicode="&#x470;" horiz-adv-x="2043" d="M78 1239v66h581v-66h-57q-45 -2 -45 -47q0 -23 10 -43l326 -750h41v944q0 29 -10.5 39.5t-38.5 10.5h-144v65h689v-65h-144q-27 0 -38 -10.5t-11 -39.5v-944h10l297 699q55 127 125 182t168 55q88 0 139.5 -66.5t51.5 -148.5q0 -100 -56.5 -163.5t-140.5 -63.5 q-63 0 -107.5 37t-44.5 90q0 27 10.5 51.5t32.5 52.5q16 18 25.5 35t9.5 31q0 31 -31 31q-29 0 -54 -33t-54 -98l-324 -756h-57v-219q0 -27 11.5 -38t37.5 -11h144v-66h-689v66h144q29 0 39 11t10 38v219h-330l-362 805q-25 55 -52.5 77.5t-83.5 22.5h-28z" />
<glyph unicode="&#x471;" horiz-adv-x="1585" d="M37 922v49h432v-49h-20q-49 0 -50 -52q0 -23 11 -49l254 -772h20v1151q0 18 -7 25.5t-26 7.5h-65v49h446v-49h-78q-18 0 -25 -7t-7 -26v-1151h10l219 668q47 143 102.5 210.5t157.5 67.5q84 0 121 -54t37 -112q0 -57 -40 -109t-110 -52q-49 0 -79.5 26.5t-30.5 69.5 q0 49 45 86q18 14 26.5 24.5t8.5 22.5q0 25 -29 25q-47 0 -82 -53.5t-74 -170.5l-229 -698h-53v-385q0 -18 7 -25.5t25 -7.5h78v-49h-446v49h65q18 0 25.5 7.5t7.5 25.5v385h-235l-273 829q-16 51 -34.5 72t-63.5 21h-41z" />
<glyph unicode="&#x472;" horiz-adv-x="1458" d="M143 729q0 195 84 372t224.5 285.5t298.5 108.5t298 -108.5t224 -285.5t84 -372t-84 -372t-224.5 -285.5t-297.5 -108.5q-158 0 -298.5 108.5t-224.5 286t-84 371.5zM492 422q0 -211 66.5 -302t191.5 -91q124 0 191 91t67 302v283h-516v-283zM492 778h516v258 q0 211 -67 302.5t-191 91.5q-125 0 -191.5 -91.5t-66.5 -302.5v-258z" />
<glyph unicode="&#x473;" horiz-adv-x="1032" d="M98 485q0 143 57.5 260t154 183.5t206.5 66.5q111 0 207 -66.5t153.5 -183t57.5 -260.5q0 -143 -57.5 -259.5t-153.5 -183.5t-207 -67q-110 0 -206.5 67t-154 183.5t-57.5 259.5zM360 467q2 -236 35 -339t121 -103t121 103t35 339h-312zM360 524h312q-2 221 -37 321.5 t-119 100.5q-86 0 -120 -99t-36 -323z" />
<glyph unicode="&#x474;" horiz-adv-x="1679" d="M94 1393v65h699v-65h-103q-29 0 -49 -15.5t-20 -36.5q0 -23 8 -45l338 -870l231 795q14 53 39 105t53 85q78 92 201 92q106 0 159.5 -66.5t53.5 -158.5q0 -102 -56.5 -169t-146.5 -67q-68 0 -110.5 38t-42.5 100q0 35 19 71.5t48 59.5q47 37 47 69q0 33 -28 33 q-51 0 -95 -65q-39 -57 -73 -174l-355 -1211h-86l-510 1311q-27 70 -57.5 94.5t-95.5 24.5h-68z" />
<glyph unicode="&#x475;" horiz-adv-x="1138" d="M37 922v49h506v-49h-60q-18 0 -33.5 -14.5t-15.5 -39.5q0 -29 12 -57l189 -485l145 493q25 82 67 129t124 47q74 0 112.5 -49t38.5 -108q0 -63 -33.5 -108.5t-93.5 -45.5q-47 0 -76.5 23.5t-29.5 62.5q0 47 37 78q18 14 24 23.5t6 23.5q0 12 -8 19.5t-22 7.5 q-29 0 -52.5 -29t-44.5 -98l-241 -820h-66l-327 828q-27 66 -52.5 92.5t-79.5 26.5h-26z" />
<glyph unicode="&#x476;" horiz-adv-x="1679" d="M94 1393v65h699v-65h-103q-29 0 -49 -15.5t-20 -36.5q0 -23 8 -45l338 -870l231 795q14 53 39 105t53 85q78 92 201 92q106 0 159.5 -66.5t53.5 -158.5q0 -102 -56.5 -169t-146.5 -67q-68 0 -110.5 38t-42.5 100q0 35 19 71.5t48 59.5q47 37 47 69q0 33 -28 33 q-51 0 -95 -65q-39 -57 -73 -174l-355 -1211h-86l-510 1311q-27 70 -57.5 94.5t-95.5 24.5h-68zM557 1868q0 33 23.5 55.5t58.5 22.5q57 0 96 -66l174 -283l-41 -36l-256 213q-55 43 -55 94zM831 1868q0 33 24 55.5t58 22.5q57 0 97 -66l174 -283l-41 -36l-256 213 q-55 43 -56 94z" />
<glyph unicode="&#x477;" horiz-adv-x="1138" d="M37 922v49h506v-49h-60q-18 0 -33.5 -14.5t-15.5 -39.5q0 -29 12 -57l189 -485l145 493q25 82 67 129t124 47q74 0 112.5 -49t38.5 -108q0 -63 -33.5 -108.5t-93.5 -45.5q-47 0 -76.5 23.5t-29.5 62.5q0 47 37 78q18 14 24 23.5t6 23.5q0 12 -8 19.5t-22 7.5 q-29 0 -52.5 -29t-44.5 -98l-241 -820h-66l-327 828q-27 66 -52.5 92.5t-79.5 26.5h-26zM168 1380q0 33 23.5 55.5t58.5 22.5q57 0 96 -65l174 -283l-41 -37l-256 213q-55 43 -55 94zM442 1380q0 33 23.5 55.5t58.5 22.5q57 0 97 -65l174 -283l-41 -37l-256 213 q-55 43 -56 94z" />
<glyph unicode="&#x478;" horiz-adv-x="2519" d="M143 729q0 193 81 370t218.5 286.5t294.5 109.5q158 0 295 -109.5t218 -286.5t81 -370t-81 -370t-218 -286.5t-295 -109.5q-157 0 -294.5 109.5t-218.5 287t-81 369.5zM492 422q0 -213 61 -303t184 -90t184.5 90t61.5 303v614q0 213 -61.5 303.5t-184.5 90.5t-184 -90.5 t-61 -303.5v-614zM1417 922v49h504v-49h-57q-18 0 -33.5 -14.5t-15.5 -39.5q0 -29 12 -57l188 -485l146 493q25 82 66.5 129t123.5 47q74 0 113 -49t39 -108q0 -63 -34 -108.5t-93 -45.5q-47 0 -77 23.5t-30 62.5q0 47 37 78q18 14 24.5 23.5t6.5 23.5q0 12 -8.5 19.5 t-22.5 7.5q-29 0 -52.5 -29t-43.5 -98l-236 -797l-28 -102q-12 -41 -13 -70q0 -47 48.5 -80t127.5 -53l-81 -178q-70 4 -127.5 51t-57.5 119q0 63 29 159l35 119l-332 840q-27 66 -52.5 92.5t-78.5 26.5h-27z" />
<glyph unicode="&#x479;" horiz-adv-x="2007" d="M98 485q0 139 53.5 256t146.5 185.5t206 68.5t206 -68.5t146 -185t53 -256.5q0 -139 -53 -255.5t-146.5 -185.5t-205.5 -69q-113 0 -206 69t-146.5 185.5t-53.5 255.5zM360 485q0 -231 29 -345.5t115 -114.5t114.5 114.5t28.5 345.5t-28.5 346t-114.5 115t-115 -114.5 t-29 -346.5zM905 922v49h504v-49h-57q-18 0 -33.5 -14.5t-15.5 -39.5q0 -29 12 -57l188 -485l146 493q25 82 66.5 129t123.5 47q74 0 113 -49t39 -108q0 -63 -34 -108.5t-93 -45.5q-47 0 -77 23.5t-30 62.5q0 47 37 78q18 14 24.5 23.5t6.5 23.5q0 12 -8.5 19.5t-22.5 7.5 q-29 0 -52.5 -29t-43.5 -98l-236 -797l-28 -102q-12 -41 -13 -70q0 -47 48.5 -80t127.5 -53l-81 -178q-70 4 -127.5 51t-57.5 119q0 63 29 159l35 119l-332 840q-27 66 -52.5 92.5t-78.5 26.5h-27z" />
<glyph unicode="&#x47a;" horiz-adv-x="1785" d="M143 729q0 168 82 325.5t222.5 270.5t306.5 152q6 61 51 103t108 42t108.5 -42t51.5 -103q166 -39 306.5 -152t222 -270.5t81.5 -325.5t-81.5 -325.5t-222 -270.5t-306.5 -151q-6 -61 -51 -103.5t-109 -42.5q-63 0 -108 42t-51 104q-166 39 -306.5 151.5t-222.5 270 t-82 325.5zM492 455q0 -152 72.5 -257.5t199.5 -146.5q16 47 57 76t92 29t92.5 -29t57.5 -76q127 41 199.5 146.5t72.5 257.5v549q0 152 -72.5 257t-199.5 146q-16 -47 -57 -75.5t-93 -28.5q-51 0 -92 28.5t-57 75.5q-127 -41 -199.5 -146.5t-72.5 -256.5v-549z" />
<glyph unicode="&#x47b;" horiz-adv-x="1228" d="M98 485q0 123 53.5 226.5t143.5 173t201 96.5q4 47 38.5 78t79.5 31t80 -31t39 -78q111 -27 201 -96.5t143 -173t53 -226.5t-53 -226t-143 -173t-201 -96q-4 -47 -39 -78t-80 -31t-79.5 31t-38.5 78q-111 27 -201 96.5t-143.5 172.5t-53.5 226zM360 369q0 -256 146 -324 q12 33 42 53.5t66 20.5q37 0 67 -20.5t42 -53.5q145 68 145 324v233q0 256 -145 324q-12 -33 -42 -53.5t-67 -20.5t-66.5 20.5t-41.5 53.5q-145 -68 -146 -324v-233z" />
<glyph unicode="&#x47c;" horiz-adv-x="2400" d="M143 729q0 211 80 386t230.5 277.5t353.5 102.5q111 0 183.5 -46t104 -111.5t31.5 -120.5q0 -84 -48 -140.5t-134 -56.5q-61 0 -107 38t-46 105q0 43 14 70t41 53q39 39 39 78q0 25 -20.5 44t-73.5 19q-150 0 -224.5 -118.5t-74.5 -309.5v-540q0 -193 82.5 -311.5 t261.5 -118.5q131 0 182 70.5t51 176.5v314q0 29 -10 39t-39 10h-115v66h631v-66h-115q-27 0 -38 -10.5t-11 -38.5v-314q0 -106 51.5 -176.5t182.5 -70.5q178 0 261 118.5t83 311.5v540q0 190 -75 309t-224 119q-53 0 -74 -19t-21 -44q0 -39 39 -78q27 -27 41.5 -53.5 t14.5 -69.5q0 -68 -46 -105.5t-108 -37.5q-86 0 -134 56.5t-48 140.5q0 55 31.5 120.5t104.5 111.5t183 46q203 0 353.5 -102.5t230.5 -277.5t80 -386t-84 -386t-241.5 -278.5t-366.5 -103.5q-152 0 -244 65.5t-135 151.5h-13q-43 -86 -135 -151.5t-243 -65.5 q-209 0 -367 103.5t-242 278.5t-84 386zM741 1716q94 121 196.5 177.5t240.5 56.5q96 0 194 -28t215 -81q135 -61 332 -131l-143 -104q-137 51 -297 147q-96 59 -165 87t-136 28q-125 0 -203 -47t-168 -160zM965 1630q0 74 51 126t133 52q131 0 184 -81.5t53 -194.5 q0 -37 -6 -80l-51 -20v8q0 100 -42 170.5t-148 70.5q-45 0 -71 -26.5t-26 -69.5q0 -23 3.5 -36t11.5 -31l-37 -19q-55 51 -55 131z" />
<glyph unicode="&#x47d;" horiz-adv-x="1708" d="M98 485q0 137 56.5 254t162 186.5t248.5 69.5q76 0 126 -29.5t72.5 -72.5t22.5 -84q0 -63 -34.5 -104t-94.5 -41q-47 0 -77.5 25.5t-30.5 66.5q0 29 10 49t29 43q27 29 26 53q0 16 -13 30.5t-48 14.5q-104 0 -148.5 -116.5t-44.5 -344.5q0 -233 48.5 -346.5t179.5 -113.5 q147 0 147 161v205q0 18 -7 25.5t-26 7.5h-65v49h446v-49h-77q-18 0 -25.5 -7t-7.5 -26v-205q0 -162 147 -161q131 0 179.5 113.5t48.5 346.5q0 227 -44 344t-149 117q-35 0 -48 -14t-13 -31q0 -25 26 -53q18 -23 28.5 -43.5t10.5 -48.5q0 -41 -30.5 -66.5t-77.5 -25.5 q-59 0 -94 40.5t-35 104.5q0 41 22.5 84t72.5 72.5t126 29.5q143 0 248.5 -69.5t162 -186t56.5 -254.5q0 -137 -56.5 -253.5t-164 -186.5t-254.5 -70q-104 0 -173 46.5t-104 109.5h-8q-35 -63 -103.5 -109.5t-173.5 -46.5q-147 0 -254.5 70t-164 186.5t-56.5 253.5z M528 1163q66 82 136.5 118t160.5 36q109 0 244 -66q113 -55 225 -75l-63 -99q-64 15 -110 37.5t-107 61.5t-104.5 57t-84.5 18q-86 0 -138 -29.5t-107 -99.5zM694 1073q0 59 37 90t88 31q68 0 107 -49t39 -115q0 -25 -4 -57l-37 -15v13q0 61 -30 97t-85 36q-25 0 -43 -15.5 t-18 -41.5q0 -25 10 -41l-19 -19q-45 35 -45 86z" />
<glyph unicode="&#x47e;" horiz-adv-x="1986" d="M152 1458h311q0 -147 23.5 -330.5t56.5 -316.5q43 -178 107.5 -319.5t133.5 -237.5q57 123 98.5 225.5t73.5 225.5q-37 133 -70.5 371.5t-43.5 381.5h311q23 -395 102 -676q45 -160 108.5 -310t139.5 -243q68 109 93.5 244t25.5 260q0 358 -131 725h373q8 -35 14 -100.5 t6 -104.5q0 -371 -138 -695.5t-339 -590.5h-47q-90 94 -194.5 283.5t-170.5 345.5h-10q-39 -123 -128 -316.5t-169 -312.5h-45q-90 86 -192.5 265.5t-147.5 302.5q-92 264 -121.5 488t-29.5 435zM342 1593l8 271h1307l8 -271h-53q0 12 -9.5 50t-35.5 73q-57 82 -154 82h-209 q-27 0 -38 -10t-11 -39v-98q0 -27 11.5 -38t37.5 -11h105v-66h-611v66h105q29 0 39 11t10 38v98q0 29 -10.5 39t-38.5 10h-209q-96 0 -154 -82q-27 -37 -36 -73.5t-9 -49.5h-53z" />
<glyph unicode="&#x47f;" horiz-adv-x="1474" d="M102 971h250q0 -106 14.5 -225t39.5 -201q72 -246 165 -365q68 111 125 289q-29 88 -55.5 246.5t-34.5 255.5h250q14 -256 72 -445q31 -100 76 -194t98 -156q70 139 69 318q0 240 -90 477h287q6 -25 11 -68t5 -67q0 -428 -362 -861h-33q-66 63 -141.5 192.5t-120.5 231.5 h-8q-29 -84 -95.5 -214t-125.5 -210h-43q-66 62 -136.5 178.5t-103.5 200.5q-68 176 -90.5 325.5t-22.5 291.5zM156 1081l14 250h1126l15 -250h-49q0 10 -9.5 44t-33.5 69q-59 88 -158 88h-176q-18 0 -25.5 -7t-7.5 -26v-106q0 -18 7 -25.5t26 -7.5h69v-49h-442v49h70 q18 0 25 7t7 26v106q0 18 -7 25.5t-25 7.5h-176q-98 0 -158 -88q-25 -35 -34 -68.5t-9 -44.5h-49z" />
<glyph unicode="&#x480;" horiz-adv-x="1445" d="M106 1393v65h660v-65h-115q-27 0 -38 -10.5t-11 -39.5v-456q0 -100 41 -139t119 -39h385q29 0 39 -10.5t10 -39.5v-544q0 -27 11.5 -38t37.5 -11h144v-66h-689v66h144q29 0 39 11t10 38v479q0 29 -10.5 39t-38.5 10h-180q-365 0 -365 336v364q0 29 -10 39.5t-39 10.5 h-144z" />
<glyph unicode="&#x481;" horiz-adv-x="933" d="M41 922v49h446v-49h-65q-18 0 -25.5 -7.5t-7.5 -25.5v-326q0 -51 18.5 -73.5t59.5 -22.5h283q18 0 25 -7t7 -26v-352q0 -18 7.5 -25.5t25.5 -7.5h78v-49h-459v49h78q18 0 25.5 7t7.5 26v303q0 18 -7.5 25.5t-25.5 7.5h-127q-102 0 -167.5 54t-65.5 159v258 q0 18 -7.5 25.5t-25.5 7.5h-78z" />
<glyph unicode="&#x482;" horiz-adv-x="815" d="M61 -264l158 186l-125 107l76 90l125 -105l131 156l-125 106l76 91l127 -105l155 187l95 -80l-156 -187l125 -104l-78 -92l-125 104l-131 -156l125 -104l-76 -92l-127 104l-155 -186z" />
<glyph unicode="&#x483;" horiz-adv-x="0" d="M-938 1077v127q0 37 37 37h160l409 -154v117q0 37 37 37h123q37 0 37 -37v-127q0 -37 -37 -37h-162l-407 154v-117q0 -37 -37 -37h-123q-37 0 -37 37z" />
<glyph unicode="&#x484;" horiz-adv-x="0" d="M-979 1110q182 287 442 287t443 -287l-45 -33q-84 96 -173 134t-225 38q-135 0 -224 -37.5t-173 -134.5z" />
<glyph unicode="&#x485;" horiz-adv-x="0" d="M-692 1286q0 92 50 146.5t128 54.5q102 0 182 -115l-45 -41q-45 49 -100 49q-45 0 -73 -32.5t-28 -94.5q0 -80 41 -143l-43 -29q-112 105 -112 205z" />
<glyph unicode="&#x486;" horiz-adv-x="0" d="M-741 1372q80 115 182 115q78 0 128 -54.5t50 -146.5q0 -100 -113 -205l-43 29q41 63 41 143q0 61 -27.5 94t-72.5 33q-55 0 -100 -49z" />
<glyph unicode="&#x487;" horiz-adv-x="0" d="M-1081 1729q231 209 544 208q313 0 545 -208l-61 -74q-115 94 -230.5 139t-253.5 45q-137 0 -252.5 -45t-230.5 -139z" />
<glyph unicode="&#x488;" horiz-adv-x="0" d="M-1778 438q6 109 81 185.5t194 76.5t193.5 -76.5t80.5 -185.5h-98q-6 63 -47 113.5t-129 50.5t-129 -50t-47 -114h-99zM-1548 -205q6 109 80.5 185.5t193.5 76.5t193.5 -76.5t81.5 -185.5h-99q-6 63 -47 113.5t-129 50.5t-129 -50t-47 -114h-98zM-1548 1061 q6 108 80.5 185t193.5 77t193.5 -77t81.5 -185h-99q-6 63 -47 113.5t-129 50.5t-129 -50.5t-47 -113.5h-98zM-811 -545q6 109 81 185.5t193 76.5q119 0 194 -76.5t81 -185.5h-98q-6 63 -47.5 113.5t-129.5 50.5t-129 -50t-47 -114h-98zM-811 1405q6 108 81 185t193 77 q119 0 194 -77t81 -185h-98q-6 63 -47.5 113.5t-129.5 50.5t-129 -50.5t-47 -113.5h-98zM-74 -205q6 109 81 185.5t194 76.5t193.5 -76.5t80.5 -185.5h-98q-6 63 -47 113.5t-129 50.5t-129 -50t-47 -114h-99zM-74 1061q6 108 81 185t194 77t193.5 -77t80.5 -185h-98 q-6 63 -47 113.5t-129 50.5t-129 -50.5t-47 -113.5h-99zM156 438q6 109 80.5 185.5t193.5 76.5t193.5 -76.5t81.5 -185.5h-99q-6 63 -47 113.5t-129 50.5t-129 -50t-47 -114h-98z" />
<glyph unicode="&#x489;" horiz-adv-x="0" d="M-1663 635l45 12q12 -68 41 -109.5t72 -41.5q31 0 43 20q8 12 8 49q0 35 27.5 59.5t74.5 24.5t79 -37t32 -80q0 -74 -50 -112.5t-116 -38.5q-70 0 -126 40t-89 98.5t-41 115.5zM-1401 -195l23 41q72 -47 133 -47q35 0 53 16.5t18 37.5q0 16 -3 26t-15 23q-27 31 -27 65 q0 41 29 72t76 31q53 0 91 -42t38 -98q0 -41 -24.5 -86t-75 -75.5t-121.5 -30.5q-54 0 -106 19.5t-89 47.5zM-1335 1206q0 53 19.5 105.5t47.5 89.5l41 -23q-47 -72 -47 -133q0 -35 16.5 -53t36.5 -18q16 0 26.5 3t23.5 15q31 27 65 27q41 0 71.5 -29t30.5 -76 q0 -53 -41.5 -91t-97.5 -38q-41 0 -86 24.5t-75.5 75t-30.5 121.5zM-696 1407q0 70 40 126t98 89t116 41l12 -45q-68 -12 -110 -41t-42 -72q0 -31 21 -43q12 -8 49 -8q35 0 59.5 -27.5t24.5 -74.5t-37 -79t-80 -32q-73 0 -112 50t-39 116zM-653 -279q0 47 36.5 79t79.5 32 q74 0 113 -50t39 -116q0 -70 -40 -126t-98.5 -89t-115.5 -41l-12 45q68 12 109.5 41t41.5 72q0 31 -20 43q-12 8 -49 8q-35 0 -59.5 27.5t-24.5 74.5zM-88 1143q0 41 24.5 86t74.5 75.5t122 30.5q53 0 105.5 -19.5t89.5 -47.5l-23 -41q-72 47 -133 47q-35 0 -53.5 -16.5 t-18.5 -36.5q0 -16 3 -26.5t16 -23.5q27 -31 26 -65q0 -41 -28.5 -71.5t-75.5 -30.5q-53 0 -91 41.5t-38 97.5zM-70 -41q0 53 42 91t98 38q41 0 86 -24.5t75.5 -74.5t30.5 -122q0 -53 -19.5 -105.5t-47.5 -89.5l-41 23q47 72 47 133q0 35 -16.5 53.5t-37.5 18.5 q-16 0 -26 -3t-23 -16q-31 -27 -65 -26q-41 0 -72 28.5t-31 75.5zM168 541q0 74 50 112.5t116 38.5q70 0 126 -40t89 -98t41 -116l-45 -12q-12 68 -41 110t-72 42q-31 0 -43 -21q-8 -12 -8 -49q0 -35 -27.5 -59.5t-74.5 -24.5q-48 0 -79.5 37t-31.5 80z" />
<glyph unicode="&#x490;" horiz-adv-x="1253" d="M127 0v66h143q29 0 39 11t10 38v1228q0 29 -10 39.5t-39 10.5h-143v65h582q102 0 182 64.5t133 165.5q37 68 59.5 143.5t22.5 85.5h65l-16 -524h-483q-27 0 -38 -10.5t-11 -39.5v-1228q0 -27 11 -38t38 -11h186v-66h-731z" />
<glyph unicode="&#x491;" horiz-adv-x="880" d="M82 0v49h78q18 0 25.5 7t7.5 26v807q0 18 -7.5 25.5t-25.5 7.5h-78v49h432q61 0 113.5 53t81.5 121q31 70 44 121t13 61h57l-12 -405h-348q-18 0 -25.5 -7.5t-7.5 -25.5v-807q0 -18 7 -25.5t26 -7.5h78v-49h-459z" />
<glyph unicode="&#x492;" horiz-adv-x="1327" d="M127 0v66h143q29 0 39 11t10 38v581h-184v66h184v581q0 29 -10 39.5t-39 10.5h-143v65h1102l16 -612h-65q-4 14 -17.5 66.5t-37 121t-52.5 121.5q-129 238 -276 238h-125q-27 0 -38 -10.5t-11 -39.5v-581h241v-66h-241v-581q0 -27 11 -38t38 -11h186v-66h-731z" />
<glyph unicode="&#x493;" horiz-adv-x="905" d="M82 0v49h78q18 0 25.5 7t7.5 26v375h-105v57h105v375q0 18 -7.5 25.5t-25.5 7.5h-78v49h737l12 -406h-57q0 10 -13 61.5t-44 121.5q-29 68 -81 121t-114 53h-59q-18 0 -25.5 -7.5t-7.5 -25.5v-375h182v-57h-182v-375q0 -18 7 -25.5t26 -7.5h78v-49h-459z" />
<glyph unicode="&#x494;" horiz-adv-x="1519" d="M127 0v66h143q29 0 39 11t10 38v1228q0 29 -10 39.5t-39 10.5h-143v65h1100l16 -524h-65q0 20 -19.5 112.5t-54.5 159.5q-45 90 -111.5 138.5t-167.5 48.5h-153q-27 0 -38 -10.5t-11 -39.5v-524l10 -6q152 39 338 39q225 0 354 -119t129 -323q0 -221 -134 -334t-337 -113 q-123 0 -200.5 59.5t-77.5 165.5q0 70 45 119t116 49q51 0 83 -35.5t32 -78.5q0 -35 -12.5 -57.5t-34.5 -43.5q-2 -4 -12.5 -14t-15.5 -21.5t-5 -23.5q0 -29 24.5 -41t59.5 -12q86 0 126 86t40 295q0 360 -262 360q-76 0 -136.5 -9t-129.5 -30v-731h-496z" />
<glyph unicode="&#x495;" horiz-adv-x="1024" d="M82 0v49h78q18 0 25.5 7t7.5 26v807q0 18 -7.5 25.5t-25.5 7.5h-78v49h737l12 -385h-57q0 8 -13 53t-44 109q-29 68 -81 121t-114 53h-59q-18 0 -25.5 -7.5t-7.5 -25.5v-391q70 14 139 14q168 0 262.5 -87t94.5 -255q0 -203 -146.5 -366.5t-378.5 -286.5l-36 45 q176 117 243.5 258t67.5 348q0 160 -39 224.5t-139 64.5q-31 0 -68 -6v-369q0 -18 7 -25.5t26 -7.5h78v-49h-459z" />
<glyph unicode="&#x496;" horiz-adv-x="2015" d="M82 369h65q0 -127 25 -215t78 -88q57 0 57 86v227q0 184 84 276.5t244 120.5v10q-100 80 -100 283v66q0 131 -35 190t-86 59q-37 0 -37 -30q0 -31 35 -60q66 -55 65 -127q0 -53 -40 -89t-101 -36q-41 0 -85 25t-74 75t-30 124q0 49 25 99t71 84t109 34q119 0 193 -99 q55 -74 55 -213q0 -195 40 -281.5t153 -86.5h84v540q0 29 -10.5 39.5t-39.5 10.5h-143v65h688v-65h-143q-27 0 -38 -10.5t-11 -39.5v-540h84q113 0 152.5 87t39.5 281q0 139 55 213q74 98 193 99q63 0 109.5 -34t71 -84t24.5 -99q0 -74 -30 -124t-74 -75t-85 -25 q-61 0 -101 36t-40 89q0 72 66 127q35 29 34 60q0 31 -37 30q-51 0 -85.5 -59t-34.5 -190v-66q0 -203 -101 -283v-10q160 -29 244 -121t84 -276v-227q0 -86 57 -86q53 0 78 88t25 215h65q0 -225 -63 -324q-8 -24 -8 -55q0 -51 34 -144q12 -39 23.5 -79.5t11.5 -73.5 q0 -86 -86 -134t-225 -46v65q61 0 89 8t40 33t12 49q0 20 -12 66q-18 51 -18 96q0 27 8 50.5t21.5 47t19.5 39.5q-39 -16 -90 -16q-131 0 -208 77.5t-77 229.5v240q0 106 -35 168.5t-133 62.5h-98v-614q0 -27 11 -38t38 -11h143v-66h-688v66h143q29 0 39.5 11t10.5 38v614 h-99q-98 0 -133 -62.5t-35 -168.5v-240q0 -152 -76.5 -229.5t-207.5 -77.5q-137 0 -190.5 109.5t-53.5 308.5z" />
<glyph unicode="&#x497;" horiz-adv-x="1474" d="M49 258h53q0 -82 16.5 -139.5t55.5 -57.5q45 0 45 56v133q0 123 58.5 182.5t164.5 73.5v10q-31 20 -43 50t-12 77v141q0 66 -20.5 97.5t-49.5 31.5q-20 0 -20 -18q0 -14 16 -37q20 -31 21 -57q0 -45 -31 -70.5t-76 -25.5q-47 0 -87 37.5t-40 95.5q0 72 43 114.5t117 42.5 q76 0 130 -55t54 -158v-139q0 -53 20.5 -86t63.5 -33h90v365q0 18 -7 25.5t-25 7.5h-78v49h446v-49h-65q-18 0 -25.5 -7.5t-7.5 -25.5v-365h90q43 0 63.5 33t20.5 86v139q0 102 54.5 157.5t129.5 55.5q74 0 117 -43t43 -114q0 -57 -40 -95t-87 -38q-45 0 -75.5 25.5 t-30.5 70.5q0 27 20 57q16 23 17 37q0 18 -21 18q-29 0 -49.5 -31.5t-20.5 -97.5v-141q0 -47 -12 -76.5t-43 -50.5v-10q106 -14 164.5 -73.5t58.5 -182.5v-133q0 -55 45 -56q39 0 55.5 57.5t16.5 139.5h53q0 -152 -49 -219q-8 -23 -8 -47q0 -27 10.5 -64t22.5 -71 q12 -37 23.5 -77t11.5 -73q0 -84 -72 -129t-201 -43v53q100 0 123 50q14 31 14 63q0 33 -14 76q-2 8 -8 35.5t-6 56.5q0 49 28 113l-2 2q-25 -8 -61 -9q-100 0 -159.5 52.5t-59.5 152.5v162q0 57 -26.5 91t-67.5 34h-68v-385q0 -18 7 -25.5t26 -7.5h65v-49h-446v49h78 q18 0 25 7t7 26v385h-67q-41 0 -67.5 -34t-26.5 -91v-162q0 -100 -59.5 -152.5t-159.5 -52.5q-106 0 -147.5 75t-41.5 208z" />
<glyph unicode="&#x498;" horiz-adv-x="1302" d="M156 340q0 78 31.5 138.5t83 93t108.5 32.5q76 0 129 -47t53 -117q0 -74 -33.5 -109.5t-85.5 -54.5q-39 -14 -54 -37.5t-15 -58.5q0 -66 71.5 -108.5t169.5 -42.5q145 0 197.5 93t52.5 279q0 104 -12 177t-59.5 124.5t-141.5 51.5h-241v73h245q109 0 149 85t40 231 q0 143 -42 215t-134 72q-88 0 -170 -69t-142.5 -191.5t-85.5 -278.5h-65v588h65l29 -82q12 -37 41 -37q14 0 32.5 10t35.5 23q141 102 282 102q156 0 264.5 -54.5t162.5 -137t54 -170.5q0 -236 -290 -330v-21q137 -31 234 -131t97 -254q0 -178 -129 -290.5t-348 -137.5 l43 -213q12 -61 13 -92q0 -47 -36 -76.5t-87 -29.5t-87 29.5t-36 76.5q0 31 12 92l41 207q-117 2 -219.5 53.5t-162.5 136.5t-60 187z" />
<glyph unicode="&#x499;" horiz-adv-x="888" d="M102 217q0 61 40 104.5t96 43.5q47 0 78.5 -29t31.5 -68q0 -31 -12 -52t-43 -40q-43 -29 -43 -57q0 -49 44 -71.5t116 -22.5q70 0 106.5 64.5t36.5 182.5q0 90 -29.5 148.5t-99.5 58.5h-186v58h184q70 0 90 57t20 151q0 201 -116 201q-86 0 -150.5 -103.5t-89.5 -238.5 h-49v379h49l17 -49q8 -23 24 -23q12 0 39 21q88 63 195 63q150 0 234.5 -69.5t84.5 -175.5q0 -78 -61.5 -140.5t-155.5 -85.5v-12q262 -53 262 -262q0 -107 -81 -177.5t-228 -90.5l37 -166q10 -45 10 -72q0 -41 -30.5 -64.5t-76.5 -23.5q-45 0 -75.5 23.5t-30.5 64.5 q0 27 10 72l35 159q-115 6 -199 67.5t-84 174.5z" />
<glyph unicode="&#x49a;" horiz-adv-x="1507" d="M127 0v66h143q29 0 39 11t10 38v1228q0 29 -10 39.5t-39 10.5h-143v65h688v-65h-143q-27 0 -38 -10.5t-11 -39.5v-540h141q113 0 152.5 87t39.5 281q0 139 56 213q74 98 192 99q63 0 109.5 -34t71 -84t24.5 -99q0 -74 -29.5 -124t-73.5 -75t-85 -25q-61 0 -101.5 36 t-40.5 89q0 72 66 127q35 29 35 60t-37 30q-51 0 -86 -59t-35 -190v-66q0 -203 -100 -287v-10q160 -39 243.5 -126t83.5 -267v-227q0 -86 58 -86q53 0 77.5 88t24.5 215h66q0 -225 -64 -324q-8 -24 -8 -55q0 -51 35 -144q12 -39 23.5 -79.5t11.5 -73.5q0 -86 -86.5 -134 t-225.5 -46v65q61 0 89 8t40 33t13 49q0 20 -13 66q-18 51 -18 96q0 27 8 50.5t21.5 47t19.5 39.5q-39 -16 -90 -16q-131 0 -208 77.5t-77 229.5v240q0 98 -48 164.5t-148 66.5h-127v-614q0 -27 11 -38t38 -11h143v-66h-688z" />
<glyph unicode="&#x49b;" horiz-adv-x="1077" d="M82 0v49h78q18 0 25.5 7t7.5 26v807q0 18 -7.5 25.5t-25.5 7.5h-78v49h446v-49h-65q-18 0 -25.5 -7.5t-7.5 -25.5v-365h129q43 0 63.5 33t20.5 86v139q0 102 54.5 157.5t129.5 55.5q74 0 117 -43t43 -114q0 -57 -40 -95t-87 -38q-45 0 -75.5 25.5t-30.5 70.5q0 27 20 57 q16 23 17 37q0 18 -21 18q-29 0 -49.5 -31.5t-20.5 -97.5v-141q0 -47 -12 -76.5t-43 -50.5v-10q106 -14 164.5 -73.5t58.5 -182.5v-133q0 -55 45 -56q37 0 53.5 56.5t16.5 140.5h53q0 -152 -45 -217q-10 -20 -10 -49q0 -27 10 -64t23 -71q12 -37 23.5 -77t11.5 -73 q0 -84 -72 -129t-201 -43v53q100 0 123 50q14 31 14 63q0 33 -14 76q-2 8 -8 35.5t-6 56.5q0 49 28 113l-2 2q-25 -8 -61 -9q-100 0 -159.5 52.5t-59.5 152.5v162q0 57 -26.5 91t-67.5 34h-107v-385q0 -18 7 -25.5t26 -7.5h65v-49h-446z" />
<glyph unicode="&#x49c;" horiz-adv-x="1507" d="M127 0v66h143q29 0 39 11t10 38v1228q0 29 -10 39.5t-39 10.5h-143v65h688v-65h-143q-27 0 -38 -10.5t-11 -39.5v-540h98v215h65v-215q98 8 134 96t36 272q0 139 56 213q74 98 192 99q63 0 109.5 -34t71 -84t24.5 -99q0 -74 -29.5 -124t-73.5 -75t-85 -25 q-61 0 -101.5 36t-40.5 89q0 72 66 127q35 29 35 60t-37 30q-51 0 -86 -59t-35 -190v-66q0 -203 -100 -287v-10q160 -39 243.5 -126t83.5 -267v-227q0 -86 58 -86q53 0 77.5 88t24.5 215h66q0 -199 -53.5 -308.5t-190.5 -109.5q-131 0 -208 77.5t-77 229.5v240 q0 90 -39 153.5t-121 75.5v-211h-65v213h-98v-614q0 -27 11 -38t38 -11h143v-66h-688z" />
<glyph unicode="&#x49d;" horiz-adv-x="1077" d="M82 0v49h78q18 0 25.5 7t7.5 26v807q0 18 -7.5 25.5t-25.5 7.5h-78v49h446v-49h-65q-18 0 -25.5 -7.5t-7.5 -25.5v-365h80v170h65v-168q33 6 50.5 38t17.5 79v139q0 102 54.5 157.5t129.5 55.5q74 0 117 -43t43 -114q0 -57 -40 -95t-87 -38q-45 0 -75.5 25.5t-30.5 70.5 q0 27 20 57q16 23 17 37q0 18 -21 18q-29 0 -49.5 -31.5t-20.5 -97.5v-141q0 -47 -12 -76.5t-43 -50.5v-10q106 -14 164.5 -73.5t58.5 -182.5v-133q0 -55 45 -56q37 0 53.5 56.5t16.5 140.5h53q0 -135 -40 -209t-146 -74q-100 0 -159.5 52.5t-59.5 152.5v162q0 86 -56 117 v-144h-65v152h-80v-385q0 -18 7 -25.5t26 -7.5h65v-49h-446z" />
<glyph unicode="&#x4a0;" horiz-adv-x="1748" d="M123 848l16 610h918v-65h-144q-27 0 -38 -10.5t-11 -39.5v-540h142q113 0 152.5 87t39.5 281q0 139 55 213q74 98 193 99q63 0 109.5 -34t71 -84t24.5 -99q0 -74 -30 -124t-74 -75t-85 -25q-61 0 -101 36t-40 89q0 72 65 127q35 29 35 60t-37 30q-51 0 -85.5 -59 t-34.5 -190v-66q0 -203 -101 -287v-10q160 -39 244 -126t84 -267v-227q0 -86 57 -86q53 0 78 88t25 215h65q0 -199 -53 -308.5t-190 -109.5q-132 0 -208.5 77.5t-76.5 229.5v240q0 98 -48 164.5t-149 66.5h-127v-614q0 -27 11.5 -38t37.5 -11h144v-66h-688v66h143 q29 0 39 11t10 38v1208q0 33 -20.5 51.5t-55.5 18.5q-82 0 -147.5 -102.5t-106.5 -250.5q-23 -76 -32 -128t-11 -64h-65z" />
<glyph unicode="&#x4a1;" horiz-adv-x="1261" d="M74 565l12 406h627v-49h-66q-18 0 -25.5 -7.5t-7.5 -25.5v-365h129q43 0 63.5 33t20.5 86v139q0 102 54.5 157.5t130.5 55.5q74 0 116.5 -43t42.5 -114q0 -57 -39.5 -95t-87.5 -38q-45 0 -75.5 25.5t-30.5 70.5q0 27 20 57q16 23 17 37q0 18 -21 18q-29 0 -49 -31.5 t-20 -97.5v-141q0 -47 -12.5 -76.5t-43.5 -50.5v-10q106 -14 165 -73.5t59 -182.5v-133q0 -55 45 -56q37 0 53 56.5t16 140.5h54q0 -135 -40 -209t-147 -74q-100 0 -159.5 52.5t-59.5 152.5v162q0 57 -26.5 91t-67.5 34h-107v-385q0 -18 7.5 -25.5t25.5 -7.5h66v-49h-447v49 h78q18 0 25.5 7t7.5 26v807q0 20 -7.5 26.5t-25.5 6.5q-45 0 -87 -50.5t-69 -115.5q-29 -70 -42 -123t-15 -68h-57z" />
<glyph unicode="&#x4a2;" horiz-adv-x="1720" d="M127 0v66h143q29 0 39 11t10 38v1228q0 29 -10 39.5t-39 10.5h-143v65h688v-65h-143q-27 0 -38 -10.5t-11 -39.5v-540h483v540q0 29 -10.5 39.5t-38.5 10.5h-148v65h693v-65h-144q-27 0 -38 -10.5t-11 -39.5v-1196q0 -55 25.5 -76.5t83.5 -21.5h137v-459h-66 q-2 13 -12 54t-32.5 99t-55.5 110q-51 78 -100.5 112.5t-108.5 34.5h-367v66h144q29 0 39 11t10 38v614h-483v-614q0 -27 11 -38t38 -11h143v-66h-688z" />
<glyph unicode="&#x4a3;" horiz-adv-x="1159" d="M82 0v49h78q18 0 25.5 7t7.5 26v807q0 18 -7.5 25.5t-25.5 7.5h-78v49h446v-49h-65q-18 0 -25.5 -7.5t-7.5 -25.5v-352h299v352q0 18 -7 25.5t-26 7.5h-65v49h446v-49h-78q-18 0 -25 -7.5t-7 -25.5v-774q0 -51 26 -66h6h78v-8h66l12 -360h-57q-2 14 -16.5 65t-37.5 98 q-33 68 -75.5 112t-114.5 44h-223v49h65q18 0 25.5 7t7.5 26v397h-299v-397q0 -18 7 -25.5t26 -7.5h65v-49h-446z" />
<glyph unicode="&#x4a4;" horiz-adv-x="2088" d="M127 0v66h143q29 0 39 11t10 38v1228q0 29 -10 39.5t-39 10.5h-143v65h688v-65h-143q-27 0 -38 -10.5t-11 -39.5v-540h483v540q0 29 -10.5 39.5t-38.5 10.5h-148v65h1082l16 -612h-65q-4 14 -17.5 66.5t-37 121t-52.5 121.5q-129 238 -276 238h-101q-27 0 -38 -10.5 t-11 -39.5v-1228q0 -27 11.5 -38t37.5 -11h144v-66h-689v66h144q29 0 39 11t10 38v614h-483v-614q0 -27 11 -38t38 -11h143v-66h-688z" />
<glyph unicode="&#x4a5;" horiz-adv-x="1433" d="M82 0v49h78q18 0 25.5 7t7.5 26v807q0 18 -7.5 25.5t-25.5 7.5h-78v49h446v-49h-65q-18 0 -25.5 -7.5t-7.5 -25.5v-352h299v352q0 18 -7 25.5t-26 7.5h-65v49h717l12 -406h-57q0 10 -13.5 61.5t-44.5 121.5q-29 68 -81 121t-113 53h-52q-18 0 -25 -7.5t-7 -25.5v-807 q0 -18 7 -25.5t25 -7.5h78v-49h-446v49h65q18 0 25.5 7t7.5 26v397h-299v-397q0 -18 7 -25.5t26 -7.5h65v-49h-446z" />
<glyph unicode="&#x4aa;" horiz-adv-x="1351" d="M143 729q0 207 70 382t200 279.5t304 104.5q76 0 140.5 -25.5t135.5 -74.5q47 -31 70 -31q16 0 26.5 9t18.5 30l37 76h67v-629h-65q-47 264 -163 422t-267 158q-96 0 -160.5 -94.5t-64.5 -299.5v-614q0 -203 72.5 -298t172.5 -95q244 0 363 223q59 109 80 311h73 q-6 -90 -27.5 -181t-56.5 -159q-55 -106 -144 -171.5t-208 -82.5l43 -213q12 -61 12 -92q0 -47 -35.5 -76.5t-86.5 -29.5t-87 29.5t-36 76.5q0 31 12 92l43 209q-172 16 -294 127t-183.5 279t-61.5 358z" />
<glyph unicode="&#x4ab;" horiz-adv-x="958" d="M98 485q0 139 54.5 256t154 185.5t223.5 68.5q98 0 165 -41t99.5 -104.5t32.5 -130.5q0 -74 -45 -128t-108 -54q-47 0 -78 27.5t-31 74.5q0 55 66 109q49 41 49 83q0 43 -32 79t-101 36q-96 0 -141.5 -122t-45.5 -339q0 -109 4.5 -169t18.5 -113q18 -76 70.5 -121 t121.5 -45q100 0 162 88t74 207h53q-10 -119 -71.5 -219.5t-180.5 -128.5l37 -168q10 -45 10 -72q0 -41 -30.5 -64.5t-75.5 -23.5t-76 23.5t-31 64.5q0 27 11 72l37 161q-117 10 -207 81t-139.5 182.5t-49.5 244.5z" />
<glyph unicode="&#x4ae;" horiz-adv-x="1507" d="M94 1393v65h643v-65h-57q-29 0 -43 -20.5t-14 -45.5q0 -33 12 -57l270 -588l189 469q29 66 28 117q0 49 -26.5 87t-83.5 38h-58v65h508v-65h-61q-70 0 -116 -44t-71 -106l-276 -674v-454q0 -27 11.5 -38t37.5 -11h131v-66h-663v66h131q29 0 39 11t10 38v436l-348 752 q-25 51 -51.5 70.5t-69.5 19.5h-72z" />
<glyph unicode="&#x4af;" horiz-adv-x="1085" d="M37 922v49h502v-49h-60q-18 0 -33.5 -14.5t-15.5 -39.5q0 -20 12 -57l183 -506l161 449q14 45 15 90q0 29 -20.5 53.5t-51.5 24.5h-53v49h348v-49h-45q-70 0 -115 -127l-209 -580v-600q0 -18 7.5 -25.5t25.5 -7.5h115v-49h-533v49h115q18 0 25.5 7.5t7.5 25.5v596 l-215 592q-23 66 -50.5 92.5t-80.5 26.5h-35z" />
<glyph unicode="&#x4b0;" horiz-adv-x="1507" d="M94 1393v65h643v-65h-57q-29 0 -43 -20.5t-14 -45.5q0 -33 12 -57l270 -588l189 469q29 66 28 117q0 49 -26.5 87t-83.5 38h-58v65h508v-65h-61q-70 0 -116 -44t-71 -106l-264 -645h195v-66h-207v-417q0 -27 11.5 -38t37.5 -11h131v-66h-663v66h131q29 0 39 11t10 38v417 h-219v66h196l-325 705q-25 51 -51.5 70.5t-69.5 19.5h-72z" />
<glyph unicode="&#x4b1;" horiz-adv-x="1085" d="M37 922v49h502v-49h-60q-18 0 -33.5 -14.5t-15.5 -39.5q0 -20 12 -57l183 -506l161 449q14 45 15 90q0 29 -20.5 53.5t-51.5 24.5h-53v49h348v-49h-45q-70 0 -115 -127l-209 -580v-182h250v-66h-250v-352q0 -18 7.5 -25.5t25.5 -7.5h115v-49h-533v49h115q18 0 25.5 7.5 t7.5 25.5v352h-242v66h242v178l-215 592q-23 66 -50.5 92.5t-80.5 26.5h-35z" />
<glyph unicode="&#x4b6;" horiz-adv-x="1642" d="M106 1393v65h660v-65h-115q-27 0 -38 -10.5t-11 -39.5v-456q0 -100 41 -139t119 -39h266v634q0 29 -10 39.5t-39 10.5h-115v65h660v-65h-144q-27 0 -38 -10.5t-11 -39.5v-1196q0 -55 25.5 -76.5t83.5 -21.5h137v-459h-66q-2 12 -12 53.5t-32.5 99.5t-55.5 110 q-51 78 -100 112.5t-109 34.5h-366v66h143q29 0 39 11t10 38v528h-364q-365 0 -365 336v364q0 29 -10 39.5t-39 10.5h-144z" />
<glyph unicode="&#x4b7;" horiz-adv-x="1069" d="M41 922v49h446v-49h-65q-18 0 -25.5 -7.5t-7.5 -25.5v-359q0 -51 18.5 -73.5t59.5 -22.5q35 0 86 11.5t86 23.5v420q0 18 -7 25.5t-26 7.5h-65v49h446v-49h-78q-18 0 -25 -7.5t-7 -25.5v-774q0 -51 26 -66h6h78v-8h66l12 -360h-57q-2 14 -16.5 66t-37.5 97 q-33 68 -75.5 112t-114.5 44h-236v49h78q18 0 25.5 7t7.5 26v338q-141 -43 -254 -43q-102 0 -167.5 54t-65.5 159v299q0 18 -7.5 25.5t-25.5 7.5h-78z" />
<glyph unicode="&#x4b8;" horiz-adv-x="1609" d="M106 1393v65h660v-65h-115q-27 0 -38 -10.5t-11 -39.5v-456q0 -100 41 -139t119 -39h37v223h65v-223h164v634q0 29 -10 39.5t-39 10.5h-115v65h660v-65h-144q-26 0 -37.5 -10.5t-11.5 -39.5v-1228q0 -27 11.5 -38t37.5 -11h144v-66h-688v66h143q29 0 39 11t10 38v528 h-164v-213h-65v213h-135q-365 0 -365 336v364q0 29 -10 39.5t-39 10.5h-144z" />
<glyph unicode="&#x4b9;" horiz-adv-x="1069" d="M41 922v49h446v-49h-65q-18 0 -25.5 -7.5t-7.5 -25.5v-359q0 -51 18.5 -73.5t59.5 -22.5q16 0 25 2v172h65v-162q51 10 82 23v420q0 18 -7 25.5t-26 7.5h-65v49h446v-49h-78q-18 0 -25 -7.5t-7 -25.5v-807q0 -18 7 -25.5t25 -7.5h78v-49h-459v49h78q18 0 25.5 7t7.5 26 v338q-66 -18 -82 -23v-168h-65v156q-47 -8 -107 -8q-102 0 -167.5 54t-65.5 159v299q0 18 -7.5 25.5t-25.5 7.5h-78z" />
<glyph unicode="&#x4ba;" horiz-adv-x="1609" d="M86 0v66h143q29 0 39.5 11t10.5 38v1228q0 29 -10.5 39.5t-39.5 10.5h-143v65h688v-65h-143q-27 0 -38 -10.5t-11 -39.5v-528h364q365 0 365 -336v-364q0 -27 11 -38t38 -11h143v-66h-659v66h114q29 0 39.5 11t10.5 38v456q0 100 -41 139.5t-119 39.5h-266v-635 q0 -27 11 -38t38 -11h114v-66h-659z" />
<glyph unicode="&#x4bb;" horiz-adv-x="1146" d="M53 0v49h115q18 0 25.5 7t7.5 26v1294q0 18 -7.5 25.5t-25.5 7.5h-115v49h385v-670l11 -2q41 96 105 152.5t148 56.5q51 0 88 -11t70 -34q51 -37 81 -102.5t30 -134.5v-631q0 -18 7 -25.5t26 -7.5h77v-49h-446v49h65q18 0 25.5 7t7.5 26v690q0 158 -94 158 q-43 0 -90 -57.5t-79 -151.5t-32 -201v-438q0 -18 7.5 -25.5t25.5 -7.5h66v-49h-484z" />
<glyph unicode="&#x4c0;" horiz-adv-x="901" d="M127 0v66h143q29 0 39 11t10 38v1228q0 29 -10 39.5t-39 10.5h-143v65h688v-65h-143q-27 0 -38 -10.5t-11 -39.5v-1228q0 -27 11 -38t38 -11h143v-66h-688z" />
<glyph unicode="&#x4c1;" horiz-adv-x="2015" d="M82 369h65q0 -127 25 -215t78 -88q57 0 57 86v227q0 184 84 276.5t244 120.5v10q-100 80 -100 283v66q0 131 -35 190t-86 59q-37 0 -37 -30q0 -31 35 -60q66 -55 65 -127q0 -53 -40 -89t-101 -36q-41 0 -85 25t-74 75t-30 124q0 49 25 99t71 84t109 34q119 0 193 -99 q55 -74 55 -213q0 -195 40 -281.5t153 -86.5h84v540q0 29 -10.5 39.5t-39.5 10.5h-143v65h688v-65h-143q-27 0 -38 -10.5t-11 -39.5v-540h84q113 0 152.5 87t39.5 281q0 139 55 213q74 98 193 99q63 0 109.5 -34t71 -84t24.5 -99q0 -74 -30 -124t-74 -75t-85 -25 q-61 0 -101 36t-40 89q0 72 66 127q35 29 34 60q0 31 -37 30q-51 0 -85.5 -59t-34.5 -190v-66q0 -203 -101 -283v-10q160 -29 244 -121t84 -276v-227q0 -86 57 -86q53 0 78 88t25 215h65q0 -199 -53 -308.5t-190 -109.5q-131 0 -208 77.5t-77 229.5v240q0 106 -35 168.5 t-133 62.5h-98v-614q0 -27 11 -38t38 -11h143v-66h-688v66h143q29 0 39.5 11t10.5 38v614h-99q-98 0 -133 -62.5t-35 -168.5v-240q0 -152 -76.5 -229.5t-207.5 -77.5q-138 0 -191 109.5t-53 308.5zM711 1876h65q39 -184 252 -184t252 184h66q0 -68 -36 -141.5t-109 -123.5 t-173 -50t-173 50t-108.5 123.5t-35.5 141.5z" />
<glyph unicode="&#x4c2;" horiz-adv-x="1474" d="M49 258h53q0 -82 16.5 -139.5t55.5 -57.5q45 0 45 56v133q0 123 58.5 182.5t164.5 73.5v10q-31 20 -43 50t-12 77v141q0 66 -20.5 97.5t-49.5 31.5q-20 0 -20 -18q0 -14 16 -37q20 -31 21 -57q0 -45 -31 -70.5t-76 -25.5q-47 0 -87 37.5t-40 95.5q0 72 43 114.5t117 42.5 q76 0 130 -55t54 -158v-139q0 -53 20.5 -86t63.5 -33h90v365q0 18 -7 25.5t-25 7.5h-78v49h446v-49h-65q-18 0 -25.5 -7.5t-7.5 -25.5v-365h90q43 0 63.5 33t20.5 86v139q0 102 54.5 157.5t129.5 55.5q74 0 117 -43t43 -114q0 -57 -40 -95t-87 -38q-45 0 -75.5 25.5 t-30.5 70.5q0 27 20 57q16 23 17 37q0 18 -21 18q-29 0 -49.5 -31.5t-20.5 -97.5v-141q0 -47 -12 -76.5t-43 -50.5v-10q106 -14 164.5 -73.5t58.5 -182.5v-133q0 -55 45 -56q39 0 55.5 57.5t16.5 139.5h53q0 -133 -41 -208t-147 -75q-100 0 -159.5 52.5t-59.5 152.5v162 q0 57 -26.5 91t-67.5 34h-68v-385q0 -18 7 -25.5t26 -7.5h65v-49h-446v49h78q18 0 25 7t7 26v385h-67q-41 0 -67.5 -34t-26.5 -91v-162q0 -100 -59.5 -152.5t-159.5 -52.5q-107 0 -148 75t-41 208zM451 1421h57q16 -82 74.5 -129t154.5 -47t154.5 47t75.5 129h57 q-12 -139 -88 -227t-199 -88t-198.5 88t-87.5 227z" />
<glyph unicode="&#x4cb;" horiz-adv-x="1609" d="M106 1393v65h660v-65h-115q-27 0 -38 -10.5t-11 -39.5v-456q0 -100 41 -139t119 -39h266v634q0 29 -10 39.5t-39 10.5h-115v65h660v-65h-144q-26 0 -37.5 -10.5t-11.5 -39.5v-1228q0 -27 11.5 -38t37.5 -11h144v-66h-398q-72 0 -114.5 -44t-75.5 -112q-23 -45 -37 -97 t-16 -66h-58l11 319v66h143q29 0 39 11t10 38v528h-364q-365 0 -365 336v364q0 29 -10 39.5t-39 10.5h-144z" />
<glyph unicode="&#x4cc;" horiz-adv-x="1069" d="M41 922v49h446v-49h-65q-18 0 -25.5 -7.5t-7.5 -25.5v-359q0 -51 18.5 -73.5t59.5 -22.5q35 0 86 11.5t86 23.5v420q0 18 -7 25.5t-26 7.5h-65v49h446v-49h-78q-18 0 -25 -7.5t-7 -25.5v-807q0 -18 7 -25.5t25 -7.5h78v-49h-170q-72 0 -115 -44t-75 -112 q-23 -45 -37.5 -97t-16.5 -66h-57l12 360v8h78q18 0 25.5 7t7.5 26v338q-141 -43 -254 -43q-102 0 -167.5 54t-65.5 159v299q0 18 -7.5 25.5t-25.5 7.5h-78z" />
<glyph unicode="&#x4cf;" horiz-adv-x="630" d="M53 0v49h115q18 0 25.5 7t7.5 26v1294q0 18 -7.5 25.5t-25.5 7.5h-115v49h385v-1376q0 -18 7.5 -25.5t25.5 -7.5h115v-49h-533z" />
<glyph unicode="&#x4d0;" horiz-adv-x="1544" d="M90 0v66h70q61 0 108 48t72 117l432 1264h86l438 -1325q35 -104 121 -104h82v-66h-719v66h148q25 0 40 19t15 46q0 23 -12 59l-66 197h-430l-43 -125q-23 -57 -22 -104q0 -37 29.5 -64.5t76.5 -27.5h96v-66h-522zM502 463h379l-187 563zM539 1777q0 59 33.5 95t83.5 36 q39 0 59 -21.5t20 -51.5q0 -43 -41 -66q-20 -12 -30 -21.5t-10 -25.5q0 -72 159 -72q160 0 160 72q0 16 -10 25.5t-31 21.5q-41 23 -41 66q0 31 20.5 52t59.5 21q49 0 83 -35.5t34 -95.5q0 -86 -83 -135t-192 -49q-108 0 -191 49t-83 135z" />
<glyph unicode="&#x4d1;" horiz-adv-x="1040" d="M94 217q0 133 97.5 210t246.5 128l152 53v140q0 104 -43 151t-111 47q-57 0 -99 -25.5t-42 -70.5q0 -12 7 -29.5t26 -29.5q31 -18 44 -39t13 -54q0 -49 -36 -76.5t-79 -27.5q-53 0 -91 36t-38 103q0 78 47.5 138.5t121 92t149.5 31.5q147 0 257.5 -78.5t110.5 -250.5 v-519q0 -74 41 -73q37 0 55.5 61.5t18.5 140.5h57q0 -150 -45 -219q-23 -37 -63.5 -59.5t-93.5 -22.5q-84 0 -127 26t-72 85h-4q-82 -111 -229 -111q-113 0 -192 55.5t-79 186.5zM184 1290q0 59 33.5 95t83.5 36q39 0 59 -21.5t20 -51.5q0 -43 -41 -66q-20 -12 -30 -21.5 t-10 -25.5q0 -72 159 -72q160 0 160 72q0 16 -10 25.5t-31 21.5q-41 23 -41 66q0 31 20.5 52t59.5 21q49 0 83 -35.5t34 -95.5q0 -86 -83 -135t-192 -49q-108 0 -191 49t-83 135zM344 236q0 -100 37 -139.5t84 -39.5q80 0 125 90v406l-115 -41q-68 -25 -99.5 -93.5 t-31.5 -182.5z" />
<glyph unicode="&#x4d2;" horiz-adv-x="1544" d="M90 0v66h70q61 0 108 48t72 117l432 1264h86l438 -1325q35 -104 121 -104h82v-66h-719v66h148q25 0 40 19t15 46q0 23 -12 59l-66 197h-430l-43 -125q-23 -57 -22 -104q0 -37 29.5 -64.5t76.5 -27.5h96v-66h-522zM473 1749q0 51 36 87t87 36t87 -36t36 -87t-36 -87 t-87 -36t-87 36t-36 87zM502 463h379l-187 563zM907 1749q0 51 36 87t87 36t87 -36t36 -87t-35.5 -87t-87.5 -36q-51 0 -87 36t-36 87z" />
<glyph unicode="&#x4d3;" horiz-adv-x="1040" d="M94 217q0 133 97.5 210t246.5 128l152 53v140q0 104 -43 151t-111 47q-57 0 -99 -25.5t-42 -70.5q0 -12 7 -29.5t26 -29.5q31 -18 44 -39t13 -54q0 -49 -36 -76.5t-79 -27.5q-53 0 -91 36t-38 103q0 78 47.5 138.5t121 92t149.5 31.5q147 0 257.5 -78.5t110.5 -250.5 v-519q0 -74 41 -73q37 0 55.5 61.5t18.5 140.5h57q0 -150 -45 -219q-23 -37 -63.5 -59.5t-93.5 -22.5q-84 0 -127 26t-72 85h-4q-82 -111 -229 -111q-113 0 -192 55.5t-79 186.5zM139 1266q0 51 36 87t87 36t87 -36t36 -87t-36 -87t-87 -36t-87 35.5t-36 87.5zM344 236 q0 -100 37 -139.5t84 -39.5q80 0 125 90v406l-115 -41q-68 -25 -99.5 -93.5t-31.5 -182.5zM532 1266q0 51 36 87t87 36t87 -36t36 -87t-35.5 -87t-87.5 -36q-51 0 -87 35.5t-36 87.5z" />
<glyph unicode="&#x4d4;" horiz-adv-x="2056" d="M53 0v66h47q74 0 141.5 51t108.5 129l494 964q25 49 35 76t10 53q0 23 -15.5 38.5t-44.5 15.5h-59v65h1163l13 -475h-66q0 14 -21.5 92t-60.5 142q-47 82 -108.5 129t-137.5 47h-225q-27 0 -38 -10.5t-11 -39.5v-565h104q55 0 102.5 45t75 111.5t27.5 126.5h66v-641h-66 q0 61 -27.5 127.5t-74.5 112t-103 45.5h-104v-590q0 -27 11 -38t38 -11h223q113 0 189 90t114 200q16 47 28.5 117t14.5 92h66l-12 -565h-1170v66h144q29 0 39 11t10 38v315h-428l-47 -90q-23 -41 -41.5 -93t-18.5 -77q0 -104 101 -104h67v-66h-553zM580 504h393v766z" />
<glyph unicode="&#x4d5;" horiz-adv-x="1433" d="M94 219q0 135 98.5 210t245.5 126l152 53v140q0 104 -45 151t-113 47q-55 0 -96 -25.5t-41 -70.5q0 -12 7 -29.5t26 -29.5q31 -18 44 -39t13 -54q0 -49 -36 -76.5t-79 -27.5q-53 0 -91 36t-38 103q0 80 45 139.5t115 91t145 31.5q164 0 271 -90q51 47 120.5 68.5 t141.5 21.5q125 0 215 -89t119 -234q14 -66 14 -205h-500q0 -98 4.5 -154.5t18.5 -109.5q18 -76 70.5 -121t121.5 -45q100 0 162 88t74 207h53q-12 -141 -92 -249t-238 -108q-100 0 -189 42t-140 118q-55 -76 -130 -118t-186 -42q-106 0 -184 57.5t-78 186.5zM344 236 q0 -100 37 -139.5t78 -39.5q80 0 131 78v416l-115 -39q-131 -45 -131 -276zM827 524h263q0 215 -28 318.5t-104 103.5t-103.5 -103.5t-27.5 -318.5z" />
<glyph unicode="&#x4d6;" horiz-adv-x="1413" d="M127 0v66h143q29 0 39 11t10 38v1228q0 29 -10 39.5t-39 10.5h-143v65h1151l12 -475h-65q0 14 -21.5 92t-60.5 142q-47 82 -108.5 129t-137.5 47h-225q-27 0 -38 -10.5t-11 -39.5v-565h104q55 0 102.5 45t75 111.5t27.5 126.5h65v-641h-65q0 61 -27.5 127.5t-75 112 t-102.5 45.5h-104v-590q0 -27 11 -38t38 -11h223q113 0 188.5 90t114.5 200q16 47 28.5 117t14.5 92h66l-13 -565h-1167zM508 1777q0 59 33.5 95t83.5 36q39 0 59 -21.5t20 -51.5q0 -43 -41 -66q-20 -12 -30 -21.5t-10 -25.5q0 -72 159 -72q160 0 160 72q0 16 -10 25.5 t-31 21.5q-41 23 -41 66q0 31 20.5 52t59.5 21q49 0 83 -35.5t34 -95.5q0 -86 -83 -135t-192 -49q-108 0 -191 49t-83 135z" />
<glyph unicode="&#x4d7;" horiz-adv-x="966" d="M98 485q0 143 55.5 260t150.5 183.5t208 66.5q125 0 215 -89t119 -234q14 -66 14 -205h-500q0 -98 4.5 -154.5t18.5 -109.5q18 -76 70.5 -121t121.5 -45q100 0 162 88t74 207h53q-12 -141 -92 -249t-237 -108q-127 0 -226.5 69t-155 185.5t-55.5 255.5zM209 1290 q0 59 33.5 95t83.5 36q39 0 59 -21.5t20 -51.5q0 -43 -41 -66q-20 -12 -30 -21.5t-10 -25.5q0 -72 159 -72q160 0 160 72q0 16 -10 25.5t-31 21.5q-41 23 -41 66q0 31 20.5 52t59.5 21q49 0 83 -35.5t34 -95.5q0 -86 -83 -135t-192 -49q-108 0 -191 49t-83 135zM360 524h263 q0 215 -28 318.5t-103 103.5q-76 0 -104 -103.5t-28 -318.5z" />
<glyph unicode="&#x4d8;" horiz-adv-x="1392" d="M143 754h799v209q-4 233 -71.5 350t-223.5 117q-94 0 -176 -58.5t-135 -150.5q-55 -96 -96 -265h-74q12 63 41 145.5t67 147.5q143 246 404 246q197 0 335 -97.5t207.5 -264t69.5 -371.5q0 -250 -75.5 -430t-209 -274.5t-298.5 -94.5q-164 0 -292 98.5t-200 277.5 t-72 415zM492 498q0 -227 59 -348t166 -121q110 0 167.5 119.5t57.5 351.5v178h-450v-180z" />
<glyph unicode="&#x4d9;" horiz-adv-x="966" d="M102 639q12 141 92 248.5t238 107.5q127 0 226.5 -68.5t154.5 -185t55 -256.5q0 -143 -55 -259.5t-150.5 -183.5t-207.5 -67q-125 0 -215 89.5t-119 234.5q-14 66 -15 205h500q0 98 -4 154.5t-18 109.5q-18 76 -70.5 121t-122.5 45q-100 0 -161.5 -88t-73.5 -207h-54z M344 446q0 -215 27.5 -318t103.5 -103t103.5 103t27.5 318h-262z" />
<glyph unicode="&#x4dc;" horiz-adv-x="2015" d="M82 369h65q0 -127 25 -215t78 -88q57 0 57 86v227q0 184 84 276.5t244 120.5v10q-100 80 -100 283v66q0 131 -35 190t-86 59q-37 0 -37 -30q0 -31 35 -60q66 -55 65 -127q0 -53 -40 -89t-101 -36q-41 0 -85 25t-74 75t-30 124q0 49 25 99t71 84t109 34q119 0 193 -99 q55 -74 55 -213q0 -195 40 -281.5t153 -86.5h84v540q0 29 -10.5 39.5t-39.5 10.5h-143v65h688v-65h-143q-27 0 -38 -10.5t-11 -39.5v-540h84q113 0 152.5 87t39.5 281q0 139 55 213q74 98 193 99q63 0 109.5 -34t71 -84t24.5 -99q0 -74 -30 -124t-74 -75t-85 -25 q-61 0 -101 36t-40 89q0 72 66 127q35 29 34 60q0 31 -37 30q-51 0 -85.5 -59t-34.5 -190v-66q0 -203 -101 -283v-10q160 -29 244 -121t84 -276v-227q0 -86 57 -86q53 0 78 88t25 215h65q0 -199 -53 -308.5t-190 -109.5q-131 0 -208 77.5t-77 229.5v240q0 106 -35 168.5 t-133 62.5h-98v-614q0 -27 11 -38t38 -11h143v-66h-688v66h143q29 0 39.5 11t10.5 38v614h-99q-98 0 -133 -62.5t-35 -168.5v-240q0 -152 -76.5 -229.5t-207.5 -77.5q-138 0 -191 109.5t-53 308.5zM667 1749q0 51 36 87t87 36t87 -36t36 -87t-36 -87t-87 -36t-87 36t-36 87z M1101 1749q0 51 36 87t87 36t87 -36t36 -87t-35.5 -87t-87.5 -36q-51 0 -87 36t-36 87z" />
<glyph unicode="&#x4dd;" horiz-adv-x="1474" d="M49 258h53q0 -82 16.5 -139.5t55.5 -57.5q45 0 45 56v133q0 123 58.5 182.5t164.5 73.5v10q-31 20 -43 50t-12 77v141q0 66 -20.5 97.5t-49.5 31.5q-20 0 -20 -18q0 -14 16 -37q20 -31 21 -57q0 -45 -31 -70.5t-76 -25.5q-47 0 -87 37.5t-40 95.5q0 72 43 114.5t117 42.5 q76 0 130 -55t54 -158v-139q0 -53 20.5 -86t63.5 -33h90v365q0 18 -7 25.5t-25 7.5h-78v49h446v-49h-65q-18 0 -25.5 -7.5t-7.5 -25.5v-365h90q43 0 63.5 33t20.5 86v139q0 102 54.5 157.5t129.5 55.5q74 0 117 -43t43 -114q0 -57 -40 -95t-87 -38q-45 0 -75.5 25.5 t-30.5 70.5q0 27 20 57q16 23 17 37q0 18 -21 18q-29 0 -49.5 -31.5t-20.5 -97.5v-141q0 -47 -12 -76.5t-43 -50.5v-10q106 -14 164.5 -73.5t58.5 -182.5v-133q0 -55 45 -56q39 0 55.5 57.5t16.5 139.5h53q0 -133 -41 -208t-147 -75q-100 0 -159.5 52.5t-59.5 152.5v162 q0 57 -26.5 91t-67.5 34h-68v-385q0 -18 7 -25.5t26 -7.5h65v-49h-446v49h78q18 0 25 7t7 26v385h-67q-41 0 -67.5 -34t-26.5 -91v-162q0 -100 -59.5 -152.5t-159.5 -52.5q-107 0 -148 75t-41 208zM418 1266q0 51 36 87t87 36t87 -36t36 -87t-36 -87t-87 -36t-87 35.5 t-36 87.5zM811 1266q0 51 36 87t87 36t87 -36t36 -87t-35.5 -87t-87.5 -36q-51 0 -87 35.5t-36 87.5z" />
<glyph unicode="&#x4de;" horiz-adv-x="1302" d="M156 340q0 78 31.5 138.5t83 93t108.5 32.5q76 0 129 -47t53 -117q0 -74 -33.5 -109.5t-85.5 -54.5q-39 -14 -54 -37.5t-15 -58.5q0 -66 71.5 -108.5t169.5 -42.5q145 0 197.5 93t52.5 279q0 104 -12 177t-59.5 124.5t-141.5 51.5h-241v73h245q109 0 149 85t40 231 q0 143 -42 215t-134 72q-88 0 -170 -69t-142.5 -191.5t-85.5 -278.5h-65v588h65l29 -82q12 -37 41 -37q14 0 32.5 10t35.5 23q141 102 282 102q156 0 264.5 -54.5t162.5 -137t54 -170.5q0 -236 -290 -330v-21q137 -31 234 -131t97 -254q0 -135 -75.5 -233t-210.5 -149.5 t-312 -51.5q-120 0 -225.5 50t-169 136.5t-63.5 190.5zM354 1749q0 51 36 87t87 36t87 -36t36 -87t-36 -87t-87 -36t-87 36t-36 87zM788 1749q0 51 36 87t87 36t87 -36t36 -87t-35.5 -87t-87.5 -36q-51 0 -87 36t-36 87z" />
<glyph unicode="&#x4df;" horiz-adv-x="888" d="M102 217q0 61 40 104.5t96 43.5q47 0 78.5 -29t31.5 -68q0 -31 -12 -52t-43 -40q-43 -29 -43 -57q0 -49 44 -71.5t116 -22.5q70 0 106.5 64.5t36.5 182.5q0 90 -29.5 148.5t-99.5 58.5h-186v58h184q70 0 90 57t20 151q0 201 -116 201q-86 0 -150.5 -103.5t-89.5 -238.5 h-49v379h49l17 -49q8 -23 24 -23q12 0 39 21q88 63 195 63q150 0 234.5 -69.5t84.5 -175.5q0 -78 -61.5 -140.5t-155.5 -85.5v-12q262 -53 262 -262q0 -125 -109.5 -200t-304.5 -75q-120 0 -209.5 62.5t-89.5 179.5zM125 1266q0 51 36 87t87 36t87 -36t36 -87t-36 -87 t-87 -36t-87 35.5t-36 87.5zM518 1266q0 51 36 87t87 36t87 -36t36 -87t-35.5 -87t-87.5 -36q-51 0 -87 35.5t-36 87.5z" />
<glyph unicode="&#x4e2;" horiz-adv-x="1687" d="M127 0v66h143q29 0 39 11t10 38v1228q0 29 -10 39.5t-39 10.5h-143v65h688v-65h-143q-27 0 -38 -10.5t-11 -39.5v-1017l483 956v61q0 29 -10.5 39.5t-38.5 10.5h-148v65h693v-65h-144q-27 0 -38 -10.5t-11 -39.5v-1228q0 -27 11.5 -38t37.5 -11h144v-66h-689v66h144 q29 0 39 11t10 38v1020l-483 -959v-61q0 -27 11 -38t38 -11h143v-66h-688zM549 1659v131h606v-131h-606z" />
<glyph unicode="&#x4e3;" horiz-adv-x="1171" d="M82 0v49h78q18 0 25.5 7t7.5 26v807q0 18 -7.5 25.5t-25.5 7.5h-78v49h446v-49h-65q-18 0 -25.5 -7.5t-7.5 -25.5v-647l311 610v37q0 18 -7 25.5t-25 7.5h-66v49h447v-49h-78q-18 0 -25.5 -7.5t-7.5 -25.5v-807q0 -18 7 -25.5t26 -7.5h78v-49h-447v49h66q18 0 25 7t7 26 v647l-311 -610v-37q0 -18 7 -25.5t26 -7.5h65v-49h-446zM320 1196v131h532v-131h-532z" />
<glyph unicode="&#x4e4;" horiz-adv-x="1687" d="M127 0v66h143q29 0 39 11t10 38v1228q0 29 -10 39.5t-39 10.5h-143v65h688v-65h-143q-27 0 -38 -10.5t-11 -39.5v-1017l483 956v61q0 29 -10.5 39.5t-38.5 10.5h-148v65h693v-65h-144q-27 0 -38 -10.5t-11 -39.5v-1228q0 -27 11.5 -38t37.5 -11h144v-66h-689v66h144 q29 0 39 11t10 38v1020l-483 -959v-61q0 -27 11 -38t38 -11h143v-66h-688zM512 1749q0 51 36 87t87 36t87 -36t36 -87t-36 -87t-87 -36t-87 36t-36 87zM946 1749q0 51 36 87t87 36t87 -36t36 -87t-35.5 -87t-87.5 -36q-51 0 -87 36t-36 87z" />
<glyph unicode="&#x4e5;" horiz-adv-x="1171" d="M82 0v49h78q18 0 25.5 7t7.5 26v807q0 18 -7.5 25.5t-25.5 7.5h-78v49h446v-49h-65q-18 0 -25.5 -7.5t-7.5 -25.5v-647l311 610v37q0 18 -7 25.5t-25 7.5h-66v49h447v-49h-78q-18 0 -25.5 -7.5t-7.5 -25.5v-807q0 -18 7 -25.5t26 -7.5h78v-49h-447v49h66q18 0 25 7t7 26 v647l-311 -610v-37q0 -18 7 -25.5t26 -7.5h65v-49h-446zM266 1266q0 51 36 87t87 36t87 -36t36 -87t-36 -87t-87 -36t-87 35.5t-36 87.5zM659 1266q0 51 36 87t87 36t87 -36t36 -87t-35.5 -87t-87.5 -36q-51 0 -87 35.5t-36 87.5z" />
<glyph unicode="&#x4e6;" horiz-adv-x="1458" d="M143 729q0 195 84 372t224.5 285.5t298.5 108.5t298 -108.5t224 -285.5t84 -372t-84 -372t-224.5 -285.5t-297.5 -108.5q-158 0 -298.5 108.5t-224.5 286t-84 371.5zM401 1749q0 51 36 87t87 36t87 -36t36 -87t-36 -87t-87 -36t-87 36t-36 87zM492 422q0 -211 66.5 -302 t191.5 -91q124 0 191 91t67 302v614q0 211 -67 302.5t-191 91.5q-125 0 -191.5 -91.5t-66.5 -302.5v-614zM835 1749q0 51 36 87t87 36t87 -36t36 -87t-35.5 -87t-87.5 -36q-51 0 -87 36t-36 87z" />
<glyph unicode="&#x4e7;" horiz-adv-x="1032" d="M98 485q0 143 57.5 260t154 183.5t206.5 66.5q111 0 207 -66.5t153.5 -183t57.5 -260.5q0 -143 -57.5 -259.5t-153.5 -183.5t-207 -67q-110 0 -206.5 67t-154 183.5t-57.5 259.5zM196 1266q0 51 36 87t87 36t87 -36t36 -87t-36 -87t-87 -36t-87 35.5t-36 87.5zM360 485 q0 -244 34 -352t122 -108t122 108.5t34 351.5q0 244 -34 352.5t-122 108.5t-122 -108.5t-34 -352.5zM589 1266q0 51 36 87t87 36t87 -36t36 -87t-35.5 -87t-87.5 -36q-51 0 -87 35.5t-36 87.5z" />
<glyph unicode="&#x4e8;" horiz-adv-x="1458" d="M143 729q0 195 84 372t224.5 285.5t298.5 108.5q157 0 297.5 -108.5t224.5 -285.5t84 -372t-84 -372t-224.5 -285.5t-297.5 -108.5q-158 0 -298.5 108.5t-224.5 286t-84 371.5zM492 422q0 -211 66.5 -302t191.5 -91q124 0 191 91t67 302v274h-516v-274zM492 762h516v274 q0 211 -67 302.5t-191 91.5q-125 0 -191.5 -91.5t-66.5 -302.5v-274z" />
<glyph unicode="&#x4e9;" horiz-adv-x="1032" d="M98 485q0 143 57.5 260t154 183.5t206.5 66.5q111 0 207 -66.5t153.5 -183t57.5 -260.5q0 -143 -57.5 -259.5t-153.5 -183.5t-207 -67t-207 67t-153.5 183.5t-57.5 259.5zM360 453q2 -225 36 -326.5t120 -101.5t120 101t36 327h-312zM360 518h312q-2 225 -36 326.5 t-120 101.5t-120 -101.5t-36 -326.5z" />
<glyph unicode="&#x4ee;" horiz-adv-x="1581" d="M94 1393v65h783v-65h-111q-31 0 -53.5 -21.5t-22.5 -52.5q0 -35 15 -62l288 -567l172 447q12 33 21.5 74.5t9.5 66.5q0 115 -98 115h-111v65h553v-65h-94q-59 0 -92 -39t-62 -111l-372 -950q-49 -129 -133.5 -229.5t-217.5 -100.5q-120 0 -201 66.5t-81 173.5 q0 98 53 153.5t141 55.5q66 0 110 -44t44 -100q0 -39 -18.5 -70.5t-51.5 -64.5q-25 -25 -24 -59q0 -20 15 -32.5t38 -12.5q84 0 136 62.5t95 176.5l17 47l-496 969q-29 57 -68.5 83t-95.5 26h-88zM604 1659v131h606v-131h-606z" />
<glyph unicode="&#x4ef;" horiz-adv-x="1073" d="M25 922v49h501v-49h-59q-18 0 -33.5 -14.5t-15.5 -39.5q0 -23 14 -57l211 -506l133 449q14 57 15 90q0 31 -16.5 54.5t-47.5 23.5h-53v49h338v-49h-45q-37 0 -71 -32t-52 -95l-312 -1035q-72 -248 -223 -247q-84 0 -135 52t-51 134q0 68 43 119t108 51q49 0 81 -29.5 t32 -72.5q0 -27 -11 -49.5t-28 -36.5q-29 -25 -29 -54q0 -18 11.5 -33.5t36.5 -15.5q35 0 58.5 43t43.5 109l68 225l-355 848q-29 68 -52.5 93.5t-74.5 25.5h-30zM330 1196v131h532v-131h-532z" />
<glyph unicode="&#x4f0;" horiz-adv-x="1581" d="M94 1393v65h783v-65h-111q-31 0 -53.5 -21.5t-22.5 -52.5q0 -35 15 -62l288 -567l172 447q12 33 21.5 74.5t9.5 66.5q0 115 -98 115h-111v65h553v-65h-94q-59 0 -92 -39t-62 -111l-372 -950q-49 -129 -133.5 -229.5t-217.5 -100.5q-120 0 -201 66.5t-81 173.5 q0 98 53 153.5t141 55.5q66 0 110 -44t44 -100q0 -39 -18.5 -70.5t-51.5 -64.5q-25 -25 -24 -59q0 -20 15 -32.5t38 -12.5q84 0 136 62.5t95 176.5l17 47l-496 969q-29 57 -68.5 83t-95.5 26h-88zM567 1749q0 51 36 87t87 36t87 -36t36 -87t-36 -87t-87 -36t-87 36t-36 87z M1001 1749q0 51 36 87t87 36t87 -36t36 -87t-35.5 -87t-87.5 -36q-51 0 -87 36t-36 87z" />
<glyph unicode="&#x4f1;" horiz-adv-x="1073" d="M25 922v49h501v-49h-59q-18 0 -33.5 -14.5t-15.5 -39.5q0 -23 14 -57l211 -506l133 449q14 57 15 90q0 31 -16.5 54.5t-47.5 23.5h-53v49h338v-49h-45q-37 0 -71 -32t-52 -95l-312 -1035q-72 -248 -223 -247q-84 0 -135 52t-51 134q0 68 43 119t108 51q49 0 81 -29.5 t32 -72.5q0 -27 -11 -49.5t-28 -36.5q-29 -25 -29 -54q0 -18 11.5 -33.5t36.5 -15.5q35 0 58.5 43t43.5 109l68 225l-355 848q-29 68 -52.5 93.5t-74.5 25.5h-30zM276 1266q0 51 36 87t87 36t87 -36t36 -87t-36 -87t-87 -36t-87 35.5t-36 87.5zM669 1266q0 51 36 87t87 36 t87 -36t36 -87t-35.5 -87t-87.5 -36q-51 0 -87 35.5t-36 87.5z" />
<glyph unicode="&#x4f2;" horiz-adv-x="1581" d="M94 1393v65h783v-65h-111q-31 0 -53.5 -21.5t-22.5 -52.5q0 -35 15 -62l288 -567l172 447q12 33 21.5 74.5t9.5 66.5q0 115 -98 115h-111v65h553v-65h-94q-59 0 -92 -39t-62 -111l-372 -950q-49 -129 -133.5 -229.5t-217.5 -100.5q-120 0 -201 66.5t-81 173.5 q0 98 53 153.5t141 55.5q66 0 110 -44t44 -100q0 -39 -18.5 -70.5t-51.5 -64.5q-25 -25 -24 -59q0 -20 15 -32.5t38 -12.5q84 0 136 62.5t95 176.5l17 47l-496 969q-29 57 -68.5 83t-95.5 26h-88zM750 1597l174 283q39 66 96 66q35 0 58.5 -22.5t23.5 -55.5q0 -51 -56 -94 l-256 -213zM1024 1597l174 283q39 66 96 66q35 0 58.5 -22.5t23.5 -55.5q0 -51 -55 -94l-256 -213z" />
<glyph unicode="&#x4f3;" horiz-adv-x="1073" d="M25 922v49h501v-49h-59q-18 0 -33.5 -14.5t-15.5 -39.5q0 -23 14 -57l211 -506l133 449q14 57 15 90q0 31 -16.5 54.5t-47.5 23.5h-53v49h338v-49h-45q-37 0 -71 -32t-52 -95l-312 -1035q-72 -248 -223 -247q-84 0 -135 52t-51 134q0 68 43 119t108 51q49 0 81 -29.5 t32 -72.5q0 -27 -11 -49.5t-28 -36.5q-29 -25 -29 -54q0 -18 11.5 -33.5t36.5 -15.5q35 0 58.5 43t43.5 109l68 225l-355 848q-29 68 -52.5 93.5t-74.5 25.5h-30zM404 1110l174 283q39 66 96 65q35 0 58.5 -22.5t23.5 -55.5q0 -51 -56 -94l-256 -213zM678 1110l174 283 q39 66 96 65q35 0 58.5 -22.5t23.5 -55.5q0 -51 -55 -94l-256 -213z" />
<glyph unicode="&#x4f4;" horiz-adv-x="1609" d="M106 1393v65h660v-65h-115q-27 0 -38 -10.5t-11 -39.5v-456q0 -100 41 -139t119 -39h266v634q0 29 -10 39.5t-39 10.5h-115v65h660v-65h-144q-27 0 -38 -10.5t-11 -39.5v-1228q0 -27 11.5 -38t37.5 -11h144v-66h-688v66h143q29 0 39 11t10 38v528h-364q-365 0 -365 336 v364q0 29 -10 39.5t-39 10.5h-144zM477 1749q0 51 36 87t87 36t87 -36t36 -87t-36 -87t-87 -36t-87 36t-36 87zM911 1749q0 51 36 87t87 36t87 -36t36 -87t-35.5 -87t-87.5 -36q-51 0 -87 36t-36 87z" />
<glyph unicode="&#x4f5;" horiz-adv-x="1069" d="M41 922v49h446v-49h-65q-18 0 -25.5 -7.5t-7.5 -25.5v-359q0 -51 18.5 -73.5t59.5 -22.5q35 0 86 11.5t86 23.5v420q0 18 -7 25.5t-26 7.5h-65v49h446v-49h-78q-18 0 -25 -7.5t-7 -25.5v-807q0 -18 7 -25.5t25 -7.5h78v-49h-459v49h78q18 0 25.5 7t7.5 26v338 q-141 -43 -254 -43q-102 0 -167.5 54t-65.5 159v299q0 18 -7.5 25.5t-25.5 7.5h-78zM198 1266q0 51 36 87t87 36t87 -36t36 -87t-36 -87t-87 -36t-87 35.5t-36 87.5zM591 1266q0 51 36 87t87 36t87 -36t36 -87t-35.5 -87t-87.5 -36q-51 0 -87 35.5t-36 87.5z" />
<glyph unicode="&#x4f6;" horiz-adv-x="1327" d="M127 0v66h143q29 0 39 11t10 38v1228q0 29 -10 39.5t-39 10.5h-143v65h1102l16 -612h-65q-4 14 -17.5 66.5t-37 121t-52.5 121.5q-129 238 -276 238h-125q-27 0 -38 -10.5t-11 -39.5v-1196q0 -55 25.5 -76.5t82.5 -21.5h137v-459h-65q-2 12 -12.5 53.5t-33 99.5 t-55.5 110q-51 78 -100 112.5t-108 34.5h-367z" />
<glyph unicode="&#x4f7;" horiz-adv-x="905" d="M82 0v49h78q18 0 25.5 7t7.5 26v807q0 18 -7.5 25.5t-25.5 7.5h-78v49h737l12 -406h-57q0 10 -13 61.5t-44 121.5q-29 68 -81 121t-114 53h-59q-18 0 -25.5 -7.5t-7.5 -25.5v-774q0 -51 27 -66h6h78v-8h65l12 -360h-57q-2 14 -16.5 65t-36.5 98q-33 68 -76 112t-115 44 h-235z" />
<glyph unicode="&#x4f8;" horiz-adv-x="2048" d="M127 0v66h143q29 0 39 11t10 38v1228q0 29 -10 39.5t-39 10.5h-143v65h725v-65h-180q-27 0 -38 -10.5t-11 -39.5v-524h233q129 0 235.5 -55t169 -149.5t62.5 -204.5q0 -113 -60.5 -206t-168 -148.5t-242.5 -55.5h-725zM623 115q0 -27 11 -38t38 -11h137q98 0 142 97 t44 247t-44 247t-142 97h-186v-639zM721 1749q0 51 36 87t87 36t87 -36t36 -87t-36 -87t-87 -36t-87 36t-36 87zM1155 1749q0 51 36 87t87 36t87 -36t36 -87t-35.5 -87t-87.5 -36q-51 0 -87 36t-36 87zM1274 0v66h143q29 0 39 11t10 38v1228q0 29 -10 39.5t-39 10.5h-143v65 h688v-65h-143q-27 0 -38.5 -10.5t-11.5 -39.5v-1228q0 -27 11.5 -38t38.5 -11h143v-66h-688z" />
<glyph unicode="&#x4f9;" horiz-adv-x="1400" d="M82 0v49h78q18 0 25.5 7t7.5 26v807q0 18 -7.5 25.5t-25.5 7.5h-78v49h455v-49h-70q-20 0 -28.5 -10.5t-8.5 -37.5v-346h176q127 0 211 -75.5t84 -186.5q0 -74 -38 -134t-105.5 -96t-151.5 -36h-524zM377 1266q0 51 36 87t87 36t87 -36t36 -87t-36 -87t-87 -36t-87 35.5 t-36 87.5zM430 82q0 -18 7 -25.5t26 -7.5h57q63 0 97 61.5t34 155.5t-32.5 153.5t-98.5 59.5h-90v-397zM770 1266q0 51 36 87t87 36t87 -36t36 -87t-35.5 -87t-87.5 -36q-51 0 -87 35.5t-36 87.5zM872 0v49h66q18 0 25.5 7t7.5 26v807q0 18 -7.5 25.5t-25.5 7.5h-66v49h447 v-49h-78q-18 0 -25.5 -7.5t-7.5 -25.5v-807q0 -18 7.5 -25.5t25.5 -7.5h78v-49h-447z" />
<glyph unicode="&#x2000;" horiz-adv-x="975" />
<glyph unicode="&#x2001;" horiz-adv-x="1950" />
<glyph unicode="&#x2002;" horiz-adv-x="975" />
<glyph unicode="&#x2003;" horiz-adv-x="1950" />
<glyph unicode="&#x2004;" horiz-adv-x="650" />
<glyph unicode="&#x2005;" horiz-adv-x="487" />
<glyph unicode="&#x2006;" horiz-adv-x="325" />
<glyph unicode="&#x2007;" horiz-adv-x="325" />
<glyph unicode="&#x2008;" horiz-adv-x="243" />
<glyph unicode="&#x2009;" horiz-adv-x="390" />
<glyph unicode="&#x200a;" horiz-adv-x="108" />
<glyph unicode="&#x2010;" horiz-adv-x="757" d="M115 426v209h528v-209h-528z" />
<glyph unicode="&#x2011;" horiz-adv-x="757" d="M115 426v209h528v-209h-528z" />
<glyph unicode="&#x2012;" horiz-adv-x="757" d="M115 426v209h528v-209h-528z" />
<glyph unicode="&#x2013;" horiz-adv-x="1269" d="M123 492v114h1024v-114h-1024z" />
<glyph unicode="&#x2014;" horiz-adv-x="2048" d="M123 492v114h1802v-114h-1802z" />
<glyph unicode="&#x2018;" horiz-adv-x="573" d="M86 1028q0 168 97.5 289t254.5 178l29 -57q-129 -47 -208 -136.5t-79 -187.5q0 -14 9.5 -25.5t25.5 -11.5t49 17q37 18 70 18q57 0 101 -39t44 -108q0 -82 -53 -128t-123 -46q-100 0 -158.5 66.5t-58.5 170.5z" />
<glyph unicode="&#x2019;" horiz-adv-x="573" d="M94 1321q0 82 53.5 128t122.5 46q100 0 158.5 -66.5t58.5 -171.5q0 -168 -97 -288.5t-255 -177.5l-29 57q129 47 208 136t79 187q0 14 -9 25.5t-26 11.5q-16 0 -49 -16q-37 -18 -69 -18q-57 0 -101.5 38.5t-44.5 108.5z" />
<glyph unicode="&#x201a;" horiz-adv-x="573" d="M94 129q0 82 53.5 128t122.5 46q100 0 158.5 -66.5t58.5 -170.5q0 -168 -97 -289t-255 -178l-29 57q129 47 208 136t79 188q0 14 -9 25t-26 11q-16 0 -49 -16q-37 -18 -69 -18q-57 0 -101.5 38.5t-44.5 108.5z" />
<glyph unicode="&#x201c;" horiz-adv-x="1024" d="M86 1028q0 168 97.5 289t254.5 178l29 -57q-129 -47 -208 -136.5t-79 -187.5q0 -14 9.5 -25.5t25.5 -11.5t49 17q37 18 70 18q57 0 101 -39t44 -108q0 -82 -53 -128t-123 -46q-100 0 -158.5 66.5t-58.5 170.5zM537 1028q0 168 97 289t255 178l29 -57 q-129 -47 -208 -136.5t-79 -187.5q0 -14 9 -25.5t26 -11.5q16 0 49 17q37 18 69 18q57 0 101.5 -39t44.5 -108q0 -82 -53.5 -128t-122.5 -46q-101 0 -159 66.5t-58 170.5z" />
<glyph unicode="&#x201d;" horiz-adv-x="1024" d="M94 1321q0 82 53.5 128t122.5 46q100 0 158.5 -66.5t58.5 -171.5q0 -168 -97 -288.5t-255 -177.5l-29 57q129 47 208 136t79 187q0 14 -9 25.5t-26 11.5q-16 0 -49 -16q-37 -18 -69 -18q-57 0 -101.5 38.5t-44.5 108.5zM545 1321q0 82 53 128t123 46q100 0 158.5 -66.5 t58.5 -171.5q0 -168 -97.5 -288.5t-254.5 -177.5l-29 57q129 47 208 136t79 187q0 14 -9.5 25.5t-25.5 11.5t-49 -16q-37 -18 -70 -18q-57 0 -101 38.5t-44 108.5z" />
<glyph unicode="&#x201e;" horiz-adv-x="1024" d="M94 129q0 82 53.5 128t122.5 46q100 0 158.5 -66.5t58.5 -170.5q0 -168 -97 -289t-255 -178l-29 57q129 47 208 136t79 188q0 14 -9 25t-26 11q-16 0 -49 -16q-37 -18 -69 -18q-57 0 -101.5 38.5t-44.5 108.5zM545 129q0 82 53 128t123 46q100 0 158.5 -66.5t58.5 -170.5 q0 -168 -97.5 -289t-254.5 -178l-29 57q129 47 208 136t79 188q0 14 -9.5 25t-25.5 11t-49 -16q-37 -18 -70 -18q-57 0 -101 38.5t-44 108.5z" />
<glyph unicode="&#x2022;" horiz-adv-x="1024" d="M184 725q0 90 43 166t119 119t166 43t166 -43t119 -119t43 -166t-43 -166t-119 -119t-166 -43t-166 43t-119 119t-43 166z" />
<glyph unicode="&#x2026;" horiz-adv-x="1720" d="M127 135q0 70 45 115t115 45t114.5 -45t44.5 -115t-45 -115t-114 -45q-70 0 -115 45.5t-45 114.5zM700 135q0 70 45.5 115t114.5 45q70 0 115 -45t45 -115t-45 -115t-115 -45q-69 0 -114.5 45.5t-45.5 114.5zM1274 135q0 70 45 115t115 45t114.5 -45t44.5 -115t-45 -115 t-114 -45q-70 0 -115 45.5t-45 114.5z" />
<glyph unicode="&#x202f;" horiz-adv-x="390" />
<glyph unicode="&#x2039;" horiz-adv-x="675" d="M221 485q0 274 254 428l33 -32q-47 -51 -68.5 -97.5t-30 -112t-8.5 -186.5t8.5 -186.5t30 -111.5t68.5 -97l-33 -33q-254 154 -254 428z" />
<glyph unicode="&#x203a;" horiz-adv-x="675" d="M168 90q47 51 68.5 97t29.5 112t8 186q0 121 -8 186.5t-29.5 111.5t-68.5 98l33 32q254 -154 254 -428t-254 -428z" />
<glyph unicode="&#x205f;" horiz-adv-x="487" />
<glyph unicode="&#x20ac;" d="M53 608l10 68h70q-2 18 -2 53q0 41 2 66h-80l10 67h74q23 221 108 362.5t201.5 204t239.5 62.5q135 0 238 -92q18 -16 36.5 -28.5t32.5 -12.5q25 0 33 37l23 82h73v-469h-78q-23 119 -77 214t-123.5 149t-136.5 54q-102 0 -165 -90t-63 -323v-150h422l-12 -67h-410v-119 h393l-10 -68h-383v-211q0 -213 81 -288.5t185 -75.5q123 0 204 98t100 231h73q-25 -158 -116 -276.5t-277 -118.5q-154 0 -279.5 69.5t-208.5 213t-104 358.5h-84z" />
<glyph unicode="&#x2122;" horiz-adv-x="2215" d="M74 1104l12 354h819l13 -354h-58q0 6 -14.5 55t-42.5 109q-27 55 -69 98t-87 43q-18 0 -25.5 -5t-7.5 -24v-684q0 -18 7.5 -25t25.5 -7h115v-50h-533v50h115q18 0 25.5 7t7.5 25v684q0 18 -7.5 23.5t-25.5 5.5q-45 0 -87 -43t-69 -98q-29 -59 -43 -108.5t-14 -55.5h-57z M977 614v50q61 0 96 28.5t35 83.5v600q0 18 -7 25.5t-26 7.5h-98v49h340l260 -553l197 553h360v-49h-78q-18 0 -25.5 -7t-7.5 -26v-680q0 -18 7.5 -25t25.5 -7h78v-50h-459v50h78q18 0 25.5 7t7.5 25v625l-256 -723h-60l-296 627h-9v-449q0 -55 35 -83.5t96 -28.5v-50h-319z " />
<glyph unicode="&#x25fc;" horiz-adv-x="972" d="M0 0v973h973v-973h-973z" />
</font>
</defs>
</svg>
