<?xml version="1.0" standalone="no"?>
<!DOCTYPE svg PUBLIC "-//W3C//DTD SVG 1.1//EN" "http://www.w3.org/Graphics/SVG/1.1/DTD/svg11.dtd" >
<svg xmlns="http://www.w3.org/2000/svg" xmlns:xlink="http://www.w3.org/1999/xlink" version="1.1">
<metadata></metadata>
<defs>
<font id="old_standard_ttitalic" horiz-adv-x="1187" >
<font-face units-per-em="2048" ascent="1561" descent="-487" />
<missing-glyph horiz-adv-x="573" />
<glyph horiz-adv-x="0" />
<glyph unicode="&#xd;" horiz-adv-x="573" />
<glyph unicode=" "  horiz-adv-x="573" />
<glyph unicode="&#x09;" horiz-adv-x="573" />
<glyph unicode="&#xa0;" horiz-adv-x="573" />
<glyph unicode="!" horiz-adv-x="573" d="M115 102q0 55 35.5 91t91.5 36q55 0 91 -35.5t36 -91.5q0 -55 -36 -91t-91 -36q-56 0 -91.5 36t-35.5 91zM266 324l74 415q27 141 39 271q16 154 39 268q29 143 143 143q53 0 80 -37.5t27 -105.5q0 -49 -31 -133t-88 -215q-66 -152 -90 -221l-144 -385h-49z" />
<glyph unicode="&#x22;" horiz-adv-x="806" d="M352 1065l41 299q6 47 27.5 89t75.5 42q49 0 49 -53q0 -25 -17 -68l-127 -309h-49zM668 1065l41 299q6 47 27.5 89t74.5 42q49 0 49 -53q0 -25 -16 -68l-127 -309h-49z" />
<glyph unicode="#" horiz-adv-x="1400" d="M115 401l22 82h248l193 439h-322l23 82h333l168 397h90l-170 -397h299l170 397h91l-170 -397h272l-23 -82h-282l-189 -439h346l-22 -82h-363l-170 -401h-90l170 401h-297l-172 -401h-90l172 401h-237zM475 483h303l189 439h-299z" />
<glyph unicode="$" d="M102 291q0 86 47.5 151.5t116.5 65.5q47 0 79 -24.5t32 -71.5q0 -39 -29 -69t-84 -30q-33 0 -51 -30q-12 -18 -12 -54q0 -59 42 -106t111 -72l178 662l-55 30q-72 41 -110.5 98.5t-38.5 168.5q0 113 58 198.5t148.5 139t190.5 73.5l37 140h65l-34 -129q14 2 38 2 q41 0 74 -7l37 134h66l-39 -146q113 -35 180.5 -115.5t67.5 -169.5q0 -109 -50.5 -168t-130.5 -59q-35 0 -66.5 20.5t-31.5 63.5t25.5 70.5t68.5 36.5q27 4 42.5 10t27.5 14q25 16 24 62q0 47 -47 96t-129 74l-159 -592l67 -39q59 -35 98 -69t63.5 -93t24.5 -151 q0 -100 -58 -191.5t-164.5 -155t-241.5 -84.5l-39 -139h-66l37 133q-18 -2 -53 -2q-25 0 -62 4l-37 -135h-65l41 150q-111 33 -172.5 121t-61.5 184zM416 37q37 -4 59 -4q37 0 53 2l160 588l-98 57zM442 1083q0 -63 22.5 -106t59.5 -66l54 -30l127 471q-109 -29 -186 -96.5 t-77 -172.5zM596 43q141 29 221 112t80 201q0 96 -28.5 138.5t-77.5 70.5l-46 27zM635 848l98 -57l156 573q-45 4 -70 4q-29 0 -45 -2z" />
<glyph unicode="%" horiz-adv-x="1761" d="M262 946q0 102 51.5 217t143.5 193t207 78q74 0 126 -50.5t68 -134.5q14 -31 70.5 -48t103.5 -17q115 0 237 62.5t201 152.5l66 84l49 -49l-1200 -1483l-49 49l983 1214l-10 5q-66 -37 -141.5 -60.5t-135.5 -23.5q-90 0 -168 36q-4 -102 -55 -213.5t-142.5 -186.5 t-203.5 -75q-88 0 -144.5 70t-56.5 180zM410 946q0 -82 34.5 -125t79.5 -43q78 0 142.5 58.5t101.5 157t39 210.5q-41 29 -64.5 66t-23.5 65q0 29 12 41q-16 8 -39 8q-80 0 -144.5 -61t-101 -161.5t-36.5 -215.5zM1024 217q0 102 51 217t143.5 193t206.5 78q88 0 144.5 -70 t56.5 -180q0 -102 -51 -217t-143.5 -193t-206.5 -78q-88 0 -144.5 69.5t-56.5 180.5zM1171 217q0 -82 35 -125t80 -43q80 0 144.5 61.5t101.5 162t37 214.5q0 82 -35 125t-80 43q-80 0 -144.5 -61.5t-101.5 -161.5t-37 -215z" />
<glyph unicode="&#x26;" horiz-adv-x="1515" d="M115 264q0 152 89 273.5t204.5 197.5t207.5 107l119 43q12 135 64.5 262t138.5 209t197 82q90 0 127.5 -58.5t37.5 -126.5q0 -131 -93 -206.5t-208 -114.5l-120 -43v-543l358 475q35 47 79 82t101 35q63 0 97 -40t34 -99q0 -37 -22.5 -73t-71.5 -36q-25 0 -45 13.5 t-20 48.5q0 33 26 59q23 23 23 41q0 12 -11.5 22.5t-29.5 10.5q-29 0 -51.5 -20.5t-63.5 -69.5l-401 -508q0 -121 18.5 -191.5t91.5 -70.5q59 0 134 72.5t139.5 164.5t95.5 152l37 -21q-74 -147 -185.5 -288.5t-240.5 -141.5q-102 0 -150.5 50t-68.5 134q-78 -82 -156 -133 t-180 -51q-131 0 -216 78t-85 223zM311 254q0 -113 39 -171t111 -58q82 0 145.5 46t132.5 124q-8 25 -8 73v563l-74 -26q-164 -59 -255 -207.5t-91 -343.5zM879 934l100 37q96 31 172 97.5t76 182.5q0 43 -21.5 84t-75.5 41q-53 0 -111 -44t-99 -143t-41 -255z" />
<glyph unicode="'" horiz-adv-x="491" d="M352 1065l41 299q6 47 27.5 89t75.5 42q49 0 49 -53q0 -25 -17 -68l-127 -309h-49z" />
<glyph unicode="(" horiz-adv-x="757" d="M172 188q0 252 95 499t256 455t358 353l49 -49q-395 -324 -533.5 -660.5t-138.5 -597.5q0 -150 49 -291t135 -253l-65 -50q-88 105 -146.5 267t-58.5 327z" />
<glyph unicode=")" horiz-adv-x="757" d="M-127 -356q395 324 533.5 660.5t138.5 596.5q0 150 -49.5 291t-135.5 254l66 49q88 -104 146.5 -266t58.5 -328q0 -252 -95.5 -498.5t-256 -454.5t-357.5 -354z" />
<glyph unicode="*" d="M332 842q0 78 137 96q72 8 152 53l10 8q10 6 10 15q0 8 -10 14l-10 8q-80 45 -152 54q-137 18 -137 96q0 31 20 51q23 25 56 25q57 0 114 -80q41 -51 115 -101q18 -12 29 -12q16 0 16 31q0 84 -29 157q-25 59 -24 89q0 41 20 63q23 25 58 25t57 -25q20 -23 20 -63 q0 -29 -24 -89q-29 -74 -29 -157q0 -31 17 -31q10 0 28 12q74 49 115 101q59 80 115 80q35 0 55 -25q20 -20 20 -51q0 -78 -137 -96q-72 -8 -151 -54l-11 -8q-10 -6 -10 -14t10 -15l11 -8q80 -45 151 -53q137 -18 137 -96q0 -31 -20 -51q-20 -25 -55 -25q-55 0 -115 80 q-41 51 -115 100q-18 12 -28 12q-16 0 -17 -30q0 -84 29 -158q25 -57 24 -88q0 -41 -20 -64q-20 -25 -57 -24q-38 -1 -58 24q-20 23 -20 64q0 31 24 88q29 74 29 158q0 31 -16 30q-10 0 -29 -12q-74 -49 -115 -100q-57 -80 -114 -80q-33 0 -56 25q-20 20 -20 51z" />
<glyph unicode="+" horiz-adv-x="1925" d="M115 500v82h819v819h90v-819h819v-82h-819v-819h-90v819h-819z" />
<glyph unicode="," horiz-adv-x="573" d="M45 -311q100 51 176 128t76 173q0 31 -18 47q-16 14 -60 14q-43 0 -69.5 33t-26.5 74q0 59 35 94t90 35q63 0 98 -53.5t35 -112.5q0 -195 -104.5 -307.5t-215.5 -157.5z" />
<glyph unicode="-" horiz-adv-x="757" d="M115 401q0 72 36.5 122t102.5 50h360q31 0 44.5 13.5t13.5 44.5h37q0 -72 -37 -122t-103 -50h-360q-31 0 -44 -13.5t-13 -44.5h-37z" />
<glyph unicode="." horiz-adv-x="573" d="M123 102q0 55 36 91t91 36t91 -35.5t36 -91.5q0 -55 -36 -91t-91 -36t-91 36t-36 91z" />
<glyph unicode="/" horiz-adv-x="901" d="M139 -406l611 1901h81l-610 -1901h-82z" />
<glyph unicode="0" d="M147 524q0 209 87.5 421t243 350.5t345.5 138.5q164 0 242 -149.5t78 -407.5q0 -209 -87 -421t-243 -350.5t-346 -138.5q-164 0 -242 149.5t-78 407.5zM311 293q0 -260 152 -260q135 0 222 119.5t159 334.5q59 178 97 342t38 277q0 262 -152 262q-131 0 -221 -122 t-160 -333q-135 -406 -135 -620z" />
<glyph unicode="1" d="M111 0l16 66h190q31 0 48.5 12t25.5 41l281 1034q-27 -18 -72 -35.5t-73.5 -26t-39.5 -12.5l-69 -22l-15 41q147 43 265 109.5t194 193.5h64l-348 -1282q-4 -16 -5 -23q0 -16 11.5 -23t33.5 -7h201l-16 -66h-692z" />
<glyph unicode="2" d="M66 53q0 131 73.5 243t216.5 185l279 164q129 76 228.5 203t99.5 258q0 109 -55.5 185.5t-184.5 76.5q-76 0 -150.5 -43t-124 -105.5t-49.5 -113.5q0 -68 35 -68q12 0 33 13q29 14 49 14q45 0 67.5 -26.5t22.5 -67.5q0 -53 -39 -92t-100 -39q-55 0 -101.5 50t-46.5 132 q0 117 62.5 211t160 147.5t199.5 53.5q193 0 305.5 -101.5t112.5 -263.5q0 -125 -77.5 -221t-177 -155.5t-226.5 -119.5l-236 -108q-100 -45 -152 -93t-52 -79q57 0 165 -47q78 -31 141.5 -49.5t129.5 -18.5q80 0 144.5 35t92.5 104l39 95h39q-33 -174 -123 -310.5 t-241 -136.5q-84 0 -140.5 43t-109.5 117q-41 55 -73 81.5t-69 26.5q-43 0 -62 -18t-19 -72q0 -27 14 -37q18 -16 26.5 -29.5t8.5 -29.5q0 -25 -14.5 -44t-47.5 -19q-35 0 -54 19.5t-19 49.5z" />
<glyph unicode="3" d="M106 246q0 100 61.5 152.5t133.5 52.5q55 0 82 -34t27 -77t-29 -72.5t-74 -29.5q-25 0 -41 10t-37 10q-16 0 -26 -11t-10 -32q0 -94 77.5 -138t171.5 -44q70 0 133.5 36.5t112.5 106.5q55 82 85 195.5t30 197.5q0 78 -25.5 129.5t-122.5 51.5q-25 0 -42 -7.5t-38 -25.5 q-49 -45 -94 -45q-35 0 -53 14t-18 39q0 29 21.5 52.5t60.5 23.5h210q59 0 118 44t98 109q49 84 49 224q0 84 -50.5 137t-156.5 53q-68 0 -133.5 -23.5t-107.5 -63.5t-42 -87q0 -43 23 -43q6 0 18 6q18 6 33 6q39 0 55.5 -19.5t16.5 -58.5q0 -45 -30 -76.5t-85 -31.5t-91 42 t-36 103q0 94 56.5 165t146.5 109t188 38q109 0 193 -44t131 -122t47 -174q0 -88 -52.5 -158t-129 -113t-146.5 -53l-2 -14q72 -27 129 -100.5t57 -192.5q0 -109 -54 -210t-140 -167q-70 -53 -167 -86t-202 -33q-76 0 -151.5 33t-127 96.5t-51.5 149.5z" />
<glyph unicode="4" d="M131 426l21 74l442 397q113 111 221.5 270.5t130.5 253.5h168q-16 -78 -81.5 -166t-194.5 -211l-600 -544h383l90 311q80 55 141 132t92 153h35l-164 -596h324l-21 -74h-321l-82 -307q-4 -16 -4 -23q0 -16 11 -23t36 -7h190l-18 -66h-690l18 66h191q31 0 47 12t24 41 l82 307h-471z" />
<glyph unicode="5" d="M127 233q0 82 47 136.5t113 54.5q59 0 91 -29.5t32 -87.5q0 -41 -28 -69.5t-77 -28.5l-33 2q-18 0 -34 -8q-20 -14 -21 -35q0 -59 63.5 -97t161.5 -38t178 57t138 168q39 78 64.5 186.5t25.5 194.5q0 217 -207 217q-70 0 -138.5 -49t-103.5 -158q-8 -27 -24.5 -45 t-34.5 -18q-59 0 -59 49q0 33 15 58.5t46 58.5q55 59 72 112l102 334q29 94 29 150q0 25 -6 51l49 35q49 -57 114.5 -104.5t137.5 -47.5q94 0 168.5 36t136.5 116l31 -31q-68 -106 -151 -175t-224 -69q-111 0 -203 88l-115 -381l9 -6q29 25 86 45.5t98 20.5q174 0 269 -90.5 t95 -253.5q0 -106 -47 -229.5t-135 -213.5q-78 -80 -182.5 -126t-220.5 -46q-148 0 -238 74t-90 192z" />
<glyph unicode="6" d="M184 434q0 147 53.5 332.5t149.5 339.5q104 168 236.5 248t259.5 80q49 0 95 -16.5t77 -43.5q68 -57 67 -155q0 -84 -43 -137.5t-102 -53.5q-43 0 -70.5 23.5t-27.5 64.5q0 55 29.5 81t64.5 32q51 12 51 51q0 16 -6 29.5t-29 31.5q-37 27 -110 27q-98 0 -195.5 -88 t-163.5 -227q-80 -166 -104 -342l14 -11q53 82 133 127t164 45q150 0 232.5 -95t82.5 -242q0 -106 -46 -216t-119 -192q-57 -61 -146.5 -110.5t-214.5 -49.5q-145 0 -238.5 117t-93.5 350zM365 246q0 -94 46 -153.5t121 -59.5q74 0 136.5 48t105.5 126q43 80 66.5 178 t23.5 197q0 94 -42 155.5t-122 61.5q-170 0 -284 -256q-51 -113 -51 -297z" />
<glyph unicode="7" d="M295 111q0 106 103.5 249.5t256.5 315.5l385 426l-8 8q-18 -12 -41.5 -18.5t-40.5 -6.5q-63 0 -108 24t-101 71q-43 37 -74.5 55t-70.5 18q-63 0 -107.5 -47t-97.5 -151l-43 -84h-39l140 467h38q-8 -27 -8 -60q0 -27 8.5 -43t26.5 -16q53 47 101.5 72.5t109.5 25.5 q53 0 96 -32.5t84 -88.5q39 -53 73 -80.5t75 -27.5q43 0 62.5 16.5t19.5 36.5q0 27 -25 39q-14 10 -21.5 21.5t-7.5 31.5q0 31 17.5 46.5t38.5 15.5q76 0 75 -99q0 -53 -38.5 -111.5t-124.5 -158.5q-219 -256 -300 -362.5t-131 -225.5q-37 -90 -49 -160.5t-12 -150.5 q0 -76 -36 -119t-95 -43q-61 0 -96 37t-35 109z" />
<glyph unicode="8" d="M139 330q0 104 51.5 190t124.5 131q51 33 90 47.5t109 26.5q-53 39 -95 118t-42 175q0 162 104 282q59 68 148.5 101t169.5 33q176 0 280.5 -84t104.5 -236q0 -84 -36 -168t-97 -131q-47 -37 -112 -66.5t-112 -37.5q86 -74 127 -148t41 -170q0 -98 -33.5 -174 t-101.5 -135q-61 -55 -151.5 -86t-200.5 -31q-88 0 -173 41t-140.5 123t-55.5 199zM229 332q0 -141 77 -220t226 -79q84 0 157 34.5t116 94t43 129.5q0 150 -78 217l-215 180q-72 -16 -120 -35.5t-95 -64.5t-79 -112.5t-32 -143.5zM520 1077q0 -63 17.5 -99t56.5 -71 l186 -164q86 13 152.5 63t103.5 120.5t37 142.5q0 141 -71.5 220t-210.5 79q-55 0 -118 -27.5t-108 -93t-45 -170.5z" />
<glyph unicode="9" d="M180 182q0 84 43 137.5t103 53.5q43 0 70.5 -23.5t27.5 -64.5q0 -55 -29.5 -81t-64.5 -32q-51 -12 -51 -51q0 -16 6 -29.5t28 -32.5q37 -27 111 -26q98 0 195.5 88t162.5 227q80 166 105 342l-15 10q-53 -82 -133 -127t-164 -45q-150 0 -232.5 95.5t-82.5 242.5 q0 106 46 216t120 192q57 61 146.5 110.5t213.5 49.5q145 0 238.5 -117t93.5 -350q0 -147 -53 -332.5t-150 -339.5q-104 -168 -236 -248t-259 -80q-49 0 -95 16.5t-77 43.5q-68 57 -68 155zM438 819q0 -94 42 -155.5t122 -61.5q170 0 285 256q51 113 51 297q0 94 -46 153.5 t-122 59.5q-74 0 -136.5 -48t-105.5 -126q-43 -80 -66.5 -178t-23.5 -197z" />
<glyph unicode=":" horiz-adv-x="573" d="M123 102q0 55 36 91t91 36t91 -35.5t36 -91.5q0 -55 -36 -91t-91 -36t-91 36t-36 91zM311 807q0 55 36 91t91 36t91 -36t36 -91t-35.5 -91t-91.5 -36q-55 0 -91 36t-36 91z" />
<glyph unicode=";" horiz-adv-x="573" d="M45 -311q100 51 176 128t76 173q0 31 -18 47q-16 14 -60 14q-43 0 -69.5 33t-26.5 74q0 59 35 94t90 35q63 0 98 -53.5t35 -112.5q0 -195 -104.5 -307.5t-215.5 -157.5zM311 807q0 55 36 91t91 36t91 -36t36 -91t-35.5 -91t-91.5 -36q-55 0 -91 36t-36 91z" />
<glyph unicode="&#x3c;" horiz-adv-x="1925" d="M172 512v57l1548 832l41 -74l-1462 -786l1462 -787l-41 -73z" />
<glyph unicode="=" horiz-adv-x="1925" d="M115 303v82h1728v-82h-1728zM115 692v82h1728v-82h-1728z" />
<glyph unicode="&#x3e;" horiz-adv-x="1925" d="M164 -246l1462 787l-1462 786l41 74l1548 -832v-57l-1548 -831z" />
<glyph unicode="?" horiz-adv-x="892" d="M229 102q0 55 36 91t91 36t91 -35.5t36 -91.5q0 -55 -35.5 -91t-91.5 -36q-55 0 -91 36t-36 91zM279 496q0 76 46 141t121 108l254 152q160 88 160 217q0 109 -51 177.5t-145 68.5q-102 0 -166 -28.5t-90.5 -68.5t-26.5 -73q0 -39 27 -51q31 -12 43 -25q12 -14 16 -26.5 t4 -32.5q0 -27 -21.5 -51.5t-58.5 -24.5q-45 0 -72 29q-37 37 -36 100q0 84 62.5 155.5t155.5 114.5t181 43q160 0 243 -91t83 -236q0 -92 -63.5 -172t-162.5 -127l-272 -131q-68 -37 -106.5 -84.5t-38.5 -96.5q0 -53 30.5 -79.5t75.5 -26.5q84 0 124 48t40 112 q0 12 -6 30.5t-15 28.5l25 18q14 -14 25.5 -39.5t11.5 -54.5q0 -86 -61.5 -145.5t-151.5 -59.5q-76 0 -130 50.5t-54 130.5z" />
<glyph unicode="@" horiz-adv-x="1679" d="M197 727q0 209 101 385t276.5 279.5t383.5 103.5q223 0 383 -95t243 -260t83 -368q0 -111 -52 -227.5t-157.5 -196.5t-257.5 -80q-78 0 -132 41t-62 113l-11 2q-35 -53 -100.5 -104.5t-144.5 -51.5q-92 0 -161 65.5t-69 188.5q0 129 35 256t102 207q86 104 180.5 152.5 t180.5 48.5q53 0 95 -39t50 -74h11l22 88h147l-172 -635q-12 -49 -12 -88q0 -55 22.5 -88t51.5 -33q125 0 200.5 78t105.5 190.5t30 227.5q0 195 -78 336t-220.5 215t-330.5 74q-176 0 -324.5 -98.5t-234.5 -270.5t-86 -383q0 -205 79 -354.5t228.5 -230.5t355.5 -81 q180 0 361 119l33 -47q-68 -49 -171.5 -89t-242.5 -40q-229 0 -396 96.5t-256 269.5t-89 398zM659 457q0 -63 31 -101.5t68 -38.5q104 0 187 109t124 260l47 174q10 37 10 76q0 78 -29.5 139.5t-78.5 61.5q-82 0 -146.5 -56.5t-126.5 -189.5q-37 -80 -61.5 -202t-24.5 -232z " />
<glyph unicode="A" horiz-adv-x="1490" d="M-90 0l16 66h76q84 0 150.5 43t103.5 104l842 1245h49v-1304q4 -51 28.5 -69.5t69.5 -18.5h115l-17 -66h-606l17 66h127q43 0 64.5 18t21.5 76v340h-428l-140 -205q-69 -99 -69 -158q0 -71 80 -71h2h112l-16 -66h-598zM584 565h383v565z" />
<glyph unicode="B" horiz-adv-x="1413" d="M-20 0l16 66h156q55 0 69 55l330 1216q4 16 4 25q0 31 -43 31h-156l17 65h712q96 0 178.5 -36t132.5 -106.5t50 -170.5q0 -115 -71.5 -195t-175 -123t-206.5 -57l-2 -4q86 -4 162 -45t121 -110.5t45 -159.5q0 -133 -88 -236.5t-222.5 -159t-263.5 -55.5h-765zM403 98 q0 -33 43 -32h334q96 0 170 56t113 143t39 175q0 139 -61.5 220t-182.5 81h-283l-167 -620q-4 -16 -5 -23zM594 807h274q141 0 226.5 54t120 132t34.5 156q0 244 -227 244h-215q-55 0 -70 -56z" />
<glyph unicode="C" horiz-adv-x="1372" d="M188 516q0 236 115 463t296 371.5t372 144.5q76 0 133 -28.5t94 -65.5l37 -37q20 -20 31.5 -27.5t27.5 -7.5q39 0 61.5 50.5t30.5 99.5h48l-131 -627h-48q2 41 2 129q0 72 -19 174t-69 170q-78 104 -206 105q-121 0 -221.5 -75t-196.5 -257q-68 -127 -114 -314.5 t-46 -382.5q0 -158 40 -239.5t98.5 -107t133.5 -25.5q115 0 221.5 65.5t187.5 172t124 229.5l63 -23q-74 -217 -232.5 -363.5t-397.5 -146.5q-107 0 -206.5 59.5t-164 184.5t-64.5 309z" />
<glyph unicode="D" horiz-adv-x="1536" d="M-20 0l16 66h156q55 0 69 55l330 1216q4 16 4 25q0 31 -43 31h-156l19 65h657q143 0 245.5 -67.5t156 -187.5t53.5 -275q0 -162 -59.5 -328t-165.5 -297q-111 -137 -255.5 -220t-322.5 -83h-704zM403 98q0 -33 43 -32h259q266 0 436 303q68 121 108.5 294t40.5 361 q0 164 -70.5 266.5t-232.5 102.5h-180q-55 0 -70 -56l-329 -1216q-4 -16 -5 -23z" />
<glyph unicode="E" horiz-adv-x="1433" d="M-20 0l16 66h156q55 0 69 55l330 1216q4 16 4 25q0 31 -43 31h-156l17 65h1130l-94 -467h-51q2 8 4 34t2 65q0 172 -55.5 237.5t-165.5 65.5h-336q-55 0 -70 -56l-149 -551h221q80 0 129 44t72.5 103.5t46.5 143.5h51l-176 -663h-51q20 90 20 153q0 72 -27.5 113 t-95.5 41h-207l-163 -600q-4 -16 -5 -23q0 -33 43 -32h381q53 0 125 25.5t129 80.5q57 57 105.5 140t77 150.5t34.5 86.5h50l-172 -549h-1196z" />
<glyph unicode="F" horiz-adv-x="1392" d="M-20 0l16 66h156q55 0 69 55l330 1216q4 16 4 25q0 31 -43 31h-156l17 65h1130l-94 -467h-51q2 8 4 34t2 65q0 172 -55.5 237.5t-165.5 65.5h-336q-55 0 -70 -56l-149 -551h219q80 0 129 44t72.5 103.5t46.5 143.5h51l-176 -663h-51q20 90 20 153q0 72 -27.5 113 t-95.5 41h-205l-163 -600q-4 -16 -5 -23q0 -33 43 -32h230l-17 -66h-679z" />
<glyph unicode="G" horiz-adv-x="1515" d="M188 516q0 236 114 463t295 371.5t374 144.5q162 0 286 -111q35 -33 52.5 -44t36.5 -11q63 0 90 150h47l-131 -627h-47q2 39 2 129q0 242 -88 344q-47 53 -117 79t-139 26q-123 0 -221.5 -74t-196.5 -258q-68 -127 -114 -314.5t-46 -382.5q0 -229 75 -300.5t183 -71.5 q102 0 192.5 65.5t151 165.5t80.5 199l23 108q2 8 2 23q0 33 -43 33h-205l16 65h635l-16 -65h-131q-55 0 -72 -56l-125 -596h-51v144q0 84 -31 84q-16 0 -34.5 -14.5t-41.5 -41.5q-170 -180 -370 -180q-119 0 -218.5 67.5t-158 192.5t-58.5 293z" />
<glyph unicode="H" horiz-adv-x="1638" d="M-20 0l16 66h156q55 0 69 55l330 1216q4 16 4 23q0 33 -43 33h-156l17 65h606l-16 -65h-156q-53 0 -70 -56l-149 -551h633l149 551q4 16 4 23q0 33 -43 33h-155l16 65h606l-16 -65h-156q-53 0 -70 -56l-329 -1216q-4 -16 -4 -23q0 -33 43 -32h155l-16 -66h-606l16 66h156 q55 0 69 55l164 600h-633l-163 -600q-4 -16 -5 -23q0 -33 43 -32h156l-16 -66h-606z" />
<glyph unicode="I" horiz-adv-x="819" d="M-20 0l16 66h156q55 0 69 55l330 1216q4 16 4 25q0 31 -43 31h-156l17 65h606l-16 -65h-156q-55 0 -70 -56l-329 -1216q-4 -16 -5 -23q0 -33 43 -32h156l-16 -66h-606z" />
<glyph unicode="J" horiz-adv-x="1105" d="M29 225q0 96 53 156.5t131 60.5q55 0 91 -32.5t36 -83.5q0 -61 -35 -100.5t-100 -39.5q-18 0 -29.5 -13t-11.5 -34q0 -51 40 -80.5t115 -29.5q100 0 175 74.5t104 181.5l285 1052q4 16 4 25q0 31 -43 31h-230l17 65h680l-17 -65h-155q-55 0 -70 -56l-260 -958 q-35 -127 -114 -222.5t-181 -144.5t-211 -49q-127 0 -200.5 74t-73.5 188z" />
<glyph unicode="K" horiz-adv-x="1548" d="M-20 0l16 66h156q55 0 69 55l330 1216q4 16 4 25q0 31 -43 31h-156l17 65h606l-16 -65h-156q-55 0 -70 -56l-164 -608l611 459q68 51 97.5 83t29.5 68q0 29 -32 41.5t-79 12.5h-49l16 65h562l-17 -65q-66 0 -133.5 -25t-163.5 -94l-497 -369l249 -749q18 -51 48 -70.5 t96 -19.5h86l-17 -66h-598l17 66h106q31 0 51.5 14t20.5 45q0 16 -6 35l-203 633l-221 -164l-139 -508q-4 -16 -5 -23q0 -33 43 -32h156l-16 -66h-606z" />
<glyph unicode="L" horiz-adv-x="1392" d="M-20 0l16 66h156q55 0 69 55l330 1216q4 16 4 25q0 31 -43 31h-156l19 65h604l-16 -65h-156q-55 0 -70 -56l-329 -1216q-4 -16 -5 -23q0 -33 43 -32h381q53 0 125 25.5t129 80.5q57 57 105.5 140t77 150.5t34.5 86.5h50l-172 -549h-1196z" />
<glyph unicode="M" horiz-adv-x="1830" d="M-20 0l16 66h98q68 0 116 54t71 138l292 1079q4 16 5 25q0 31 -43 31h-179l17 65h520v-1136l623 1136h475l-17 -65h-155q-29 0 -45.5 -13.5t-24.5 -42.5l-330 -1216q-4 -16 -4 -21q0 -34 44 -34h3h156l-16 -66h-611l17 66h155q55 0 70 55l344 1272h-31l-782 -1418h-51 v1418h-41l-312 -1135q-12 -45 -12 -86q0 -106 103 -106h98l-17 -66h-552z" />
<glyph unicode="N" horiz-adv-x="1617" d="M-20 0l16 66h98q66 0 116 55t71 137l292 1079q4 16 5 23q0 33 -43 33h-179l17 65h372l429 -1194l256 936q14 49 14 88q0 104 -105 105h-98l16 65h553l-16 -65h-98q-59 0 -110.5 -51.5t-76.5 -141.5l-335 -1237h-82l-453 1272h-10l-269 -977q-12 -45 -12 -88 q0 -104 103 -104h98l-17 -66h-552z" />
<glyph unicode="O" horiz-adv-x="1454" d="M188 508q0 266 115 493.5t297 360.5t371 133q131 0 229 -74.5t151.5 -199.5t53.5 -275q0 -266 -114.5 -492.5t-297 -358.5t-370.5 -132q-131 0 -229.5 74t-152 197.5t-53.5 273.5zM385 393q0 -178 66.5 -271t187.5 -93q174 0 292 143t187 336q55 156 72.5 303t17.5 254 q0 178 -66.5 271.5t-187.5 93.5q-174 0 -291.5 -143.5t-187.5 -336.5q-55 -156 -72.5 -303t-17.5 -254z" />
<glyph unicode="P" horiz-adv-x="1339" d="M-20 0l16 66h156q55 0 69 55l330 1216l4 25q0 31 -43 31h-156l19 65h698q152 0 246 -85t94 -238q0 -123 -74.5 -228.5t-213 -170t-318.5 -64.5h-250l-149 -551q-2 -8 -2 -23q0 -18 9 -25t31 -7h230l-17 -66h-679zM575 737h275q80 0 154.5 39t125.5 109q41 57 64 134 t23 152q0 113 -54.5 167.5t-134.5 54.5h-221q-55 0 -70 -56z" />
<glyph unicode="Q" horiz-adv-x="1454" d="M188 508q0 266 115 493.5t297 360.5t371 133q131 0 229 -73.5t151.5 -199.5t53.5 -280q0 -233 -88 -431t-219 -327t-254 -174v-90q0 -82 16.5 -136t75.5 -54q117 0 186 250l49 -15q-45 -195 -126.5 -268.5t-176.5 -73.5q-90 0 -147 48t-57 143q0 37 14 104l12 51 q-31 -6 -67 -6q-131 0 -229.5 74t-152 197.5t-53.5 273.5zM385 393q0 -229 107 -315h8q-27 37 -27 90q0 109 54.5 158t131.5 49q78 0 125 -76t58 -207q172 125 269 390.5t97 582.5q0 178 -66.5 271.5t-187.5 93.5q-164 0 -294 -145.5t-202.5 -384t-72.5 -507.5zM530 168 q0 -70 30 -104.5t77 -34.5q27 0 68 8l16 76q6 25 6 53q0 63 -18.5 107t-77.5 44q-47 0 -74 -37.5t-27 -111.5z" />
<glyph unicode="R" horiz-adv-x="1474" d="M-20 0l16 66h156q55 0 69 55l330 1216q4 16 4 25q0 31 -43 31h-156l17 65h637q174 0 270 -84t96 -248q0 -86 -55 -164.5t-146.5 -133t-191.5 -72.5l-2 -8q186 -90 186 -297q0 -53 -24 -168q-20 -98 -21 -136q0 -29 13.5 -47t44.5 -18q76 0 118.5 73.5t71.5 176.5l51 -15 q-27 -92 -54.5 -157.5t-88.5 -125t-160 -59.5q-82 0 -135 44t-53 147q0 47 9 94t19.5 88t12.5 53q33 113 33 166q0 80 -43 121t-113 41h-277l-163 -608q-2 -8 -2 -23q0 -33 40 -32h205l-16 -66h-655zM590 795h250q156 0 248 100t92 281q0 109 -53.5 163t-155.5 54h-164 q-55 0 -70 -56z" />
<glyph unicode="S" horiz-adv-x="1269" d="M70 -20l163 647h48q-10 -61 -11 -109q0 -129 52.5 -241.5t140.5 -180t190 -67.5q172 0 262.5 71.5t90.5 210.5q0 82 -41 134.5t-125 103.5l-238 145q-125 74 -182.5 156t-57.5 215q0 215 124 322.5t325 107.5q74 0 146.5 -39t117.5 -80q20 -18 32.5 -25.5t27.5 -7.5 q35 0 63.5 45.5t40.5 90.5h47l-119 -533h-47q1 12 1 25q0 88 -37 188q-42 115 -119.5 193t-171.5 78q-104 0 -177 -39t-108 -101.5t-35 -132.5q0 -96 56.5 -153.5t152.5 -112.5l192 -113q94 -57 148.5 -103t84.5 -110.5t30 -158.5q0 -205 -131.5 -324t-368.5 -119 q-125 0 -217 51.5t-135 94.5q-20 20 -34.5 30.5t-27.5 10.5q-33 0 -61.5 -56.5t-44.5 -113.5h-47z" />
<glyph unicode="T" horiz-adv-x="1413" d="M217 0l16 66h205q53 0 68 55l330 1216q4 20 4 25q0 31 -41 31h-68q-70 0 -132 -35t-103 -74q-59 -57 -105.5 -140t-74 -156t-27.5 -79h-51l163 549h1123l-129 -549h-52q2 8 7.5 37t11.5 78t6 98q0 152 -62.5 211.5t-142.5 59.5h-67q-61 0 -74 -56l-330 -1216 q-2 -8 -2 -23q0 -16 9.5 -24t29.5 -8h205l-16 -66h-701z" />
<glyph unicode="U" horiz-adv-x="1605" d="M266 360q0 49 19 127l229 850q4 16 4 23q0 33 -43 33h-156l17 65h606l-16 -65h-156q-29 0 -45 -13.5t-25 -42.5l-243 -905q-18 -78 -19 -117q0 -135 87 -210.5t231 -75.5q184 0 294.5 108.5t153.5 268.5l219 798q12 49 13 86q0 43 -23.5 73t-81.5 30h-98l16 65h553 l-16 -65h-98q-63 0 -113.5 -54.5t-73.5 -138.5l-213 -774q-59 -217 -185 -340t-364 -123q-157 0 -262.5 53.5t-158 143.5t-52.5 200z" />
<glyph unicode="V" horiz-adv-x="1540" d="M287 1393l16 65h623l-17 -65h-143q-47 0 -62.5 -25t-15.5 -72v-1011l533 813q43 66 64.5 115t21.5 94q0 39 -23.5 62.5t-66.5 23.5h-91l17 65h606l-16 -65h-80q-78 0 -143.5 -45t-102.5 -105l-848 -1280h-51v1340q-6 51 -29.5 70.5t-68.5 19.5h-123z" />
<glyph unicode="W" horiz-adv-x="2207" d="M287 1393l16 65h606l-16 -65h-139q-47 0 -60.5 -23.5t-13.5 -73.5v-999l500 801q63 96 63 205q0 51 -24.5 70.5t-71.5 19.5h-107l17 65h606l-16 -65h-117q-51 0 -79 -35t-28 -94v-945l488 768q78 121 78 216q0 31 -25 60.5t-57 29.5h-113l16 65h607l-17 -65h-90 q-70 0 -120 -43t-91 -111l-805 -1276h-51v1096l-692 -1096h-51v1340q-6 53 -28.5 71.5t-68.5 18.5h-116z" />
<glyph unicode="X" horiz-adv-x="1720" d="M20 0l19 66h88q84 0 150.5 39.5t134.5 115.5l444 486l-264 583q-18 41 -31.5 60.5t-39 31t-70.5 11.5h-140l17 65h639l-17 -65h-92q-25 0 -49.5 -20.5t-24.5 -51.5q0 -14 7 -31l198 -436l309 338q23 23 32 49.5t9 65.5q0 86 -104 86h-76l17 65h639l-17 -65h-74 q-147 0 -245 -107l-457 -506l293 -641q23 -47 47 -60t70 -13h124l-16 -66h-655l16 66h131q33 0 55.5 16t22.5 45q0 18 -8 37l-213 469l-314 -346q-33 -37 -45 -65.5t-12 -69.5q0 -86 107 -86h69l-18 -66h-656z" />
<glyph unicode="Y" horiz-adv-x="1474" d="M217 0l16 66h205q53 0 68 53l143 532l-162 652q-16 51 -38.5 70.5t-63.5 19.5h-152l17 65h647l-16 -65h-121q-41 0 -65.5 -21.5t-24.5 -50.5q0 -16 4 -25l135 -569l352 406q47 55 75 96t28 84q0 80 -99 80h-88l17 65h606l-17 -65h-96q-117 0 -244 -150l-501 -569 l-150 -555q-4 -16 -4 -25q0 -29 41 -28h205l-16 -66h-701z" />
<glyph unicode="Z" horiz-adv-x="1392" d="M74 0l16 63l1040 1330h-368q-88 0 -163 -38t-157 -122q-51 -53 -85.5 -108.5t-51 -95.5t-16.5 -46h-51l172 475h966l-16 -65l-1036 -1327h454q147 0 258 96q63 55 115.5 141t86.5 163t34 83h51l-176 -549h-1073z" />
<glyph unicode="[" horiz-adv-x="778" d="M49 -406l508 1864h430l-16 -61h-246q-27 -4 -36 -10.5t-17 -30.5l-445 -1635q-2 -8 -2 -22q0 -37 31 -43h240l-17 -62h-430z" />
<glyph unicode="\" horiz-adv-x="901" d="M147 1495h82l611 -1901h-82z" />
<glyph unicode="]" horiz-adv-x="778" d="M-184 -406l16 62h246q27 4 36 10t17 31l444 1634q2 8 3 23q0 37 -31 43h-240l17 61h430l-508 -1864h-430z" />
<glyph unicode="^" d="M180 688l467 746l467 -746h-98l-369 586l-368 -586h-99z" />
<glyph unicode="_" horiz-adv-x="1064" d="M-84 -324l21 82h1064l-20 -82h-1065z" />
<glyph unicode="`" horiz-adv-x="716" d="M438 1311q0 25 16.5 49t57.5 24q31 0 49.5 -18t32.5 -61l82 -244l-35 -21l-174 199q-29 33 -29 72z" />
<glyph unicode="a" horiz-adv-x="1097" d="M86 256q0 125 37 240.5t84 189.5q72 113 167 180.5t193 67.5q63 0 114.5 -44t74.5 -136l8 -4l45 159h135l-174 -645q-29 -115 -29 -164q0 -29 8.5 -42t28.5 -13q55 0 114.5 91t108.5 237l41 -13q-53 -158 -129.5 -271.5t-171.5 -113.5q-118 0 -118 206q0 30 1 43.5 t1 15.5l-7 4q-43 -92 -125.5 -180.5t-177.5 -88.5q-108 0 -168.5 77t-60.5 204zM233 174q0 -61 21.5 -105t73.5 -44q75 0 145 76.5t129 205.5q41 92 72 205t31 184q0 90 -37 139.5t-101 49.5q-63 0 -120.5 -70t-98.5 -160q-51 -115 -83 -243.5t-32 -237.5z" />
<glyph unicode="b" horiz-adv-x="983" d="M139 279q0 59 13 100l270 985q4 16 4 22q0 23 -35 23h-182l14 49h363l-201 -735l10 -8q55 96 132 157.5t165 61.5q106 0 163.5 -90t57.5 -209q0 -129 -70.5 -283.5t-156.5 -245.5q-66 -66 -137.5 -98.5t-163.5 -32.5q-66 0 -122 37t-90 105.5t-34 161.5zM283 217 q0 -76 23.5 -134t107.5 -58q69 0 122.5 61t104.5 160q125 236 125 469q0 61 -23.5 115.5t-66.5 54.5q-70 0 -144.5 -68.5t-134.5 -189.5q-51 -102 -82.5 -212t-31.5 -198z" />
<glyph unicode="c" horiz-adv-x="868" d="M106 324q0 123 45.5 242.5t135.5 213.5q72 76 144.5 115t162.5 39q78 0 137.5 -49t59.5 -156q0 -61 -34 -102t-83 -41q-39 0 -59.5 23.5t-20.5 54.5q0 59 65 106q23 18 23 53q0 18 -22.5 40t-73.5 22q-160 0 -279 -357q-23 -68 -38 -169t-15 -158q0 -90 40 -133t97 -43 q127 0 207 102t113 190l43 -14q-49 -139 -149.5 -233.5t-223.5 -94.5t-199 101.5t-76 247.5z" />
<glyph unicode="d" horiz-adv-x="1085" d="M86 256q0 123 46 242.5t99 203.5q68 109 161 170.5t188 61.5q61 0 110 -47t66 -133l8 -4l166 614l2 14q0 31 -35 31h-180l14 49h363l-324 -1194q-29 -115 -29 -164q0 -29 8.5 -42t28.5 -13q55 0 115.5 92t107.5 236l41 -13q-57 -160 -131.5 -272.5t-169.5 -112.5 q-118 0 -118 206q0 30 1 43.5t1 15.5l-7 4q-43 -92 -125.5 -180.5t-177.5 -88.5q-108 0 -168.5 77t-60.5 204zM233 174q0 -61 21.5 -105t73.5 -44q75 0 145 76.5t129 205.5q41 92 72 205t31 184q0 90 -37 139.5t-101 49.5q-63 0 -120.5 -70t-98.5 -160q-51 -115 -83 -243.5 t-32 -237.5z" />
<glyph unicode="e" horiz-adv-x="839" d="M106 324q0 123 45.5 242.5t135.5 213.5q147 154 307 154q82 0 134 -40t52 -132q0 -160 -207 -256q-70 -33 -139 -46.5t-151 -19.5q-10 -43 -19.5 -111.5t-9.5 -127.5q0 -90 40 -133t97 -43q127 0 207 102t113 190l43 -14q-49 -139 -149.5 -233.5t-223.5 -94.5t-199 101.5 t-76 247.5zM295 492q150 10 240 51q66 29 106.5 90t40.5 141q0 59 -24.5 85t-61.5 26q-84 0 -155.5 -77t-104.5 -167q-10 -33 -22.5 -78t-18.5 -71z" />
<glyph unicode="f" horiz-adv-x="655" d="M-86 -487l369 1339h-211l12 57h213l25 80q12 47 43.5 119t56.5 113q152 254 362 254q72 0 119 -43t47 -105q0 -55 -30.5 -91t-73.5 -36q-33 0 -50.5 18.5t-17.5 49.5q0 20 9.5 37.5t23.5 27.5q33 16 33 45q0 20 -15.5 33.5t-42.5 13.5q-66 0 -118 -29.5t-101 -114.5 t-94 -245l-37 -127h230l-13 -57h-231l-369 -1339h-139z" />
<glyph unicode="g" horiz-adv-x="983" d="M-35 -307q0 57 34 90t77 33q39 0 60.5 -26t21.5 -56q0 -51 -39 -82q-10 -10 -14.5 -18.5t-4.5 -26.5q0 -66 88 -66q70 0 122 25.5t102 91.5q51 68 82.5 144.5t54.5 164.5q12 39 37.5 130t38.5 143l-7 4q-43 -92 -125.5 -180.5t-177.5 -88.5q-109 0 -169 77t-60 204 q0 123 46 242.5t99 203.5q68 109 161 170.5t188 61.5q61 0 110 -47t66 -133l8 -4l45 159h135l-252 -923q-27 -96 -84 -204t-131 -175q-63 -59 -136 -87t-136 -28q-109 0 -174.5 53.5t-65.5 147.5zM233 174q0 -61 21.5 -105t73.5 -44q75 0 145 76.5t129 205.5q41 92 72 205 t31 184q0 90 -37 139.5t-101 49.5q-63 0 -120.5 -70t-98.5 -160q-51 -115 -83 -243.5t-32 -237.5z" />
<glyph unicode="h" horiz-adv-x="1048" d="M49 0l373 1364q4 16 4 20q0 25 -37 25h-180l14 49h363l-271 -981l9 -6l28 51q90 174 183.5 293t205.5 119q61 0 97 -50t36 -147q0 -45 -12 -109.5t-28 -99.5l-132 -305q-10 -23 -21 -59.5t-11 -61.5q0 -29 12 -47t35 -18q70 0 133 106.5t108 229.5l41 -13 q-55 -166 -134 -275.5t-171 -109.5q-55 0 -93 49.5t-38 147.5q0 45 12.5 107.5t28.5 101.5l131 305q10 23 21.5 59.5t11.5 61.5q0 29 -11.5 47t-33.5 18q-123 0 -260 -231q-82 -139 -146.5 -276.5t-91.5 -229.5l-41 -135h-135z" />
<glyph unicode="i" horiz-adv-x="684" d="M74 549q55 164 135 274.5t172 110.5q53 0 91 -51.5t38 -145.5q0 -45 -12.5 -109.5t-28.5 -99.5l-131 -305q-10 -23 -21.5 -59.5t-11.5 -61.5q0 -29 12.5 -47t34.5 -18q70 0 133.5 106.5t108.5 229.5l41 -13q-55 -166 -134 -275.5t-171 -109.5q-56 0 -93.5 49.5 t-37.5 147.5q0 45 12 107.5t29 101.5l131 305q10 23 21 59.5t11 61.5q0 29 -11 47t-34 18q-70 0 -134 -106.5t-109 -228.5zM442 1307q0 47 31 76.5t76 29.5q47 0 76.5 -29.5t29.5 -76.5q0 -45 -29.5 -76t-76.5 -31q-45 0 -76 31t-31 76z" />
<glyph unicode="j" horiz-adv-x="667" d="M-199 -334q0 57 38 98t85 41q37 0 57.5 -21.5t20.5 -55.5q0 -53 -47 -82q-16 -10 -24.5 -19.5t-8.5 -27.5q0 -57 64 -58q59 0 110 46t82 153l23 100l28 117l189 694q2 12 15 59.5t13 92.5q0 25 -11 43t-34 18q-66 0 -132 -105.5t-113 -238.5l-41 12q53 156 137 279 t190 123q74 0 102.5 -48t28.5 -104q0 -59 -22 -155l-197 -721q-29 -104 -86 -199.5t-134 -155t-161 -59.5q-61 0 -116.5 45t-55.5 129zM492 1307q0 47 30.5 76.5t75.5 29.5q47 0 77 -29.5t30 -76.5q0 -45 -30 -76t-77 -31q-45 0 -75.5 31t-30.5 76z" />
<glyph unicode="k" horiz-adv-x="1003" d="M49 0l373 1364q4 16 4 20q0 25 -37 25h-180l14 49h363l-258 -946h129q53 0 98 78t78 186q27 88 74 123t100 35q29 0 55.5 -14.5t38.5 -30.5q20 -27 26.5 -49.5t6.5 -53.5q0 -55 -30 -91t-73 -36q-29 0 -51 18.5t-22 51.5q0 29 18 55q14 23 15 35q0 16 -8.5 24.5 t-30.5 8.5q-29 0 -45.5 -20.5t-28.5 -59.5q-27 -88 -68 -174t-80 -100l-2 -11q53 -4 94.5 -46t41.5 -109q0 -53 -25 -135q-16 -66 -16 -88q0 -25 10 -43.5t33 -18.5q12 0 22 4t29 19q53 39 88 111.5t80 191.5l41 -13q-133 -385 -295 -385q-62 0 -105 39t-43 125q0 57 29 135 q2 8 11 38t9 59q0 45 -18 68.5t-76 23.5h-123l-131 -463h-135z" />
<glyph unicode="l" horiz-adv-x="593" d="M111 184q0 41 20 123l291 1057q4 16 4 20q0 25 -37 25h-180l14 49h359l-320 -1175q-33 -131 -33 -183q0 -29 8.5 -42t30.5 -13q57 0 115.5 95.5t105.5 232.5l41 -13q-55 -156 -126.5 -270.5t-174.5 -114.5q-118 0 -118 209z" />
<glyph unicode="m" horiz-adv-x="1650" d="M74 549q135 385 299 385q121 0 121 -211q0 -35 -18.5 -121t-37.5 -125l8 -6l25 45q92 176 179 297t167 121q158 0 158 -195q0 -43 -19.5 -125t-35.5 -137l6 -6l28 51q90 174 183.5 293t205.5 119q61 0 97.5 -50t36.5 -147q0 -45 -12.5 -109.5t-28.5 -99.5l-131 -305 q-10 -23 -21.5 -59.5t-11.5 -61.5q0 -29 12 -47t35 -18q70 0 133.5 106.5t108.5 229.5l41 -13q-55 -166 -134 -275.5t-172 -109.5q-55 0 -93 49.5t-38 147.5q0 45 12.5 107.5t28.5 101.5l131 305q10 23 21.5 59.5t11.5 61.5q0 29 -11 47t-34 18q-123 0 -260 -231 q-82 -139 -146.5 -276.5t-91.5 -229.5l-41 -135h-135l170 633q4 14 19.5 66.5t15.5 93.5q0 79 -63 79h-2q-53 0 -145.5 -137t-179.5 -317t-118 -283l-41 -135h-135l172 633q31 123 31 174q0 29 -8.5 43t-30.5 14q-104 0 -221 -327z" />
<glyph unicode="n" horiz-adv-x="1171" d="M74 549q135 385 301 385q119 0 119 -209q0 -41 -19.5 -126t-34.5 -122l6 -6l29 51q90 174 183.5 293t205.5 119q61 0 97 -50t36 -147q0 -45 -12 -109.5t-29 -99.5l-131 -305q-10 -23 -21 -59.5t-11 -61.5q0 -29 12 -47t35 -18q70 0 133 106.5t108 229.5l41 -13 q-55 -166 -134 -275.5t-171 -109.5q-55 0 -93 49.5t-38 147.5q0 45 12.5 107.5t28.5 101.5l131 305q10 23 21.5 59.5t11.5 61.5q0 29 -11.5 47t-33.5 18q-123 0 -260 -231q-82 -139 -146.5 -276.5t-91.5 -229.5l-41 -135h-135l172 635q31 123 31 174q0 29 -8.5 42t-30.5 13 q-57 0 -115.5 -95t-105.5 -232z" />
<glyph unicode="o" horiz-adv-x="946" d="M106 336q0 143 69 282.5t183.5 227.5t243.5 88q70 0 131.5 -40t100 -122t38.5 -199q0 -143 -67.5 -282t-181 -227.5t-242.5 -88.5q-70 0 -132.5 40t-102.5 122t-40 199zM254 213q0 -84 35 -136t100 -52q82 0 137.5 65.5t102.5 175.5q43 100 69.5 217t26.5 213 q0 84 -33 136.5t-98 52.5q-82 0 -139.5 -66.5t-104.5 -175.5q-43 -100 -69.5 -217t-26.5 -213z" />
<glyph unicode="p" horiz-adv-x="1105" d="M-156 -487l17 57h151q25 0 37 10t19 35l280 1042q25 98 25 152q0 31 -9.5 43t-31.5 12q-55 0 -115.5 -99t-103.5 -228l-41 12q135 385 303 385q63 0 90 -58.5t27 -136.5q0 -29 -1.5 -47t-1.5 -22l7 -4q43 92 126 180t177 88q109 0 169 -77t60 -204q0 -125 -37 -240.5 t-84 -189.5q-72 -113 -167 -180.5t-193 -67.5q-63 0 -114.5 44t-74.5 137l-8 4l-143 -545l-4 -21q0 -14 8 -19t27 -5h249l-16 -57h-627zM410 213q0 -90 36.5 -139t100.5 -49q63 0 120.5 69.5t98.5 159.5q51 115 83 244t32 237q0 61 -21.5 105.5t-73.5 44.5q-76 0 -145.5 -77 t-128.5 -206q-41 -92 -71.5 -204.5t-30.5 -184.5z" />
<glyph unicode="q" horiz-adv-x="983" d="M86 256q0 123 46 242.5t99 203.5q68 109 161 170.5t188 61.5q66 0 117 -52.5t67 -166.5h10l135 194h37l-352 -1294q-2 -6 -2 -18q0 -27 37 -27h151l-16 -57h-629l17 57h247q25 0 37.5 10t18.5 35q27 94 84 306t86 319l-7 4q-49 -104 -127.5 -186.5t-175.5 -82.5 q-109 0 -169 77t-60 204zM233 174q0 -61 21.5 -105t73.5 -44q75 0 145 76.5t129 205.5q41 92 72 205t31 184q0 90 -37 139.5t-101 49.5q-63 0 -120.5 -70t-98.5 -160q-51 -115 -83 -243.5t-32 -237.5z" />
<glyph unicode="r" horiz-adv-x="880" d="M74 549q135 385 301 385q119 0 119 -209q0 -27 -6.5 -62.5t-12.5 -56.5l14 -4q70 145 139.5 238.5t147.5 93.5q68 0 102.5 -42t34.5 -99q0 -53 -34.5 -95.5t-92.5 -42.5q-35 0 -57 25t-22 61q0 37 24 66q20 20 21 31q0 12 -5.5 18t-21.5 6q-47 0 -122 -128t-146.5 -303 t-110.5 -304l-39 -127h-135l172 635q31 123 31 174q0 29 -8.5 42t-30.5 13q-57 0 -116.5 -97t-104.5 -230z" />
<glyph unicode="s" horiz-adv-x="860" d="M49 217q0 47 28.5 91t84.5 44q31 0 53.5 -21.5t22.5 -58.5q0 -51 -43 -65q-25 -8 -39.5 -22.5t-14.5 -47.5q0 -59 69 -85.5t140 -26.5q109 0 166 49t57 123q0 41 -16 76.5t-49 60.5l-170 129q-96 61 -96 186q0 90 46 154.5t118.5 97.5t150.5 33q82 0 140.5 -40t88 -94.5 t29.5 -94.5q0 -47 -26.5 -82t-79.5 -35q-31 0 -56.5 21.5t-25.5 54.5q0 39 26 61q8 8 29 20q25 14 25 33q0 47 -52.5 77t-109.5 30q-82 0 -143.5 -47t-61.5 -131q0 -51 13.5 -72t45.5 -43l191 -143q45 -33 71.5 -71t26.5 -99q0 -76 -42 -146t-122 -114t-186 -44 q-94 0 -158.5 35t-97.5 90.5t-33 116.5z" />
<glyph unicode="t" horiz-adv-x="655" d="M106 147q0 78 23 168l147 537h-141l15 57h143l133 492h135l-133 -492h231l-14 -57h-233l-170 -631q-6 -20 -11.5 -56t-5.5 -59q0 -18 14.5 -38.5t45.5 -20.5q27 0 53 16q47 33 81 112t66 198l41 -13q-41 -174 -102.5 -279.5t-165.5 -105.5q-68 0 -110 46.5t-42 125.5z " />
<glyph unicode="u" horiz-adv-x="1171" d="M74 549q55 166 134 275.5t171 109.5q55 0 93 -49t38 -148q0 -45 -12.5 -107.5t-28.5 -101.5l-131 -305q-10 -23 -21.5 -59.5t-11.5 -61.5q0 -29 11.5 -47t33.5 -18q123 0 260 231q82 139 146.5 276.5t91.5 229.5l41 135h135l-172 -635q-31 -123 -31 -174q0 -29 8.5 -42 t30.5 -13q57 0 115.5 95.5t105.5 232.5l41 -13q-135 -385 -301 -385q-119 0 -119 209q0 41 19.5 126t34.5 122l-6 6l-29 -51q-90 -174 -183.5 -293t-205.5 -119q-62 0 -97.5 50.5t-35.5 146.5q0 45 12 109.5t29 99.5l131 305q10 23 21 59.5t11 61.5q0 29 -12 47t-35 18 q-70 0 -133 -106.5t-108 -228.5z" />
<glyph unicode="v" horiz-adv-x="966" d="M74 549q55 166 134 275.5t171 109.5q55 0 93 -49t38 -148q0 -45 -12.5 -107.5t-28.5 -101.5l-131 -305q-10 -23 -21.5 -59.5t-11.5 -61.5q0 -41 18.5 -59t65.5 -18q127 0 233.5 108.5t168 255t61.5 246.5q0 39 -17.5 55.5t-43.5 22.5q-39 8 -75 38.5t-36 79.5 q0 47 27.5 75t72.5 28q76 0 111 -68.5t35 -160.5q0 -106 -62.5 -281.5t-189.5 -312t-309 -136.5q-66 0 -116 52.5t-50 144.5q0 45 12 109.5t29 99.5l131 305q10 23 21 59.5t11 61.5q0 29 -12 47t-35 18q-70 0 -133 -106.5t-108 -228.5z" />
<glyph unicode="w" horiz-adv-x="1466" d="M74 549q55 166 134 275.5t171 109.5q55 0 93 -49t38 -148q0 -45 -12.5 -107.5t-28.5 -101.5l-131 -305q-10 -23 -21.5 -59.5t-11.5 -61.5q0 -77 70 -77h2q76 0 166 103t166.5 253.5t113.5 282.5l66 245h135l-186 -688q-16 -63 -17 -127q0 -27 17.5 -48t50.5 -21 q127 0 233.5 108.5t168 255t61.5 246.5q0 41 -16.5 56.5t-45.5 21.5q-39 8 -74.5 38.5t-35.5 79.5q0 47 27.5 75t72.5 28q76 0 110.5 -68.5t34.5 -160.5q0 -106 -62.5 -281.5t-189 -312t-309.5 -136.5q-72 0 -117 43t-45 142q0 43 4.5 71.5t14.5 65.5l-12 4 q-66 -133 -164.5 -229.5t-188.5 -96.5q-67 0 -112 51.5t-45 145.5q0 45 12 109.5t29 99.5l131 305q10 23 21 59.5t11 61.5q0 29 -12 47t-35 18q-70 0 -133 -106.5t-108 -228.5z" />
<glyph unicode="x" horiz-adv-x="1155" d="M51 121q0 68 37 112q37 49 94 50q27 0 49 -17q29 -20 29 -65q0 -70 -63 -99q-20 -10 -27.5 -18t-7.5 -27q0 -14 12 -23t33 -9q98 0 173 109.5t120 279.5l51 188q16 59 16 135q0 63 -25.5 105.5t-80.5 42.5q-80 0 -161 -90t-128 -203l-43 14q53 131 144.5 229.5 t203.5 98.5q88 0 131 -60.5t49 -146.5l9 -4q63 98 138 154.5t157 56.5q35 0 67.5 -13.5t48.5 -31.5q18 -23 27.5 -50.5t9.5 -50.5q0 -68 -37 -112q-37 -49 -94 -49q-27 0 -49 16q-29 23 -29 66q0 61 60 90q23 10 31 22.5t8 30.5q0 14 -12.5 23.5t-33.5 9.5 q-96 0 -168.5 -108.5t-123.5 -280.5l-52 -189q-16 -55 -16 -135q0 -63 25.5 -105t81.5 -42q80 0 160.5 90t127.5 202l43 -14q-53 -131 -144 -229.5t-204 -98.5q-88 0 -131 60.5t-49 146.5l-8 4q-63 -98 -138 -154.5t-157 -56.5q-35 0 -68 13.5t-49 31.5q-18 23 -27.5 50.5 t-9.5 50.5z" />
<glyph unicode="y" horiz-adv-x="1048" d="M49 -307q0 57 34 90t77 33q39 0 60.5 -26t21.5 -56q0 -51 -39 -82q-10 -10 -14.5 -18.5t-4.5 -26.5q0 -66 88 -66q72 0 123 23.5t103 87.5q51 63 80.5 142t54.5 173l88 330l-12 4q-66 -133 -164.5 -229.5t-188.5 -96.5q-68 0 -112.5 51.5t-44.5 145.5q0 45 12 109.5 t29 99.5l131 305q10 23 21 59.5t11 61.5q0 29 -12 47t-35 18q-70 0 -133 -106.5t-108 -228.5l-41 12q55 166 134 275.5t171 109.5q55 0 93 -49t38 -148q0 -45 -12.5 -107.5t-28.5 -101.5l-131 -305q-10 -23 -21.5 -59.5t-11.5 -61.5q0 -77 70 -77h2q76 0 166 103 t166.5 253.5t113.5 282.5l68 245h135l-242 -909q-25 -88 -77 -195.5t-127 -185.5q-66 -68 -142 -97.5t-143 -29.5q-111 0 -178.5 53.5t-67.5 147.5z" />
<glyph unicode="z" horiz-adv-x="901" d="M53 61q0 143 106.5 255t243.5 169q180 74 255 123t102 113l-4 8q-55 -41 -105 -41q-43 0 -72.5 13.5t-64.5 39.5q-29 23 -50.5 34t-49.5 11q-88 0 -138.5 -59t-82.5 -141l-33 14q31 115 105.5 224.5t176.5 109.5q55 0 96.5 -32t77.5 -85q27 -35 44.5 -51t35.5 -16 q29 0 44.5 10t15.5 26q0 10 -3 16.5t-16 12.5q-12 6 -22 20.5t-10 32.5q0 29 14 47.5t43 18.5q39 0 58.5 -27.5t19.5 -70.5q0 -68 -47.5 -144t-128 -142.5t-175.5 -107.5q-143 -61 -209.5 -95t-94 -61.5t-35.5 -66.5q86 -23 155 -59q51 -27 95 -40.5t100 -13.5 q92 0 150.5 74t88.5 170l39 -16q-45 -152 -114.5 -255.5t-186.5 -103.5q-76 0 -127 32t-98 87q-27 31 -46.5 46.5t-39.5 15.5q-43 0 -43 -33q0 -23 31 -33q34 -14 34 -49q0 -29 -15 -47.5t-46 -18.5q-33 0 -53.5 24t-20.5 62z" />
<glyph unicode="{" horiz-adv-x="860" d="M217 -145q0 68 26.5 134t84.5 175q47 86 72.5 146.5t25.5 113.5q0 61 -45 82.5t-135 21.5l10 37q90 0 147.5 19.5t93 86t35.5 199.5v99q0 221 108 342t314 184l13 -49q-113 -35 -169.5 -69t-84 -97t-29.5 -182v-125q-6 -145 -69.5 -262t-217.5 -162l-2 -4 q55 -20 92 -65.5t37 -123.5q0 -76 -30.5 -151.5t-87.5 -177.5q-47 -84 -69 -135.5t-22 -94.5q0 -55 42 -87t122 -62l-39 -49q-223 80 -223 256z" />
<glyph unicode="|" horiz-adv-x="581" d="M295 -406v1901h90v-1901h-90z" />
<glyph unicode="}" horiz-adv-x="860" d="M-16 -352q113 35 169 68.5t83.5 97t29.5 182.5v125q6 145 69.5 262t217.5 162l2 4q-55 20 -92 65t-37 123q0 76 30.5 152t88.5 178q47 84 68.5 135t21.5 94q0 55 -42 87t-122 63l39 49q223 -80 223 -256q0 -68 -26.5 -134.5t-83.5 -174.5q-47 -86 -73 -146.5t-26 -113.5 q0 -61 45 -83t136 -22l-11 -37q-90 0 -147.5 -19.5t-93 -86t-35.5 -199.5v-98q0 -221 -107.5 -342t-314.5 -184z" />
<glyph unicode="~" horiz-adv-x="1351" d="M123 518q0 82 61.5 142.5t171.5 60.5q86 0 183.5 -34t242.5 -97q127 -57 206 -86t138 -29q33 0 57.5 25.5t24.5 68.5t-22.5 72t-63.5 51l25 43q63 -29 97 -77t34 -107q0 -82 -61.5 -142.5t-172.5 -60.5q-88 0 -183 33t-243 98q-139 61 -212.5 88t-131.5 27 q-33 0 -57 -25.5t-24 -68.5t22.5 -72t63.5 -51l-25 -43q-64 28 -97.5 76.5t-33.5 107.5z" />
<glyph unicode="&#xa2;" d="M279 324q0 98 35.5 220t144.5 236q70 74 137.5 112t151.5 42l67 246h49l-65 -246q47 0 95 -23.5t79 -70.5t31 -111q0 -61 -34 -102t-83 -41q-39 0 -59.5 21.5t-20.5 49.5q0 53 65 101q23 18 23 47q0 35 -28.5 57.5t-82.5 22.5l-235 -860h14q100 0 183 65.5t133 167.5 l43 -14q-49 -106 -143.5 -187.5t-225.5 -81.5h-16l-62 -221h-49l63 230q-98 25 -154 120t-56 220zM426 201q0 -61 19.5 -103.5t58.5 -60.5l229 848q-23 0 -57.5 -21.5t-65.5 -60.5q-74 -90 -131 -275q-53 -170 -53 -327z" />
<glyph unicode="&#xa3;" horiz-adv-x="1474" d="M-66 84q0 92 90.5 143.5t204.5 51.5q106 0 220 -31q80 139 145 407q-119 16 -184 17q-61 0 -98.5 -10.5t-90.5 -34.5l-16 45q35 25 88 41t117 16q88 0 198 -18q184 723 568 723q92 0 148 -39t78.5 -92.5t22.5 -98.5q0 -72 -41 -116t-94 -44q-47 0 -86 25t-39 80 q0 41 24.5 60.5t51.5 19.5q25 0 41 -8t37 -9q16 0 24.5 7.5t8.5 27.5q0 53 -43 97.5t-135 44.5q-115 0 -189 -85t-112.5 -204t-69.5 -281q-12 -76 -33 -139q109 -20 213 -21q61 0 104 11.5t84 34.5l17 -46q-29 -23 -85 -40t-120 -17q-98 0 -229 23q-78 -246 -207 -408 q55 -20 102 -39q90 -37 151.5 -54.5t117.5 -17.5q188 0 290.5 102.5t134.5 252.5l41 -12q-18 -98 -62 -196.5t-114 -160.5q-76 -68 -153.5 -96.5t-200.5 -28.5q-80 0 -158 30t-184 89l-59 31q-162 -150 -355 -150q-65 0 -114.5 30t-49.5 87zM-8 88q0 -45 32.5 -58.5 t81.5 -13.5q160 1 277 134q-133 59 -244 59q-55 0 -101 -34t-46 -87z" />
<glyph unicode="&#xa5;" d="M131 0l19 66h155q57 0 72 57l82 299h-287l18 65h287l33 123h-287l19 66h274l-127 579q-10 41 -23.5 60.5t-46.5 19.5h-129l19 66h532l-18 -66h-84q-55 0 -64 -35q-2 -4 -2 -18q0 -16 5 -33l108 -516l344 418q14 18 28.5 48t14.5 54q0 29 -15.5 55.5t-51.5 26.5h-86l18 66 h475l-18 -66h-78q-41 0 -75 -26.5t-81 -83.5l-452 -549h286l-18 -66h-287l-33 -123h287l-18 -65h-287l-82 -299q-4 -16 -4 -23q0 -35 47 -34h156l-19 -66h-606z" />
<glyph unicode="&#xa8;" horiz-adv-x="999" d="M416 1221q0 41 29.5 69.5t68.5 28.5q41 0 69.5 -28.5t28.5 -69.5q0 -39 -28.5 -69t-69.5 -30q-39 0 -68.5 30t-29.5 69zM801 1221q0 41 29.5 69.5t68.5 28.5q41 0 69.5 -28.5t28.5 -69.5q0 -39 -28.5 -69t-69.5 -30q-39 0 -68.5 30t-29.5 69z" />
<glyph unicode="&#xa9;" horiz-adv-x="1679" d="M147 729q0 209 97.5 384t267.5 278.5t377 103.5t377 -103.5t267 -278.5t97 -384t-97 -384t-267 -278.5t-377 -103.5t-377 103.5t-267.5 278.5t-97.5 384zM205 729q0 -190 91 -353t247.5 -259.5t345.5 -96.5q188 0 345 96.5t248 259.5t91 353t-91 353t-248 259.5 t-345 96.5t-345 -96.5t-248 -259t-91 -353.5zM500 692q0 150 50 267.5t144 183t224 65.5q82 0 167 -67q12 -10 19.5 -12.5t21.5 -2.5q18 0 31.5 22.5t13.5 47.5h37v-336h-37q-8 78 -49 147.5t-98 110.5t-106 41q-238 0 -238 -467q0 -154 55.5 -286t177.5 -132 q125 0 186.5 86t76.5 209h49q-8 -135 -87 -239.5t-225 -104.5q-131 0 -225 67.5t-141 175t-47 224.5z" />
<glyph unicode="&#xab;" horiz-adv-x="901" d="M111 467q117 88 229.5 187.5t263.5 242.5l23 -20l-332 -410l111 -410l-35 -20q-74 145 -132.5 243.5t-127.5 186.5zM414 467q145 115 334 315l22 -20l-219 -295l59 -295l-35 -20q-79 204 -161 315z" />
<glyph unicode="&#xad;" horiz-adv-x="757" d="M115 401q0 72 36.5 122t102.5 50h360q31 0 44.5 13.5t13.5 44.5h37q0 -72 -37 -122t-103 -50h-360q-31 0 -44 -13.5t-13 -44.5h-37z" />
<glyph unicode="&#xae;" horiz-adv-x="1679" d="M147 729q0 209 97.5 384t267.5 278.5t377 103.5t377 -103.5t267 -278.5t97 -384t-97 -384t-267 -278.5t-377 -103.5t-377 103.5t-267.5 278.5t-97.5 384zM205 729q0 -190 91 -353t247.5 -259.5t345.5 -96.5q188 0 345 96.5t248 259.5t91 353t-91 353t-248 259.5 t-345 96.5t-345 -96.5t-248 -259t-91 -353.5zM459 266v49h86q25 0 35 10.5t10 34.5v746q0 25 -10.5 35t-34.5 10h-86v49h467q129 0 214 -58.5t85 -166.5q0 -104 -73 -153.5t-148 -63.5v-8q66 -14 120 -65.5t66 -170.5l4 -47q6 -78 19.5 -115t52.5 -37q49 0 67.5 60.5 t18.5 124.5h37q0 -96 -36 -177t-139 -81q-63 -1 -104 28q-76 53 -76 179v110q0 96 -42 135t-95 39h-160v-373q0 -25 10.5 -35t34.5 -10h90v-49h-413zM737 782h158q68 0 108.5 47.5t40.5 133.5q0 88 -35.5 138t-115.5 50h-111q-25 0 -35 -10.5t-10 -34.5v-324z" />
<glyph unicode="&#xb4;" horiz-adv-x="716" d="M369 1065l217 252q27 31 49 43t49 12q31 0 44 -17.5t13 -41.5q0 -53 -65 -94l-283 -179z" />
<glyph unicode="&#xb8;" horiz-adv-x="778" d="M4 -303q0 37 24.5 70.5t61.5 33.5q29 0 43 -17t14 -46q0 -20 -15 -36.5t-34 -16.5q-8 0 -13 -6.5t-5 -16.5q0 -51 80 -51q57 0 84.5 33.5t27.5 76.5q0 29 -7 52.5t-21 56.5q-20 45 -21 74q0 35 19 69l30 52l39 -25l-26 -43q-8 -14 -9 -31q0 -33 41 -73q29 -29 43.5 -54.5 t14.5 -56.5q0 -74 -62.5 -125t-156.5 -51q-60 0 -106 33.5t-46 97.5z" />
<glyph unicode="&#xbb;" horiz-adv-x="901" d="M147 172l220 295l-60 295l35 20q80 -205 162 -315q-145 -115 -334 -315zM291 57l332 410l-111 410l35 20q74 -145 132 -243.5t128 -186.5q-117 -88 -229.5 -187.5t-264.5 -242.5z" />
<glyph unicode="&#x2c6;" horiz-adv-x="946" d="M371 1067q182 96 311 309h82q18 -213 143 -309l-24 -27q-123 74 -199 189q-143 -117 -301 -189z" />
<glyph unicode="&#x2da;" horiz-adv-x="821" d="M420 1225q0 82 57.5 139t140.5 57q84 0 141.5 -57t57.5 -139q0 -84 -58.5 -142.5t-140.5 -58.5q-81 0 -139.5 58.5t-58.5 142.5zM469 1225q0 -66 43 -109t106 -43q64 0 107 43t43 109q0 63 -42 105t-108 42t-107.5 -42t-41.5 -105z" />
<glyph unicode="&#x2dc;" horiz-adv-x="942" d="M399 1139q0 80 43 136t121 56q45 0 79 -11t79 -34q41 -18 66.5 -27.5t58.5 -9.5q35 0 51 20.5t23 61.5h45q0 -80 -43 -136t-121 -56q-45 0 -79 11t-79 34q-41 18 -66.5 27.5t-58.5 9.5q-35 0 -51 -20.5t-23 -61.5h-45z" />
<glyph unicode="&#x400;" horiz-adv-x="1433" d="M-20 0l16 66h156q55 0 69 55l330 1216q4 16 4 25q0 31 -43 31h-156l17 65h1130l-94 -467h-51q2 8 4 34t2 65q0 172 -55.5 237.5t-165.5 65.5h-336q-55 0 -70 -56l-149 -551h221q80 0 129 44t72.5 103.5t46.5 143.5h51l-176 -663h-51q20 90 20 153q0 72 -27.5 113 t-95.5 41h-207l-163 -600q-4 -16 -5 -23q0 -33 43 -32h381q53 0 125 25.5t129 80.5q57 57 105.5 140t77 150.5t34.5 86.5h50l-172 -549h-1196zM762 1833q0 25 15.5 48.5t56.5 23.5q61 0 86 -76l84 -250l-31 -18l-180 198q-14 14 -22.5 36t-8.5 38z" />
<glyph unicode="&#x401;" horiz-adv-x="1433" d="M-20 0l16 66h156q55 0 69 55l330 1216q4 16 4 25q0 31 -43 31h-156l17 65h1130l-94 -467h-51q2 8 4 34t2 65q0 172 -55.5 237.5t-165.5 65.5h-336q-55 0 -70 -56l-149 -551h221q80 0 129 44t72.5 103.5t46.5 143.5h51l-176 -663h-51q20 90 20 153q0 72 -27.5 113 t-95.5 41h-207l-163 -600q-4 -16 -5 -23q0 -33 43 -32h381q53 0 125 25.5t129 80.5q57 57 105.5 140t77 150.5t34.5 86.5h50l-172 -549h-1196zM721 1741q0 47 30.5 76.5t75.5 29.5q47 0 77 -29.5t30 -76.5q0 -45 -30 -76t-77 -31q-45 0 -75.5 31t-30.5 76zM1139 1741 q0 47 30.5 76.5t75.5 29.5q47 0 77 -29.5t30 -76.5q0 -45 -30 -76t-77 -31q-45 0 -75.5 31t-30.5 76z" />
<glyph unicode="&#x402;" horiz-adv-x="1720" d="M238 0l16 66h205q53 0 67 55l330 1216q4 20 4 25q0 31 -41 31h-67q-70 0 -132.5 -35t-103.5 -74q-59 -57 -105 -140t-74 -156t-28 -79h-51l166 549h1180l-129 -549h-52q0 2 12.5 59.5t12.5 153.5q0 152 -62.5 211.5t-142.5 59.5h-127q-59 0 -74 -56l-182 -665 q66 72 183.5 126t242.5 54q172 0 258 -97.5t86 -234.5q0 -131 -75.5 -259t-182.5 -200q-147 -98 -307 -98q-84 0 -147.5 55.5t-63.5 135.5q0 66 25.5 107.5t61.5 60t67 18.5q51 0 80.5 -26.5t29.5 -67.5q0 -39 -19.5 -66.5t-66.5 -50.5q-12 -4 -23.5 -16.5t-11.5 -32.5 q0 -51 86 -51q68 0 115 19.5t94 70.5q70 76 106 196.5t36 245.5q0 98 -59.5 158.5t-182.5 60.5q-98 0 -200.5 -58t-149.5 -122l-162 -600h-442z" />
<glyph unicode="&#x403;" horiz-adv-x="1343" d="M-20 0l16 66h154q55 0 69 55l332 1216q4 16 4 25q0 31 -43 31h-156l17 65h1081l-129 -549h-51q2 8 7 34t11 72t6 91q0 137 -49 212t-172 75h-270q-55 0 -70 -56l-329 -1216q-4 -16 -5 -23q0 -33 43 -32h230l-17 -66h-679zM975 1585l217 252q27 31 49.5 43t48.5 12 q57 0 58 -59q0 -55 -66 -94l-283 -178z" />
<glyph unicode="&#x404;" horiz-adv-x="1339" d="M188 485q0 174 62.5 382t161.5 333q127 162 266 228.5t293 66.5q63 0 129.5 -27.5t120.5 -72.5q23 -18 36 -26.5t29 -8.5q51 0 80 119h47l-129 -555h-47q0 113 -11.5 201.5t-49.5 170.5q-27 55 -90.5 94.5t-131.5 39.5q-115 0 -216 -78t-193 -254q-78 -145 -109 -299h651 l-12 -66h-653q-18 -90 -27.5 -164.5t-9.5 -167.5q0 -197 90 -284.5t242 -87.5q72 0 133 23.5t97 63.5t36 85q0 39 -43 75q-25 20 -39 42t-14 55q0 47 33.5 80.5t78.5 33.5q74 0 111 -53t37 -115q0 -94 -56.5 -176t-165 -131t-259.5 -49q-111 0 -220.5 51.5t-183.5 169 t-74 301.5z" />
<glyph unicode="&#x405;" horiz-adv-x="1269" d="M70 -20l163 647h48q-10 -61 -11 -109q0 -129 52.5 -241.5t140.5 -180t190 -67.5q172 0 262.5 71.5t90.5 210.5q0 82 -41 134.5t-125 103.5l-238 145q-125 74 -182.5 156t-57.5 215q0 215 124 322.5t325 107.5q74 0 146.5 -39t117.5 -80q20 -18 32.5 -25.5t27.5 -7.5 q35 0 63.5 45.5t40.5 90.5h47l-119 -533h-47q6 98 -36 213t-119.5 193t-171.5 78q-104 0 -177 -39t-108 -101.5t-35 -132.5q0 -96 56.5 -153.5t152.5 -112.5l192 -113q94 -57 148.5 -103t84.5 -110.5t30 -158.5q0 -205 -131.5 -324t-368.5 -119q-125 0 -217 51.5t-135 94.5 q-20 20 -34.5 30.5t-27.5 10.5q-33 0 -61.5 -56.5t-44.5 -113.5h-47z" />
<glyph unicode="&#x406;" horiz-adv-x="819" d="M-20 0l16 66h156q55 0 69 55l330 1216q4 16 4 25q0 31 -43 31h-156l17 65h606l-16 -65h-156q-55 0 -70 -56l-329 -1216q-4 -16 -5 -23q0 -33 43 -32h156l-16 -66h-606z" />
<glyph unicode="&#x407;" horiz-adv-x="819" d="M-20 0l16 66h156q55 0 69 55l330 1216q4 16 4 25q0 31 -43 31h-156l17 65h606l-16 -65h-156q-55 0 -70 -56l-329 -1216q-4 -16 -5 -23q0 -33 43 -32h156l-16 -66h-606zM451 1741q0 47 30.5 76.5t75.5 29.5q47 0 77 -29.5t30 -76.5q0 -45 -30 -76t-77 -31q-45 0 -75.5 31 t-30.5 76zM868 1741q0 47 31 76.5t76 29.5q47 0 76.5 -29.5t29.5 -76.5q0 -45 -29.5 -76t-76.5 -31q-45 0 -76 31t-31 76z" />
<glyph unicode="&#x408;" horiz-adv-x="1105" d="M29 225q0 96 53 156.5t131 60.5q55 0 91 -32.5t36 -83.5q0 -61 -35 -100.5t-100 -39.5q-18 0 -29.5 -13t-11.5 -34q0 -51 40 -80.5t115 -29.5q100 0 175 74.5t104 181.5l285 1052q4 16 4 25q0 31 -43 31h-230l17 65h680l-17 -65h-155q-55 0 -70 -56l-260 -958 q-35 -127 -114 -222.5t-181 -144.5t-211 -49q-127 0 -200.5 74t-73.5 188z" />
<glyph unicode="&#x409;" horiz-adv-x="2129" d="M16 168q0 102 51.5 155.5t120.5 53.5q59 0 91 -36t32 -79q0 -47 -24.5 -75.5t-57.5 -43.5q-14 -6 -25 -21.5t-11 -39.5q0 -20 13 -36.5t40 -16.5q78 0 141.5 57t106.5 131q82 129 190.5 440.5t177.5 604.5q4 14 4 41q0 39 -24.5 64.5t-75.5 25.5h-148l17 65h1114l-16 -65 h-152q-59 0 -74 -56l-145 -530h317q182 0 271.5 -97.5t89.5 -242.5q0 -127 -80 -234.5t-206 -170t-257 -62.5h-747l16 66h156q55 0 69 55l330 1216l4 25q0 16 -9 23.5t-32 7.5h-143q-111 0 -163 -76t-79 -176q-70 -262 -141.5 -477t-182.5 -428q-43 -84 -132 -178.5 t-218 -94.5q-84 0 -146.5 60.5t-62.5 144.5zM1176 98q0 -33 43 -32h262q98 0 181 54t132 146t49 197q0 137 -43 207.5t-172 70.5h-285l-163 -620q-4 -16 -4 -23z" />
<glyph unicode="&#x40a;" horiz-adv-x="2179" d="M-20 0l16 66h156q55 0 69 55l330 1216q4 16 4 23q0 33 -43 33h-156l17 65h606l-16 -65h-156q-53 0 -70 -56l-145 -534h633l145 534q4 16 4 23q0 33 -43 33h-155l16 65h606l-16 -65h-156q-53 0 -70 -56l-141 -534h314q182 0 271 -95.5t89 -240.5q0 -127 -80 -234.5 t-206 -170t-257 -62.5h-747l16 66h156q55 0 69 55l168 616h-633l-167 -616q-4 -16 -5 -23q0 -33 43 -32h156l-16 -66h-606zM1225 98q0 -33 43 -32h262q98 0 181 54t132 146t49 197q0 133 -45 203.5t-176 70.5h-274l-168 -616q-4 -16 -4 -23z" />
<glyph unicode="&#x40b;" horiz-adv-x="1781" d="M238 0l16 66h205q53 0 67 55l330 1216q4 20 4 25q0 31 -41 31h-67q-70 0 -132.5 -35t-103.5 -74q-59 -57 -105 -140t-74 -156t-28 -79h-51l166 549h1180l-129 -549h-52q0 2 12.5 59.5t12.5 153.5q0 152 -62.5 211.5t-142.5 59.5h-127q-59 0 -74 -56l-165 -610 q51 39 146 74t198 35q156 0 243.5 -72t87.5 -189q0 -31 -10 -71l-102 -383q-4 -16 -4 -23q0 -33 43 -32h155l-16 -66h-606l16 66h156q29 0 45 13t24 42l99 366q20 78 20 107q0 88 -37 132t-135 44q-190 0 -342 -115l-145 -534q-4 -16 -4 -23q0 -33 41 -32h157l-16 -66h-653z " />
<glyph unicode="&#x40c;" horiz-adv-x="1445" d="M-41 0l16 66h156q55 0 70 55l329 1216q4 16 5 25q0 31 -43 31h-156l16 65h656l-17 -65h-205q-55 0 -69 -56l-144 -538h181q80 0 153.5 48t126.5 136t74 201q29 152 95.5 225.5t154.5 73.5q100 0 145 -55.5t45 -129.5q0 -94 -47 -155.5t-125 -61.5q-39 0 -66.5 26 t-27.5 67q0 55 20.5 84.5t61.5 48.5q53 25 53 61q0 33 -19.5 43t-41.5 10q-74 0 -120 -72.5t-83 -250.5q-20 -92 -93 -190.5t-171 -127.5l-6 -20q39 0 93 -21.5t98 -79t44 -155.5q0 -86 -37 -225q-23 -98 -22 -132q0 -29 14 -47t43 -18q125 0 191 250l49 -15 q-29 -123 -96.5 -232.5t-194.5 -109.5q-199 1 -199 187q0 39 3 67.5t14 69.5l45 184q14 57 14 88q0 80 -45 121t-115 41h-227l-166 -612q-4 -16 -4 -23q0 -33 41 -32h205l-17 -66h-655zM987 1585l217 252q27 31 49.5 43t49.5 12q57 0 57 -59q0 -55 -66 -94l-282 -178z" />
<glyph unicode="&#x40d;" horiz-adv-x="1638" d="M-20 0l16 66h156q55 0 69 55l330 1216q4 16 4 25q0 31 -43 31h-156l17 65h606l-16 -65h-156q-55 0 -70 -56l-272 -1003l887 936l18 67q4 16 4 23q0 33 -45 33h-153l16 65h606l-16 -65h-154q-29 0 -45 -13.5t-27 -42.5l-329 -1216q-4 -16 -4 -23q0 -33 45 -32h153l-16 -66 h-606l16 66h156q29 0 44 13t25 42l271 1003l-885 -936l-18 -67q-4 -16 -5 -23q0 -33 43 -32h156l-16 -66h-606zM905 1833q0 25 15.5 48.5t56.5 23.5q61 0 86 -76l84 -250l-31 -18l-180 198q-14 14 -22.5 36t-8.5 38z" />
<glyph unicode="&#x40e;" horiz-adv-x="1597" d="M238 225q0 80 51 146.5t137 66.5q53 0 88 -38t35 -91q0 -57 -36 -93t-87 -36q-31 0 -45 -14q-12 -20 -12 -45q0 -43 40 -67.5t89 -24.5q74 0 131 40t119 138l71 108l-237 988q-14 51 -38 70.5t-69 19.5h-147l16 65h647l-16 -65h-111q-92 0 -92 -70q0 -6 4 -27l178 -776 l414 617q25 37 40 85t15 76q0 45 -24.5 70t-83.5 25h-119l16 65h607l-17 -65h-86q-63 0 -104 -38t-90 -112l-686 -1034q-74 -113 -150 -179.5t-190 -66.5q-101 0 -179.5 63.5t-78.5 198.5zM770 1757q0 86 43 128t107 42q49 0 74.5 -26.5t25.5 -63.5q0 -43 -21.5 -66.5 t-60.5 -23.5q-20 0 -31 -14q-8 -16 -8 -33q0 -61 67.5 -90t158.5 -29q127 0 198.5 30.5t71.5 82.5q0 12 -7 21t-12 14q-33 37 -32 86q0 53 27.5 82.5t78.5 29.5q47 0 75 -31.5t28 -72.5q0 -84 -52.5 -152.5t-155 -109.5t-245.5 -41q-80 0 -155.5 28.5t-125 83t-49.5 125.5z " />
<glyph unicode="&#x40f;" horiz-adv-x="1609" d="M-20 0l16 66h156q55 0 69 55l330 1216q4 16 4 25q0 31 -43 31h-156l17 65h606l-16 -65h-156q-55 0 -70 -56l-329 -1216q-4 -16 -5 -23q0 -33 43 -32h496q55 0 70 55l329 1216l5 25q0 31 -43 31h-156l16 65h606l-16 -65h-156q-29 0 -45 -13.5t-24 -42.5l-330 -1216 q-4 -16 -4 -23q0 -33 45 -32h154l-17 -66h-649l-39 -264q-8 -82 -14 -105q-12 -43 -44 -68.5t-75 -25.5q-35 0 -54.5 17.5t-19.5 46.5q0 20 11.5 50t20.5 51.5t15 33.5l101 264h-649z" />
<glyph unicode="&#x410;" horiz-adv-x="1490" d="M-90 0l16 66h76q84 0 150.5 43t103.5 104l842 1245h49v-1304q4 -51 28.5 -69.5t69.5 -18.5h115l-17 -66h-606l17 66h127q43 0 64.5 18t21.5 76v340h-428l-140 -205q-70 -100 -69 -160q0 -70 82 -69h112l-16 -66h-598zM584 565h383v565z" />
<glyph unicode="&#x411;" horiz-adv-x="1318" d="M-61 0l16 66h156q55 0 69 55l328 1216q4 16 4 25q0 31 -43 31h-154l17 65h987l-98 -483h-52q2 8 6.5 43t4.5 90q0 154 -56.5 219.5t-165.5 65.5h-192q-55 0 -70 -56l-143 -530h317q182 0 270.5 -97.5t88.5 -242.5q0 -127 -79 -234.5t-205 -170t-257 -62.5h-749zM365 98 q0 -33 43 -32h264q96 0 179 54t132 146t49 197q0 137 -42 207.5t-171 70.5h-287l-163 -620q-4 -16 -4 -23z" />
<glyph unicode="&#x412;" horiz-adv-x="1413" d="M-20 0l16 66h156q55 0 69 55l330 1216q4 16 4 25q0 31 -43 31h-156l17 65h712q96 0 178.5 -36t132.5 -106.5t50 -170.5q0 -115 -71.5 -195t-175 -123t-206.5 -57l-2 -4q86 -4 162 -45t121 -110.5t45 -159.5q0 -133 -88 -236.5t-222.5 -159t-263.5 -55.5h-765zM403 98 q0 -33 43 -32h334q96 0 170 56t113 143t39 175q0 139 -61.5 220t-182.5 81h-283l-167 -620q-4 -16 -5 -23zM594 807h274q141 0 226.5 54t120 132t34.5 156q0 244 -227 244h-215q-55 0 -70 -56z" />
<glyph unicode="&#x413;" horiz-adv-x="1343" d="M-20 0l16 66h154q55 0 69 55l332 1216q4 16 4 25q0 31 -43 31h-156l17 65h1081l-129 -549h-51q2 8 7 34t11 72t6 91q0 137 -49 212t-172 75h-270q-55 0 -70 -56l-329 -1216q-4 -16 -5 -23q0 -33 43 -32h230l-17 -66h-679z" />
<glyph unicode="&#x414;" horiz-adv-x="1515" d="M-217 -463l151 500h111q57 0 106.5 38t98.5 101q139 178 240.5 436t199.5 631q6 25 6 45q0 104 -90 105h-155l16 65h1159l-16 -65h-156q-29 0 -45 -13.5t-25 -42.5l-323 -1190q-6 -25 -6 -43q0 -68 86 -67h198l-135 -500h-51q4 16 14.5 68.5t10.5 91.5q0 98 -13.5 160.5 t-59.5 102.5t-140 40h-648q-135 0 -247 -98q-68 -59 -120 -140t-84 -150t-32 -75h-51zM322 100q0 -35 59 -34h418q55 0 69 55l332 1216q4 16 4 21q0 35 -47 35h-180q-111 0 -163 -70t-73 -147q-96 -348 -172.5 -551t-208.5 -424q-23 -39 -30.5 -58.5t-7.5 -42.5z" />
<glyph unicode="&#x415;" horiz-adv-x="1433" d="M-20 0l16 66h156q55 0 69 55l330 1216q4 16 4 25q0 31 -43 31h-156l17 65h1130l-94 -467h-51q2 8 4 34t2 65q0 172 -55.5 237.5t-165.5 65.5h-336q-55 0 -70 -56l-149 -551h221q80 0 129 44t72.5 103.5t46.5 143.5h51l-176 -663h-51q20 90 20 153q0 72 -27.5 113 t-95.5 41h-207l-163 -600q-4 -16 -5 -23q0 -33 43 -32h381q53 0 125 25.5t129 80.5q57 57 105.5 140t77 150.5t34.5 86.5h50l-172 -549h-1196z" />
<glyph unicode="&#x416;" horiz-adv-x="2056" d="M4 131q0 72 37 201l47 -17q-27 -98 -27 -159q0 -90 66 -90q61 0 92 55t64 172q33 123 72.5 213t113.5 158q53 51 125 75.5t145 28.5v12q-39 18 -59.5 62.5t-20.5 99.5q0 84 35 201q31 109 31 168q0 90 -82 90q-27 0 -54.5 -10.5t-27.5 -40.5q0 -27 14 -47q31 -33 31 -74 q0 -47 -27.5 -75t-72.5 -28q-66 0 -99.5 40t-33.5 108q0 94 62.5 151.5t170.5 57.5q94 0 145.5 -43t51.5 -140q0 -49 -29 -147q-33 -115 -33 -190q0 -82 41 -123t138 -41h118l146 538q4 20 4 25q0 31 -43 31h-205l16 65h705l-16 -65h-205q-55 0 -70 -56l-145 -538h125 q141 0 216.5 94t129.5 291q41 154 113.5 226.5t185.5 72.5q74 0 119 -52.5t45 -146.5q0 -78 -41 -140.5t-127 -62.5q-41 0 -70 27t-29 76q0 76 74 116q41 20 41 54q0 20 -11 27.5t-38 7.5q-55 0 -90 -25t-62.5 -84t-58.5 -174q-76 -281 -227 -326l-7 -18q129 0 184.5 -58.5 t55.5 -166.5q0 -90 -41 -242q-29 -104 -29 -156q0 -35 13.5 -54t46.5 -19q68 0 106.5 78.5t67.5 187.5l49 -15q-35 -131 -98.5 -236.5t-192.5 -105.5q-98 0 -153.5 35t-55.5 131q0 49 23 140l53 196q18 53 19 92q0 76 -48.5 120t-113.5 44h-191l-168 -612l-4 -25 q0 -31 41 -30h205l-16 -66h-701l17 66h204q29 0 44.5 13t23.5 42l166 612h-174q-72 0 -117 -19.5t-92 -66.5q-41 -41 -73 -126t-62 -226q-37 -174 -123 -247t-213 -73q-80 0 -121 44t-41 112z" />
<glyph unicode="&#x417;" horiz-adv-x="1310" d="M78 362q0 88 51 152t117 64q147 0 147 -123q0 -57 -37 -90t-86 -33q-20 0 -31.5 -4t-25.5 -15q-20 -20 -20 -59q0 -70 55 -121t141 -77.5t174 -26.5q104 0 193.5 52t148.5 140q41 61 63.5 149.5t22.5 184.5q0 76 -44 131t-124 55h-356l16 74h312q90 0 171 45t131 133 t50 209q0 119 -71.5 173.5t-157.5 54.5q-104 0 -214 -47.5t-206.5 -143.5t-155.5 -235h-47l160 528h47q-4 -23 -4 -39q0 -35 13 -59.5t40 -24.5q23 0 41 5t63 24q135 57 287 57q129 0 219 -45t136 -119t46 -160q0 -166 -125.5 -260t-263.5 -127l-4 -20q100 -27 179 -109 t79 -196q0 -135 -82 -249t-228 -180.5t-329 -66.5q-131 0 -242.5 43t-180 133t-68.5 223z" />
<glyph unicode="&#x418;" horiz-adv-x="1638" d="M-20 0l16 66h156q55 0 69 55l330 1216q4 16 4 25q0 31 -43 31h-156l17 65h606l-16 -65h-156q-55 0 -70 -56l-272 -1003l887 936l18 67q4 16 4 23q0 33 -45 33h-153l16 65h606l-16 -65h-154q-29 0 -45 -13.5t-27 -42.5l-329 -1216q-4 -16 -4 -23q0 -33 45 -32h153l-16 -66 h-606l16 66h156q29 0 44 13t25 42l271 1003l-885 -936l-18 -67q-4 -16 -5 -23q0 -33 43 -32h156l-16 -66h-606z" />
<glyph unicode="&#x419;" horiz-adv-x="1638" d="M-20 0l16 66h156q55 0 69 55l330 1216q4 16 4 25q0 31 -43 31h-156l17 65h606l-16 -65h-156q-55 0 -70 -56l-272 -1003l887 936l18 67q4 16 4 23q0 33 -45 33h-153l16 65h606l-16 -65h-154q-29 0 -45 -13.5t-27 -42.5l-329 -1216q-4 -16 -4 -23q0 -33 45 -32h153l-16 -66 h-606l16 66h156q29 0 44 13t25 42l271 1003l-885 -936l-18 -67q-4 -16 -5 -23q0 -33 43 -32h156l-16 -66h-606zM762 1757q0 86 43 128t106 42q49 0 75 -26.5t26 -63.5q0 -43 -21.5 -66.5t-60.5 -23.5q-20 0 -31 -14q-8 -16 -8 -33q0 -61 67.5 -90t157.5 -29 q127 0 198.5 30.5t71.5 82.5q0 12 -7 21t-11 14q-33 37 -33 86q0 53 28 82.5t79 29.5q47 0 74.5 -31.5t27.5 -72.5q0 -84 -52 -152.5t-154.5 -109.5t-245.5 -41q-80 0 -156 28.5t-125 83t-49 125.5z" />
<glyph unicode="&#x41a;" horiz-adv-x="1445" d="M-41 0l16 66h156q55 0 70 55l329 1216q4 16 5 25q0 31 -43 31h-156l16 65h656l-17 -65h-205q-55 0 -69 -56l-144 -538h181q80 0 153.5 48t126.5 136t74 201q29 152 95.5 225.5t154.5 73.5q100 0 145 -55.5t45 -129.5q0 -94 -47 -155.5t-125 -61.5q-39 0 -66.5 26 t-27.5 67q0 55 20.5 84.5t61.5 48.5q53 25 53 61q0 33 -19.5 43t-41.5 10q-74 0 -120 -72.5t-83 -250.5q-20 -92 -93 -190.5t-171 -127.5l-6 -20q39 0 93 -21.5t98 -79t44 -155.5q0 -86 -37 -225q-23 -98 -22 -132q0 -29 14 -47t43 -18q125 0 191 250l49 -15 q-29 -123 -96.5 -232.5t-194.5 -109.5q-199 1 -199 187q0 39 3 67.5t14 69.5l45 184q14 57 14 88q0 80 -45 121t-115 41h-227l-166 -612q-4 -16 -4 -23q0 -33 41 -32h205l-17 -66h-655z" />
<glyph unicode="&#x41b;" horiz-adv-x="1589" d="M16 168q0 102 51.5 155.5t120.5 53.5q59 0 91 -36t32 -79q0 -47 -24.5 -75.5t-57.5 -43.5q-14 -6 -25 -21.5t-11 -39.5q0 -20 13 -36.5t40 -16.5q78 0 141.5 57t106.5 131q82 129 190.5 440.5t177.5 604.5q4 14 4 41q0 39 -24.5 64.5t-75.5 25.5h-148l17 65h1114l-16 -65 h-152q-59 0 -74 -56l-329 -1216q-4 -16 -4 -23q0 -33 43 -32h155l-16 -66h-606l16 66h156q55 0 69 55l330 1216l4 25q0 16 -9 23.5t-32 7.5h-143q-111 0 -163 -76t-79 -176q-70 -262 -141.5 -477t-182.5 -428q-43 -84 -132 -178.5t-218 -94.5q-84 0 -146.5 60.5t-62.5 144.5 z" />
<glyph unicode="&#x41c;" horiz-adv-x="1830" d="M-20 0l16 66h98q68 0 116 54t71 138l292 1079q4 16 5 25q0 31 -43 31h-179l17 65h520v-1136l623 1136h475l-17 -65h-155q-29 0 -45.5 -13.5t-24.5 -42.5l-330 -1216q-4 -16 -4 -21q0 -35 47 -34h156l-16 -66h-611l17 66h155q55 0 70 55l344 1272h-31l-782 -1418h-51v1418 h-41l-312 -1135q-12 -45 -12 -86q0 -106 103 -106h98l-17 -66h-552z" />
<glyph unicode="&#x41d;" horiz-adv-x="1638" d="M-20 0l16 66h156q55 0 69 55l330 1216q4 16 4 23q0 33 -43 33h-156l17 65h606l-16 -65h-156q-53 0 -70 -56l-149 -551h633l149 551q4 16 4 23q0 33 -43 33h-155l16 65h606l-16 -65h-156q-53 0 -70 -56l-329 -1216q-4 -16 -4 -23q0 -33 43 -32h155l-16 -66h-606l16 66h156 q55 0 69 55l164 600h-633l-163 -600q-4 -16 -5 -23q0 -33 43 -32h156l-16 -66h-606z" />
<glyph unicode="&#x41e;" horiz-adv-x="1454" d="M188 508q0 266 115 493.5t297 360.5t371 133q131 0 229 -74.5t151.5 -199.5t53.5 -275q0 -266 -114.5 -492.5t-297 -358.5t-370.5 -132q-131 0 -229.5 74t-152 197.5t-53.5 273.5zM385 393q0 -178 66.5 -271t187.5 -93q174 0 292 143t187 336q55 156 72.5 303t17.5 254 q0 178 -66.5 271.5t-187.5 93.5q-174 0 -291.5 -143.5t-187.5 -336.5q-55 -156 -72.5 -303t-17.5 -254z" />
<glyph unicode="&#x41f;" horiz-adv-x="1609" d="M-20 0l16 66h156q55 0 69 55l330 1216q4 16 4 25q0 31 -43 31h-156l17 65h1396l-16 -65h-156q-29 0 -45 -13.5t-24 -42.5l-330 -1216q-4 -16 -4 -23q0 -33 43 -32h156l-17 -66h-606l16 66h156q55 0 70 55l329 1216q4 16 5 23q0 33 -46 33h-493q-55 0 -70 -56l-329 -1216 q-4 -16 -5 -23q0 -33 43 -32h205l-16 -66h-655z" />
<glyph unicode="&#x420;" horiz-adv-x="1339" d="M-20 0l16 66h156q55 0 69 55l330 1216l4 25q0 31 -43 31h-156l19 65h698q152 0 246 -85t94 -238q0 -123 -74.5 -228.5t-213 -170t-318.5 -64.5h-250l-149 -551q-2 -8 -2 -23q0 -18 9 -25t31 -7h230l-17 -66h-679zM575 737h275q80 0 154.5 39t125.5 109q41 57 64 134 t23 152q0 113 -54.5 167.5t-134.5 54.5h-221q-55 0 -70 -56z" />
<glyph unicode="&#x421;" horiz-adv-x="1372" d="M188 516q0 236 115 463t296 371.5t372 144.5q76 0 133 -28.5t94 -65.5l37 -37q20 -20 31.5 -27.5t27.5 -7.5q39 0 61.5 50.5t30.5 99.5h48l-131 -627h-48q2 41 2 129q0 72 -19 174t-69 170q-78 104 -206 105q-121 0 -221.5 -75t-196.5 -257q-68 -127 -114 -314.5 t-46 -382.5q0 -158 40 -239.5t98.5 -107t133.5 -25.5q115 0 221.5 65.5t187.5 172t124 229.5l63 -23q-74 -217 -232.5 -363.5t-397.5 -146.5q-107 0 -206.5 59.5t-164 184.5t-64.5 309z" />
<glyph unicode="&#x422;" horiz-adv-x="1413" d="M217 0l16 66h205q53 0 68 55l330 1216q4 20 4 25q0 31 -41 31h-68q-70 0 -132 -35t-103 -74q-59 -57 -105.5 -140t-74 -156t-27.5 -79h-51l163 549h1123l-129 -549h-52q2 8 7.5 37t11.5 78t6 98q0 152 -62.5 211.5t-142.5 59.5h-67q-61 0 -74 -56l-330 -1216 q-2 -8 -2 -23q0 -16 9.5 -24t29.5 -8h205l-16 -66h-701z" />
<glyph unicode="&#x423;" horiz-adv-x="1597" d="M238 225q0 80 51 146.5t137 66.5q53 0 88 -38t35 -91q0 -57 -36 -93t-87 -36q-31 0 -45 -14q-12 -20 -12 -45q0 -43 40 -67.5t89 -24.5q74 0 131 40t119 138l71 108l-237 988q-14 51 -38 70.5t-69 19.5h-147l16 65h647l-16 -65h-111q-92 0 -92 -70q0 -6 4 -27l178 -776 l414 617q25 37 40 85t15 76q0 45 -24.5 70t-83.5 25h-119l16 65h607l-17 -65h-86q-63 0 -104 -38t-90 -112l-686 -1034q-74 -113 -150 -179.5t-190 -66.5q-101 0 -179.5 63.5t-78.5 198.5z" />
<glyph unicode="&#x424;" horiz-adv-x="1658" d="M188 625q0 119 56.5 240.5t142.5 203.5q80 76 202 124t245 48h108l27 96q4 16 4 25q0 31 -43 31h-205l16 65h705l-16 -65h-205q-29 0 -45.5 -13.5t-24.5 -42.5l-27 -96h78q115 0 207 -49t144.5 -138t52.5 -202q0 -119 -56.5 -241t-142.5 -203q-80 -76 -202 -124t-244 -48 h-109l-31 -117q-4 -16 -4 -23q0 -31 45 -30h199l-16 -66h-701l17 66h204q55 0 70 53l31 117h-80q-115 0 -207 49t-143.5 138t-51.5 202zM385 518q0 -106 59.5 -162.5t153.5 -56.5h88l240 879h-123q-92 0 -173 -48.5t-128 -123.5q-117 -193 -117 -488zM872 299h123 q92 0 173 48t128 124q117 193 117 487q0 106 -60.5 163t-154.5 57h-86z" />
<glyph unicode="&#x425;" horiz-adv-x="1720" d="M20 0l19 66h88q84 0 150.5 39.5t134.5 115.5l444 486l-264 583q-18 41 -31.5 60.5t-39 31t-70.5 11.5h-140l17 65h639l-17 -65h-92q-25 0 -49.5 -20.5t-24.5 -51.5q0 -14 7 -31l198 -436l309 338q23 23 32 49.5t9 65.5q0 86 -104 86h-76l17 65h639l-17 -65h-74 q-147 0 -245 -107l-457 -506l293 -641q23 -47 47 -60t70 -13h124l-16 -66h-655l16 66h131q33 0 55.5 16t22.5 45q0 18 -8 37l-213 469l-314 -346q-33 -37 -45 -65.5t-12 -69.5q0 -86 107 -86h69l-18 -66h-656z" />
<glyph unicode="&#x426;" horiz-adv-x="1658" d="M-20 0l16 66h156q55 0 69 55l330 1216q4 16 4 25q0 31 -43 31h-156l17 65h606l-16 -65h-156q-55 0 -70 -56l-329 -1216q-4 -16 -5 -23q0 -33 43 -32h496q55 0 70 55l329 1216l5 25q0 16 -9.5 23.5t-31.5 7.5h-158l16 65h606l-16 -65h-156q-29 0 -45 -13.5t-24 -42.5 l-322 -1185q-8 -37 -8 -48q0 -68 84 -67h201l-135 -500h-52q4 17 13.5 69t9.5 91q0 102 -11.5 162.5t-58.5 100.5t-143 40h-1126z" />
<glyph unicode="&#x427;" horiz-adv-x="1474" d="M283 1393l16 65h606l-16 -65h-156q-29 0 -45 -13.5t-24 -42.5l-99 -366q-20 -76 -20 -107q0 -88 36.5 -132t135.5 -44q193 0 342 115l147 534q4 20 4 25q0 31 -43 31h-155l16 65h606l-16 -65h-156q-29 0 -44 -13.5t-25 -42.5l-330 -1216q-4 -16 -4 -23q0 -33 43 -32h205 l-17 -66h-733l16 66h230q59 0 74 55l165 610q-49 -39 -146 -73.5t-200 -34.5q-156 0 -243.5 71.5t-87.5 188.5q0 31 10 71l102 383q4 16 4 23q0 33 -43 33h-155z" />
<glyph unicode="&#x428;" horiz-adv-x="2273" d="M-20 0l16 66h156q55 0 69 55l330 1216q4 16 4 25q0 31 -43 31h-156l17 65h606l-16 -65h-156q-55 0 -70 -56l-329 -1216q-4 -16 -5 -23q0 -33 43 -32h431q57 0 71 55l330 1216q4 20 4 25q0 31 -43 31h-156l17 65h606l-16 -65h-156q-29 0 -45 -13.5t-25 -42.5l-329 -1216 q-4 -16 -5 -23q0 -33 46 -32h430q55 0 69 55l330 1216q4 20 4 25q0 31 -43 31h-156l17 65h606l-16 -65h-156q-55 0 -70 -56l-329 -1216q-4 -16 -4 -23q0 -33 43 -32h155l-16 -66h-2060z" />
<glyph unicode="&#x429;" horiz-adv-x="2322" d="M-20 0l16 66h156q55 0 69 55l330 1216q4 16 4 25q0 31 -43 31h-156l17 65h606l-16 -65h-156q-55 0 -70 -56l-329 -1216q-4 -16 -5 -23q0 -33 43 -32h431q57 0 71 55l330 1216q4 20 4 25q0 31 -43 31h-156l17 65h606l-16 -65h-156q-29 0 -45 -13.5t-25 -42.5l-329 -1216 q-4 -16 -5 -23q0 -33 46 -32h430q55 0 69 55l330 1216q4 20 4 25q0 31 -43 31h-156l17 65h606l-16 -65h-156q-55 0 -70 -56l-325 -1185q-8 -37 -8 -48q0 -68 84 -67h200l-135 -500h-51q4 17 13 69t9 91q0 102 -11 162.5t-58 100.5t-144 40h-1785z" />
<glyph unicode="&#x42a;" horiz-adv-x="1781" d="M197 909l174 549h1030l-17 -65h-153q-57 0 -72 -56l-143 -530h315q182 0 271.5 -97.5t89.5 -242.5q0 -127 -80 -234.5t-206 -170t-257 -62.5h-748l17 66h155q29 0 45.5 12t24.5 41l332 1218q4 16 4 23q0 33 -43 33h-162q-78 0 -154.5 -19.5t-142.5 -85.5 q-57 -55 -108.5 -139t-83 -151.5t-39.5 -88.5h-49zM827 98q0 -33 43 -32h263q98 0 181 54t132 146t49 197q0 137 -43 207.5t-172 70.5h-285l-164 -620q-4 -16 -4 -23z" />
<glyph unicode="&#x42b;" horiz-adv-x="1945" d="M-20 0l16 66h156q29 0 45 12t24 41l330 1218q4 16 4 25q0 31 -43 31h-156l17 65h606l-16 -65h-154q-57 0 -72 -56l-143 -530h315q182 0 271.5 -97.5t89.5 -242.5q0 -127 -80 -234.5t-206 -170t-257 -62.5h-747zM406 98q0 -33 43 -32h262q98 0 181 54t132 146t49 197 q0 137 -43 207.5t-172 70.5h-285l-163 -620q-4 -16 -4 -23zM1106 0l16 66h156q55 0 70 55l329 1216q4 16 4 25q0 31 -43 31h-155l16 65h606l-16 -65h-156q-55 0 -69 -56l-330 -1216q-4 -16 -4 -23q0 -33 43 -32h156l-17 -66h-606z" />
<glyph unicode="&#x42c;" horiz-adv-x="1359" d="M-20 0l16 66h156q29 0 45 12t24 41l330 1218q4 16 4 25q0 31 -43 31h-156l17 65h606l-16 -65h-154q-57 0 -72 -56l-143 -530h315q182 0 271.5 -97.5t89.5 -242.5q0 -127 -80 -234.5t-206 -170t-257 -62.5h-747zM406 98q0 -33 43 -32h262q98 0 181 54t132 146t49 197 q0 137 -43 207.5t-172 70.5h-285l-163 -620q-4 -16 -4 -23z" />
<glyph unicode="&#x42d;" horiz-adv-x="1359" d="M131 289q0 76 29.5 133t75 88t92.5 31q68 0 97.5 -36t29.5 -87q0 -55 -37 -93t-94 -38q-31 0 -56 -6q-14 -4 -22 -13.5t-8 -31.5q0 -63 40.5 -110.5t103 -72t126.5 -24.5q213 0 360 186q84 109 136.5 249t78.5 281h-661l14 66h660q18 139 18 262q0 166 -58.5 261.5 t-174.5 95.5q-109 0 -216.5 -58.5t-198.5 -168t-149 -255.5h-47l160 531h47q-14 -57 -14 -76q0 -43 35 -43q16 0 29.5 5t29.5 15q90 55 165 85t175 30q209 0 311.5 -144.5t102.5 -379.5q0 -182 -63.5 -372.5t-170.5 -332.5q-113 -147 -260 -225t-323 -78q-78 0 -163 39 t-142.5 112.5t-57.5 174.5z" />
<glyph unicode="&#x42e;" horiz-adv-x="2027" d="M-20 0l16 66h156q55 0 69 55l330 1216q4 16 4 25q0 31 -43 31h-156l17 65h606l-16 -65h-156q-55 0 -70 -56l-149 -551h209q51 203 168.5 365t270.5 253t308 91q131 0 229.5 -74.5t151.5 -199.5t53 -275q0 -266 -114.5 -492.5t-297 -358.5t-370.5 -132q-131 0 -229.5 74 t-151.5 197.5t-53 273.5q0 100 20 213h-211l-163 -600q-4 -16 -5 -23q0 -33 43 -32h156l-16 -66h-606zM958 393q0 -178 67 -271t187 -93q174 0 292 143t188 336q55 156 72.5 303t17.5 254q0 178 -66.5 271.5t-187.5 93.5q-174 0 -292 -143.5t-187 -336.5q-55 -156 -73 -303 t-18 -254z" />
<glyph unicode="&#x42f;" horiz-adv-x="1540" d="M4 131q0 76 37 201l47 -17q-29 -96 -29 -159q0 -41 17.5 -65.5t54.5 -24.5q63 0 98 59t64 162q27 96 60.5 175t86.5 138q59 70 117.5 99.5t147.5 43.5l2 11q-72 6 -142.5 39.5t-119 99t-48.5 162.5q0 147 87 237t218.5 128t274.5 38h723l-17 -65h-155q-29 0 -45.5 -13.5 t-24.5 -42.5l-330 -1216q-4 -16 -4 -23q0 -33 43 -32h156l-16 -66h-656l17 66h204q31 0 46.5 13t23.5 42l166 608h-274q-72 0 -138.5 -42t-101.5 -109q-41 -78 -98 -314q-35 -145 -112 -217t-210 -72q-90 0 -130 43t-40 113zM594 1014q0 -113 59.5 -166t163.5 -53h307 l148 542q4 16 4 21q0 35 -47 35h-275q-82 0 -164.5 -39t-139 -124t-56.5 -216z" />
<glyph unicode="&#x430;" horiz-adv-x="1097" d="M86 256q0 125 37 240.5t84 189.5q72 113 167 180.5t193 67.5q63 0 114.5 -44t74.5 -136l8 -4l45 159h135l-174 -645q-29 -115 -29 -164q0 -29 8.5 -42t28.5 -13q55 0 114.5 91t108.5 237l41 -13q-53 -158 -129.5 -271.5t-171.5 -113.5q-119 0 -118 209q0 27 1 40.5 t1 15.5l-7 4q-43 -92 -125.5 -180.5t-177.5 -88.5q-108 0 -168.5 77t-60.5 204zM233 174q0 -61 21.5 -105t73.5 -44q75 0 145 76.5t129 205.5q41 92 72 205t31 184q0 90 -37 139.5t-101 49.5q-63 0 -120.5 -70t-98.5 -160q-51 -115 -83 -243.5t-32 -237.5z" />
<glyph unicode="&#x431;" horiz-adv-x="946" d="M106 336q0 102 29 234t74 241q84 201 233.5 345t364.5 196q96 23 142 43t59 51l10 27l41 -13q-10 -49 -40 -109.5t-85 -97.5q-72 -47 -195 -73q-184 -39 -302 -139.5t-163 -221.5l-26 -71l8 -7q59 80 152.5 136.5t197.5 56.5q68 0 129.5 -40t99 -122t37.5 -199 q0 -143 -67.5 -283t-181 -229.5t-242.5 -89.5q-70 0 -132.5 41t-102.5 124t-40 200zM254 213q0 -84 35 -136t100 -52q82 0 137.5 65.5t102.5 175.5q43 100 69.5 217t26.5 213q0 84 -33 136.5t-98 52.5q-82 0 -139.5 -66.5t-104.5 -175.5q-43 -100 -69.5 -217t-26.5 -213z " />
<glyph unicode="&#x432;" horiz-adv-x="872" d="M106 324q0 143 69 285.5t183.5 233.5t243.5 91q90 0 145.5 -53.5t55.5 -124.5q0 -86 -77 -141.5t-165 -75.5l-2 -11q78 0 138.5 -57t60.5 -149q0 -100 -53.5 -179.5t-142.5 -123.5t-189 -44q-121 0 -194 85t-73 264zM254 221q0 -102 32.5 -149t98.5 -47q68 0 119 44 t78.5 112.5t27.5 137.5q0 74 -39 117t-108 43q-109 0 -180 -47q-29 -127 -29 -211zM299 498l133 37q104 25 174 86t70 153q0 53 -23.5 82t-62.5 29q-55 0 -102.5 -36t-94.5 -120q-27 -45 -54.5 -113.5t-39.5 -117.5z" />
<glyph unicode="&#x433;" horiz-adv-x="860" d="M106 188q0 115 95.5 185.5t234.5 126.5q90 37 146.5 90t56.5 147q0 57 -29.5 92t-95.5 35q-92 0 -172 -74.5t-127 -171.5l-41 13q53 117 148.5 210t218.5 93q117 0 181 -55.5t64 -135.5q0 -104 -88 -170.5t-239 -130.5q-98 -43 -151.5 -98t-53.5 -166q0 -63 37 -98 t98 -35q104 0 186 79t132 191l41 -12q-63 -141 -159.5 -234.5t-232.5 -93.5q-112 0 -181 55.5t-69 157.5z" />
<glyph unicode="&#x434;" horiz-adv-x="1011" d="M106 336q0 143 69 282.5t183.5 227.5t243.5 88q70 0 121 -45t63 -137l19 2q20 49 41.5 154.5t21.5 178.5q0 150 -32.5 244t-135.5 94q-74 0 -143.5 -43t-112.5 -137l-53 21q41 84 122 146.5t196 62.5q160 0 225 -124t65 -266q0 -156 -46 -355.5t-122 -360.5 q-84 -176 -200.5 -285t-249.5 -109q-70 0 -132.5 40t-102.5 122t-40 199zM254 213q0 -84 35 -136t100 -52q82 0 137.5 65.5t102.5 175.5q43 100 69.5 217t26.5 213q0 84 -33 136.5t-98 52.5q-82 0 -139.5 -66.5t-104.5 -175.5q-43 -100 -69.5 -217t-26.5 -213z" />
<glyph unicode="&#x435;" horiz-adv-x="839" d="M106 324q0 123 45.5 242.5t135.5 213.5q147 154 307 154q82 0 134 -40t52 -132q0 -160 -207 -256q-70 -33 -139 -46.5t-151 -19.5q-10 -43 -19.5 -111.5t-9.5 -127.5q0 -90 40 -133t97 -43q127 0 207 102t113 190l43 -14q-49 -139 -149.5 -233.5t-223.5 -94.5t-199 101.5 t-76 247.5zM295 492q150 10 240 51q66 29 106.5 90t40.5 141q0 59 -24.5 85t-61.5 26q-84 0 -155.5 -77t-104.5 -167q-10 -33 -22.5 -78t-18.5 -71z" />
<glyph unicode="&#x436;" horiz-adv-x="1671" d="M51 121q0 68 37 112q37 49 94 50q27 0 49 -17q29 -20 29 -65q0 -27 -16.5 -55.5t-44.5 -41.5q-18 -10 -27.5 -19t-9.5 -28q0 -14 12 -23t33 -9q80 0 146.5 75.5t115.5 192.5q41 98 63.5 205.5t22.5 203.5q0 90 -15.5 130t-70.5 40q-84 0 -157.5 -85t-116.5 -195l-43 14 q63 141 145 234.5t205 93.5q90 0 137 -66.5t47 -183.5q0 -88 -24 -192h129l114 417h135l-114 -417h112q49 152 136 258q72 88 147.5 136t163.5 48q35 0 63.5 -13.5t44.5 -31.5q18 -23 27.5 -50.5t9.5 -50.5q0 -68 -37 -112q-37 -49 -94 -49q-27 0 -49 16q-29 23 -29 66 q0 27 16.5 52t39.5 38q23 12 33 23.5t10 29.5q0 14 -12.5 23.5t-32.5 9.5q-80 0 -146.5 -76t-116.5 -193q-41 -98 -63.5 -205.5t-22.5 -203.5q0 -90 15.5 -130t70.5 -40q84 0 158 85t117 195l43 -14q-63 -141 -145 -234.5t-205 -93.5q-90 0 -137.5 67t-47.5 183 q0 113 29 217h-113l-118 -442h-136l121 442h-129q-47 -166 -141 -282q-72 -88 -147.5 -136.5t-163.5 -48.5q-35 0 -64 13.5t-45 31.5q-18 23 -27.5 50.5t-9.5 50.5z" />
<glyph unicode="&#x437;" horiz-adv-x="847" d="M66 180q0 61 33.5 102.5t82.5 41.5q39 0 59.5 -21.5t20.5 -50.5q0 -53 -65 -100q-23 -18 -23 -48q0 -37 44 -58t112 -21q102 0 168 73q80 86 80 219q0 145 -150 146h-178l16 57h176q45 0 93.5 26.5t80 77t31.5 115.5q0 68 -34.5 107t-100.5 39q-102 0 -187 -66.5 t-132 -167.5l-43 15q68 135 166 201.5t216 66.5q125 0 185.5 -57.5t60.5 -128.5q0 -72 -38 -125.5t-90 -85t-97 -41.5l-2 -9q61 -8 117.5 -56t56.5 -124q0 -86 -51 -161.5t-143.5 -123t-208.5 -47.5q-95 0 -175.5 52.5t-80.5 152.5z" />
<glyph unicode="&#x438;" horiz-adv-x="1171" d="M74 549q55 166 134 275.5t171 109.5q55 0 93 -49t38 -148q0 -45 -12.5 -107.5t-28.5 -101.5l-131 -305q-10 -23 -21.5 -59.5t-11.5 -61.5q0 -29 11.5 -47t33.5 -18q123 0 260 231q82 139 146.5 276.5t91.5 229.5l41 135h135l-172 -635q-31 -123 -31 -174q0 -29 8.5 -42 t30.5 -13q57 0 115.5 95.5t105.5 232.5l41 -13q-135 -385 -301 -385q-119 0 -119 209q0 41 19.5 126t34.5 122l-6 6l-29 -51q-90 -174 -183.5 -293t-205.5 -119q-62 0 -97.5 50.5t-35.5 146.5q0 45 12 109.5t29 99.5l131 305q10 23 21 59.5t11 61.5q0 29 -12 47t-35 18 q-70 0 -133 -106.5t-108 -228.5z" />
<glyph unicode="&#x439;" horiz-adv-x="1171" d="M74 549q55 166 134 275.5t171 109.5q55 0 93 -49t38 -148q0 -45 -12.5 -107.5t-28.5 -101.5l-131 -305q-10 -23 -21.5 -59.5t-11.5 -61.5q0 -29 11.5 -47t33.5 -18q123 0 260 231q82 139 146.5 276.5t91.5 229.5l41 135h135l-172 -635q-31 -123 -31 -174q0 -29 8.5 -42 t30.5 -13q57 0 115.5 95.5t105.5 232.5l41 -13q-135 -385 -301 -385q-119 0 -119 209q0 41 19.5 126t34.5 122l-6 6l-29 -51q-90 -174 -183.5 -293t-205.5 -119q-62 0 -97.5 50.5t-35.5 146.5q0 45 12 109.5t29 99.5l131 305q10 23 21 59.5t11 61.5q0 29 -12 47t-35 18 q-70 0 -133 -106.5t-108 -228.5zM487 1206q0 51 33 86t74 35q43 0 66.5 -20.5t23.5 -59.5t-21.5 -59.5t-50.5 -20.5q-33 0 -32 -26q0 -39 38.5 -59.5t98.5 -20.5q84 0 164 56.5t127 160.5l32 -18q-45 -109 -137 -178.5t-198 -69.5q-95 0 -156.5 54t-61.5 140z" />
<glyph unicode="&#x43a;" horiz-adv-x="1122" d="M74 549q55 156 126.5 270.5t174.5 114.5q39 0 68.5 -27.5t39.5 -60.5q12 -43 13 -101q0 -37 -27 -143l-25 -90h131q53 0 98.5 78t78.5 186q27 88 73.5 123t100.5 35q29 0 55.5 -14.5t38.5 -30.5q20 -27 26.5 -49.5t6.5 -53.5q0 -55 -30 -91t-73 -36q-29 0 -51 18.5 t-22 51.5q0 29 18 55q14 23 14 35q0 16 -8 24.5t-31 8.5q-29 0 -45 -20.5t-28 -59.5q-27 -88 -68 -174t-80 -100l-2 -11q53 -4 94 -46t41 -109q0 -53 -24 -135q-16 -66 -17 -88q0 -25 10.5 -43.5t32.5 -18.5q12 0 22.5 4t29.5 19q53 39 87.5 111.5t80.5 191.5l40 -13 q-133 -385 -294 -385q-62 0 -105 39t-43 125q0 57 29 135q2 8 11 38t9 59q0 45 -18.5 68.5t-75.5 23.5h-127l-127 -463h-135l172 627q2 10 19.5 72.5t17.5 105.5q0 59 -41 59q-57 0 -115.5 -95t-105.5 -232z" />
<glyph unicode="&#x43b;" horiz-adv-x="1064" d="M20 135q0 66 32 111t89 45q41 0 58.5 -22.5t17.5 -53.5q0 -47 -55 -88q-33 -23 -33 -53q0 -29 18.5 -39t38.5 -10q63 0 103.5 71.5t81.5 198.5l161 502q8 23 9 39q0 25 -35 24h-105l15 49h506l-174 -626q-33 -131 -33 -183q0 -29 8 -42t31 -13q57 0 115.5 95.5 t105.5 232.5l41 -13q-55 -156 -127 -270.5t-174 -114.5q-119 0 -119 209q0 41 20 123l129 475q8 29 9 43q0 16 -10.5 25.5t-36.5 9.5q-59 0 -81 -14.5t-36 -61.5l-168 -518q-45 -137 -95.5 -214t-142.5 -77q-80 0 -122 51.5t-42 108.5z" />
<glyph unicode="&#x43c;" horiz-adv-x="1370" d="M20 135q0 66 32 111t89 45q41 0 58.5 -22.5t17.5 -53.5q0 -47 -55 -88q-33 -23 -33 -53q0 -29 18.5 -39t38.5 -10q63 0 103.5 71.5t81.5 198.5l161 502q8 23 9 39q0 25 -35 24h-105l15 49h301v-684l366 684h142l-172 -626q-33 -131 -33 -183q0 -29 8 -42t31 -13 q57 0 115.5 95.5t105.5 232.5l41 -13q-55 -156 -127 -270.5t-174 -114.5q-119 0 -119 209q0 41 21 123l100 367h-12l-379 -703h-45v770h-17l-147 -475q-43 -135 -94.5 -213t-143.5 -78q-80 0 -122 51.5t-42 108.5z" />
<glyph unicode="&#x43d;" horiz-adv-x="1163" d="M74 549q55 156 126.5 270.5t174.5 114.5q119 0 119 -209q0 -41 -21 -123l-31 -110h326l117 417h135l-170 -626q-33 -131 -33 -183q0 -29 8.5 -42t30.5 -13q57 0 115.5 95.5t105.5 232.5l41 -13q-55 -156 -126.5 -270.5t-174.5 -114.5q-119 0 -119 209q0 41 21 123l37 135 h-326l-123 -442h-135l170 627q33 131 33 182q0 29 -8.5 42t-30.5 13q-57 0 -115.5 -95t-105.5 -232z" />
<glyph unicode="&#x43e;" horiz-adv-x="946" d="M106 336q0 143 69 282.5t183.5 227.5t243.5 88q70 0 131.5 -40t100 -122t38.5 -199q0 -143 -67.5 -282t-181 -227.5t-242.5 -88.5q-70 0 -132.5 40t-102.5 122t-40 199zM254 213q0 -84 35 -136t100 -52q82 0 137.5 65.5t102.5 175.5q43 100 69.5 217t26.5 213 q0 84 -33 136.5t-98 52.5q-82 0 -139.5 -66.5t-104.5 -175.5q-43 -100 -69.5 -217t-26.5 -213z" />
<glyph unicode="&#x43f;" horiz-adv-x="1171" d="M74 549q135 385 301 385q119 0 119 -209q0 -41 -19.5 -126t-34.5 -122l6 -6l29 51q90 174 183.5 293t205.5 119q61 0 97 -50t36 -147q0 -45 -12 -109.5t-29 -99.5l-131 -305q-10 -23 -21 -59.5t-11 -61.5q0 -29 12 -47t35 -18q70 0 133 106.5t108 229.5l41 -13 q-55 -166 -134 -275.5t-171 -109.5q-55 0 -93 49.5t-38 147.5q0 45 12.5 107.5t28.5 101.5l131 305q10 23 21.5 59.5t11.5 61.5q0 29 -11.5 47t-33.5 18q-123 0 -260 -231q-82 -139 -146.5 -276.5t-91.5 -229.5l-41 -135h-135l172 635q31 123 31 174q0 29 -8.5 42t-30.5 13 q-57 0 -115.5 -95t-105.5 -232z" />
<glyph unicode="&#x440;" horiz-adv-x="1105" d="M-156 -487l17 57h151q25 0 37 10t19 35l280 1042q25 98 25 152q0 31 -9.5 43t-31.5 12q-55 0 -115.5 -99t-103.5 -228l-41 12q135 385 303 385q63 0 90 -58.5t27 -136.5q0 -29 -1.5 -47t-1.5 -22l7 -4q43 92 126 180t177 88q109 0 169 -77t60 -204q0 -125 -37 -240.5 t-84 -189.5q-72 -113 -167 -180.5t-193 -67.5q-63 0 -114.5 44t-74.5 137l-8 4l-143 -545l-4 -21q0 -14 8 -19t27 -5h249l-16 -57h-627zM410 213q0 -90 36.5 -139t100.5 -49q63 0 120.5 69.5t98.5 159.5q51 115 83 244t32 237q0 61 -21.5 105.5t-73.5 44.5q-76 0 -145.5 -77 t-128.5 -206q-41 -92 -71.5 -204.5t-30.5 -184.5z" />
<glyph unicode="&#x441;" horiz-adv-x="868" d="M106 324q0 123 45.5 242.5t135.5 213.5q72 76 144.5 115t162.5 39q78 0 137.5 -49t59.5 -156q0 -61 -34 -102t-83 -41q-39 0 -59.5 23.5t-20.5 54.5q0 59 65 106q23 18 23 53q0 18 -22.5 40t-73.5 22q-160 0 -279 -357q-23 -68 -38 -169t-15 -158q0 -90 40 -133t97 -43 q127 0 207 102t113 190l43 -14q-49 -139 -149.5 -233.5t-223.5 -94.5t-199 101.5t-76 247.5z" />
<glyph unicode="&#x442;" horiz-adv-x="1650" d="M74 549q135 385 299 385q121 0 121 -211q0 -35 -18.5 -121t-37.5 -125l8 -6l25 45q92 176 179 297t167 121q158 0 158 -195q0 -43 -19.5 -125t-35.5 -137l6 -6l28 51q90 174 183.5 293t205.5 119q61 0 97.5 -50t36.5 -147q0 -45 -12.5 -109.5t-28.5 -99.5l-131 -305 q-10 -23 -21.5 -59.5t-11.5 -61.5q0 -29 12 -47t35 -18q70 0 133.5 106.5t108.5 229.5l41 -13q-55 -166 -134 -275.5t-172 -109.5q-55 0 -93 49.5t-38 147.5q0 45 12.5 107.5t28.5 101.5l131 305q10 23 21.5 59.5t11.5 61.5q0 29 -11 47t-34 18q-123 0 -260 -231 q-82 -139 -146.5 -276.5t-91.5 -229.5l-41 -135h-135l170 633q4 14 19.5 66.5t15.5 93.5q0 80 -65 79q-53 0 -145.5 -137t-179.5 -317t-118 -283l-41 -135h-135l172 633q31 123 31 174q0 29 -8.5 43t-30.5 14q-104 0 -221 -327z" />
<glyph unicode="&#x443;" horiz-adv-x="1048" d="M49 -307q0 57 34 90t77 33q39 0 60.5 -26t21.5 -56q0 -51 -39 -82q-10 -10 -14.5 -18.5t-4.5 -26.5q0 -66 88 -66q72 0 123 23.5t103 87.5q51 63 80.5 142t54.5 173l88 330l-12 4q-66 -133 -164.5 -229.5t-188.5 -96.5q-68 0 -112.5 51.5t-44.5 145.5q0 45 12 109.5 t29 99.5l131 305q10 23 21 59.5t11 61.5q0 29 -12 47t-35 18q-70 0 -133 -106.5t-108 -228.5l-41 12q55 166 134 275.5t171 109.5q55 0 93 -49t38 -148q0 -45 -12.5 -107.5t-28.5 -101.5l-131 -305q-10 -23 -21.5 -59.5t-11.5 -61.5q0 -78 72 -77q76 0 166 103t166.5 253.5 t113.5 282.5l68 245h135l-242 -909q-25 -88 -77 -195.5t-127 -185.5q-66 -68 -142 -97.5t-143 -29.5q-111 0 -178.5 53.5t-67.5 147.5z" />
<glyph unicode="&#x444;" horiz-adv-x="1392" d="M90 -365q0 59 28.5 95.5t76.5 36.5q33 0 50 -18.5t17 -49.5q0 -20 -9 -37.5t-24 -28.5q-33 -16 -32 -47q0 -20 15 -32.5t42 -12.5q45 0 80 24.5t73.5 101.5t79.5 227l62 227l-6 2q-37 -63 -96.5 -105.5t-127.5 -42.5q-109 0 -161 82t-52 211q0 143 63.5 300t172.5 261.5 t238 104.5q68 0 104.5 -44t40.5 -112h6l49 183q25 88 42.5 139t45.5 100q59 111 135 174.5t179 63.5q70 0 112.5 -46t42.5 -98q0 -59 -28.5 -95t-75.5 -36q-33 0 -50.5 18.5t-17.5 49.5q0 20 9.5 37.5t23.5 27.5q33 16 33 47q0 20 -15.5 33t-41.5 13q-45 0 -80 -25 t-74 -101.5t-80 -226.5l-68 -252l7 -4q43 70 101 112t124 42q109 0 161 -82t52 -211q0 -150 -64.5 -305.5t-173 -258t-235.5 -102.5q-68 0 -109 42t-43 104l-4 -2l-41 -150q-25 -88 -42 -139t-46 -100q-59 -111 -135 -174.5t-178 -63.5q-70 0 -113 46t-43 97zM254 164 q0 -63 23.5 -101t70.5 -38q80 0 156 102t112 238l54 192q20 76 20 150q0 80 -27.5 129t-82.5 49q-92 0 -166 -138.5t-117 -316.5t-43 -266zM733 209q0 -82 29 -133t84 -51q90 0 163.5 136t116.5 313t43 271q0 63 -23.5 101.5t-70.5 38.5q-80 0 -155.5 -97.5t-110.5 -230.5 l-53 -192q-23 -84 -23 -156z" />
<glyph unicode="&#x445;" horiz-adv-x="1155" d="M51 121q0 68 37 112q37 49 94 50q27 0 49 -17q29 -20 29 -65q0 -70 -63 -99q-20 -10 -27.5 -18t-7.5 -27q0 -14 12 -23t33 -9q98 0 173 109.5t120 279.5l51 188q16 59 16 135q0 63 -25.5 105.5t-80.5 42.5q-80 0 -161 -90t-128 -203l-43 14q53 131 144.5 229.5 t203.5 98.5q88 0 131 -60.5t49 -146.5l9 -4q63 98 138 154.5t157 56.5q35 0 67.5 -13.5t48.5 -31.5q18 -23 27.5 -50.5t9.5 -50.5q0 -68 -37 -112q-37 -49 -94 -49q-27 0 -49 16q-29 23 -29 66q0 61 60 90q23 10 31 22.5t8 30.5q0 14 -12.5 23.5t-33.5 9.5 q-96 0 -168.5 -108.5t-123.5 -280.5l-52 -189q-16 -55 -16 -135q0 -63 25.5 -105t81.5 -42q80 0 160.5 90t127.5 202l43 -14q-53 -131 -144 -229.5t-204 -98.5q-88 0 -131 60.5t-49 146.5l-8 4q-63 -98 -138 -154.5t-157 -56.5q-35 0 -68 13.5t-49 31.5q-18 23 -27.5 50.5 t-9.5 50.5z" />
<glyph unicode="&#x446;" horiz-adv-x="1171" d="M74 549q55 166 134 275.5t171 109.5q55 0 93 -49t38 -148q0 -45 -12.5 -107.5t-28.5 -101.5l-131 -305q-10 -23 -21.5 -59.5t-11.5 -61.5q0 -29 11.5 -47t33.5 -18q123 0 260 231q82 139 146.5 276.5t91.5 229.5l41 135h135l-172 -635q-31 -123 -31 -174q0 -29 8.5 -42 t30.5 -13q57 0 115.5 95.5t105.5 232.5l41 -13q-72 -197 -147 -294q-29 -35 -37 -92.5t-8 -103.5v-60v-58q0 -125 -90 -182t-226 -57l9 49q51 0 85.5 8t57.5 37q20 25 26.5 56.5t6.5 78.5q0 68 22.5 123t61.5 117l-4 6q-31 -12 -58 -13q-119 0 -119 209q0 41 19.5 126 t34.5 122l-6 6l-29 -51q-90 -174 -183.5 -293t-205.5 -119q-61 0 -97 50.5t-36 146.5q0 45 12 109.5t29 99.5l131 305q10 23 21 59.5t11 61.5q0 29 -12 47t-35 18q-70 0 -133 -106.5t-108 -228.5z" />
<glyph unicode="&#x447;" horiz-adv-x="1124" d="M74 549q55 156 126.5 270.5t174.5 114.5q39 0 68.5 -27.5t39.5 -60.5q12 -43 13 -101q0 -43 -45 -182q-41 -127 -41 -164q0 -35 14 -55t41 -20q55 0 120.5 59t120 146t78.5 167l60 213h135l-172 -626q-33 -131 -33 -183q0 -29 8.5 -42t30.5 -13q57 0 115.5 95.5 t105.5 232.5l41 -13q-55 -156 -126.5 -270.5t-174.5 -114.5q-119 0 -119 209q0 41 21 123l45 170l-10 4q-51 -86 -126 -146.5t-157 -60.5q-66 0 -101.5 41t-35.5 113q0 55 41 178q45 135 45 199q0 59 -41 59q-57 0 -115.5 -95t-105.5 -232z" />
<glyph unicode="&#x448;" horiz-adv-x="1650" d="M74 549q55 166 134 275.5t171 109.5q55 0 93 -49t38 -148q0 -45 -12.5 -107.5t-28.5 -101.5l-131 -305q-10 -23 -21.5 -59.5t-11.5 -61.5q0 -29 11.5 -47t33.5 -18q123 0 260 231q82 139 146.5 276.5t91.5 229.5l41 135h135l-170 -633q-4 -14 -19.5 -66t-15.5 -93 q0 -80 66 -80q53 0 145 137t179 317.5t118 282.5l41 135h135l-172 -633q-31 -123 -31 -174q0 -29 8.5 -43t30.5 -14q104 0 222 328l41 -13q-135 -385 -299 -385q-121 0 -121 211q0 35 18.5 121t36.5 125l-8 6l-25 -45q-92 -176 -179 -297t-167 -121q-158 0 -158 195 q0 43 19.5 125t36.5 137l-6 6l-29 -51q-90 -174 -183.5 -293t-205.5 -119q-62 0 -97.5 50.5t-35.5 146.5q0 45 12 109.5t29 99.5l131 305q10 23 21 59.5t11 61.5q0 29 -12 47t-35 18q-70 0 -133 -106.5t-108 -228.5z" />
<glyph unicode="&#x449;" horiz-adv-x="1650" d="M74 549q55 166 134 275.5t171 109.5q55 0 93 -49t38 -148q0 -45 -12.5 -107.5t-28.5 -101.5l-131 -305q-10 -23 -21.5 -59.5t-11.5 -61.5q0 -29 11.5 -47t33.5 -18q123 0 260 231q82 139 146.5 276.5t91.5 229.5l41 135h135l-170 -633q-4 -14 -19.5 -66t-15.5 -93 q0 -80 66 -80q53 0 145 137t179 317.5t118 282.5l41 135h135l-172 -633q-31 -123 -31 -176q0 -29 8.5 -42t30.5 -13q57 0 115.5 95.5t106.5 232.5l41 -13q-72 -197 -148 -294q-29 -35 -37 -92.5t-8 -103.5v-60v-58q0 -125 -90 -182t-225 -57l8 49q51 0 86 8t57 37 q20 25 26.5 56.5t6.5 78.5q0 68 22.5 123t61.5 117l-4 6q-31 -12 -58 -13q-119 0 -118 209q0 41 19.5 126t33.5 122l-6 6l-25 -45q-92 -176 -179 -297t-167 -121q-158 0 -158 195q0 43 19.5 125t36.5 137l-6 6l-29 -51q-90 -174 -183.5 -293t-205.5 -119q-61 0 -97 50.5 t-36 146.5q0 45 12 109.5t29 99.5l131 305q10 23 21 59.5t11 61.5q0 29 -12 47t-35 18q-70 0 -133 -106.5t-108 -228.5z" />
<glyph unicode="&#x44a;" horiz-adv-x="950" d="M119 684q0 98 57 174t164 76q37 0 62.5 -16.5t48.5 -43.5q31 -35 49 -48t51 -13q18 0 27.5 6t19.5 19q16 23 16 43q0 53 41 53q23 0 32 -14.5t9 -30.5q0 -49 -58 -138t-128 -171l10 -9q43 25 107 25q111 0 172 -58.5t61 -160.5t-60.5 -194.5t-154.5 -150t-192 -57.5 q-103 0 -167.5 70t-64.5 166q0 80 31 150.5t88 121.5q152 129 229 260l-8 9q-41 -20 -80 -21q-35 0 -63.5 9.5t-61.5 37.5q-27 23 -45 32t-49 9q-41 0 -67.5 -18.5t-36.5 -40.5q-6 -12 -6 -31q0 -14 8 -27q16 -20 16 -34q0 -27 -22 -27q-14 0 -24.5 12.5t-10.5 30.5z M352 170q0 -63 29 -104t90 -41q57 0 113.5 53t92.5 140t36 183q0 145 -109 146q-70 0 -127 -53.5t-91 -141.5t-34 -182z" />
<glyph unicode="&#x44b;" horiz-adv-x="1396" d="M74 549q55 164 135 274.5t172 110.5q121 0 121 -174q0 -41 -9.5 -75t-27.5 -85l-21 -57l9 -6q43 33 80.5 46t76.5 13q111 0 172.5 -58.5t61.5 -160.5t-60.5 -194.5t-154.5 -150t-193 -57.5q-67 0 -118.5 34t-80 88.5t-28.5 113.5q0 113 43 221l98 254q41 90 41 137 q0 25 -5 37t-28 12q-70 0 -134 -106.5t-109 -228.5zM319 147q0 -55 36 -88.5t100 -33.5q57 0 113.5 53t92 140t35.5 183q0 145 -108 146q-45 0 -96.5 -32t-90.5 -85l-49 -137q-33 -98 -33 -146zM928 184q0 41 20 123l166 602h135l-170 -626q-33 -131 -32 -183q0 -29 8 -42 t30 -13q57 0 116 95.5t106 232.5l41 -13q-55 -156 -127 -270.5t-174 -114.5q-119 0 -119 209z" />
<glyph unicode="&#x44c;" horiz-adv-x="933" d="M74 549q55 164 135 274.5t172 110.5q121 0 121 -174q0 -41 -9.5 -75t-27.5 -85l-21 -57l9 -6q43 33 80.5 46t76.5 13q111 0 172.5 -58.5t61.5 -160.5t-60.5 -194.5t-154.5 -150t-193 -57.5q-67 0 -118.5 34t-80 88.5t-28.5 113.5q0 113 43 221l98 254q41 90 41 137 q0 25 -5 37t-28 12q-70 0 -134 -106.5t-109 -228.5zM319 147q0 -55 36 -88.5t100 -33.5q57 0 113.5 53t92 140t35.5 183q0 145 -108 146q-45 0 -96.5 -32t-90.5 -85l-49 -137q-33 -98 -33 -146z" />
<glyph unicode="&#x44d;" horiz-adv-x="864" d="M66 180q0 61 33.5 102.5t82.5 41.5q39 0 59.5 -21.5t20.5 -50.5q0 -53 -65 -100q-23 -18 -23 -48q0 -37 34 -58t99 -21q135 0 242 231q43 94 65 211h-362l12 49h361q18 111 18 180q0 84 -32.5 136.5t-98.5 52.5q-102 0 -187 -66.5t-135 -167.5l-43 15q49 104 145.5 186 t227.5 82q70 0 131.5 -40t100.5 -122t39 -199q0 -143 -68 -282t-181.5 -227.5t-242.5 -88.5q-92 0 -162.5 51.5t-70.5 153.5z" />
<glyph unicode="&#x44e;" horiz-adv-x="1433" d="M74 549q55 156 126.5 270.5t174.5 114.5q119 0 119 -209q0 -41 -21 -123l-31 -110h172q33 117 105 218t169 162.5t202 61.5q70 0 131 -40t100 -122t39 -199q0 -143 -67.5 -282t-181.5 -227.5t-243 -88.5q-69 0 -131.5 40t-102.5 122t-40 199q0 51 10 106h-174l-123 -442 h-135l170 627q33 131 33 182q0 29 -8.5 42t-30.5 13q-57 0 -115.5 -95t-105.5 -232zM741 213q0 -84 35 -136t101 -52q81 0 136.5 65.5t102.5 175.5q43 100 69.5 217t26.5 213q0 84 -32.5 136.5t-98.5 52.5q-82 0 -139 -66.5t-104 -175.5q-43 -100 -70 -217t-27 -213z" />
<glyph unicode="&#x44f;" horiz-adv-x="1110" d="M20 131q0 51 28 88t75 37q41 0 60.5 -22.5t19.5 -53.5q0 -23 -12.5 -43t-28.5 -28q-33 -18 -33 -39q0 -45 47 -45q53 0 86 39.5t62 111.5l45 115q35 92 92 115l2 10q-41 6 -86 32.5t-76 74.5t-31 112q0 80 43 148.5t122 109.5t181 41q125 0 179 -103l10 -2l22 80h138 l-172 -626q-33 -131 -33 -183q0 -29 8 -42t31 -13q57 0 115.5 95.5t105.5 232.5l41 -13q-55 -156 -127 -270.5t-174 -114.5q-119 0 -119 209q0 41 21 123l30 111l-4 4q-47 -25 -135 -25q-39 0 -74 -29.5t-55 -86.5l-43 -121q-70 -184 -213 -185q-70 0 -109 44t-39 112z M418 635q0 -80 44 -132t120 -52q118 -1 141 75l35 127q16 55 16 80q0 61 -49 106.5t-117 45.5q-82 0 -136 -75t-54 -175z" />
<glyph unicode="&#x450;" horiz-adv-x="839" d="M106 324q0 123 45.5 242.5t135.5 213.5q147 154 307 154q82 0 134 -40t52 -132q0 -160 -207 -256q-70 -33 -139 -46.5t-151 -19.5q-10 -43 -19.5 -111.5t-9.5 -127.5q0 -90 40 -133t97 -43q127 0 207 102t113 190l43 -14q-49 -139 -149.5 -233.5t-223.5 -94.5t-199 101.5 t-76 247.5zM295 492q150 10 240 51q66 29 106.5 90t40.5 141q0 59 -24.5 85t-61.5 26q-84 0 -155.5 -77t-104.5 -167q-10 -33 -22.5 -78t-18.5 -71zM451 1311q0 25 16 49t57 24q31 0 49.5 -18t32.5 -61l82 -244l-35 -21l-174 199q-29 33 -28 72z" />
<glyph unicode="&#x451;" horiz-adv-x="839" d="M106 324q0 123 45.5 242.5t135.5 213.5q147 154 307 154q82 0 134 -40t52 -132q0 -160 -207 -256q-70 -33 -139 -46.5t-151 -19.5q-10 -43 -19.5 -111.5t-9.5 -127.5q0 -90 40 -133t97 -43q127 0 207 102t113 190l43 -14q-49 -139 -149.5 -233.5t-223.5 -94.5t-199 101.5 t-76 247.5zM295 492q150 10 240 51q66 29 106.5 90t40.5 141q0 59 -24.5 85t-61.5 26q-84 0 -155.5 -77t-104.5 -167q-10 -33 -22.5 -78t-18.5 -71zM401 1221q0 41 30 69.5t69 28.5q41 0 69.5 -28.5t28.5 -69.5q0 -39 -28.5 -69t-69.5 -30q-39 0 -69 30t-30 69zM786 1221 q0 41 30 69.5t69 28.5q41 0 69.5 -28.5t28.5 -69.5q0 -39 -28.5 -69t-69.5 -30q-39 0 -69 30t-30 69z" />
<glyph unicode="&#x452;" horiz-adv-x="1024" d="M102 854l17 57h237l15 50q25 88 42 139t46 100q59 111 135 174.5t178 63.5q70 0 113 -46t43 -98q0 -59 -29 -95t-76 -36q-33 0 -50 18.5t-17 49.5q0 20 9 37.5t23 27.5q33 16 33 47q0 20 -15 33t-42 13q-43 0 -78 -25t-74 -101.5t-82 -226.5l-36 -125h333l-16 -57h-334 l-125 -463l13 -4q90 150 177 234t173 84q88 0 145.5 -54.5t57.5 -158.5q0 -199 -102.5 -386.5t-231.5 -316.5q-86 -86 -190.5 -158.5t-196.5 -117.5l-17 41q84 49 168 119.5t176 191.5q68 90 124.5 224t89 258t32.5 179q0 66 -22.5 91.5t-71.5 25.5q-88 0 -205 -164 q-61 -86 -119.5 -200.5t-77.5 -180.5l-28 -98h-135l229 854h-238z" />
<glyph unicode="&#x453;" horiz-adv-x="860" d="M106 188q0 115 95.5 185.5t234.5 126.5q90 37 146.5 90t56.5 147q0 57 -29.5 92t-95.5 35q-92 0 -172 -74.5t-127 -171.5l-41 13q53 117 148.5 210t218.5 93q117 0 181 -55.5t64 -135.5q0 -104 -88 -170.5t-239 -130.5q-98 -43 -151.5 -98t-53.5 -166q0 -63 37 -98 t98 -35q104 0 186 79t132 191l41 -12q-63 -141 -159.5 -234.5t-232.5 -93.5q-112 0 -181 55.5t-69 157.5zM504 1065l217 252q27 31 49.5 43t48.5 12q31 0 44.5 -17.5t13.5 -41.5q0 -53 -66 -94l-283 -179z" />
<glyph unicode="&#x454;" horiz-adv-x="864" d="M106 336q0 143 68 282.5t180.5 227.5t241.5 88q131 0 172 -97.5t41 -201.5l-45 -4q0 254 -174 254q-70 0 -123 -51.5t-109 -171.5q-29 -63 -53 -146h334l-12 -49h-334q-14 -47 -26.5 -127t-12.5 -127q0 -82 46 -135t122 -53q72 0 133 30.5t61 71.5q0 25 -20 45 q-31 37 -31 78q0 31 22.5 54.5t55.5 23.5q45 0 67.5 -32t22.5 -71q0 -57 -41 -115.5t-114.5 -96.5t-163.5 -38q-82 0 -151.5 40t-113 122t-43.5 199z" />
<glyph unicode="&#x455;" horiz-adv-x="860" d="M49 217q0 47 28.5 91t84.5 44q31 0 53.5 -21.5t22.5 -58.5q0 -51 -43 -65q-25 -8 -39.5 -22.5t-14.5 -47.5q0 -59 69 -85.5t140 -26.5q109 0 166 49t57 123q0 41 -16 76.5t-49 60.5l-170 129q-96 61 -96 186q0 90 46 154.5t118.5 97.5t150.5 33q82 0 140.5 -40t88 -94.5 t29.5 -94.5q0 -47 -26.5 -82t-79.5 -35q-31 0 -56.5 21.5t-25.5 54.5q0 39 26 61q8 8 29 20q25 14 25 33q0 47 -52.5 77t-109.5 30q-82 0 -143.5 -47t-61.5 -131q0 -51 13.5 -72t45.5 -43l191 -143q45 -33 71.5 -71t26.5 -99q0 -76 -42 -146t-122 -114t-186 -44 q-94 0 -158.5 35t-97.5 90.5t-33 116.5z" />
<glyph unicode="&#x456;" horiz-adv-x="684" d="M74 549q55 164 135 274.5t172 110.5q53 0 91 -51.5t38 -145.5q0 -45 -12.5 -109.5t-28.5 -99.5l-131 -305q-10 -23 -21.5 -59.5t-11.5 -61.5q0 -29 12.5 -47t34.5 -18q70 0 133.5 106.5t108.5 229.5l41 -13q-55 -166 -134 -275.5t-171 -109.5q-56 0 -93.5 49.5 t-37.5 147.5q0 45 12 107.5t29 101.5l131 305q10 23 21 59.5t11 61.5q0 29 -11 47t-34 18q-70 0 -134 -106.5t-109 -228.5zM442 1307q0 47 31 76.5t76 29.5q47 0 76.5 -29.5t29.5 -76.5q0 -45 -29.5 -76t-76.5 -31q-45 0 -76 31t-31 76z" />
<glyph unicode="&#x457;" horiz-adv-x="684" d="M74 549q55 164 135 274.5t172 110.5q53 0 91 -51.5t38 -145.5q0 -45 -12.5 -109.5t-28.5 -99.5l-131 -305q-10 -23 -21.5 -59.5t-11.5 -61.5q0 -29 12.5 -47t34.5 -18q70 0 133.5 106.5t108.5 229.5l41 -13q-55 -166 -134 -275.5t-171 -109.5q-56 0 -93.5 49.5 t-37.5 147.5q0 45 12 107.5t29 101.5l131 305q10 23 21 59.5t11 61.5q0 29 -11 47t-34 18q-70 0 -134 -106.5t-109 -228.5zM246 1221q0 41 29.5 69.5t68.5 28.5q41 0 69.5 -28.5t28.5 -69.5q0 -39 -28.5 -69t-69.5 -30q-39 0 -68.5 30t-29.5 69zM582 1221q0 41 29.5 69.5 t68.5 28.5q41 0 69.5 -28.5t28.5 -69.5q0 -39 -28.5 -69t-69.5 -30q-39 0 -68.5 30t-29.5 69z" />
<glyph unicode="&#x458;" horiz-adv-x="667" d="M-199 -334q0 57 38 98t85 41q37 0 57.5 -21.5t20.5 -55.5q0 -53 -47 -82q-16 -10 -24.5 -19.5t-8.5 -27.5q0 -57 64 -58q59 0 110 46t82 153l23 100l28 117l189 694q2 12 15 59.5t13 92.5q0 25 -11 43t-34 18q-66 0 -132 -105.5t-113 -238.5l-41 12q53 156 137 279 t190 123q74 0 102.5 -48t28.5 -104q0 -59 -22 -155l-197 -721q-29 -104 -86 -199.5t-134 -155t-161 -59.5q-61 0 -116.5 45t-55.5 129zM492 1307q0 47 30.5 76.5t75.5 29.5q47 0 77 -29.5t30 -76.5q0 -45 -30 -76t-77 -31q-45 0 -75.5 31t-30.5 76z" />
<glyph unicode="&#x459;" horiz-adv-x="1331" d="M20 135q0 66 32 111t89 45q41 0 58.5 -22.5t17.5 -53.5q0 -47 -55 -88q-33 -23 -33 -53q0 -29 18.5 -39t38.5 -10q63 0 103.5 71.5t81.5 198.5l161 502q8 23 9 39q0 25 -35 24h-105l15 49h506l-109 -391l10 -6q45 39 95.5 61.5t89.5 22.5q111 0 172 -58.5t61 -160.5 t-60.5 -194.5t-154.5 -150t-192 -57.5t-155.5 71t-57.5 165q0 59 6 97t20 93l105 381q8 29 8 43q0 35 -53 35q-59 0 -81 -14.5t-36 -61.5l-168 -518q-45 -137 -95.5 -214t-142.5 -77q-80 0 -122 51.5t-42 108.5zM731 154q0 -59 30 -94t91 -35q57 0 113.5 53t92.5 140t36 183 q0 145 -109 146q-45 0 -102.5 -37t-96.5 -90l-34 -127q-20 -61 -21 -139z" />
<glyph unicode="&#x45a;" horiz-adv-x="1429" d="M74 549q55 156 126.5 270.5t174.5 114.5q119 0 119 -209q0 -41 -21 -123l-33 -115h326l119 422h135l-109 -391l11 -6q45 39 95 61.5t89 22.5q111 0 172 -58.5t61 -160.5t-60 -194.5t-154.5 -150t-192.5 -57.5t-155.5 71t-57.5 165q0 63 5 101t19 89l13 45h-326l-123 -446 h-135l170 627q33 131 33 182q0 29 -8.5 42t-30.5 13q-57 0 -115.5 -95t-105.5 -232zM829 154q0 -59 30 -94t91 -35q58 0 114 53t92 140t36 183q0 145 -109 146q-45 0 -102 -37t-96 -90l-35 -127q-20 -61 -21 -139z" />
<glyph unicode="&#x45b;" horiz-adv-x="1105" d="M102 854l17 57h237l15 50q25 88 42 139t46 100q59 111 135 174.5t178 63.5q70 0 113 -46t43 -98q0 -59 -29 -95t-76 -36q-33 0 -50 18.5t-17 49.5q0 20 9 37.5t23 27.5q33 16 33 47q0 20 -15 33t-42 13q-43 0 -78 -25t-74 -101.5t-82 -226.5l-36 -125h333l-16 -57h-334 l-125 -463l13 -4q100 145 191 237.5t173 92.5q63 0 99 -43t36 -107q0 -74 -71 -256q-61 -158 -62 -209q0 -66 47 -65q66 0 128.5 97t113.5 239l41 -13q-51 -150 -128 -267.5t-173 -117.5q-51 0 -93 40t-42 124q0 76 71 248q61 150 62 207q0 29 -12.5 45t-49.5 16 q-49 0 -111.5 -60t-146.5 -179q-121 -170 -164 -318l-28 -98h-135l229 854h-238z" />
<glyph unicode="&#x45c;" horiz-adv-x="1122" d="M74 549q55 156 126.5 270.5t174.5 114.5q39 0 68.5 -27.5t39.5 -60.5q12 -43 13 -101q0 -37 -27 -143l-25 -90h131q53 0 98.5 78t78.5 186q27 88 73.5 123t100.5 35q29 0 55.5 -14.5t38.5 -30.5q20 -27 26.5 -49.5t6.5 -53.5q0 -55 -30 -91t-73 -36q-29 0 -51 18.5 t-22 51.5q0 29 18 55q14 23 14 35q0 16 -8 24.5t-31 8.5q-29 0 -45 -20.5t-28 -59.5q-27 -88 -68 -174t-80 -100l-2 -11q53 -4 94 -46t41 -109q0 -53 -24 -135q-16 -66 -17 -88q0 -25 10.5 -43.5t32.5 -18.5q12 0 22.5 4t29.5 19q53 39 87.5 111.5t80.5 191.5l40 -13 q-133 -385 -294 -385q-62 0 -105 39t-43 125q0 57 29 135q2 8 11 38t9 59q0 45 -18.5 68.5t-75.5 23.5h-127l-127 -463h-135l172 627q2 10 19.5 72.5t17.5 105.5q0 59 -41 59q-57 0 -115.5 -95t-105.5 -232zM635 1065l217 252q27 31 49.5 43t48.5 12q31 0 44.5 -17.5 t13.5 -41.5q0 -53 -66 -94l-283 -179z" />
<glyph unicode="&#x45d;" horiz-adv-x="1171" d="M74 549q55 166 134 275.5t171 109.5q55 0 93 -49t38 -148q0 -45 -12.5 -107.5t-28.5 -101.5l-131 -305q-10 -23 -21.5 -59.5t-11.5 -61.5q0 -29 11.5 -47t33.5 -18q123 0 260 231q82 139 146.5 276.5t91.5 229.5l41 135h135l-172 -635q-31 -123 -31 -174q0 -29 8.5 -42 t30.5 -13q57 0 115.5 95.5t105.5 232.5l41 -13q-135 -385 -301 -385q-119 0 -119 209q0 41 19.5 126t34.5 122l-6 6l-29 -51q-90 -174 -183.5 -293t-205.5 -119q-62 0 -97.5 50.5t-35.5 146.5q0 45 12 109.5t29 99.5l131 305q10 23 21 59.5t11 61.5q0 29 -12 47t-35 18 q-70 0 -133 -106.5t-108 -228.5zM524 1311q0 25 16.5 49t57.5 24q31 0 49.5 -18t32.5 -61l82 -244l-35 -21l-174 199q-29 33 -29 72z" />
<glyph unicode="&#x45e;" horiz-adv-x="1048" d="M49 -307q0 57 34 90t77 33q39 0 60.5 -26t21.5 -56q0 -51 -39 -82q-10 -10 -14.5 -18.5t-4.5 -26.5q0 -66 88 -66q72 0 123 23.5t103 87.5q51 63 80.5 142t54.5 173l88 330l-12 4q-66 -133 -164.5 -229.5t-188.5 -96.5q-68 0 -112.5 51.5t-44.5 145.5q0 45 12 109.5 t29 99.5l131 305q10 23 21 59.5t11 61.5q0 29 -12 47t-35 18q-70 0 -133 -106.5t-108 -228.5l-41 12q55 166 134 275.5t171 109.5q55 0 93 -49t38 -148q0 -45 -12.5 -107.5t-28.5 -101.5l-131 -305q-10 -23 -21.5 -59.5t-11.5 -61.5q0 -78 72 -77q76 0 166 103t166.5 253.5 t113.5 282.5l68 245h135l-242 -909q-25 -88 -77 -195.5t-127 -185.5q-66 -68 -142 -97.5t-143 -29.5q-111 0 -178.5 53.5t-67.5 147.5zM479 1206q0 51 33 86t74 35q43 0 66.5 -20.5t23.5 -59.5t-21.5 -59.5t-50.5 -20.5q-33 0 -33 -26q0 -39 39 -59.5t99 -20.5 q84 0 163.5 56.5t126.5 160.5l33 -18q-45 -109 -137 -178.5t-199 -69.5q-94 0 -155.5 54t-61.5 140z" />
<glyph unicode="&#x45f;" horiz-adv-x="1171" d="M74 549q55 166 134 275.5t171 109.5q55 0 93 -49t38 -148q0 -45 -12.5 -107.5t-28.5 -101.5l-131 -305q-10 -23 -21.5 -59.5t-11.5 -61.5q0 -29 11.5 -47t33.5 -18q123 0 260 231q82 139 146.5 276.5t91.5 229.5l41 135h135l-172 -635q-31 -123 -31 -174q0 -29 8.5 -42 t30.5 -13q57 0 115.5 95.5t105.5 232.5l41 -13q-135 -385 -301 -385q-119 0 -119 209q0 41 19.5 126t34.5 122l-6 6l-29 -51q-90 -174 -183.5 -293t-205.5 -119q-62 0 -97.5 50.5t-35.5 146.5q0 45 12 109.5t29 99.5l131 305q10 23 21 59.5t11 61.5q0 29 -12 47t-35 18 q-70 0 -133 -106.5t-108 -228.5zM274 -487l9 49q51 0 85.5 8t57.5 37q20 25 26.5 56.5t6.5 78.5q0 88 42 171t101 165l29 -12q-25 -39 -32 -95.5t-8 -101.5t-1 -59v-58q0 -125 -90 -182t-226 -57z" />
<glyph unicode="&#x460;" horiz-adv-x="1785" d="M274 727q0 170 28 360.5t77 370.5h196q-45 -174 -74.5 -375.5t-29.5 -330.5q0 -178 34 -360.5t79 -260.5q154 184 366 574v20q0 154 29 360.5t74 372.5h196q-41 -160 -71.5 -358.5t-30.5 -306.5q0 -180 32.5 -360.5t90.5 -311.5q113 139 188.5 268t110.5 262 q53 195 53 469q0 162 -16 338h319q-14 -176 -99 -440t-245 -548t-385 -503h-47q-70 100 -124 285.5t-67 343.5h-10q-78 -137 -201.5 -319.5t-232.5 -309.5h-45q-39 60 -84 174.5t-78 269t-33 316.5z" />
<glyph unicode="&#x461;" horiz-adv-x="1347" d="M156 522q0 113 15 198t42 189h145q-55 -205 -55 -395q0 -121 32 -248t75 -174q86 104 136 176t107 178q-2 16 -2 52q0 207 47 411h148q-23 -104 -35 -188t-12 -170q0 -139 33.5 -269t72.5 -192q121 111 183.5 237t62.5 238q0 70 -12 135q-12 61 -13 115q0 55 24 87t64 32 q55 0 82 -46t27 -120q0 -115 -69.5 -263.5t-179 -290.5t-224.5 -239h-33q-49 61 -91 184.5t-60 223.5h-9q-49 -88 -135 -205t-170 -203h-30q-33 33 -71 108t-66.5 188.5t-28.5 250.5z" />
<glyph unicode="&#x462;" horiz-adv-x="1605" d="M172 844l139 454h475l11 39q4 16 4 25q0 31 -43 31h-156l16 65h607l-17 -65h-153q-57 0 -72 -56l-10 -39h518l-102 -454h-52q2 10 5.5 44t3.5 75q0 154 -56.5 212t-136.5 58h-199l-114 -426h315q182 0 271.5 -97.5t89.5 -242.5q0 -127 -80 -234.5t-206 -170t-257 -62.5 h-748l17 66h155q29 0 45.5 12t24.5 41l301 1114h-154q-55 0 -104 -23.5t-111 -81.5q-49 -47 -88 -110.5t-61.5 -111.5t-26.5 -62h-51zM651 98q0 -33 43 -32h262q98 0 181.5 54t132.5 146t49 197q0 137 -43 207.5t-172 70.5h-285l-164 -620q-4 -16 -4 -23z" />
<glyph unicode="&#x463;" horiz-adv-x="1392" d="M74 549q135 385 301 385q119 0 119 -209q0 -53 -19 -119l14 -4q53 104 89 166.5t89.5 114t116.5 51.5q59 0 111 -60q29 -35 48.5 -48t51.5 -13q18 0 27.5 6t19.5 19q16 23 17 43q0 53 41 53q23 0 32 -14.5t9 -30.5q0 -49 -58.5 -138t-128.5 -171l11 -9q43 25 106 25 q111 0 172.5 -58.5t61.5 -160.5t-60.5 -194.5t-155 -150t-192.5 -57.5q-102 0 -166.5 70t-64.5 166q0 80 30.5 150.5t87.5 121.5q152 129 230 260l-8 9q-41 -20 -80 -21q-53 0 -83 18.5t-57 53.5q-20 25 -36.5 37t-40.5 12q-43 0 -116 -133t-143.5 -309.5t-103.5 -282.5 l-39 -127h-135l172 635q31 123 31 174q0 29 -8.5 42t-30.5 13q-57 0 -115.5 -95t-105.5 -232zM797 170q0 -63 28.5 -104t89.5 -41q58 0 114 53t92 140t36 183q0 145 -108 146q-70 0 -127.5 -53.5t-91 -141.5t-33.5 -182z" />
<glyph unicode="&#x464;" horiz-adv-x="1933" d="M-20 0l16 66h156q55 0 69 55l330 1216q4 16 4 25q0 31 -43 31h-156l17 65h606l-16 -65h-156q-55 0 -70 -56l-145 -538h235q66 258 181 401q127 162 266 228.5t293 66.5q63 0 129.5 -27.5t120.5 -72.5q23 -18 36 -26.5t29 -8.5q51 0 80 119h47l-129 -555h-47 q0 113 -11.5 201.5t-49.5 170.5q-27 55 -90.5 94.5t-131.5 39.5q-115 0 -216 -78t-193 -254q-78 -145 -109 -299h651l-12 -66h-653q-18 -90 -27.5 -164.5t-9.5 -167.5q0 -197 90 -284.5t242 -87.5q72 0 133 23.5t97 63.5t36 85q0 39 -43 75q-25 20 -39 42t-14 55 q0 47 33.5 80.5t78.5 33.5q74 0 111 -53t37 -115q0 -94 -56.5 -176t-165 -131t-259.5 -49q-111 0 -220.5 51.5t-183.5 169t-74 301.5q0 111 29 248h-238l-167 -612q-4 -16 -5 -23q0 -33 43 -32h156l-16 -66h-606z" />
<glyph unicode="&#x465;" horiz-adv-x="1323" d="M74 549q55 156 126.5 270.5t174.5 114.5q119 0 119 -209q0 -29 -6.5 -64.5t-14.5 -58.5l-27 -86h148q35 113 103.5 209t161.5 152.5t196 56.5q131 0 172 -97.5t41 -201.5l-45 -4q0 254 -174 254q-70 0 -123.5 -51.5t-108.5 -171.5q-29 -63 -53 -146h334l-13 -49h-333 q-14 -47 -26.5 -127t-12.5 -127q0 -82 46 -135t122 -53q72 0 133 30.5t61 71.5q0 25 -20 45q-31 37 -31 78q0 31 22.5 54.5t55.5 23.5q45 0 67.5 -32t22.5 -71q0 -57 -41 -115.5t-114.5 -96.5t-164.5 -38q-81 0 -151 40t-113 122t-43 199q0 72 15 131h-146l-127 -467h-135 l170 627q33 131 33 182q0 29 -8.5 42t-30.5 13q-57 0 -115.5 -95t-105.5 -232z" />
<glyph unicode="&#x466;" horiz-adv-x="1613" d="M-115 0l17 66h39q129 0 237 149l918 1243h32l230 -1302q10 -55 33.5 -72.5t74.5 -17.5h37l-16 -66h-504l16 66h70q39 0 67.5 20t28.5 53q0 37 -8 88l-35 207h-245l-74 -270q-10 -41 -10 -66q0 -33 38 -32h91l-17 -66h-479l16 66h90q55 0 70 55l84 313h-256l-117 -160 q-27 -39 -43 -69.5t-16 -65.5q0 -37 19.5 -55t66.5 -18h25l-17 -66h-463zM479 500h631l-121 690z" />
<glyph unicode="&#x467;" horiz-adv-x="1310" d="M20 123q0 61 36 104t91 43q31 0 52.5 -21.5t21.5 -47.5q0 -47 -65 -92q-33 -23 -33 -48q0 -37 45 -36q51 0 93 65.5t95 190.5q80 188 254 434q23 33 34 55.5t11 50.5q0 14 -10 26.5t-31 12.5h-57l14 49h265l168 -735q12 -55 31.5 -90t54.5 -35q41 0 80.5 74t56.5 141 l35 -10q-27 -109 -84.5 -194t-139.5 -85q-84 0 -119.5 50.5t-56.5 138.5l-28 131q-109 -16 -160 -100t-82 -195h-78q16 82 16 125q0 68 -21.5 114t-86.5 56q-61 -150 -117.5 -235t-140.5 -85q-62 0 -103 39t-41 109zM442 336q68 -8 103 -60.5t37 -119.5h8q84 162 231 188 l-96 426h-14l-70 -102q-84 -121 -120 -179.5t-79 -152.5z" />
<glyph unicode="&#x468;" horiz-adv-x="2359" d="M-20 0l16 66h156q55 0 69 55l330 1216q4 16 4 25q0 31 -43 31h-156l17 65h606l-16 -65h-156q-55 0 -70 -56l-227 -837h625l706 958h33l229 -1302q10 -55 34 -72.5t75 -17.5h37l-17 -66h-503l16 66h70q39 0 67.5 20t28.5 53q0 37 -8 88l-35 207h-246l-74 -270 q-10 -41 -10 -66q0 -33 39 -32h90l-16 -66h-480l17 66h90q55 0 70 55l84 313h-258l-115 -160q-27 -39 -43.5 -69.5t-16.5 -65.5q0 -37 19.5 -55t66.5 -18h25l-16 -66h-463l16 66h39q129 0 238 149l159 219h-589l-86 -313q-4 -16 -5 -23q0 -33 43 -32h156l-16 -66h-606z M1225 500h630l-120 690z" />
<glyph unicode="&#x469;" horiz-adv-x="1724" d="M74 549q55 156 126.5 270.5t174.5 114.5q119 0 119 -209q0 -41 -21 -123l-24 -86h157q154 0 244 -78q70 127 176 277q23 33 34 55.5t11 50.5q0 14 -10 26.5t-31 12.5h-57l14 49h264l168 -735q12 -55 31.5 -90t54.5 -35q41 0 81 74t56 141l35 -10q-27 -109 -84 -194 t-139 -85q-84 0 -120 50.5t-56 138.5l-29 131q-109 -16 -160 -100t-81 -195h-78q12 61 12 125q0 57 -17.5 118.5t-60.5 106.5l-39 -86q-55 -129 -110.5 -209t-134.5 -80q-62 0 -103 39t-41 109q0 61 36 104t91 43q31 0 52.5 -21.5t21.5 -47.5q0 -47 -66 -92q-33 -23 -32 -48 q0 -37 45 -36q51 0 93 65.5t95 190.5q31 70 51 106q-45 37 -95 58.5t-136 21.5h-158l-127 -467h-135l170 627q33 131 33 182q0 29 -8.5 42t-30.5 13q-57 0 -115.5 -95t-105.5 -232zM891 399q49 -49 74.5 -107.5t33.5 -129.5h9q84 156 229 182l-96 426h-15l-69 -102 q-76 -109 -101.5 -151t-64.5 -118z" />
<glyph unicode="&#x46a;" horiz-adv-x="2056" d="M-53 0l16 66h76q31 0 49 14t35 43l242 405q78 131 206.5 201t294.5 70h156l-246 510q-27 55 -56.5 71.5t-90.5 16.5h-39v61h1302v-61h-39q-35 0 -56 -7.5t-48 -33.5l-528 -557h184q139 0 212 -44t99.5 -117t32.5 -179l20 -336q2 -31 10.5 -44t39.5 -13h114l-16 -66h-528 l16 66h117q39 0 52 14t13 41l-4 104l-20 310q-6 80 -18.5 119.5t-45.5 59t-100 19.5h-193l-166 -612l-4 -25q0 -31 41 -30h205l-16 -66h-693l17 66h196q29 0 44.5 13t23.5 42l166 612h-166q-76 0 -125 -22.5t-83 -62.5t-79 -113l-223 -375q-25 -43 -25 -62q0 -16 9.5 -24 t31.5 -8h115l-16 -66h-512zM938 1397l254 -527l500 527h-754z" />
<glyph unicode="&#x46b;" horiz-adv-x="1519" d="M25 127q0 39 12 83t31 77l34 -15q-16 -37 -22 -65.5t-6 -65.5q0 -35 21.5 -55t54.5 -20q45 0 66.5 29.5t39.5 92.5q29 92 58.5 150.5t84.5 103.5q53 41 102.5 51.5t133.5 10.5h106l-209 321q-12 18 -31.5 26.5t-60.5 8.5v49h916v-49h-53q-27 0 -46.5 -8t-42.5 -31 l-305 -317h123q98 0 147.5 -44t49.5 -120q0 -53 -25 -139q-16 -70 -16 -97q0 -23 10 -40t33 -17q35 0 61 25q41 39 72 100t61 150l41 -13q-53 -156 -114.5 -245t-155.5 -89q-61 0 -104 39t-43 125q0 49 26 133q23 72 23 99q0 41 -22.5 62.5t-74.5 21.5h-127l-126 -455h-134 l123 455h-153q-43 0 -75 -19.5t-56 -68.5q-27 -53 -42.5 -102.5t-29.5 -119.5q-16 -80 -64.5 -125t-130.5 -45q-67 0 -114 40t-47 112zM672 860l209 -319l307 319h-516z" />
<glyph unicode="&#x46c;" horiz-adv-x="2809" d="M-20 0l16 66h156q55 0 69 55l330 1216q4 16 4 25q0 31 -43 31h-156l17 65h606l-16 -65h-156q-55 0 -70 -56l-145 -538h1184l-246 510q-27 55 -56.5 71.5t-91.5 16.5h-39v61h1303v-61h-39q-35 0 -56.5 -7.5t-47.5 -33.5l-529 -557h189q137 0 209.5 -44t98.5 -116t32 -180 l20 -336q2 -31 10.5 -44t38.5 -13h115l-16 -66h-529l17 66h116q39 0 52.5 14t13.5 41l-4 104l-21 310q-6 78 -19 118.5t-46 60t-101 19.5h-190l-166 -612l-4 -25q0 -31 41 -30h205l-17 -66h-692l16 66h197q29 0 44 13t24 42l166 612h-168q-76 0 -125 -22.5t-82 -62.5 t-78 -113l-223 -375q-25 -43 -25 -62q0 -16 9.5 -24t31.5 -8h115l-17 -66h-512l17 66h76q31 0 49 14t35 43l241 405q86 141 203 201l-2 4h-746l-165 -612q-4 -16 -5 -23q0 -33 43 -32h156l-16 -66h-606zM1692 1397l254 -527l499 527h-753z" />
<glyph unicode="&#x46d;" horiz-adv-x="1953" d="M74 549q55 156 126.5 270.5t174.5 114.5q119 0 119 -209q0 -29 -6.5 -64.5t-14.5 -58.5l-29 -98h732l-209 321q-12 18 -32 26.5t-61 8.5v49h916v-49h-53q-27 0 -46.5 -8t-41.5 -31l-306 -317h123q98 0 147.5 -44t49.5 -120q0 -53 -25 -139q-16 -70 -16 -97q0 -23 10 -40 t33 -17q35 0 61 25q41 39 72 100t62 150l41 -13q-53 -156 -115 -245t-156 -89q-61 0 -104 39t-43 125q0 49 26 133q23 72 23 99q0 41 -22.5 62.5t-73.5 21.5h-127l-127 -455h-133l122 455h-153q-43 0 -75 -19.5t-56 -68.5q-27 -53 -42.5 -102.5t-29.5 -119.5 q-16 -80 -64.5 -125t-129.5 -45q-68 0 -115 40t-47 112q0 39 12 83t31 77l35 -15q-16 -37 -22.5 -65.5t-6.5 -65.5q0 -35 21.5 -55t54.5 -20q45 0 66.5 29.5t39.5 92.5q29 96 60.5 154.5t95.5 103.5l-4 9h-412l-123 -455h-135l170 627q33 131 33 182q0 29 -8.5 42t-30.5 13 q-57 0 -115.5 -95t-105.5 -232zM1106 860l209 -319l307 319h-516z" />
<glyph unicode="&#x46e;" horiz-adv-x="1171" d="M-57 -254q0 123 66.5 203t168 123t240.5 75q203 47 315.5 141.5t112.5 227.5q0 100 -44 162.5t-161 62.5q-72 0 -120 -26.5t-89 -75.5q-35 -41 -61.5 -88t-40 -80t-17.5 -41h-49l109 385h274q115 0 197 56.5t123 144.5t41 180q0 100 -55.5 167t-159.5 67q-92 0 -156 -23 t-93.5 -55.5t-29.5 -61.5q0 -16 7 -26.5t20 -22.5q45 -37 45 -88q0 -39 -28 -72.5t-83 -33.5q-57 0 -93 33.5t-36 93.5q0 127 102.5 216t276.5 103l-92 326h153l82 -291l187 231q57 68 119 68q37 0 60 -22.5t23 -59.5q0 -41 -26.5 -66.5t-61.5 -25.5q-20 0 -35.5 11 t-15.5 32q0 31 31 51q18 12 18 22q0 12 -12 13q-25 0 -65 -47l-201 -248q152 -23 233.5 -113t81.5 -203q0 -104 -61.5 -186t-150.5 -132t-175 -69l-4 -20q96 -18 173 -96t77 -187q0 -207 -189.5 -336t-539.5 -202q-154 -33 -227.5 -92.5t-73.5 -131.5q0 -70 61.5 -107.5 t159.5 -37.5q74 0 124 33t91 94q88 131 168 131q33 0 57.5 -22.5t24.5 -61.5q0 -61 -64.5 -116.5t-174 -89.5t-234.5 -34q-129 0 -216 67t-87 171z" />
<glyph unicode="&#x46f;" horiz-adv-x="942" d="M-25 -188q0 117 87.5 173t238.5 83q176 31 249 90t73 159q0 59 -36 96.5t-118 37.5q-57 0 -90 -15.5t-62 -50.5q-33 -41 -54 -82t-21 -45h-37l78 250h198q125 0 190.5 67.5t65.5 157.5q0 66 -40 109t-122 43q-104 0 -163.5 -30t-59.5 -64q0 -25 27 -37q43 -20 43 -66 q0 -37 -23.5 -57.5t-64.5 -20.5q-37 0 -64.5 29t-27.5 74q0 84 75.5 144.5t200.5 74.5l-72 248h134l63 -226l139 172q33 37 56.5 53.5t58.5 16.5q31 0 50.5 -23.5t19.5 -50.5q0 -37 -19.5 -60.5t-54.5 -23.5q-20 0 -34.5 13.5t-14.5 31.5q0 25 24 45q16 12 17 21 q0 10 -13 10q-27 0 -61 -45l-152 -186q115 -16 170.5 -70.5t55.5 -122.5q0 -94 -88 -157.5t-193 -85.5l-4 -17q74 -6 134.5 -58t60.5 -126q0 -147 -133.5 -223t-403.5 -125q-219 -41 -219 -146q0 -43 43 -66.5t117 -23.5q61 0 108 26.5t74 69.5t50.5 64.5t60.5 21.5 q25 0 41 -16t16 -41q0 -45 -45 -85t-127 -64.5t-189 -24.5q-100 0 -156.5 41t-56.5 113z" />
<glyph unicode="&#x470;" horiz-adv-x="1708" d="M172 1239l16 66h443l-17 -62h-69q-53 0 -53 -53q0 -14 4 -27l202 -764h9l254 938q4 16 4 25q0 31 -43 31h-156l16 65h607l-17 -65h-155q-55 0 -70 -56l-254 -938h63l387 627q102 166 186.5 237.5t180.5 71.5q78 0 126 -53t48 -127q0 -88 -44 -147.5t-126 -59.5 q-47 0 -78.5 24.5t-31.5 65.5q0 35 12 57.5t39 47.5q27 23 38 38t11 36q0 16 -12.5 26t-34.5 10q-98 0 -256 -249l-414 -670h-113l-57 -213q-4 -16 -4 -23q0 -33 43 -32h156l-17 -66h-606l17 66h155q55 0 70 55l57 213h-164l-217 817q-12 49 -29.5 68.5t-68.5 19.5h-37z" />
<glyph unicode="&#x471;" horiz-adv-x="1597" d="M61 549q49 141 124 263t167 122q76 0 116 -61.5t52 -176.5l72 -647h20l295 1092q12 49 13 67q0 25 -33 25h-178l14 49h364l-333 -1233h26l359 574q195 311 354 311q63 0 96 -37t33 -80q0 -78 -38 -128t-105 -50q-35 0 -59.5 21.5t-24.5 54.5t20.5 58.5t46.5 39.5 q37 20 37 43q0 20 -22 21q-113 0 -273 -254l-389 -623h-76l-92 -338q-12 -49 -12 -68q0 -25 33 -24h168l-17 -57h-549l17 57h151q25 0 37 10t19 35l104 385h-143l-82 739q-10 72 -22.5 97.5t-41.5 25.5q-51 0 -109.5 -105.5t-97.5 -219.5z" />
<glyph unicode="&#x472;" horiz-adv-x="1454" d="M188 508q0 266 115 493.5t297 360.5t371 133q131 0 229 -74.5t151.5 -199.5t53.5 -275q0 -266 -114.5 -492.5t-297 -358.5t-370.5 -132q-131 0 -229.5 74t-152 197.5t-53.5 273.5zM385 393q0 -178 66.5 -271t187.5 -93q174 0 292 143t187 336q37 98 58 213h-760 q-31 -162 -31 -328zM428 786h760q20 129 20 279q0 178 -66.5 271.5t-187.5 93.5q-174 0 -291.5 -143.5t-187.5 -336.5q-25 -68 -47 -164z" />
<glyph unicode="&#x473;" horiz-adv-x="946" d="M106 336q0 143 69 282.5t183.5 227.5t243.5 88q70 0 131.5 -40t100 -122t38.5 -199q0 -143 -67.5 -282t-181 -227.5t-242.5 -88.5q-70 0 -132.5 40t-102.5 122t-40 199zM254 213q0 -84 35 -136t100 -52q82 0 137.5 65.5t102.5 175.5q33 80 59 176h-403q-31 -133 -31 -229 zM297 492h403q25 109 25 204q0 84 -33 136.5t-98 52.5q-82 0 -139.5 -66.5t-104.5 -175.5q-33 -76 -53 -151z" />
<glyph unicode="&#x474;" horiz-adv-x="1576" d="M229 1393l17 65h622l-16 -65h-143q-47 0 -62.5 -25t-15.5 -72l102 -1003l510 1005q39 80 105.5 132.5t142.5 52.5q100 0 144 -61.5t44 -133.5q0 -92 -49 -149.5t-125 -57.5q-41 0 -70.5 30t-29.5 71q0 53 20.5 79.5t59.5 51.5q39 27 39 67q0 23 -11.5 32t-27.5 9 q-109 0 -193 -178l-649 -1280h-51l-141 1340q-6 51 -30 70.5t-69 19.5h-123z" />
<glyph unicode="&#x475;" horiz-adv-x="1073" d="M61 549q49 141 124 263t167 122q76 0 116 -62.5t52 -175.5l47 -422l195 471q41 102 96 145.5t107 43.5q66 0 99.5 -47t33.5 -101q0 -51 -28 -89t-71 -38q-39 0 -59 19.5t-20 52.5q0 27 20 55q14 16 14 33q0 10 -8 19.5t-26 9.5q-29 0 -50.5 -22.5t-50.5 -75.5l-321 -775 h-37l-88 764q-8 72 -20.5 97.5t-43.5 25.5q-51 0 -109.5 -105.5t-97.5 -219.5z" />
<glyph unicode="&#x476;" horiz-adv-x="1576" d="M229 1393l17 65h622l-16 -65h-143q-47 0 -62.5 -25t-15.5 -72l102 -1003l510 1005q39 80 105.5 132.5t142.5 52.5q100 0 144 -61.5t44 -133.5q0 -92 -49 -149.5t-125 -57.5q-41 0 -70.5 30t-29.5 71q0 53 20.5 79.5t59.5 51.5q39 27 39 67q0 23 -11.5 32t-27.5 9 q-109 0 -193 -178l-649 -1280h-51l-141 1340q-6 51 -30 70.5t-69 19.5h-123zM664 1833q0 25 15 48.5t56 23.5q61 0 86 -76l84 -250l-31 -18l-180 198q-14 14 -22 36t-8 38zM979 1833q0 25 15.5 48.5t56.5 23.5q61 0 86 -76l84 -250l-31 -18l-180 198q-14 14 -22.5 36 t-8.5 38z" />
<glyph unicode="&#x477;" horiz-adv-x="1073" d="M61 549q49 141 124 263t167 122q76 0 116 -62.5t52 -175.5l47 -422l195 471q41 102 96 145.5t107 43.5q66 0 99.5 -47t33.5 -101q0 -51 -28 -89t-71 -38q-39 0 -59 19.5t-20 52.5q0 27 20 55q14 16 14 33q0 10 -8 19.5t-26 9.5q-29 0 -50.5 -22.5t-50.5 -75.5l-321 -775 h-37l-88 764q-8 72 -20.5 97.5t-43.5 25.5q-51 0 -109.5 -105.5t-97.5 -219.5zM332 1307q0 25 18.5 51t59.5 26q63 0 77 -75l88 -269h-49l-166 199q-29 33 -28 68zM606 1307q0 25 18.5 51t59.5 26q63 0 78 -75l88 -269h-49l-166 199q-29 33 -29 68z" />
<glyph unicode="&#x478;" horiz-adv-x="2396" d="M188 475q0 270 102.5 506t273.5 375t366 139q113 0 204 -59.5t144 -175t53 -277.5q0 -270 -102.5 -505.5t-273.5 -375t-365 -139.5q-113 0 -204 59.5t-144.5 175t-53.5 277.5zM385 389q0 -178 62.5 -269t170.5 -91q150 0 264.5 148.5t172.5 332.5q51 160 65.5 291 t14.5 268q0 178 -62.5 269.5t-171.5 91.5q-150 0 -264.5 -148.5t-171.5 -333.5q-51 -160 -65.5 -291t-14.5 -268zM1384 549q49 141 124 263t167 122q76 0 116 -62.5t52 -175.5l47 -422l195 471q41 102 96 145.5t107 43.5q66 0 99.5 -47t33.5 -101q0 -51 -28 -89t-71 -38 q-39 0 -59 19.5t-20 52.5q0 27 20 55q14 16 14 33q0 10 -8 19.5t-26 9.5q-29 0 -50.5 -22.5t-50.5 -75.5l-321 -775l-41 -102q-18 -43 -19 -88q0 -45 51.5 -78t120.5 -47l-90 -160q-82 47 -118.5 99.5t-36.5 124.5q0 43 10 77.5t33 87.5l49 117l-84 733q-8 72 -20.5 97.5 t-43.5 25.5q-51 0 -109.5 -105.5t-97.5 -219.5z" />
<glyph unicode="&#x479;" horiz-adv-x="1945" d="M106 319q0 150 68 292.5t177.5 232.5t230.5 90q66 0 125 -37t98 -113.5t39 -193.5q0 -150 -67.5 -292t-177.5 -232.5t-230 -90.5q-66 0 -125.5 37t-98.5 114t-39 193zM254 213q0 -86 31.5 -137t95.5 -51q133 -1 223 241q39 104 65.5 221t26.5 209q0 86 -31.5 137.5 t-95.5 51.5q-133 0 -223 -242q-39 -104 -65.5 -221t-26.5 -209zM934 549q49 141 124 263t167 122q76 0 115.5 -62.5t52.5 -175.5l47 -422l194 471q41 102 96.5 145.5t106.5 43.5q66 0 99.5 -47t33.5 -101q0 -51 -27.5 -89t-70.5 -38q-39 0 -59.5 19.5t-20.5 52.5q0 27 20 55 q14 16 15 33q0 10 -8.5 19.5t-26.5 9.5q-31 0 -54.5 -23.5t-45.5 -74.5l-322 -775l-41 -102q-18 -43 -18 -88t51 -78t121 -47l-90 -160q-82 47 -119 99.5t-37 124.5q0 43 10 77.5t33 87.5l49 117l-84 733q-8 72 -20.5 97.5t-42.5 25.5q-51 0 -109.5 -105.5t-97.5 -219.5z " />
<glyph unicode="&#x47a;" horiz-adv-x="1687" d="M172 528q0 246 115.5 456t304 342t397.5 161q14 53 52 88t89 35q49 0 78 -32t29 -87v-12q186 -43 302 -191.5t116 -357.5q0 -246 -116 -456t-304 -342t-397 -161q-14 -53 -52 -88t-90 -35q-49 0 -77.5 32t-28.5 87v13q-186 43 -302 191t-116 357zM369 430 q0 -152 64.5 -250t172.5 -133q18 41 53 66.5t78 25.5q45 0 73 -26.5t34 -73.5q170 33 297 152.5t202 279.5q115 244 115 557q0 152 -64.5 250t-172.5 133q-18 -41 -53 -66.5t-78 -25.5q-45 0 -73 26.5t-34 73.5q-170 -33 -297 -152.5t-203 -279.5q-115 -244 -114 -557z" />
<glyph unicode="&#x47b;" horiz-adv-x="1081" d="M82 336q0 129 73.5 258t195.5 220t259 114q8 37 36 58.5t59 21.5q35 0 56 -26t21 -60v-2q106 -31 178 -120t72 -227q0 -129 -73.5 -258t-195.5 -220t-259 -113q-8 -37 -36 -58.5t-58 -21.5q-35 0 -56.5 25.5t-21.5 60.5v2q-106 31 -178 120t-72 226zM229 246 q0 -74 31 -127t84 -78q14 27 36.5 42t49.5 15q29 0 49.5 -18.5t26.5 -44.5q151 37 260 213q57 92 88 203.5t31 212.5q0 74 -31 127t-84 77q-14 -27 -36.5 -42t-49.5 -15q-29 0 -49.5 18.5t-26.5 44.5q-152 -37 -260 -212q-57 -92 -88 -204t-31 -212z" />
<glyph unicode="&#x47c;" horiz-adv-x="2248" d="M188 502q0 256 107.5 485.5t290 368.5t391.5 139q72 0 131 -32.5t93 -85t34 -107.5q0 -86 -49 -147.5t-133 -61.5q-45 0 -76 28.5t-31 69.5q0 39 24.5 71t65.5 48q41 14 56.5 29.5t15.5 38.5q0 33 -43 58.5t-111 25.5q-156 0 -285.5 -138.5t-206.5 -372t-77 -507.5 q0 -383 262 -383q145 0 224 71.5t106 175.5l74 273q8 25 8 45q0 45 -39 45h-148l17 66h594l-17 -66h-147q-29 0 -45.5 -13.5t-24.5 -41.5l-75 -281q-6 -18 -9.5 -40.5t-3.5 -41.5q0 -88 74 -140t207 -52q170 0 298 160.5t196.5 398t68.5 459.5q0 182 -61.5 282.5 t-202.5 100.5q-80 0 -120 -24t-40 -56q0 -23 6 -37.5t27 -34.5q27 -27 38 -49.5t11 -52.5q0 -51 -34 -83t-89 -32q-70 0 -108.5 53t-38.5 119q0 61 37.5 121.5t119.5 100.5t209 40q133 0 233.5 -71.5t154 -194.5t53.5 -275q0 -252 -111 -481t-292 -369.5t-382 -140.5 q-137 0 -227 53.5t-129 149.5h-8q-70 -90 -166.5 -146.5t-245.5 -56.5q-141 0 -243.5 74t-155 196.5t-52.5 268.5zM877 1708q190 233 456 234q188 0 391 -127q78 -47 144.5 -77t159.5 -50l-105 -91q-123 15 -309 156q-80 59 -143.5 83t-139.5 24q-123 0 -209 -49.5 t-176 -157.5zM1147 1636q0 27 18.5 61t55 59.5t92.5 25.5q76 0 131 -45t55 -152q0 -51 -37 -121l-47 -6q19 66 19 101q0 66 -33 101.5t-101 35.5q-47 0 -71.5 -30t-24.5 -64q0 -23 8 -39l-36 -19q-29 33 -29 92z" />
<glyph unicode="&#x47d;" horiz-adv-x="1540" d="M78 340q0 154 68.5 291t190.5 220t269 83q55 0 94 -25.5t58.5 -62.5t19.5 -66q0 -57 -34.5 -95t-86.5 -38q-31 0 -50 20.5t-19 47.5q0 25 11 44t42 36q20 10 29.5 19t9.5 22q0 18 -23.5 33.5t-64.5 15.5q-96 0 -180 -88t-135.5 -235.5t-51.5 -315.5q0 -221 176 -221 q92 0 144.5 47t66.5 108l62 246q6 29 25.5 37t52.5 8q29 0 47 -14.5t18 -40.5q0 -8 -3 -20.5t-5 -20.5l-41 -158q-14 -53 -14 -86q0 -45 34.5 -75.5t108.5 -30.5q98 0 187.5 90t143.5 234.5t54 299.5q0 115 -35 175.5t-127 60.5q-53 0 -80.5 -17.5t-27.5 -46.5q0 -31 18 -49 q25 -29 25 -55q0 -27 -19.5 -48.5t-56.5 -21.5q-41 0 -63.5 31t-22.5 70q0 45 29.5 88t85 70.5t129.5 27.5q145 0 219 -98.5t74 -237.5q0 -156 -71 -300t-196 -233.5t-278 -89.5q-170 0 -207 144h-8q-106 -143 -285 -144q-152 0 -229.5 102.5t-77.5 262.5zM569 1126 q66 84 133.5 121t157.5 37q59 0 112.5 -22.5t121.5 -63.5q98 -59 227 -72l-47 -82q-114 13 -227 91q-61 43 -105.5 63.5t-85.5 20.5q-80 0 -130 -30t-108 -104zM723 1049q0 45 32.5 75.5t78.5 30.5q129 0 129 -141q0 -53 -15 -94l-35 -7q9 33 9 70q0 106 -93 107 q-35 0 -50 -19.5t-15 -42.5q0 -20 8 -35l-29 -12q-20 31 -20 68z" />
<glyph unicode="&#x47e;" horiz-adv-x="1785" d="M274 727q0 170 28 360.5t77 370.5h196q-45 -174 -74.5 -375.5t-29.5 -330.5q0 -178 34 -360.5t79 -260.5q154 184 366 574v20q0 154 29 360.5t74 372.5h196q-41 -160 -71.5 -358.5t-30.5 -306.5q0 -180 32.5 -360.5t90.5 -311.5q113 139 188.5 268t110.5 262 q53 195 53 469q0 162 -16 338h319q-14 -176 -99 -440t-245 -548t-385 -503h-47q-70 100 -124 285.5t-67 343.5h-10q-78 -137 -201.5 -319.5t-232.5 -309.5h-45q-39 60 -84 174.5t-78 269t-33 316.5zM569 1593l82 271h1221l-66 -271h-49q4 41 4 58q0 39 -8 63q-27 84 -125 84 h-244q-53 0 -69 -55l-19 -72q-6 -25 -6 -39t9.5 -22t33.5 -8h99l-17 -66h-495l16 66h100q55 0 70 55l18 72q6 25 6 38q0 14 -9 22.5t-34 8.5h-202q-43 0 -92.5 -19.5t-92.5 -62.5q-35 -35 -58.5 -77t-23.5 -46h-49z" />
<glyph unicode="&#x47f;" horiz-adv-x="1347" d="M156 522q0 113 15 198t42 189h145q-55 -205 -55 -395q0 -121 32 -248t75 -174q86 104 136 176t107 178q-2 16 -2 52q0 207 47 411h148q-23 -104 -35 -188t-12 -170q0 -139 33.5 -269t72.5 -192q121 111 183.5 237t62.5 238q0 70 -12 135q-12 61 -13 115q0 55 24 87t64 32 q55 0 82 -46t27 -120q0 -115 -69.5 -263.5t-179 -290.5t-224.5 -239h-33q-49 61 -91 184.5t-60 223.5h-9q-49 -88 -135 -205t-170 -203h-30q-33 33 -71 108t-66.5 188.5t-28.5 250.5zM270 1016l74 237h1024l-57 -237h-41q0 4 2 17.5t2 25.5q0 47 -14 76q-37 70 -130 69h-176 q-25 0 -37 -10t-18 -35l-49 -176h-135l41 150q8 29 8 45q0 27 -35 26h-164q-47 0 -94 -18.5t-84 -55.5q-37 -35 -58.5 -71.5t-21.5 -42.5h-37z" />
<glyph unicode="&#x480;" horiz-adv-x="1114" d="M197 852q0 115 55 249t156 224q188 170 477 170q82 0 150.5 -32.5t108.5 -88t40 -117.5q0 -88 -47 -142t-119 -54q-45 0 -75 27.5t-30 64.5q0 70 72 113q55 33 55 75q0 35 -45 62t-121 27q-231 0 -364 -226q-59 -100 -88 -204.5t-29 -194.5q0 -117 42 -178.5t116 -61.5 q57 0 99 18.5t95 57.5h119l-131 -485q-10 -35 -10 -52q0 -39 39 -38h205l-17 -66h-733l16 66h230q59 0 74 55l104 387l-8 8q-51 -16 -101 -16q-113 0 -188.5 52t-111 133t-35.5 167z" />
<glyph unicode="&#x481;" horiz-adv-x="847" d="M106 397q0 94 40 197.5t126 198.5q129 141 340 141q78 0 140.5 -50t62.5 -147q0 -61 -35 -103t-84 -42q-39 0 -60.5 23.5t-21.5 54.5q0 33 18.5 55.5t49.5 44.5q27 18 27 47q0 20 -26 44t-79 24q-106 0 -181 -92.5t-120 -225.5q-23 -68 -36 -152.5t-13 -140.5 q0 -90 40 -133t97 -43q72 0 110 15.5t85 58.5h90l-133 -491h-144l103 374l-8 6q-55 -12 -113 -12q-123 0 -199 101.5t-76 246.5z" />
<glyph unicode="&#x482;" horiz-adv-x="794" d="M147 -219q0 82 47.5 143.5t135.5 130.5l-109 150l41 28l107 -149q57 41 102 66l-104 145l41 29l108 -152q115 57 213 84l16 -41q-100 -29 -204 -78l104 -145l-41 -29l-106 150q-45 -25 -101 -68l103 -143l-41 -29l-101 139q-63 -59 -63 -118q0 -20 7 -33t26 -27 q20 -16 32.5 -35.5t12.5 -48.5q0 -37 -28 -65.5t-79 -28.5q-49 0 -84 37t-35 88z" />
<glyph unicode="&#x483;" horiz-adv-x="0" d="M-823 1067l4 29l20 94q4 20 12.5 28.5t24.5 8.5h111l418 -144l24 107q8 37 45 37h74q29 0 29 -27l-5 -29l-20 -94q-4 -20 -12 -28.5t-25 -8.5h-113l-415 144l-25 -107q-8 -37 -45 -37h-74q-28 0 -28 27z" />
<glyph unicode="&#x484;" horiz-adv-x="0" d="M-877 1110q96 111 226.5 176.5t273.5 65.5q139 0 227.5 -70t129.5 -180l-35 -21q-57 98 -134 133t-214 35t-235.5 -36.5t-203.5 -135.5z" />
<glyph unicode="&#x485;" horiz-adv-x="0" d="M-604 1210q0 90 59.5 152.5t134.5 62.5q119 0 166 -125l-37 -24q-41 68 -104 67q-55 0 -96 -47t-41 -145q0 -43 14 -80l-51 -14q-45 75 -45 153z" />
<glyph unicode="&#x486;" horiz-adv-x="0" d="M-614 1360q39 33 72.5 49t74.5 16q74 0 119 -46t45 -111q0 -66 -36 -120t-114 -108l-30 31q39 37 60.5 78t21.5 100q0 45 -28 74t-75 29q-39 0 -84 -29z" />
<glyph unicode="&#x487;" horiz-adv-x="0" d="M-766 1608q115 109 223.5 155.5t233.5 46.5q102 0 195.5 -27.5t191.5 -86.5q92 -55 158.5 -86t140.5 -41l-68 -90q-84 14 -160.5 58t-168.5 114q-76 57 -146 77.5t-151 20.5q-117 0 -213.5 -48t-192.5 -138z" />
<glyph unicode="&#x488;" horiz-adv-x="0" d="M-1513 459h65q12 -180 90 -336l-57 -33q-86 176 -98 369zM-1513 573q12 193 98 369l57 -33q-78 -156 -90 -336h-65zM-1358 -10l58 33q98 -147 245 -246l-32 -58q-162 109 -271 271zM-1358 1042q109 162 271 271l32 -58q-147 -98 -245 -245zM-987 -338l33 57 q156 -78 336 -90v-65q-193 12 -369 98zM-987 1370q176 86 369 98v-65q-180 -12 -336 -90zM-504 -371q180 12 336 90l33 -57q-176 -86 -369 -98v65zM-504 1403v65q193 -12 369 -98l-33 -57q-156 78 -336 90zM-68 -223q147 98 246 246l58 -33q-109 -162 -271 -271zM-68 1255 l33 58q162 -109 271 -271l-58 -32q-99 147 -246 245zM236 123q78 156 90 336h65q-12 -193 -98 -369zM236 909l57 33q86 -176 98 -369h-65q-12 180 -90 336z" />
<glyph unicode="&#x489;" horiz-adv-x="0" d="M-1700 471v90h311v-90h-311zM-1591 279l219 65l22 -74l-221 -67zM-1591 754l20 75l221 -67l-22 -74zM-1571 -14l271 155l45 -78l-271 -155zM-1571 1047l45 77l271 -155l-45 -78zM-1335 -205l164 162l51 -51l-162 -164zM-1335 1237l53 53l162 -164l-51 -51zM-1169 -449 l155 271l78 -45l-156 -271zM-1169 1481l77 45l156 -271l-78 -45zM-874 -494l67 222l74 -23l-66 -219zM-874 1526l75 20l66 -219l-74 -22zM-606 -311h90v-291h-90v291zM-606 1343v312h90v-312h-90zM-389 -295l74 23l67 -222l-76 -20zM-389 1327l65 219l76 -20l-67 -221z M-186 -223l77 45l156 -271l-78 -45zM-186 1255l155 271l78 -45l-156 -271zM-2 -94l51 51l164 -162l-53 -53zM-2 1126l162 164l53 -53l-164 -162zM133 63l45 78l271 -155l-46 -78zM133 969l270 155l46 -77l-271 -156zM227 270l23 74l219 -65l-20 -76zM227 762l222 67l20 -75 l-219 -66zM266 471v90h312v-90h-312z" />
<glyph unicode="&#x490;" horiz-adv-x="1232" d="M-20 0l16 66h156q29 0 45 12t24 41l330 1218q4 16 4 25q0 31 -43 31h-156l17 65h639q53 0 116.5 24.5t128.5 82.5q57 51 106.5 129t78 141t35.5 82h51l-164 -524h-557q-55 0 -70 -56l-329 -1218q-4 -16 -5 -23q0 -31 43 -30h230l-17 -66h-679z" />
<glyph unicode="&#x491;" horiz-adv-x="962" d="M29 180q0 59 38.5 101.5t88.5 42.5q51 0 70.5 -25t19.5 -59q0 -57 -56 -109q-18 -16 -25 -27.5t-7 -25.5q0 -53 90 -53q174 0 174 170q0 119 -31 264q-33 160 -33 207q0 104 41 173.5t138 69.5h256q25 0 33 8.5t10 36.5v156q0 41 61 41q57 0 57 -41v-250h-397 q-37 0 -54.5 -16.5t-17.5 -79.5q0 -78 29 -211q35 -160 35 -256q0 -139 -78 -230.5t-209 -91.5q-92 0 -162.5 51.5t-70.5 153.5z" />
<glyph unicode="&#x492;" horiz-adv-x="1343" d="M-20 0l16 66h154q55 0 69 55l158 575h-176l16 66h176l158 575q4 16 4 25q0 31 -43 31h-156l17 65h1081l-129 -549h-51q2 8 7 34t11 72t6 91q0 137 -49 212t-172 75h-270q-55 0 -70 -56l-155 -575h280l-16 -66h-283l-155 -575q-4 -16 -5 -23q0 -33 43 -32h230l-17 -66 h-679z" />
<glyph unicode="&#x493;" horiz-adv-x="880" d="M-18 0l12 49h86q25 0 38 10.5t19 34.5l90 332h-153l16 57h154l90 332q2 8 2 21q0 25 -35 24h-86l12 49h721l-84 -360h-41q2 6 4 32.5t2 59.5q0 70 -12 117t-49 74.5t-102 27.5h-127q-25 0 -38.5 -10t-19.5 -35l-90 -332h223l-16 -57h-223l-90 -332q-2 -8 -2 -20 q0 -25 34 -25h86l-12 -49h-409z" />
<glyph unicode="&#x494;" horiz-adv-x="1406" d="M-20 0l16 66h154q55 0 69 55l332 1216q4 16 4 25q0 31 -43 31h-156l17 65h1081l-121 -510h-51q2 12 9 59.5t7 98.5q0 137 -49 212t-172 75h-270q-55 0 -70 -56l-133 -489q162 39 289 39q197 0 309.5 -90t112.5 -277q0 -139 -80 -268t-211 -209t-274 -80 q-84 0 -147.5 55.5t-63.5 135.5q0 66 25.5 107.5t61.5 60t66 18.5q51 0 81 -26.5t30 -67.5t-18.5 -62.5t-51.5 -40.5q-27 -16 -39 -28.5t-12 -34.5q0 -51 86 -51q117 0 195.5 76.5t116.5 198.5t38 257q0 254 -287 254q-102 0 -245 -35l-211 -780h-395z" />
<glyph unicode="&#x495;" horiz-adv-x="942" d="M-72 0l13 49h86q25 0 38 10.5t19 34.5l197 721q2 6 2 19q0 27 -37 26h-86l14 49h721l-80 -315h-41q0 4 2 16.5t2 34.5q0 59 -14 113q-12 47 -50 74.5t-104 27.5h-127q-25 0 -37 -10t-18 -35l-90 -330q123 41 217 41q113 0 175.5 -59t62.5 -180q0 -131 -97.5 -275.5 t-258.5 -275.5t-345 -223l-16 41q168 100 297 232t200.5 271.5t71.5 264.5q0 154 -137 153q-78 0 -184 -41l-93 -340q-2 -8 -2 -20q0 -25 35 -25h86l-12 -49h-410z" />
<glyph unicode="&#x496;" horiz-adv-x="2056" d="M4 131q0 72 37 201l47 -17q-27 -98 -27 -159q0 -90 66 -90q61 0 92 55t64 172q33 123 72.5 213t113.5 158q53 51 125 75.5t145 28.5v12q-39 18 -59.5 62.5t-20.5 99.5q0 84 35 201q31 109 31 168q0 90 -82 90q-27 0 -54.5 -10.5t-27.5 -40.5q0 -27 14 -47q31 -33 31 -74 q0 -47 -27.5 -75t-72.5 -28q-66 0 -99.5 40t-33.5 108q0 94 62.5 151.5t170.5 57.5q94 0 145.5 -43t51.5 -140q0 -49 -29 -147q-33 -115 -33 -190q0 -82 41 -123t138 -41h118l146 538q4 20 4 25q0 31 -43 31h-205l16 65h705l-16 -65h-205q-55 0 -70 -56l-145 -538h125 q141 0 216.5 94t129.5 291q41 154 113.5 226.5t185.5 72.5q73 0 118.5 -52.5t45.5 -146.5q0 -78 -41 -140.5t-127 -62.5q-41 0 -70 27t-29 76q0 76 74 116q41 20 41 54q0 20 -11 27.5t-38 7.5q-55 0 -90 -25t-62.5 -84t-58.5 -174q-76 -281 -227 -326l-7 -18 q129 0 184.5 -58.5t55.5 -166.5q0 -90 -41 -242q-29 -104 -29 -156q0 -35 13.5 -54t46.5 -19q68 0 106.5 78.5t67.5 187.5l49 -15q-20 -80 -48 -148.5t-77 -119.5q-29 -66 -29 -192q0 -39 3 -62l2 -78q0 -131 -109 -192.5t-260 -61.5l14 54q109 0 155 46t40 152 q-4 74 20.5 132.5t71.5 132.5l-4 6q-35 -10 -70 -11q-98 0 -153.5 35t-55.5 131q0 49 23 140l53 196q18 53 19 92q0 76 -48.5 120t-113.5 44h-191l-168 -612l-4 -25q0 -31 41 -30h205l-16 -66h-701l17 66h204q29 0 44.5 13t23.5 42l166 612h-174q-72 0 -117 -19.5t-92 -66.5 q-41 -41 -73 -126t-62 -226q-37 -174 -123 -247t-213 -73q-80 0 -121 44t-41 112z" />
<glyph unicode="&#x497;" horiz-adv-x="1671" d="M51 121q0 68 37 112q37 49 94 50q27 0 49 -17q29 -20 29 -65q0 -27 -16.5 -55.5t-44.5 -41.5q-18 -10 -27.5 -19t-9.5 -28q0 -14 12 -23t33 -9q80 0 146.5 75.5t115.5 192.5q41 98 63.5 205.5t22.5 203.5q0 90 -15.5 130t-70.5 40q-84 0 -157.5 -85t-116.5 -195l-43 14 q63 141 145 234.5t205 93.5q90 0 137 -66.5t47 -183.5q0 -88 -24 -192h129l114 417h135l-114 -417h112q49 152 136 258q72 88 147.5 136t163.5 48q35 0 63.5 -13.5t44.5 -31.5q19 -23 28 -50.5t9 -50.5q0 -68 -37 -112q-37 -49 -94 -49q-27 0 -49 16q-29 23 -29 66 q0 27 16.5 52t39.5 38q23 12 33 23.5t10 29.5q0 14 -12.5 23.5t-32.5 9.5q-80 0 -146.5 -76t-116.5 -193q-41 -98 -63.5 -205.5t-22.5 -203.5q0 -90 15.5 -130t70.5 -40q84 0 158 85t117 195l43 -14q-74 -164 -152 -240q-27 -35 -35 -91t-8 -102v-60v-58q0 -125 -90 -182 t-225 -57l8 49q51 0 86 8t57 37q20 25 26.5 56.5t6.5 78.5q0 68 22.5 123t61.5 117l-8 14q-51 -20 -100 -21q-90 0 -137.5 67t-47.5 183q0 113 29 217h-113l-118 -442h-136l121 442h-129q-47 -166 -141 -282q-72 -88 -147.5 -136.5t-163.5 -48.5q-35 0 -64 13.5t-45 31.5 q-18 23 -27.5 50.5t-9.5 50.5z" />
<glyph unicode="&#x498;" horiz-adv-x="1310" d="M78 362q0 88 51 152t117 64q147 0 147 -123q0 -57 -37 -90t-86 -33q-20 0 -31.5 -4t-25.5 -15q-20 -20 -20 -59q0 -70 55 -121t141 -77.5t174 -26.5q104 0 193.5 52t148.5 140q41 61 63.5 149.5t22.5 184.5q0 76 -44 131t-124 55h-356l16 74h312q90 0 171 45t131 133 t50 209q0 119 -71.5 173.5t-157.5 54.5q-104 0 -214 -47.5t-206.5 -143.5t-155.5 -235h-47l160 528h47q-4 -23 -4 -39q0 -35 13 -59.5t40 -24.5q23 0 41 5t63 24q135 57 287 57q129 0 219 -45t136 -119t46 -160q0 -165 -125.5 -259.5t-263.5 -127.5l-4 -20q100 -27 179 -109 t79 -196q0 -129 -74.5 -238.5t-210 -178.5t-305.5 -77l-32 -229q-8 -82 -15 -105q-12 -43 -43.5 -68.5t-74.5 -25.5q-35 0 -54.5 17.5t-19.5 46.5q0 20 11 50t20.5 51.5t15.5 33.5l88 229q-186 14 -311 113.5t-125 283.5z" />
<glyph unicode="&#x499;" horiz-adv-x="847" d="M66 180q0 61 33.5 102.5t82.5 41.5q39 0 59.5 -21.5t20.5 -50.5q0 -53 -65 -100q-23 -18 -23 -48q0 -37 44 -58t112 -21q102 0 168 73q80 86 80 219q0 145 -150 146h-178l16 57h176q45 0 93.5 26.5t80 77t31.5 115.5q0 68 -34.5 107t-100.5 39q-102 0 -187 -66.5 t-132 -167.5l-43 15q68 135 166 201.5t216 66.5q125 0 185.5 -57.5t60.5 -128.5q0 -72 -38 -125.5t-90 -85t-97 -41.5l-2 -9q61 -8 117.5 -56t56.5 -124q0 -82 -47 -155.5t-131 -121.5t-193 -55q-18 -49 -18 -102q0 -39 14 -121q4 -29 4 -39q0 -68 -44 -112.5t-108.5 -66 t-125.5 -21.5l8 49q70 0 108.5 30.5t38.5 106.5q0 29 -2 43q-2 12 -2 37q0 55 18.5 99t53.5 97q-90 8 -161.5 59.5t-71.5 145.5z" />
<glyph unicode="&#x49a;" horiz-adv-x="1445" d="M-41 0l16 66h156q55 0 70 55l329 1216q4 16 5 25q0 31 -43 31h-156l16 65h656l-17 -65h-205q-55 0 -69 -56l-144 -538h181q80 0 153.5 48t126.5 136t74 201q29 152 95.5 225.5t154.5 73.5q100 0 145 -55.5t45 -129.5q0 -94 -47 -155.5t-125 -61.5q-39 0 -66.5 26 t-27.5 67q0 55 20.5 84.5t61.5 48.5q53 25 53 61q0 33 -19.5 43t-41.5 10q-74 0 -120 -72.5t-83 -250.5q-20 -92 -93 -190.5t-171 -127.5l-6 -20q39 0 93 -21.5t98 -79t44 -155.5q0 -86 -37 -225q-23 -98 -22 -132q0 -29 14 -47t43 -18q125 0 191 250l49 -15 q-39 -170 -117 -258q-33 -66 -33 -206q0 -41 2 -64l2 -72q0 -131 -108.5 -192.5t-259.5 -61.5l14 54q109 0 156 46t39 152q-4 74 20.5 132.5t71.5 132.5l-4 8q-33 -12 -74 -13q-199 0 -199 187q0 39 3 67.5t14 69.5l45 184q14 57 14 88q0 80 -45 121t-115 41h-227l-166 -612 q-4 -16 -4 -23q0 -33 41 -32h205l-17 -66h-655z" />
<glyph unicode="&#x49b;" horiz-adv-x="1122" d="M74 549q55 156 126.5 270.5t174.5 114.5q39 0 68.5 -27.5t39.5 -60.5q12 -43 13 -101q0 -37 -27 -143l-25 -90h131q53 0 98.5 78t78.5 186q27 88 73.5 123t100.5 35q29 0 55.5 -14.5t38.5 -30.5q20 -27 26.5 -49.5t6.5 -53.5q0 -55 -30 -91t-73 -36q-29 0 -51 18.5 t-22 51.5q0 29 18 55q14 23 14 35q0 16 -8 24.5t-31 8.5q-29 0 -45 -20.5t-28 -59.5q-27 -88 -68 -174t-80 -100l-2 -11q53 -4 94 -46t41 -109q0 -53 -24 -135q-16 -66 -17 -88q0 -25 10.5 -43.5t32.5 -18.5q12 0 22.5 4t29.5 19q53 39 87.5 111.5t80.5 191.5l40 -13 q-66 -195 -145 -294q-29 -35 -37 -92.5t-8 -103.5v-60v-58q0 -125 -90 -182t-225 -57l8 49q51 0 86 8t57 37q20 25 26.5 56.5t6.5 78.5q0 68 22.5 123t61.5 117l-4 4q-27 -10 -53 -11q-61 0 -104.5 39t-43.5 125q0 57 29 135q2 8 11 38t9 59q0 45 -18.5 68.5t-75.5 23.5 h-127l-127 -463h-135l172 627q2 10 19.5 72.5t17.5 105.5q0 59 -41 59q-57 0 -115.5 -95t-105.5 -232z" />
<glyph unicode="&#x49c;" horiz-adv-x="1445" d="M-41 0l16 66h156q55 0 70 55l329 1216q4 16 5 25q0 31 -43 31h-156l16 65h656l-17 -65h-205q-55 0 -69 -56l-144 -538h168l66 231h57l-63 -227q109 20 194.5 123.5t112.5 257.5q29 152 95.5 225.5t154.5 73.5q100 0 145 -55.5t45 -129.5q0 -94 -47 -155.5t-125 -61.5 q-39 0 -66.5 26t-27.5 67q0 55 20.5 84.5t61.5 48.5q53 25 53 61q0 33 -19.5 43t-41.5 10q-74 0 -120 -72.5t-83 -250.5q-20 -92 -93 -190.5t-171 -127.5l-6 -20q39 0 93 -21.5t98 -79t44 -155.5q0 -86 -37 -225q-23 -98 -22 -132q0 -29 14 -47t43 -18q125 0 191 250l49 -15 q-29 -123 -96.5 -232.5t-194.5 -109.5q-199 0 -199 187q0 39 3 67.5t14 69.5l45 184q14 57 14 88q0 80 -45 121t-115 41h-2l-57 -205h-57l57 205h-168l-166 -612q-4 -16 -4 -23q0 -33 41 -32h205l-17 -66h-655z" />
<glyph unicode="&#x49d;" horiz-adv-x="1122" d="M74 549q55 156 126.5 270.5t174.5 114.5q39 0 68.5 -27.5t39.5 -60.5q12 -43 13 -101q0 -37 -27 -143l-25 -90h93l47 168h57l-47 -166q82 25 158 262q27 88 73.5 123t100.5 35q29 0 55.5 -14.5t38.5 -30.5q20 -27 26.5 -49.5t6.5 -53.5q0 -55 -30 -91t-73 -36 q-29 0 -51 18.5t-22 51.5q0 29 18 55q14 23 14 35q0 16 -8 24.5t-31 8.5q-29 0 -45 -20.5t-28 -59.5q-27 -88 -68 -174t-80 -100l-2 -11q53 -4 94 -46t41 -109q0 -53 -24 -135q-16 -66 -17 -88q0 -25 10.5 -43.5t32.5 -18.5q12 0 22.5 4t29.5 19q53 39 87.5 111.5 t80.5 191.5l40 -13q-133 -385 -294 -385q-61 0 -104.5 39t-43.5 125q0 57 29 135q2 8 11 38t9 59q0 41 -14 63.5t-59 26.5l-46 -160h-57l47 162h-92l-127 -463h-135l172 627q2 10 19.5 72.5t17.5 105.5q0 59 -41 59q-57 0 -115.5 -95t-105.5 -232z" />
<glyph unicode="&#x4a0;" horiz-adv-x="1751" d="M238 909l163 549h912l-17 -65h-204q-55 0 -70 -56l-143 -538h180q80 0 153.5 48t127 136t73.5 201q29 152 95.5 225.5t154.5 73.5q100 0 145 -55.5t45 -129.5q0 -94 -47 -155.5t-125 -61.5q-39 0 -66.5 26t-27.5 67q0 55 20.5 84.5t61.5 48.5q53 25 53 61q0 33 -19.5 43 t-41.5 10q-74 0 -120 -72.5t-83 -250.5q-20 -92 -93 -190.5t-171 -127.5l-6 -20q39 0 93 -21.5t98 -79t44 -155.5q0 -86 -37 -225q-23 -98 -22 -132q0 -29 14.5 -47t42.5 -18q125 0 191 250l49 -15q-29 -123 -96.5 -232.5t-194.5 -109.5q-199 1 -199 187q0 39 3.5 67.5 t13.5 69.5l45 184q14 57 14 88q0 80 -45 121t-115 41h-227l-166 -612q-4 -16 -4 -23q0 -33 41 -32h205l-16 -66h-656l17 66h155q55 0 70 55l330 1216q4 16 4 23q0 33 -41 33h-68q-70 0 -132 -35t-103 -74q-59 -57 -105.5 -140t-74 -154.5t-27.5 -80.5h-51z" />
<glyph unicode="&#x4a1;" horiz-adv-x="1196" d="M66 549l110 360h293q53 0 79.5 -34.5t26.5 -98.5q0 -66 -32 -174l-25 -90h131q53 0 98.5 78t77.5 186q27 88 74 123t100 35q29 0 55.5 -14.5t39.5 -30.5q20 -27 26 -49.5t6 -53.5q0 -55 -29.5 -91t-72.5 -36q-29 0 -51.5 18.5t-22.5 51.5q0 29 19 55q14 23 14 35 q0 16 -8 24.5t-31 8.5q-29 0 -45 -20.5t-29 -59.5q-27 -88 -67.5 -174t-79.5 -100l-2 -11q53 -4 94 -46t41 -109q0 -53 -25 -135q-16 -66 -16 -88q0 -25 10.5 -43.5t32.5 -18.5q45 0 83 43t65.5 105.5t70.5 177.5l41 -13q-133 -385 -295 -385q-61 0 -104 39t-43 125 q0 57 29 135q2 8 11 38t9 59q0 45 -18.5 68.5t-75.5 23.5h-127l-127 -463h-135l172 627q37 133 37 182q0 51 -39 51q-106 0 -189 -102q-35 -43 -60.5 -90t-39.5 -79t-17 -40h-40z" />
<glyph unicode="&#x4a2;" horiz-adv-x="1689" d="M-20 0l16 66h156q55 0 69 55l330 1216q4 16 4 23q0 33 -43 33h-156l17 65h606l-16 -65h-156q-53 0 -70 -56l-149 -551h633l149 551q4 16 4 23q0 33 -43 33h-155l16 65h606l-16 -65h-156q-53 0 -70 -56l-319 -1185q-6 -27 -6 -48q0 -68 82 -67h200l-135 -500h-51 q4 16 13.5 68.5t9.5 91.5q0 102 -11.5 162.5t-58.5 100.5t-143 40h-338l16 66h156q55 0 69 55l164 600h-633l-163 -600q-4 -16 -5 -23q0 -33 43 -32h156l-16 -66h-606z" />
<glyph unicode="&#x4a3;" horiz-adv-x="1163" d="M74 549q55 156 126.5 270.5t174.5 114.5q119 0 119 -209q0 -41 -21 -123l-31 -110h326l117 417h135l-170 -626q-33 -131 -33 -183q0 -29 8.5 -42t30.5 -13q57 0 115.5 95.5t105.5 232.5l41 -13q-69 -198 -147 -294q-29 -35 -37 -92.5t-8 -103.5v-60v-58 q0 -125 -90.5 -182t-225.5 -57l8 49q51 0 86 8t58 37q20 25 26.5 56.5t6.5 78.5q0 68 22.5 123t61.5 117l-5 6q-27 -12 -57 -13q-119 0 -119 209q0 41 21 123l37 135h-326l-123 -442h-135l170 627q33 131 33 182q0 29 -8.5 42t-30.5 13q-57 0 -115.5 -95t-105.5 -232z" />
<glyph unicode="&#x4a4;" horiz-adv-x="2080" d="M-20 0l16 66h156q55 0 69 55l330 1216q4 16 4 23q0 33 -43 33h-156l17 65h606l-16 -65h-156q-53 0 -70 -56l-147 -551h631l149 551q4 16 4 23q0 33 -43 33h-155l16 65h999l-129 -549h-51q2 8 7 34t11.5 72t6.5 91q0 137 -49.5 212t-171.5 75h-189q-55 0 -70 -56 l-329 -1216q-4 -16 -4 -23q0 -33 43 -32h155l-16 -66h-606l16 66h156q55 0 69 55l162 600h-631l-163 -600q-4 -16 -5 -23q0 -33 43 -32h156l-16 -66h-606z" />
<glyph unicode="&#x4a5;" horiz-adv-x="1400" d="M74 549q55 156 126.5 270.5t174.5 114.5q119 0 119 -209q0 -29 -6.5 -64.5t-14.5 -58.5l-33 -110h328l115 417h551l-95 -360h-39q2 10 6.5 46t4.5 79q0 90 -35 138t-127 48h-100q-25 0 -37.5 -10t-18.5 -35l-143 -532q-33 -131 -33 -183q0 -29 8.5 -42t30.5 -13 q57 0 115.5 95.5t105.5 232.5l41 -13q-55 -156 -126.5 -270.5t-174.5 -114.5q-119 0 -119 209q0 41 21 123l37 135h-328l-121 -442h-135l170 627q33 131 33 182q0 29 -8.5 42t-30.5 13q-57 0 -115.5 -95t-105.5 -232z" />
<glyph unicode="&#x4aa;" horiz-adv-x="1372" d="M188 516q0 236 115 463t296 371.5t372 144.5q76 0 133 -28.5t94 -65.5l37 -37q20 -20 31.5 -27.5t27.5 -7.5q39 0 61.5 50.5t30.5 99.5h48l-131 -627h-48q2 41 2 129q0 72 -19 174t-69 170q-78 104 -206 105q-121 0 -221.5 -75t-196.5 -257q-68 -127 -114 -314.5 t-46 -382.5q0 -158 40 -239.5t98.5 -107t133.5 -25.5q115 0 221.5 65.5t187.5 172t124 229.5l63 -23q-68 -197 -206 -338t-345 -168l-34 -231q-8 -82 -15 -105q-12 -43 -43.5 -68.5t-74.5 -25.5q-35 0 -54.5 17.5t-19.5 46.5q0 20 11 50t20.5 51.5t15.5 33.5l86 229 q-102 8 -194.5 69.5t-152 183.5t-59.5 298z" />
<glyph unicode="&#x4ab;" horiz-adv-x="868" d="M106 324q0 123 45.5 242.5t135.5 213.5q72 76 144.5 115t162.5 39q78 0 137.5 -49t59.5 -156q0 -61 -34 -102t-83 -41q-39 0 -59.5 23.5t-20.5 54.5q0 59 65 106q23 18 23 53q0 18 -22.5 40t-73.5 22q-160 0 -279 -357q-23 -68 -38 -169t-15 -158q0 -90 40 -133t97 -43 q127 0 207 102t113 190l43 -14q-45 -129 -136.5 -221t-201.5 -105q-18 -49 -19 -104q0 -39 15 -121q4 -29 4 -39q0 -68 -44 -112.5t-108.5 -66t-126.5 -21.5l8 49q150 0 150 135q0 12 -4 45q-2 12 -2 37q0 55 18.5 99t52.5 97q-115 8 -184.5 108.5t-69.5 240.5z" />
<glyph unicode="&#x4ae;" horiz-adv-x="1474" d="M217 0l16 66h205q53 0 68 53l143 532l-162 652q-16 51 -38.5 70.5t-63.5 19.5h-152l17 65h647l-16 -65h-121q-41 0 -65.5 -21.5t-24.5 -50.5q0 -16 4 -25l135 -569l352 406q47 55 75 96t28 84q0 80 -99 80h-88l17 65h606l-17 -65h-96q-117 0 -244 -150l-501 -569 l-150 -555q-4 -16 -4 -25q0 -29 41 -28h205l-16 -66h-701z" />
<glyph unicode="&#x4af;" horiz-adv-x="1300" d="M61 549q49 141 124 263t167 122q76 0 116 -61.5t52 -176.5l66 -598l264 504q84 160 166 246t172 86q59 0 96 -35t39 -76q4 -80 -32 -133t-105 -53q-35 0 -59.5 23.5t-24.5 56.5q0 31 18.5 55.5t42.5 38.5q35 18 35 43q0 20 -24 20q-61 0 -128 -73.5t-131 -194.5 l-319 -606l-92 -338q-12 -49 -12 -68q0 -25 32 -24h168l-16 -57h-549l16 57h152q25 0 37 10t18 35l105 385l-82 739q-8 72 -20.5 97.5t-43.5 25.5q-51 0 -109.5 -105.5t-97.5 -219.5z" />
<glyph unicode="&#x4b0;" horiz-adv-x="1474" d="M217 0l16 66h205q53 0 68 53l129 481h-232l17 66h225l-158 637q-16 51 -38.5 70.5t-63.5 19.5h-152l17 65h647l-16 -65h-121q-41 0 -65.5 -21.5t-24.5 -50.5q0 -16 4 -25l135 -569l352 406q47 55 75 96t28 84q0 80 -99 80h-88l17 65h606l-17 -65h-96q-117 0 -244 -150 l-501 -569l-2 -8h225l-16 -66h-228l-129 -481q-4 -16 -4 -25q0 -29 41 -28h205l-16 -66h-701z" />
<glyph unicode="&#x4b1;" horiz-adv-x="1300" d="M61 549q49 141 124 263t167 122q76 0 116 -61.5t52 -176.5l66 -598l264 504q84 160 166 246t172 86q59 0 96 -35t39 -76q4 -80 -32 -133t-105 -53q-35 0 -59.5 23.5t-24.5 56.5q0 31 18.5 55.5t42.5 38.5q35 18 35 43q0 20 -24 20q-61 0 -128 -73.5t-131 -194.5 l-303 -573h246l-16 -66h-254l-84 -305q-12 -49 -12 -68q0 -25 32 -24h168l-16 -57h-549l16 57h152q25 0 37 10t18 35l96 352h-249l16 66h238l-78 706q-8 72 -20.5 97.5t-43.5 25.5q-51 0 -109.5 -105.5t-97.5 -219.5z" />
<glyph unicode="&#x4b6;" horiz-adv-x="1525" d="M283 1393l16 65h606l-16 -65h-156q-29 0 -45 -13.5t-24 -42.5l-99 -366q-20 -76 -20 -107q0 -88 36.5 -132t135.5 -44q193 0 342 115l147 534q4 20 4 25q0 31 -43 31h-155l16 65h606l-16 -65h-156q-29 0 -44 -13.5t-25 -42.5l-320 -1185q-6 -27 -6 -48q0 -68 82 -67h201 l-136 -500h-51q4 16 13.5 68.5t9.5 91.5q0 102 -11.5 162.5t-58.5 100.5t-143 40h-416l16 66h230q59 0 74 55l165 610q-49 -39 -146 -73.5t-200 -34.5q-156 0 -243.5 71.5t-87.5 188.5q0 31 10 71l102 383q4 16 4 23q0 33 -43 33h-155z" />
<glyph unicode="&#x4b7;" horiz-adv-x="1124" d="M74 549q55 156 126.5 270.5t174.5 114.5q39 0 68.5 -27.5t39.5 -60.5q12 -43 13 -101q0 -43 -45 -182q-41 -127 -41 -164q0 -35 14 -55t41 -20q55 0 120.5 59t120 146t78.5 167l60 213h135l-172 -626q-33 -131 -33 -183q0 -29 8.5 -42t30.5 -13q57 0 115.5 95.5 t105.5 232.5l41 -13q-69 -198 -147 -294q-29 -35 -37 -92.5t-8 -103.5v-60v-58q0 -125 -90.5 -182t-225.5 -57l8 49q51 0 86 8t58 37q20 25 26.5 56.5t6.5 78.5q0 68 22.5 123t61.5 117l-5 6q-27 -12 -57 -13q-119 0 -119 209q0 41 21 123l45 170l-10 4q-51 -86 -126 -146.5 t-157 -60.5q-66 0 -101.5 41t-35.5 113q0 55 41 178q45 135 45 199q0 59 -41 59q-57 0 -115.5 -95t-105.5 -232z" />
<glyph unicode="&#x4b8;" horiz-adv-x="1474" d="M283 1393l16 65h606l-16 -65h-156q-29 0 -45 -13.5t-24 -42.5l-99 -366q-20 -76 -20 -107q0 -88 36.5 -132t135.5 -44h22l66 232h57l-63 -226q143 18 260 109l147 534q4 20 4 25q0 31 -43 31h-155l16 65h606l-16 -65h-156q-29 0 -44 -13.5t-25 -42.5l-330 -1216 q-4 -16 -4 -23q0 -33 43 -32h205l-17 -66h-733l16 66h230q59 0 74 55l165 610q-39 -29 -110.5 -59.5t-151.5 -42.5l-59 -211h-57l57 205h-25q-156 0 -243.5 71.5t-87.5 188.5q0 31 10 71l102 383q4 16 4 23q0 33 -43 33h-155z" />
<glyph unicode="&#x4b9;" horiz-adv-x="1124" d="M74 549q55 156 126.5 270.5t174.5 114.5q39 0 68.5 -27.5t39.5 -60.5q12 -43 13 -101q0 -43 -45 -182q-41 -127 -41 -164q0 -35 14 -55t41 -20h8l51 178h58l-45 -156q74 43 145.5 147.5t101.5 202.5l60 213h135l-172 -626q-33 -131 -33 -183q0 -29 8.5 -42t30.5 -13 q57 0 115.5 95.5t105.5 232.5l41 -13q-55 -156 -126.5 -270.5t-174.5 -114.5q-119 0 -119 209q0 41 21 123l45 170l-10 4q-35 -59 -84 -108t-105 -76l-49 -174h-57l45 153q-12 -2 -33 -2q-66 0 -101.5 41t-35.5 113q0 55 41 178q45 135 45 199q0 59 -41 59q-57 0 -115.5 -95 t-105.5 -232z" />
<glyph unicode="&#x4ba;" horiz-adv-x="1474" d="M-12 0l16 66h156q29 0 44 13t25 42l330 1216q4 16 4 23q0 33 -43 33h-205l17 65h733l-16 -65h-230q-57 0 -74 -56l-165 -610q49 39 146 74t200 35q156 0 243.5 -72t87.5 -189q0 -31 -10 -71l-102 -383q-4 -16 -4 -23q0 -33 43 -32h155l-16 -66h-606l16 66h156q29 0 45 13 t24 42l99 366q20 78 20 107q0 88 -36.5 132t-135.5 44q-190 0 -342 -115l-147 -534q-4 -20 -4 -25q0 -31 43 -30h155l-16 -66h-606z" />
<glyph unicode="&#x4bb;" horiz-adv-x="1048" d="M49 0l373 1364q4 16 4 20q0 25 -37 25h-180l14 49h363l-271 -981l9 -6l28 51q90 174 183.5 293t205.5 119q61 0 97 -50t36 -147q0 -45 -12 -109.5t-28 -99.5l-132 -305q-10 -23 -21 -59.5t-11 -61.5q0 -29 12 -47t35 -18q70 0 133 106.5t108 229.5l41 -13 q-55 -166 -134 -275.5t-171 -109.5q-55 0 -93 49.5t-38 147.5q0 45 12.5 107.5t28.5 101.5l131 305q10 23 21.5 59.5t11.5 61.5q0 29 -11.5 47t-33.5 18q-123 0 -260 -231q-82 -139 -146.5 -276.5t-91.5 -229.5l-41 -135h-135z" />
<glyph unicode="&#x4c0;" horiz-adv-x="819" d="M-20 0l16 66h156q55 0 69 55l330 1216q4 16 4 25q0 31 -43 31h-156l17 65h606l-16 -65h-156q-55 0 -70 -56l-329 -1216q-4 -16 -5 -23q0 -33 43 -32h156l-16 -66h-606z" />
<glyph unicode="&#x4c1;" horiz-adv-x="2056" d="M4 131q0 72 37 201l47 -17q-27 -98 -27 -159q0 -90 66 -90q61 0 92 55t64 172q33 123 72.5 213t113.5 158q53 51 125 75.5t145 28.5v12q-39 18 -59.5 62.5t-20.5 99.5q0 84 35 201q31 109 31 168q0 90 -82 90q-27 0 -54.5 -10.5t-27.5 -40.5q0 -27 14 -47q31 -33 31 -74 q0 -47 -27.5 -75t-72.5 -28q-66 0 -99.5 40t-33.5 108q0 94 62.5 151.5t170.5 57.5q94 0 145.5 -43t51.5 -140q0 -49 -29 -147q-33 -115 -33 -190q0 -82 41 -123t138 -41h118l146 538q4 20 4 25q0 31 -43 31h-205l16 65h705l-16 -65h-205q-55 0 -70 -56l-145 -538h125 q141 0 216.5 94t129.5 291q41 154 113.5 226.5t185.5 72.5q74 0 119 -52.5t45 -146.5q0 -78 -41 -140.5t-127 -62.5q-41 0 -70 27t-29 76q0 76 74 116q41 20 41 54q0 20 -11 27.5t-38 7.5q-55 0 -90 -25t-62.5 -84t-58.5 -174q-76 -281 -227 -326l-7 -18q129 0 184.5 -58.5 t55.5 -166.5q0 -90 -41 -242q-29 -104 -29 -156q0 -35 13.5 -54t46.5 -19q68 0 106.5 78.5t67.5 187.5l49 -15q-35 -131 -98.5 -236.5t-192.5 -105.5q-98 0 -153.5 35t-55.5 131q0 49 23 140l53 196q18 53 19 92q0 76 -48.5 120t-113.5 44h-191l-168 -612l-4 -25 q0 -31 41 -30h205l-16 -66h-701l17 66h204q29 0 44.5 13t23.5 42l166 612h-174q-72 0 -117 -19.5t-92 -66.5q-41 -41 -73 -126t-62 -226q-37 -174 -123 -247t-213 -73q-80 0 -121 44t-41 112zM979 1757q0 86 43 128t107 42q49 0 74.5 -26.5t25.5 -63.5q0 -43 -21.5 -66.5 t-60.5 -23.5q-20 0 -31 -14q-8 -16 -8 -33q0 -61 67.5 -90t158.5 -29q127 0 198.5 30.5t71.5 82.5q0 12 -7 21t-12 14q-33 37 -32 86q0 53 27.5 82.5t78.5 29.5q47 0 75 -31.5t28 -72.5q0 -84 -52.5 -152.5t-155 -109.5t-245.5 -41q-80 0 -155.5 28.5t-125 83t-49.5 125.5z " />
<glyph unicode="&#x4c2;" horiz-adv-x="1671" d="M51 121q0 68 37 112q37 49 94 50q27 0 49 -17q29 -20 29 -65q0 -27 -16.5 -55.5t-44.5 -41.5q-18 -10 -27.5 -19t-9.5 -28q0 -14 12 -23t33 -9q80 0 146.5 75.5t115.5 192.5q41 98 63.5 205.5t22.5 203.5q0 90 -15.5 130t-70.5 40q-84 0 -157.5 -85t-116.5 -195l-43 14 q63 141 145 234.5t205 93.5q90 0 137 -66.5t47 -183.5q0 -88 -24 -192h129l114 417h135l-114 -417h112q49 152 136 258q72 88 147.5 136t163.5 48q35 0 63.5 -13.5t44.5 -31.5q18 -23 27.5 -50.5t9.5 -50.5q0 -68 -37 -112q-37 -49 -94 -49q-27 0 -49 16q-29 23 -29 66 q0 27 16.5 52t39.5 38q23 12 33 23.5t10 29.5q0 14 -12.5 23.5t-32.5 9.5q-80 0 -146.5 -76t-116.5 -193q-41 -98 -63.5 -205.5t-22.5 -203.5q0 -90 15.5 -130t70.5 -40q84 0 158 85t117 195l43 -14q-63 -141 -145 -234.5t-205 -93.5q-90 0 -137.5 67t-47.5 183 q0 113 29 217h-113l-118 -442h-136l121 442h-129q-47 -166 -141 -282q-72 -88 -147.5 -136.5t-163.5 -48.5q-35 0 -64 13.5t-45 31.5q-18 23 -27.5 50.5t-9.5 50.5zM823 1300q0 27 8 64h46q-2 -10 -3 -33q0 -72 42 -122t143 -50q113 0 186.5 62.5t106.5 142.5h45 q-14 -55 -64.5 -122.5t-128.5 -116t-168 -48.5q-108 0 -160.5 67.5t-52.5 155.5z" />
<glyph unicode="&#x4cb;" horiz-adv-x="1523" d="M283 1393l16 65h606l-16 -65h-156q-29 0 -45 -13.5t-24 -42.5l-99 -366q-20 -76 -20 -107q0 -88 36.5 -132t135.5 -44q193 0 342 115l147 534q4 20 4 25q0 31 -43 31h-155l16 65h606l-16 -65h-156q-29 0 -44 -13.5t-25 -42.5l-330 -1216q-4 -16 -4 -23q0 -33 43 -32h205 l-17 -66h-463q-63 0 -116.5 -30.5t-92.5 -80.5q-35 -43 -60.5 -89t-39.5 -78.5t-16 -40.5h-41l96 319l16 66h230q59 0 74 55l165 610q-49 -39 -146 -73.5t-200 -34.5q-156 0 -243.5 71.5t-87.5 188.5q0 31 10 71l102 383q4 16 4 23q0 33 -43 33h-155z" />
<glyph unicode="&#x4cc;" horiz-adv-x="1124" d="M74 549q55 156 126.5 270.5t174.5 114.5q39 0 68.5 -27.5t39.5 -60.5q12 -43 13 -101q0 -43 -45 -182q-41 -127 -41 -164q0 -35 14 -55t41 -20q55 0 120.5 59t120 146t78.5 167l60 213h135l-172 -626q-33 -131 -33 -183q0 -29 8.5 -42t30.5 -13q57 0 115.5 95.5 t105.5 232.5l41 -13q-69 -198 -147 -294q-29 -35 -37 -92.5t-8 -103.5v-60v-58q0 -125 -90.5 -182t-225.5 -57l8 49q51 0 86 8t58 37q20 25 26.5 56.5t6.5 78.5q0 68 22.5 123t61.5 117l-5 6q-27 -12 -57 -13q-119 0 -119 209q0 41 21 123l45 170l-10 4q-51 -86 -126 -146.5 t-157 -60.5q-66 0 -101.5 41t-35.5 113q0 55 41 178q45 135 45 199q0 59 -41 59q-57 0 -115.5 -95t-105.5 -232z" />
<glyph unicode="&#x4cf;" horiz-adv-x="593" d="M111 184q0 41 20 123l291 1057q4 16 4 20q0 25 -37 25h-180l14 49h359l-320 -1175q-33 -131 -33 -183q0 -29 8.5 -42t30.5 -13q57 0 115.5 95.5t105.5 232.5l41 -13q-55 -156 -126.5 -270.5t-174.5 -114.5q-118 0 -118 209z" />
<glyph unicode="&#x4d0;" horiz-adv-x="1490" d="M-90 0l16 66h76q84 0 150.5 43t103.5 104l842 1245h49v-1304q4 -51 28.5 -69.5t69.5 -18.5h115l-17 -66h-606l17 66h127q43 0 64.5 18t21.5 76v340h-428l-140 -205q-70 -100 -69 -160q0 -70 82 -69h112l-16 -66h-598zM584 565h383v565zM942 1755q0 51 33 86t73 35 q43 0 67 -20.5t24 -59.5t-21.5 -59.5t-50.5 -20.5q-33 0 -33 -26q0 -39 39 -59.5t98 -20.5q84 0 164 56.5t127 160.5l33 -18q-45 -109 -137 -178.5t-199 -69.5q-94 0 -155.5 54t-61.5 140z" />
<glyph unicode="&#x4d1;" horiz-adv-x="1097" d="M86 256q0 125 37 240.5t84 189.5q72 113 167 180.5t193 67.5q63 0 114.5 -44t74.5 -136l8 -4l45 159h135l-174 -645q-29 -115 -29 -164q0 -29 8.5 -42t28.5 -13q55 0 114.5 91t108.5 237l41 -13q-53 -158 -129.5 -271.5t-171.5 -113.5q-119 0 -118 209q0 27 1 40.5 t1 15.5l-7 4q-43 -92 -125.5 -180.5t-177.5 -88.5q-108 0 -168.5 77t-60.5 204zM233 174q0 -61 21.5 -105t73.5 -44q75 0 145 76.5t129 205.5q41 92 72 205t31 184q0 90 -37 139.5t-101 49.5q-63 0 -120.5 -70t-98.5 -160q-51 -115 -83 -243.5t-32 -237.5zM406 1206 q0 51 33 86t73 35q43 0 67 -20.5t24 -59.5t-21.5 -59.5t-50.5 -20.5q-33 0 -33 -26q0 -39 39 -59.5t98 -20.5q84 0 164 56.5t127 160.5l33 -18q-45 -109 -137 -178.5t-199 -69.5q-94 0 -155.5 54t-61.5 140z" />
<glyph unicode="&#x4d2;" horiz-adv-x="1490" d="M-90 0l16 66h76q84 0 150.5 43t103.5 104l842 1245h49v-1304q4 -51 28.5 -69.5t69.5 -18.5h115l-17 -66h-606l17 66h127q43 0 64.5 18t21.5 76v340h-428l-140 -205q-70 -100 -69 -160q0 -70 82 -69h112l-16 -66h-598zM584 565h383v565zM841 1741q0 47 30 76.5t77 29.5 q45 0 75.5 -29.5t30.5 -76.5q0 -45 -30.5 -76t-75.5 -31q-47 0 -77 31t-30 76zM1259 1741q0 47 30 76.5t77 29.5t76.5 -29.5t29.5 -76.5q0 -45 -29.5 -76t-76.5 -31t-77 31t-30 76z" />
<glyph unicode="&#x4d3;" horiz-adv-x="1097" d="M86 256q0 125 37 240.5t84 189.5q72 113 167 180.5t193 67.5q63 0 114.5 -44t74.5 -136l8 -4l45 159h135l-174 -645q-29 -115 -29 -164q0 -29 8.5 -42t28.5 -13q55 0 114.5 91t108.5 237l41 -13q-53 -158 -129.5 -271.5t-171.5 -113.5q-119 0 -118 209q0 27 1 40.5 t1 15.5l-7 4q-43 -92 -125.5 -180.5t-177.5 -88.5q-108 0 -168.5 77t-60.5 204zM233 174q0 -61 21.5 -105t73.5 -44q75 0 145 76.5t129 205.5q41 92 72 205t31 184q0 90 -37 139.5t-101 49.5q-63 0 -120.5 -70t-98.5 -160q-51 -115 -83 -243.5t-32 -237.5zM358 1221 q0 41 29 69.5t70 28.5q39 0 68.5 -28.5t29.5 -69.5q0 -39 -29.5 -69t-68.5 -30q-41 0 -70 30t-29 69zM743 1221q0 41 29 69.5t70 28.5q39 0 68.5 -28.5t29.5 -69.5q0 -39 -29.5 -69t-68.5 -30q-41 0 -70 30t-29 69z" />
<glyph unicode="&#x4d4;" horiz-adv-x="2068" d="M-90 0l16 66h80q78 0 137.5 40.5t110.5 106.5l799 997q10 14 40.5 49t45 59.5t14.5 43.5q0 31 -47 31h-94l16 65h1131l-95 -467h-51q2 8 4 34t2 65q0 172 -55 237.5t-166 65.5h-336q-29 0 -45 -13.5t-24 -42.5l-148 -551h221q80 0 129.5 44t73 103.5t45.5 143.5h51 l-178 -663h-51q20 90 20 153q0 72 -27.5 113t-94.5 41h-207l-164 -600l-4 -25q0 -31 43 -30h381q53 0 124.5 25.5t129.5 80.5q57 57 105 140t77 150.5t35 86.5h49l-172 -549h-1196l16 66h154q57 0 72 55l102 381h-404l-165 -207q-4 -6 -27 -37t-40 -66.5t-17 -66.5 q0 -27 17 -43t56 -16h99l-17 -66h-571zM625 567h370l191 703z" />
<glyph unicode="&#x4d5;" horiz-adv-x="1400" d="M86 256q0 125 37 240.5t84 189.5q72 113 167 180.5t193 67.5q63 0 114.5 -44t74.5 -136l8 -4l45 159h135l-45 -159l14 4q127 180 265 180q74 0 119.5 -45t45.5 -121q0 -86 -55 -151.5t-149 -108.5q-119 -53 -316 -68q-47 -135 -47 -233q0 -182 160 -182q82 0 150.5 57 t111.5 127t57 108l43 -14q-31 -88 -91 -162.5t-135 -120t-146 -45.5q-266 0 -301 265l-7 4q-43 -92 -125.5 -180.5t-177.5 -88.5q-108 0 -168.5 77t-60.5 204zM233 174q0 -61 21.5 -105t73.5 -44q75 0 145 76.5t129 205.5q41 92 72 205t31 184q0 90 -37 139.5t-101 49.5 q-63 0 -120.5 -70t-98.5 -160q-51 -115 -83 -243.5t-32 -237.5zM836 492q178 12 264 51q63 29 104 91t41 142q0 109 -90 109q-82 0 -148.5 -77t-113.5 -173q-14 -31 -34.5 -80t-22.5 -63z" />
<glyph unicode="&#x4d6;" horiz-adv-x="1433" d="M-20 0l16 66h156q55 0 69 55l330 1216q4 16 4 25q0 31 -43 31h-156l17 65h1130l-94 -467h-51q2 8 4 34t2 65q0 172 -55.5 237.5t-165.5 65.5h-336q-55 0 -70 -56l-149 -551h221q80 0 129 44t72.5 103.5t46.5 143.5h51l-176 -663h-51q20 90 20 153q0 72 -27.5 113 t-95.5 41h-207l-163 -600q-4 -16 -5 -23q0 -33 43 -32h381q53 0 125 25.5t129 80.5q57 57 105.5 140t77 150.5t34.5 86.5h50l-172 -549h-1196zM827 1755q0 51 33 86t73 35q43 0 67 -20.5t24 -59.5t-21.5 -59.5t-50.5 -20.5q-33 0 -33 -26q0 -39 39 -59.5t98 -20.5 q84 0 164 56.5t127 160.5l33 -18q-45 -109 -137 -178.5t-199 -69.5q-94 0 -155.5 54t-61.5 140z" />
<glyph unicode="&#x4d7;" horiz-adv-x="839" d="M106 324q0 123 45.5 242.5t135.5 213.5q147 154 307 154q82 0 134 -40t52 -132q0 -160 -207 -256q-70 -33 -139 -46.5t-151 -19.5q-10 -43 -19.5 -111.5t-9.5 -127.5q0 -90 40 -133t97 -43q127 0 207 102t113 190l43 -14q-49 -139 -149.5 -233.5t-223.5 -94.5t-199 101.5 t-76 247.5zM295 492q150 10 240 51q66 29 106.5 90t40.5 141q0 59 -24.5 85t-61.5 26q-84 0 -155.5 -77t-104.5 -167q-10 -33 -22.5 -78t-18.5 -71zM424 1206q0 51 33 86t73 35q43 0 67 -20.5t24 -59.5t-21.5 -59.5t-50.5 -20.5q-33 0 -33 -26q0 -39 39 -59.5t98 -20.5 q84 0 164 56.5t127 160.5l33 -18q-45 -109 -137 -178.5t-199 -69.5q-94 0 -155.5 54t-61.5 140z" />
<glyph unicode="&#x4d8;" horiz-adv-x="1433" d="M188 457q0 49 13.5 129t34.5 164h925q16 119 21.5 173t5.5 134q0 172 -56.5 272.5t-216.5 100.5q-115 0 -221 -66t-187 -172.5t-124 -228.5l-64 22q74 217 233 363.5t398 146.5q137 0 235.5 -74.5t148.5 -200.5t50 -278q0 -246 -108.5 -472t-289.5 -366.5t-384 -140.5 q-115 0 -209 61.5t-149.5 173t-55.5 259.5zM385 350q0 -137 55.5 -229t169.5 -92q160 0 272.5 115.5t175 264t87.5 275.5h-709q-51 -180 -51 -334z" />
<glyph unicode="&#x4d9;" horiz-adv-x="839" d="M92 147q0 160 207 256q70 33 139.5 46.5t151.5 19.5q10 43 19 111.5t9 128.5q0 90 -39.5 133t-97.5 43q-127 0 -206.5 -102.5t-112.5 -190.5l-43 14q49 139 149.5 233.5t223.5 94.5t198.5 -101.5t75.5 -246.5q0 -123 -45 -243t-135 -214q-147 -154 -307 -154 q-82 0 -134.5 40t-52.5 132zM190 135q0 -59 25 -84.5t61 -25.5q84 0 156 76.5t105 166.5q10 33 22 78t19 72q-150 -10 -240 -51q-66 -29 -107 -90.5t-41 -141.5z" />
<glyph unicode="&#x4dc;" horiz-adv-x="2056" d="M4 131q0 72 37 201l47 -17q-27 -98 -27 -159q0 -90 66 -90q61 0 92 55t64 172q33 123 72.5 213t113.5 158q53 51 125 75.5t145 28.5v12q-39 18 -59.5 62.5t-20.5 99.5q0 84 35 201q31 109 31 168q0 90 -82 90q-27 0 -54.5 -10.5t-27.5 -40.5q0 -27 14 -47q31 -33 31 -74 q0 -47 -27.5 -75t-72.5 -28q-66 0 -99.5 40t-33.5 108q0 94 62.5 151.5t170.5 57.5q94 0 145.5 -43t51.5 -140q0 -49 -29 -147q-33 -115 -33 -190q0 -82 41 -123t138 -41h118l146 538q4 20 4 25q0 31 -43 31h-205l16 65h705l-16 -65h-205q-55 0 -70 -56l-145 -538h125 q141 0 216.5 94t129.5 291q41 154 113.5 226.5t185.5 72.5q74 0 119 -52.5t45 -146.5q0 -78 -41 -140.5t-127 -62.5q-41 0 -70 27t-29 76q0 76 74 116q41 20 41 54q0 20 -11 27.5t-38 7.5q-55 0 -90 -25t-62.5 -84t-58.5 -174q-76 -281 -227 -326l-7 -18q129 0 184.5 -58.5 t55.5 -166.5q0 -90 -41 -242q-29 -104 -29 -156q0 -35 13.5 -54t46.5 -19q68 0 106.5 78.5t67.5 187.5l49 -15q-35 -131 -98.5 -236.5t-192.5 -105.5q-98 0 -153.5 35t-55.5 131q0 49 23 140l53 196q18 53 19 92q0 76 -48.5 120t-113.5 44h-191l-168 -612l-4 -25 q0 -31 41 -30h205l-16 -66h-701l17 66h204q29 0 44.5 13t23.5 42l166 612h-174q-72 0 -117 -19.5t-92 -66.5q-41 -41 -73 -126t-62 -226q-37 -174 -123 -247t-213 -73q-80 0 -121 44t-41 112zM1017 1741q0 47 30 76.5t77 29.5q45 0 75.5 -29.5t30.5 -76.5q0 -45 -30.5 -76 t-75.5 -31q-47 0 -77 31t-30 76zM1435 1741q0 47 30 76.5t77 29.5t76.5 -29.5t29.5 -76.5q0 -45 -29.5 -76t-76.5 -31t-77 31t-30 76z" />
<glyph unicode="&#x4dd;" horiz-adv-x="1671" d="M51 121q0 68 37 112q37 49 94 50q27 0 49 -17q29 -20 29 -65q0 -27 -16.5 -55.5t-44.5 -41.5q-18 -10 -27.5 -19t-9.5 -28q0 -14 12 -23t33 -9q80 0 146.5 75.5t115.5 192.5q41 98 63.5 205.5t22.5 203.5q0 90 -15.5 130t-70.5 40q-84 0 -157.5 -85t-116.5 -195l-43 14 q63 141 145 234.5t205 93.5q90 0 137 -66.5t47 -183.5q0 -88 -24 -192h129l114 417h135l-114 -417h112q49 152 136 258q72 88 147.5 136t163.5 48q35 0 63.5 -13.5t44.5 -31.5q18 -23 27.5 -50.5t9.5 -50.5q0 -68 -37 -112q-37 -49 -94 -49q-27 0 -49 16q-29 23 -29 66 q0 27 16.5 52t39.5 38q23 12 33 23.5t10 29.5q0 14 -12.5 23.5t-32.5 9.5q-80 0 -146.5 -76t-116.5 -193q-41 -98 -63.5 -205.5t-22.5 -203.5q0 -90 15.5 -130t70.5 -40q84 0 158 85t117 195l43 -14q-63 -141 -145 -234.5t-205 -93.5q-90 0 -137.5 67t-47.5 183 q0 113 29 217h-113l-118 -442h-136l121 442h-129q-47 -166 -141 -282q-72 -88 -147.5 -136.5t-163.5 -48.5q-35 0 -64 13.5t-45 31.5q-18 23 -27.5 50.5t-9.5 50.5zM731 1221q0 41 29 69.5t70 28.5q39 0 68.5 -28.5t29.5 -69.5q0 -39 -29.5 -69t-68.5 -30q-41 0 -70 30 t-29 69zM1116 1221q0 41 29 69.5t70 28.5q39 0 68.5 -28.5t29.5 -69.5q0 -39 -29.5 -69t-68.5 -30q-41 0 -70 30t-29 69z" />
<glyph unicode="&#x4de;" horiz-adv-x="1310" d="M78 362q0 88 51 152t117 64q147 0 147 -123q0 -57 -37 -90t-86 -33q-20 0 -31.5 -4t-25.5 -15q-20 -20 -20 -59q0 -70 55 -121t141 -77.5t174 -26.5q104 0 193.5 52t148.5 140q41 61 63.5 149.5t22.5 184.5q0 76 -44 131t-124 55h-356l16 74h312q90 0 171 45t131 133 t50 209q0 119 -71.5 173.5t-157.5 54.5q-104 0 -214 -47.5t-206.5 -143.5t-155.5 -235h-47l160 528h47q-4 -23 -4 -39q0 -35 13 -59.5t40 -24.5q23 0 41 5t63 24q135 57 287 57q129 0 219 -45t136 -119t46 -160q0 -166 -125.5 -260t-263.5 -127l-4 -20q100 -27 179 -109 t79 -196q0 -135 -82 -249t-228 -180.5t-329 -66.5q-131 0 -242.5 43t-180 133t-68.5 223zM647 1741q0 47 30 76.5t77 29.5q45 0 75.5 -29.5t30.5 -76.5q0 -45 -30.5 -76t-75.5 -31q-47 0 -77 31t-30 76zM1065 1741q0 47 30 76.5t77 29.5t76.5 -29.5t29.5 -76.5 q0 -45 -29.5 -76t-76.5 -31t-77 31t-30 76z" />
<glyph unicode="&#x4df;" horiz-adv-x="847" d="M66 180q0 61 33.5 102.5t82.5 41.5q39 0 59.5 -21.5t20.5 -50.5q0 -53 -65 -100q-23 -18 -23 -48q0 -37 44 -58t112 -21q102 0 168 73q80 86 80 219q0 145 -150 146h-178l16 57h176q45 0 93.5 26.5t80 77t31.5 115.5q0 68 -34.5 107t-100.5 39q-102 0 -187 -66.5 t-132 -167.5l-43 15q68 135 166 201.5t216 66.5q125 0 185.5 -57.5t60.5 -128.5q0 -72 -38 -125.5t-90 -85t-97 -41.5l-2 -9q61 -8 117.5 -56t56.5 -124q0 -86 -51 -161.5t-143.5 -123t-208.5 -47.5q-95 0 -175.5 52.5t-80.5 152.5zM299 1221q0 41 29 69.5t70 28.5 q39 0 68.5 -28.5t29.5 -69.5q0 -39 -29.5 -69t-68.5 -30q-41 0 -70 30t-29 69zM684 1221q0 41 29 69.5t70 28.5q39 0 68.5 -28.5t29.5 -69.5q0 -39 -29.5 -69t-68.5 -30q-41 0 -70 30t-29 69z" />
<glyph unicode="&#x4e2;" horiz-adv-x="1638" d="M-20 0l16 66h156q55 0 69 55l330 1216q4 16 4 25q0 31 -43 31h-156l17 65h606l-16 -65h-156q-55 0 -70 -56l-272 -1003l887 936l18 67q4 16 4 23q0 33 -45 33h-153l16 65h606l-16 -65h-154q-29 0 -45 -13.5t-27 -42.5l-329 -1216q-4 -16 -4 -23q0 -33 45 -32h153l-16 -66 h-606l16 66h156q29 0 44 13t25 42l271 1003l-885 -936l-18 -67q-4 -16 -5 -23q0 -33 43 -32h156l-16 -66h-606zM789 1683l20 82h643l-20 -82h-643z" />
<glyph unicode="&#x4e3;" horiz-adv-x="1171" d="M74 549q55 166 134 275.5t171 109.5q55 0 93 -49t38 -148q0 -45 -12.5 -107.5t-28.5 -101.5l-131 -305q-10 -23 -21.5 -59.5t-11.5 -61.5q0 -29 11.5 -47t33.5 -18q123 0 260 231q82 139 146.5 276.5t91.5 229.5l41 135h135l-172 -635q-31 -123 -31 -174q0 -29 8.5 -42 t30.5 -13q57 0 115.5 95.5t105.5 232.5l41 -13q-135 -385 -301 -385q-119 0 -119 209q0 41 19.5 126t34.5 122l-6 6l-29 -51q-90 -174 -183.5 -293t-205.5 -119q-62 0 -97.5 50.5t-35.5 146.5q0 45 12 109.5t29 99.5l131 305q10 23 21 59.5t11 61.5q0 29 -12 47t-35 18 q-70 0 -133 -106.5t-108 -228.5zM444 1118l21 82h643l-21 -82h-643z" />
<glyph unicode="&#x4e4;" horiz-adv-x="1638" d="M-20 0l16 66h156q55 0 69 55l330 1216q4 16 4 25q0 31 -43 31h-156l17 65h606l-16 -65h-156q-55 0 -70 -56l-272 -1003l887 936l18 67q4 16 4 23q0 33 -45 33h-153l16 65h606l-16 -65h-154q-29 0 -45 -13.5t-27 -42.5l-329 -1216q-4 -16 -4 -23q0 -33 45 -32h153l-16 -66 h-606l16 66h156q29 0 44 13t25 42l271 1003l-885 -936l-18 -67q-4 -16 -5 -23q0 -33 43 -32h156l-16 -66h-606zM809 1741q0 47 30 76.5t77 29.5q45 0 75.5 -29.5t30.5 -76.5q0 -45 -30.5 -76t-75.5 -31q-47 0 -77 31t-30 76zM1227 1741q0 47 30 76.5t77 29.5t76.5 -29.5 t29.5 -76.5q0 -45 -29.5 -76t-76.5 -31t-77 31t-30 76z" />
<glyph unicode="&#x4e5;" horiz-adv-x="1171" d="M74 549q55 166 134 275.5t171 109.5q55 0 93 -49t38 -148q0 -45 -12.5 -107.5t-28.5 -101.5l-131 -305q-10 -23 -21.5 -59.5t-11.5 -61.5q0 -29 11.5 -47t33.5 -18q123 0 260 231q82 139 146.5 276.5t91.5 229.5l41 135h135l-172 -635q-31 -123 -31 -174q0 -29 8.5 -42 t30.5 -13q57 0 115.5 95.5t105.5 232.5l41 -13q-135 -385 -301 -385q-119 0 -119 209q0 41 19.5 126t34.5 122l-6 6l-29 -51q-90 -174 -183.5 -293t-205.5 -119q-62 0 -97.5 50.5t-35.5 146.5q0 45 12 109.5t29 99.5l131 305q10 23 21 59.5t11 61.5q0 29 -12 47t-35 18 q-70 0 -133 -106.5t-108 -228.5zM481 1221q0 41 29 69.5t70 28.5q39 0 68.5 -28.5t29.5 -69.5q0 -39 -29.5 -69t-68.5 -30q-41 0 -70 30t-29 69zM866 1221q0 41 29 69.5t70 28.5q39 0 68.5 -28.5t29.5 -69.5q0 -39 -29.5 -69t-68.5 -30q-41 0 -70 30t-29 69z" />
<glyph unicode="&#x4e6;" horiz-adv-x="1454" d="M188 508q0 266 115 493.5t297 360.5t371 133q131 0 229 -74.5t151.5 -199.5t53.5 -275q0 -266 -114.5 -492.5t-297 -358.5t-370.5 -132q-131 0 -229.5 74t-152 197.5t-53.5 273.5zM385 393q0 -178 66.5 -271t187.5 -93q174 0 292 143t187 336q55 156 72.5 303t17.5 254 q0 178 -66.5 271.5t-187.5 93.5q-174 0 -291.5 -143.5t-187.5 -336.5q-55 -156 -72.5 -303t-17.5 -254zM696 1741q0 47 30 76.5t77 29.5q45 0 75.5 -29.5t30.5 -76.5q0 -45 -30.5 -76t-75.5 -31q-47 0 -77 31t-30 76zM1114 1741q0 47 30 76.5t77 29.5t76.5 -29.5t29.5 -76.5 q0 -45 -29.5 -76t-76.5 -31t-77 31t-30 76z" />
<glyph unicode="&#x4e7;" horiz-adv-x="946" d="M106 336q0 143 69 282.5t183.5 227.5t243.5 88q70 0 131.5 -40t100 -122t38.5 -199q0 -143 -67.5 -282t-181 -227.5t-242.5 -88.5q-70 0 -132.5 40t-102.5 122t-40 199zM254 213q0 -84 35 -136t100 -52q82 0 137.5 65.5t102.5 175.5q43 100 69.5 217t26.5 213 q0 84 -33 136.5t-98 52.5q-82 0 -139.5 -66.5t-104.5 -175.5q-43 -100 -69.5 -217t-26.5 -213zM389 1221q0 41 29 69.5t70 28.5q39 0 68.5 -28.5t29.5 -69.5q0 -39 -29.5 -69t-68.5 -30q-41 0 -70 30t-29 69zM774 1221q0 41 29 69.5t70 28.5q39 0 68.5 -28.5t29.5 -69.5 q0 -39 -29.5 -69t-68.5 -30q-41 0 -70 30t-29 69z" />
<glyph unicode="&#x4e8;" horiz-adv-x="1454" d="M188 508q0 266 115 493.5t297 360.5t371 133q131 0 229 -74.5t151.5 -199.5t53.5 -275q0 -266 -114.5 -492.5t-297 -358.5t-370.5 -132q-131 0 -229.5 74t-152 197.5t-53.5 273.5zM385 393q0 -178 66.5 -271t187.5 -93q174 0 292 143t187 336q35 102 53 192h-759 q-27 -156 -27 -307zM422 758h760q27 156 26 307q0 178 -66.5 271.5t-187.5 93.5q-174 0 -291.5 -143.5t-187.5 -336.5q-35 -102 -53 -192z" />
<glyph unicode="&#x4e9;" horiz-adv-x="946" d="M106 336q0 143 69 282.5t183.5 227.5t243.5 88q70 0 131.5 -40t100 -122t38.5 -199q0 -143 -67.5 -282t-181 -227.5t-242.5 -88.5q-70 0 -132.5 40t-102.5 122t-40 199zM254 213q0 -84 35 -136t100 -52q82 0 137.5 65.5t102.5 175.5q33 74 53 156h-401q-27 -119 -27 -209 zM297 487h401q27 121 27 209q0 84 -33 136.5t-98 52.5q-82 0 -139.5 -66.5t-104.5 -175.5q-33 -74 -53 -156z" />
<glyph unicode="&#x4ee;" horiz-adv-x="1597" d="M238 225q0 80 51 146.5t137 66.5q53 0 88 -38t35 -91q0 -57 -36 -93t-87 -36q-31 0 -45 -14q-12 -20 -12 -45q0 -43 40 -67.5t89 -24.5q74 0 131 40t119 138l71 108l-237 988q-14 51 -38 70.5t-69 19.5h-147l16 65h647l-16 -65h-111q-92 0 -92 -70q0 -6 4 -27l178 -776 l414 617q25 37 40 85t15 76q0 45 -24.5 70t-83.5 25h-119l16 65h607l-17 -65h-86q-63 0 -104 -38t-90 -112l-686 -1034q-74 -113 -150 -179.5t-190 -66.5q-101 0 -179.5 63.5t-78.5 198.5zM789 1683l20 82h643l-20 -82h-643z" />
<glyph unicode="&#x4ef;" horiz-adv-x="1048" d="M49 -307q0 57 34 90t77 33q39 0 60.5 -26t21.5 -56q0 -51 -39 -82q-10 -10 -14.5 -18.5t-4.5 -26.5q0 -66 88 -66q72 0 123 23.5t103 87.5q51 63 80.5 142t54.5 173l88 330l-12 4q-66 -133 -164.5 -229.5t-188.5 -96.5q-68 0 -112.5 51.5t-44.5 145.5q0 45 12 109.5 t29 99.5l131 305q10 23 21 59.5t11 61.5q0 29 -12 47t-35 18q-70 0 -133 -106.5t-108 -228.5l-41 12q55 166 134 275.5t171 109.5q55 0 93 -49t38 -148q0 -45 -12.5 -107.5t-28.5 -101.5l-131 -305q-10 -23 -21.5 -59.5t-11.5 -61.5q0 -78 72 -77q76 0 166 103t166.5 253.5 t113.5 282.5l68 245h135l-242 -909q-25 -88 -77 -195.5t-127 -185.5q-66 -68 -142 -97.5t-143 -29.5q-111 0 -178.5 53.5t-67.5 147.5zM424 1118l21 82h643l-21 -82h-643z" />
<glyph unicode="&#x4f0;" horiz-adv-x="1597" d="M238 225q0 80 51 146.5t137 66.5q53 0 88 -38t35 -91q0 -57 -36 -93t-87 -36q-31 0 -45 -14q-12 -20 -12 -45q0 -43 40 -67.5t89 -24.5q74 0 131 40t119 138l71 108l-237 988q-14 51 -38 70.5t-69 19.5h-147l16 65h647l-16 -65h-111q-92 0 -92 -70q0 -6 4 -27l178 -776 l414 617q25 37 40 85t15 76q0 45 -24.5 70t-83.5 25h-119l16 65h607l-17 -65h-86q-63 0 -104 -38t-90 -112l-686 -1034q-74 -113 -150 -179.5t-190 -66.5q-101 0 -179.5 63.5t-78.5 198.5zM809 1741q0 47 30 76.5t77 29.5q45 0 75.5 -29.5t30.5 -76.5q0 -45 -30.5 -76 t-75.5 -31q-47 0 -77 31t-30 76zM1227 1741q0 47 30 76.5t77 29.5t76.5 -29.5t29.5 -76.5q0 -45 -29.5 -76t-76.5 -31t-77 31t-30 76z" />
<glyph unicode="&#x4f1;" horiz-adv-x="1048" d="M49 -307q0 57 34 90t77 33q39 0 60.5 -26t21.5 -56q0 -51 -39 -82q-10 -10 -14.5 -18.5t-4.5 -26.5q0 -66 88 -66q72 0 123 23.5t103 87.5q51 63 80.5 142t54.5 173l88 330l-12 4q-66 -133 -164.5 -229.5t-188.5 -96.5q-68 0 -112.5 51.5t-44.5 145.5q0 45 12 109.5 t29 99.5l131 305q10 23 21 59.5t11 61.5q0 29 -12 47t-35 18q-70 0 -133 -106.5t-108 -228.5l-41 12q55 166 134 275.5t171 109.5q55 0 93 -49t38 -148q0 -45 -12.5 -107.5t-28.5 -101.5l-131 -305q-10 -23 -21.5 -59.5t-11.5 -61.5q0 -78 72 -77q76 0 166 103t166.5 253.5 t113.5 282.5l68 245h135l-242 -909q-25 -88 -77 -195.5t-127 -185.5q-66 -68 -142 -97.5t-143 -29.5q-111 0 -178.5 53.5t-67.5 147.5zM460 1221q0 41 29 69.5t70 28.5q39 0 68.5 -28.5t29.5 -69.5q0 -39 -29.5 -69t-68.5 -30q-41 0 -70 30t-29 69zM845 1221q0 41 29 69.5 t70 28.5q39 0 68.5 -28.5t29.5 -69.5q0 -39 -29.5 -69t-68.5 -30q-41 0 -70 30t-29 69z" />
<glyph unicode="&#x4f2;" horiz-adv-x="1597" d="M238 225q0 80 51 146.5t137 66.5q53 0 88 -38t35 -91q0 -57 -36 -93t-87 -36q-31 0 -45 -14q-12 -20 -12 -45q0 -43 40 -67.5t89 -24.5q74 0 131 40t119 138l71 108l-237 988q-14 51 -38 70.5t-69 19.5h-147l16 65h647l-16 -65h-111q-92 0 -92 -70q0 -6 4 -27l178 -776 l414 617q25 37 40 85t15 76q0 45 -24.5 70t-83.5 25h-119l16 65h607l-17 -65h-86q-63 0 -104 -38t-90 -112l-686 -1034q-74 -113 -150 -179.5t-190 -66.5q-101 0 -179.5 63.5t-78.5 198.5zM929 1583l189 272q27 37 49.5 51.5t50.5 14.5q27 0 42.5 -17.5t15.5 -45.5 q0 -47 -58 -91l-262 -206zM1247 1583l188 272q27 37 49.5 51.5t51.5 14.5q27 0 42 -17.5t15 -45.5q0 -47 -57 -91l-263 -206z" />
<glyph unicode="&#x4f3;" horiz-adv-x="1048" d="M49 -307q0 57 34 90t77 33q39 0 60.5 -26t21.5 -56q0 -51 -39 -82q-10 -10 -14.5 -18.5t-4.5 -26.5q0 -66 88 -66q72 0 123 23.5t103 87.5q51 63 80.5 142t54.5 173l88 330l-12 4q-66 -133 -164.5 -229.5t-188.5 -96.5q-68 0 -112.5 51.5t-44.5 145.5q0 45 12 109.5 t29 99.5l131 305q10 23 21 59.5t11 61.5q0 29 -12 47t-35 18q-70 0 -133 -106.5t-108 -228.5l-41 12q55 166 134 275.5t171 109.5q55 0 93 -49t38 -148q0 -45 -12.5 -107.5t-28.5 -101.5l-131 -305q-10 -23 -21.5 -59.5t-11.5 -61.5q0 -78 72 -77q76 0 166 103t166.5 253.5 t113.5 282.5l68 245h135l-242 -909q-25 -88 -77 -195.5t-127 -185.5q-66 -68 -142 -97.5t-143 -29.5q-111 0 -178.5 53.5t-67.5 147.5zM543 1063l189 272q27 37 49 51.5t51 14.5q27 0 42 -17.5t15 -46.5q0 -47 -57 -90l-262 -207zM820 1063l188 272q27 37 49.5 51.5 t50.5 14.5q27 0 42.5 -17.5t15.5 -46.5q0 -47 -58 -90l-262 -207z" />
<glyph unicode="&#x4f4;" horiz-adv-x="1474" d="M283 1393l16 65h606l-16 -65h-156q-29 0 -45 -13.5t-24 -42.5l-99 -366q-20 -76 -20 -107q0 -88 36.5 -132t135.5 -44q193 0 342 115l147 534q4 20 4 25q0 31 -43 31h-155l16 65h606l-16 -65h-156q-29 0 -44 -13.5t-25 -42.5l-330 -1216q-4 -16 -4 -23q0 -33 43 -32h205 l-17 -66h-733l16 66h230q59 0 74 55l165 610q-49 -39 -146 -73.5t-200 -34.5q-156 0 -243.5 71.5t-87.5 188.5q0 31 10 71l102 383q4 16 4 23q0 33 -43 33h-155zM698 1741q0 47 30 76.5t77 29.5q45 0 75.5 -29.5t30.5 -76.5q0 -45 -30.5 -76t-75.5 -31q-47 0 -77 31t-30 76z M1116 1741q0 47 30 76.5t77 29.5t76.5 -29.5t29.5 -76.5q0 -45 -29.5 -76t-76.5 -31t-77 31t-30 76z" />
<glyph unicode="&#x4f5;" horiz-adv-x="1124" d="M74 549q55 156 126.5 270.5t174.5 114.5q39 0 68.5 -27.5t39.5 -60.5q12 -43 13 -101q0 -43 -45 -182q-41 -127 -41 -164q0 -35 14 -55t41 -20q55 0 120.5 59t120 146t78.5 167l60 213h135l-172 -626q-33 -131 -33 -183q0 -29 8.5 -42t30.5 -13q57 0 115.5 95.5 t105.5 232.5l41 -13q-55 -156 -126.5 -270.5t-174.5 -114.5q-119 0 -119 209q0 41 21 123l45 170l-10 4q-51 -86 -126 -146.5t-157 -60.5q-66 0 -101.5 41t-35.5 113q0 55 41 178q45 135 45 199q0 59 -41 59q-57 0 -115.5 -95t-105.5 -232zM432 1221q0 41 29 69.5t70 28.5 q39 0 68.5 -28.5t29.5 -69.5q0 -39 -29.5 -69t-68.5 -30q-41 0 -70 30t-29 69zM817 1221q0 41 29 69.5t70 28.5q39 0 68.5 -28.5t29.5 -69.5q0 -39 -29.5 -69t-68.5 -30q-41 0 -70 30t-29 69z" />
<glyph unicode="&#x4f6;" horiz-adv-x="1343" d="M-20 0l16 66h154q55 0 69 55l332 1216q4 16 4 25q0 31 -43 31h-156l17 65h1081l-129 -549h-51q2 8 7 34t11 72t6 91q0 137 -49 212t-172 75h-270q-55 0 -70 -56l-323 -1190q-4 -14 -4 -38q0 -37 19.5 -54.5t62.5 -17.5h200l-135 -500h-51q4 16 13 68.5t9 91.5 q0 102 -11 162.5t-58 100.5t-144 40h-335z" />
<glyph unicode="&#x4f7;" horiz-adv-x="860" d="M106 188q0 115 95.5 185.5t234.5 126.5q90 37 146.5 90t56.5 147q0 57 -29.5 92t-95.5 35q-92 0 -172 -74.5t-127 -171.5l-41 13q53 117 148.5 210t218.5 93q117 0 181 -55.5t64 -135.5q0 -104 -88 -170.5t-239 -130.5q-98 -43 -151.5 -98t-53.5 -166q0 -63 37 -98 t98 -35q105 0 186.5 79t131.5 191l41 -12q-70 -154 -164 -237q-29 -35 -37 -92.5t-8 -103.5v-60v-58q0 -125 -90.5 -182t-225.5 -57l8 49q51 0 86 8t58 37q20 25 26.5 56.5t6.5 78.5q0 68 22.5 123t61.5 117l-13 18q-55 -25 -123 -25q-113 0 -181.5 55.5t-68.5 157.5z" />
<glyph unicode="&#x4f8;" horiz-adv-x="1945" d="M-20 0l16 66h156q29 0 45 12t24 41l330 1218q4 16 4 25q0 31 -43 31h-156l17 65h606l-16 -65h-154q-57 0 -72 -56l-143 -530h315q182 0 271.5 -97.5t89.5 -242.5q0 -127 -80 -234.5t-206 -170t-257 -62.5h-747zM406 98q0 -33 43 -32h262q98 0 181 54t132 146t49 197 q0 137 -43 207.5t-172 70.5h-285l-163 -620q-4 -16 -4 -23zM962 1741q0 47 30 76.5t77 29.5q45 0 75.5 -29.5t30.5 -76.5q0 -45 -30.5 -76t-75.5 -31q-47 0 -77 31t-30 76zM1106 0l16 66h156q55 0 70 55l329 1216q4 16 4 25q0 31 -43 31h-155l16 65h606l-16 -65h-156 q-55 0 -69 -56l-330 -1216q-4 -16 -4 -23q0 -33 43 -32h156l-17 -66h-606zM1380 1741q0 47 30 76.5t77 29.5t76.5 -29.5t29.5 -76.5q0 -45 -29.5 -76t-76.5 -31t-77 31t-30 76z" />
<glyph unicode="&#x4f9;" horiz-adv-x="1396" d="M74 549q55 164 135 274.5t172 110.5q121 0 121 -174q0 -41 -9.5 -75t-27.5 -85l-21 -57l9 -6q43 33 80.5 46t76.5 13q111 0 172.5 -58.5t61.5 -160.5t-60.5 -194.5t-154.5 -150t-193 -57.5q-67 0 -118.5 34t-80 88.5t-28.5 113.5q0 113 43 221l98 254q41 90 41 137 q0 25 -5 37t-28 12q-70 0 -134 -106.5t-109 -228.5zM319 147q0 -55 36 -88.5t100 -33.5q57 0 113.5 53t92 140t35.5 183q0 145 -108 146q-45 0 -96.5 -32t-90.5 -85l-49 -137q-33 -98 -33 -146zM553 1221q0 41 29 69.5t70 28.5q39 0 68.5 -28.5t29.5 -69.5q0 -39 -29.5 -69 t-68.5 -30q-41 0 -70 30t-29 69zM928 184q0 41 20 123l166 602h135l-170 -626q-33 -131 -32 -183q0 -29 8 -42t30 -13q57 0 116 95.5t106 232.5l41 -13q-55 -156 -127 -270.5t-174 -114.5q-119 0 -119 209zM938 1221q0 41 29 69.5t70 28.5q39 0 68.5 -28.5t29.5 -69.5 q0 -39 -29.5 -69t-68.5 -30q-41 0 -70 30t-29 69z" />
<glyph unicode="&#x2000;" horiz-adv-x="971" />
<glyph unicode="&#x2001;" horiz-adv-x="1942" />
<glyph unicode="&#x2002;" horiz-adv-x="971" />
<glyph unicode="&#x2003;" horiz-adv-x="1942" />
<glyph unicode="&#x2004;" horiz-adv-x="647" />
<glyph unicode="&#x2005;" horiz-adv-x="485" />
<glyph unicode="&#x2006;" horiz-adv-x="323" />
<glyph unicode="&#x2007;" horiz-adv-x="323" />
<glyph unicode="&#x2008;" horiz-adv-x="242" />
<glyph unicode="&#x2009;" horiz-adv-x="388" />
<glyph unicode="&#x200a;" horiz-adv-x="107" />
<glyph unicode="&#x2010;" horiz-adv-x="757" d="M115 401q0 72 36.5 122t102.5 50h360q31 0 44.5 13.5t13.5 44.5h37q0 -72 -37 -122t-103 -50h-360q-31 0 -44 -13.5t-13 -44.5h-37z" />
<glyph unicode="&#x2011;" horiz-adv-x="757" d="M115 401q0 72 36.5 122t102.5 50h360q31 0 44.5 13.5t13.5 44.5h37q0 -72 -37 -122t-103 -50h-360q-31 0 -44 -13.5t-13 -44.5h-37z" />
<glyph unicode="&#x2012;" horiz-adv-x="757" d="M115 401q0 72 36.5 122t102.5 50h360q31 0 44.5 13.5t13.5 44.5h37q0 -72 -37 -122t-103 -50h-360q-31 0 -44 -13.5t-13 -44.5h-37z" />
<glyph unicode="&#x2013;" horiz-adv-x="1269" d="M172 500v73h1024v-73h-1024z" />
<glyph unicode="&#x2014;" horiz-adv-x="2048" d="M188 479v74h1803v-74h-1803z" />
<glyph unicode="&#x2018;" horiz-adv-x="573" d="M303 1030q0 195 104.5 307.5t215.5 157.5l16 -33q-100 -51 -176 -128t-76 -173q0 -31 19 -47q16 -14 59 -14t69.5 -33t26.5 -74q0 -59 -34.5 -94t-90.5 -35q-63 0 -98 53.5t-35 112.5z" />
<glyph unicode="&#x2019;" horiz-adv-x="573" d="M295 897q100 51 176 128t76 173q0 31 -19 47q-16 14 -59 15q-43 0 -69.5 32.5t-26.5 73.5q0 59 34.5 94t90.5 35q63 0 98 -53t35 -113q0 -195 -104.5 -307.5t-215.5 -157.5z" />
<glyph unicode="&#x201a;" horiz-adv-x="573" d="M45 -311q100 51 176 128t76 173q0 31 -18 47q-16 14 -60 14q-43 0 -69.5 33t-26.5 74q0 59 35 94t90 35q63 0 98 -53.5t35 -112.5q0 -195 -104.5 -307.5t-215.5 -157.5z" />
<glyph unicode="&#x201c;" horiz-adv-x="901" d="M303 1030q0 195 104.5 307.5t215.5 157.5l16 -33q-100 -51 -176 -128t-76 -173q0 -31 19 -47q16 -14 59 -14t69.5 -33t26.5 -74q0 -59 -34.5 -94t-90.5 -35q-63 0 -98 53.5t-35 112.5zM631 1030q0 195 104.5 307.5t214.5 157.5l17 -33q-100 -51 -176 -128t-76 -173 q0 -31 18 -47q16 -14 60 -14q43 0 69.5 -33t26.5 -74q0 -59 -35 -94t-90 -35q-64 0 -98.5 53.5t-34.5 112.5z" />
<glyph unicode="&#x201d;" horiz-adv-x="901" d="M295 897q100 51 176 128t76 173q0 31 -19 47q-16 14 -59 15q-43 0 -69.5 32.5t-26.5 73.5q0 59 34.5 94t90.5 35q63 0 98 -53t35 -113q0 -195 -104.5 -307.5t-215.5 -157.5zM623 897q100 51 175.5 128t75.5 173q0 31 -18 47q-16 14 -59 15q-43 0 -70 32.5t-27 73.5 q0 59 35 94t90 35q63 0 98 -53t35 -113q0 -195 -104 -307.5t-215 -157.5z" />
<glyph unicode="&#x201e;" horiz-adv-x="901" d="M45 -311q100 51 176 128t76 173q0 31 -18 47q-16 14 -60 14q-43 0 -69.5 33t-26.5 74q0 59 35 94t90 35q63 0 98 -53.5t35 -112.5q0 -195 -104.5 -307.5t-215.5 -157.5zM356 -311q100 51 176 128t76 173q0 31 -18 47q-16 14 -60 14q-43 0 -69.5 33t-26.5 74q0 59 35 94 t90 35q63 0 98 -53.5t35 -112.5q0 -195 -104.5 -307.5t-214.5 -157.5z" />
<glyph unicode="&#x2022;" horiz-adv-x="1024" d="M360 725q0 98 68 165.5t166 67.5t165.5 -67.5t67.5 -165.5t-67.5 -165.5t-165.5 -67.5t-166 67.5t-68 165.5z" />
<glyph unicode="&#x2026;" horiz-adv-x="1720" d="M123 102q0 55 36 91t91 36t91 -35.5t36 -91.5q0 -55 -36 -91t-91 -36t-91 36t-36 91zM696 102q0 55 36 91t91 36t91 -35.5t36 -91.5q0 -55 -35.5 -91t-91.5 -36q-55 0 -91 36t-36 91zM1270 102q0 55 35.5 91t91.5 36q55 0 91 -35.5t36 -91.5q0 -55 -36 -91t-91 -36 q-56 0 -91.5 36t-35.5 91z" />
<glyph unicode="&#x202f;" horiz-adv-x="388" />
<glyph unicode="&#x2039;" horiz-adv-x="675" d="M111 467q96 72 185 149.5t230 208.5l78 72l23 -20l-332 -410l111 -410l-35 -20l-39 72q-72 133 -118 209.5t-103 148.5z" />
<glyph unicode="&#x203a;" horiz-adv-x="675" d="M66 57l331 410l-110 410l35 20l38 -72q72 -133 118 -209.5t104 -148.5q-96 -72 -185.5 -149.5t-230.5 -208.5l-78 -72z" />
<glyph unicode="&#x205f;" horiz-adv-x="485" />
<glyph unicode="&#x20ac;" d="M76 586l28 65h62q10 41 35 115h-76l29 65h71q68 172 179.5 309.5t247.5 215.5t276 78q74 0 136 -30t120 -89q18 -23 35 -23q51 0 77 127h47l-110 -450h-49q0 129 -45 225q-37 80 -95.5 127t-132.5 47q-145 0 -268 -142.5t-203 -394.5h502l-31 -65h-491q-29 -78 -35 -115 h473l-29 -65h-458q-33 -119 -33 -238q0 -145 60.5 -230t174.5 -85q135 0 246 100t178 234l54 -17q-72 -154 -198 -268.5t-296 -114.5q-205 0 -310.5 126t-105.5 337q0 92 15 156h-80z" />
<glyph unicode="&#x2122;" horiz-adv-x="1986" d="M266 1102l15 360h727l12 -360h-41q0 14 -15.5 80.5t-45.5 128.5q-27 51 -61 76.5t-95 25.5q-25 0 -35 -10t-10 -35v-651q0 -25 10 -35t35 -10h86v-49h-410v49h86q25 0 35 10t10 35v651q0 25 -10 35t-35 10q-61 0 -95 -25.5t-60 -76.5q-31 -61 -46.5 -128t-15.5 -81h-41z M1159 623v49h41q45 0 61.5 27.5t16.5 82.5v586q0 25 -10.5 35t-34.5 10h-74v49h283l209 -604l190 604h293v-49h-74q-25 0 -35 -10t-10 -35v-651q0 -25 10.5 -35t34.5 -10h74v-49h-385v49h74q25 0 35 10t10 35v639l-246 -750h-37l-250 717v-541q0 -55 16.5 -82.5t61.5 -27.5 h41v-49h-295z" />
<glyph unicode="&#x25fc;" horiz-adv-x="931" d="M0 0v932h932v-932h-932z" />
</font>
</defs>
</svg>
